<svg id="Layer_1" data-name="Layer 1" xmlns="http://www.w3.org/2000/svg" viewBox="0 0 36.93 45.68"><defs><style>.cls-1{fill:none;}</style></defs><title>favicon</title><path class="cls-1" d="M17.81,6.91l.08.07a11.12,11.12,0,0,0-.55,1.09,1.05,1.05,0,0,1-1,.78,4.6,4.6,0,0,0-1.13.36A7,7,0,0,1,17.81,6.91Zm2.09,6.63a.67.67,0,0,1,.12.18l-.84-.22a9.3,9.3,0,0,0-1-.25,1,1,0,0,0-.46.13c-.06,0-.1.11-.13.17a1.33,1.33,0,0,1-2.12.49l-.21-.14a10,10,0,0,1-2.69,1.51l-.08-.09a13.17,13.17,0,0,1,.93-1.05,11.17,11.17,0,0,1,1-.82c.16-.12.26-.21.15-.43a1.71,1.71,0,0,1-.05-.56l.27.31a.77.77,0,0,0,1.05.19,5.29,5.29,0,0,0,.87-.62.92.92,0,0,1,1.21-.15C18.58,12.63,19.24,13.09,19.9,13.54Z" transform="translate(-5.07 -1)"/><path d="M30.75,34.29c-.14.15-.28.29-.41.44-1.14,1.26-4.67,5.31-5.05,7A3,3,0,0,0,25.5,44a1.27,1.27,0,0,1,.06.28l-.07,0c-.39-.22-.8-.43-1.18-.68a16.09,16.09,0,0,1-1.52-1.08,10,10,0,0,1-3.73-5.71,7.65,7.65,0,0,1,.3-4.29,10.6,10.6,0,0,1,3-4.25c0-.05.13-.08.21-.14,0,.35,0,.66,0,1,0,.67.5,1.11,1,1a4,4,0,0,0,1-.4,11.17,11.17,0,0,0,5.3-7.82,6.11,6.11,0,0,0-.6-4.07c-.61-1.07-1.34-2.07-2-3.1-.26-.39-.54-.76-.81-1.14a9.7,9.7,0,0,1,5.11,3.76,6.61,6.61,0,0,0-.11-1.1,6.92,6.92,0,0,0-2-3.93.41.41,0,0,1-.09-.58c.24-.45.45-.92.72-1.36a4.28,4.28,0,0,1,1.69-1.71,5.09,5.09,0,0,1,.89-.26l-.3-.25a9.12,9.12,0,0,0-4.62-1.77,13.45,13.45,0,0,0-1.68,0,5.59,5.59,0,0,0-1.16.18l-5,2.25.31,0a1.35,1.35,0,0,1,1.18.51,2.12,2.12,0,0,0,1.95,1l-.82,1.89a3,3,0,0,0,2.32-1c0,.33-.11.63-.15.93a5.34,5.34,0,0,0,1,3.86c.64.91,1.29,1.8,1.88,2.74a6.63,6.63,0,0,1,.88,4.4,5.1,5.1,0,0,1-.3,1.13,5.66,5.66,0,0,1-1.5,2.12c-.5.48-1,1-1.53,1.5,0-.11,0-.16.05-.21.38-1.05.76-2.1,1.13-3.16a1.47,1.47,0,0,0,0-1.05c-.12.14-.19.23-.27.31a20.08,20.08,0,0,1-1.77,1.8c-.79.63-1.7,1.13-2.55,1.7a9.8,9.8,0,0,0-2.91,2.86,14.57,14.57,0,0,0-1.6,3.58l-.3,1h-.11c-.11-.62-.24-1.24-.31-1.87a7.12,7.12,0,0,1,.88-4.38,10.38,10.38,0,0,1,2.81-3.09A14.52,14.52,0,0,0,22.85,23a6.31,6.31,0,0,0,1.25-2.25A6,6,0,0,0,24,18.12a7.52,7.52,0,0,0-.3-1c-.09.35-.16.6-.23.86a13.22,13.22,0,0,1-1.36,3.57,4.63,4.63,0,0,1-3.42,2.26,3,3,0,0,1-.43,0l.23-.18c.37-.3.75-.59,1.1-.91a1.24,1.24,0,0,0,.5-.92,3,3,0,0,1,.27-1.32c.11-.27.25-.6-.05-.82a4.51,4.51,0,0,0-.8-.36,1.84,1.84,0,0,1-1.62,1.41l-1.23.17L15.21,21c0,.06.07.1.11.12.31.14.65.25.95.41,1,.53,1.19,1.37.52,2.15a2.1,2.1,0,0,1-1.71.69,7.22,7.22,0,0,1-3.25-.86c-.74-.37-1.44-.79-2.19-1.14a5.38,5.38,0,0,0-1.95-.48l.24,1-.56,0c.07-.4-.56-1.26-.31-2.39l.56.41a.5.5,0,0,0,.79-.11,2.8,2.8,0,0,0,.31-.48,1.42,1.42,0,0,1,1.52-.8.55.55,0,0,0,.43-.18,1.06,1.06,0,0,0,.2-.92c-.44.14-.85.31-1.28.42a3,3,0,0,1-1.84,0,3.11,3.11,0,0,0-1-.15,5.42,5.42,0,0,0-.86.07c0-.17.06-.31.1-.45a3.55,3.55,0,0,1,1.11-1.51A20.8,20.8,0,0,1,11,13.93a5.55,5.55,0,0,1,2.2-1,1.29,1.29,0,0,0,.35-.18c-.21-.23-.37-.43-.56-.61-.51-.47-.41-.78,0-1.28a1.3,1.3,0,0,1,.31-.31,1.32,1.32,0,0,0,.7-1.46.48.48,0,0,1,0-.12,5.55,5.55,0,0,1,1.53-3.5,10.15,10.15,0,0,1,3.2-2.06c.44-.2.9-.37,1.35-.56a.38.38,0,0,1-.07.26A4.41,4.41,0,0,0,19,5.3c-.05.65,0,.71.64.58a.65.65,0,0,0,.19,0c1.53-.65,3.07-1.29,4.6-1.95a17.49,17.49,0,0,1,4-1.3,8.91,8.91,0,0,1,5.14.73,17,17,0,0,1,3.35,2,17.62,17.62,0,0,1,2.86,2.59h0s.49.62,1.06,1.44H42c-.11-.21-.23-.41-.35-.61h0l-.24-.33-.15-.21h0c-.33-.46-.67-.93-1-1.36A17.54,17.54,0,0,0,30.9,1.24a7.13,7.13,0,0,0-4,.09,23.86,23.86,0,0,0-4.59,2.19l-1.56.94-.07-.08c.52-1.54,1.88-2.27,3.15-3.15l-.24,0a10.71,10.71,0,0,0-3.29.5,20.61,20.61,0,0,0-5.23,2.44,3.55,3.55,0,0,0-1.77,2.46c-.06.32-.11.64-.17,1A5.8,5.8,0,0,0,11.59,6c0,.16.06.27.1.38a10,10,0,0,1,.63,3.29.64.64,0,0,1-.08.36,5,5,0,0,0-.55,1.81.68.68,0,0,1-.34.53c-.81.51-1.61,1-2.4,1.53a9.64,9.64,0,0,0-3.72,4.2A1.25,1.25,0,0,0,6.12,20c.33.08.35.21.3.48a5.14,5.14,0,0,0-.1,1.17c0,.43.1.9.62,1.07a.16.16,0,0,1,.09.12c.11.27.21.55.3.83a.79.79,0,0,1,0,.4c-.06.27-.18.54-.24.82a15.92,15.92,0,0,0-.31,1.81,1.7,1.7,0,0,0,.24,1A5.26,5.26,0,0,0,8.12,28.8c.73.55,1.52,1,2.27,1.54A2,2,0,0,1,11.45,32a4.7,4.7,0,0,0,.13.75,12.23,12.23,0,0,0,1.64,4.07,15.63,15.63,0,0,0,5.91,5.36l.89.45-.38-1.56.1,0a15,15,0,0,0,3.57,3.27,25.55,25.55,0,0,0,4.31,2.37c-.15-.34-.28-.6-.39-.87A6.07,6.07,0,0,1,26.67,43a4.82,4.82,0,0,1,1-2.61c.62-.83,3.79-4.34,4.46-5.13l-.74-.51ZM27,8.39a7.63,7.63,0,0,0-1.5.21c-.47.1-.92.26-1.38.38a.35.35,0,0,1-.25,0c-.25-.22-.49-.45-.77-.71a7,7,0,0,1,2.28-.82,9.69,9.69,0,0,1,1.93-.17,3.76,3.76,0,0,1,1.29.35.89.89,0,0,1,.51.82,4.82,4.82,0,0,1-.44,2.25c-.27.63-.62,1.23-.93,1.84a1.14,1.14,0,0,1-.19.2l-1.45-1.36c.25-.34.53-.68.76-1.05a5.93,5.93,0,0,0,.63-1.16C27.63,8.64,27.56,8.4,27,8.39ZM9.76,28.27c-.27-.47-.55-.93-.83-1.4H8.87l.29,1.63a2,2,0,0,1-1.31-2.24c.14-.61.32-1.2.46-1.81s.21-1,.32-1.55c.61.26,1.21.47,1.79.75a8,8,0,0,1,2.81,2.1,1.65,1.65,0,0,1,.31,1.52.85.85,0,0,1-.55.57c-.61.27-.71.48-.49,1.12L13,30.3c-.41-.09-.78-.18-1.15-.25A3.07,3.07,0,0,1,9.76,28.27ZM18,39.87a10.76,10.76,0,0,1-4-3.51,7.21,7.21,0,0,1-1.17-2.85,4.67,4.67,0,0,1,.58-2.66,13.51,13.51,0,0,1,2.32-3.29.67.67,0,0,1,.18-.12c-1.72,4.61-1.14,8.77,2.23,12.45C18.09,39.88,18,39.9,18,39.87Z" transform="translate(-5.07 -1)"/><path d="M16.7,12.34a5.29,5.29,0,0,1-.87.62.77.77,0,0,1-1.05-.19l-.27-.31a1.71,1.71,0,0,0,.05.56c.11.22,0,.31-.15.43a11.17,11.17,0,0,0-1,.82,13.17,13.17,0,0,0-.93,1.05l.08.09a10,10,0,0,0,2.69-1.51l.21.14a1.33,1.33,0,0,0,2.12-.49c0-.06.07-.15.13-.17a1,1,0,0,1,.46-.13,9.3,9.3,0,0,1,1,.25l.84.22a.67.67,0,0,0-.12-.18c-.66-.45-1.32-.91-2-1.35A.92.92,0,0,0,16.7,12.34Z" transform="translate(-5.07 -1)"/><path d="M17.34,8.07A11.12,11.12,0,0,1,17.89,7l-.08-.07a7,7,0,0,0-2.62,2.3,4.6,4.6,0,0,1,1.13-.36A1.05,1.05,0,0,0,17.34,8.07Z" transform="translate(-5.07 -1)"/></svg>