<svg id="Layer_1" data-name="Layer 1" xmlns="http://www.w3.org/2000/svg" viewBox="0 0 12.87 15.92"><defs><style>.cls-1{fill:none;}</style></defs><title>favicon-16x16</title><path class="cls-1" d="M5.64,2.06l0,0c-.07.13-.14.25-.2.38a.36.36,0,0,1-.35.28,1.38,1.38,0,0,0-.4.12A2.52,2.52,0,0,1,5.64,2.06Zm.72,2.31s0,0,0,.06l-.3-.07a3.58,3.58,0,0,0-.35-.09.32.32,0,0,0-.16,0s0,0,0,.06a.46.46,0,0,1-.74.17l-.08,0A3.41,3.41,0,0,1,3.81,5l0,0,.32-.37c.11-.1.23-.19.35-.28s.09-.07,0-.15a.6.6,0,0,1,0-.2c0,.06.07.08.09.11A.27.27,0,0,0,5,4.17,3.3,3.3,0,0,0,5.25,4a.32.32,0,0,1,.42-.05C5.91,4.05,6.13,4.21,6.36,4.37Z" transform="translate(-1.2 0)"/><path d="M10.15,11.6l-.15.16A10.12,10.12,0,0,0,8.25,14.2a1,1,0,0,0,.07.79s0,.06,0,.09l0,0-.41-.23a6.42,6.42,0,0,1-.53-.38,3.58,3.58,0,0,1-1.3-2A2.65,2.65,0,0,1,6.18,11a3.66,3.66,0,0,1,1-1.48l.07,0v.34c0,.23.18.39.36.33A1,1,0,0,0,8,10,3.87,3.87,0,0,0,9.83,7.28a2.06,2.06,0,0,0-.21-1.42c-.21-.37-.46-.72-.7-1.08l-.29-.4A3.43,3.43,0,0,1,10.42,5.7c0-.14,0-.26,0-.39a2.43,2.43,0,0,0-.71-1.37.14.14,0,0,1,0-.2c.09-.16.16-.32.25-.47a1.48,1.48,0,0,1,.59-.6,1.81,1.81,0,0,1,.31-.09l-.1-.09a3.15,3.15,0,0,0-1.61-.61,3.87,3.87,0,0,0-.59,0,1.76,1.76,0,0,0-.4.06l-1.73.78h.11a.48.48,0,0,1,.41.18.75.75,0,0,0,.68.36l-.29.65a1,1,0,0,0,.81-.36c0,.12,0,.22-.05.33a1.84,1.84,0,0,0,.35,1.34c.22.32.45.63.66.95a2.37,2.37,0,0,1,.31,1.54,1.74,1.74,0,0,1-.11.39,1.85,1.85,0,0,1-.52.74l-.54.53a.45.45,0,0,0,0-.08c.13-.36.27-.73.4-1.1a.5.5,0,0,0,0-.36l-.1.1a6.05,6.05,0,0,1-.61.63c-.28.22-.59.39-.89.59a3.47,3.47,0,0,0-1,1,5.17,5.17,0,0,0-.55,1.25c0,.11-.07.23-.11.35h0c0-.22-.08-.44-.1-.66a2.44,2.44,0,0,1,.3-1.52,3.62,3.62,0,0,1,1-1.08,4.76,4.76,0,0,0,.94-.85,2.08,2.08,0,0,0,.44-.78,2.1,2.1,0,0,0,0-.9c0-.11-.07-.21-.11-.35a3.09,3.09,0,0,1-.08.3,5.1,5.1,0,0,1-.47,1.25A1.64,1.64,0,0,1,6,8H5.8s.07,0,.08-.07.27-.2.39-.31a.43.43,0,0,0,.17-.32,1,1,0,0,1,.1-.46c0-.1.08-.21,0-.29a1.18,1.18,0,0,0-.28-.12.66.66,0,0,1-.57.49c-.14,0-.28,0-.42.06L4.73,7l0,0,.33.15c.34.18.42.47.18.75a.77.77,0,0,1-.59.24,2.53,2.53,0,0,1-1.14-.31c-.25-.12-.5-.27-.76-.39a1.79,1.79,0,0,0-.68-.17l.08.35L2,7.62c0-.14-.2-.44-.11-.83l.2.14a.17.17,0,0,0,.27,0l.11-.16A.49.49,0,0,1,3,6.45a.25.25,0,0,0,.15-.06.38.38,0,0,0,.07-.33l-.45.15a1.07,1.07,0,0,1-.64,0,.91.91,0,0,0-.33,0,1.56,1.56,0,0,0-.3,0l0-.15a1.15,1.15,0,0,1,.39-.53,7.23,7.23,0,0,1,1.33-1A2,2,0,0,1,4,4.15s.07,0,.12-.06a2,2,0,0,0-.19-.21c-.18-.17-.14-.28,0-.45a.29.29,0,0,1,.11-.11.48.48,0,0,0,.24-.51v0a1.94,1.94,0,0,1,.53-1.22A3.58,3.58,0,0,1,5.94.83L6.41.64a.12.12,0,0,1,0,.09,1.53,1.53,0,0,0-.33.77c0,.22,0,.25.23.2h.06L8,1A6.13,6.13,0,0,1,9.34.55a3.14,3.14,0,0,1,1.79.26,6,6,0,0,1,1.17.7,6.12,6.12,0,0,1,1,.9h0s.18.22.37.5h.42L14,2.7h0a1,1,0,0,1-.08-.11l0-.07h0A4.29,4.29,0,0,0,13.45,2,6.18,6.18,0,0,0,10.2.08a2.44,2.44,0,0,0-1.39,0,7.56,7.56,0,0,0-1.6.76l-.54.33,0,0C6.82.64,7.3.39,7.74.08H7.65A4,4,0,0,0,6.51.25a7.26,7.26,0,0,0-1.83.85A1.24,1.24,0,0,0,4.07,2L4,2.31a2.1,2.1,0,0,0-.54-.57c0,.06,0,.1,0,.14A3.21,3.21,0,0,1,3.72,3a.19.19,0,0,1,0,.13,1.44,1.44,0,0,0-.19.63A.29.29,0,0,1,3.38,4l-.83.53A3.46,3.46,0,0,0,1.25,6a.44.44,0,0,0,.31.66c.12,0,.12.07.11.17a1.81,1.81,0,0,0,0,.4c0,.15,0,.32.22.38,0,0,0,0,0,0A2.47,2.47,0,0,1,2,7.9.22.22,0,0,1,2,8c0,.09-.06.18-.08.28A3.47,3.47,0,0,0,1.81,9a.57.57,0,0,0,.08.34,1.76,1.76,0,0,0,.37.4c.25.19.53.35.79.54a.69.69,0,0,1,.37.58c0,.08,0,.17,0,.26A4.25,4.25,0,0,0,4,12.48,5.3,5.3,0,0,0,6.1,14.35c.09.06.2.1.31.16L6.27,14l0,0A5.42,5.42,0,0,0,7.55,15.1a8.41,8.41,0,0,0,1.51.82l-.14-.3a2.24,2.24,0,0,1-.2-1,1.71,1.71,0,0,1,.34-.91c.22-.29,1.32-1.51,1.56-1.79l-.26-.18Zm-1.32-9a2.33,2.33,0,0,0-.53.07c-.16,0-.32.09-.48.13a.11.11,0,0,1-.08,0l-.27-.25a2.21,2.21,0,0,1,.79-.28,3.81,3.81,0,0,1,.67-.07,1.37,1.37,0,0,1,.45.13.29.29,0,0,1,.18.28,1.77,1.77,0,0,1-.15.79c-.1.22-.22.43-.33.64L9,4.08,8.51,3.6a3.38,3.38,0,0,0,.27-.36A2.67,2.67,0,0,0,9,2.83C9.06,2.66,9,2.58,8.83,2.58Zm-6,6.92c-.09-.16-.19-.32-.29-.48h0l.1.57a.7.7,0,0,1-.45-.78c0-.21.11-.42.16-.63s.07-.35.11-.54c.21.09.42.16.62.26a2.71,2.71,0,0,1,1,.73.57.57,0,0,1,.11.53.29.29,0,0,1-.19.2c-.22.09-.25.17-.17.39s.1.29.16.46l-.4-.09A1.06,1.06,0,0,1,2.83,9.5ZM5.7,13.55a3.72,3.72,0,0,1-1.38-1.23,2.4,2.4,0,0,1-.41-1,1.69,1.69,0,0,1,.2-.93,4.82,4.82,0,0,1,.81-1.14s0,0,.07,0a3.92,3.92,0,0,0,.77,4.33Z" transform="translate(-1.2 0)"/><path d="M5.25,4a3.3,3.3,0,0,1-.3.22.27.27,0,0,1-.37-.07s0,0-.09-.11a.6.6,0,0,0,0,.2c0,.08,0,.11,0,.15s-.24.18-.35.28L3.78,5l0,0a3.41,3.41,0,0,0,.93-.52l.08,0a.46.46,0,0,0,.74-.17s0,0,0-.06a.32.32,0,0,1,.16,0,3.58,3.58,0,0,1,.35.09l.3.07s0,0,0-.06c-.23-.16-.45-.32-.69-.47A.32.32,0,0,0,5.25,4Z" transform="translate(-1.2 0)"/><path d="M5.47,2.46c.06-.13.13-.25.2-.38l0,0a2.52,2.52,0,0,0-.92.8,1.38,1.38,0,0,1,.4-.12A.36.36,0,0,0,5.47,2.46Z" transform="translate(-1.2 0)"/></svg>