<?xml version="1.0" standalone="no"?>
<!DOCTYPE svg PUBLIC "-//W3C//DTD SVG 20010904//EN"
 "http://www.w3.org/TR/2001/REC-SVG-20010904/DTD/svg10.dtd">
<svg version="1.0" xmlns="http://www.w3.org/2000/svg"
 width="512.000000pt" height="512.000000pt" viewBox="0 0 512.000000 512.000000"
 preserveAspectRatio="xMidYMid meet">

<g transform="translate(0.000000,512.000000) scale(0.100000,-0.100000)"
fill="#000000" stroke="none">
<path d="M1445 3594 c-850 -252 -1094 -328 -1108 -345 -22 -27 -22 -71 1 -98
13 -17 255 -92 1097 -342 594 -176 1092 -322 1106 -325 17 -4 286 71 810 226
431 128 789 235 796 237 10 4 13 -107 13 -550 l0 -555 -25 -6 c-14 -4 -31 -16
-39 -29 -13 -20 -96 -486 -96 -537 0 -11 11 -32 25 -45 24 -25 26 -25 215 -25
189 0 191 0 215 25 14 13 25 34 25 45 0 51 -83 517 -96 537 -8 13 -25 25 -39
29 l-25 6 0 578 0 577 218 64 c149 44 224 71 240 86 27 27 29 72 5 102 -14 17
-248 90 -1113 346 -602 179 -1104 324 -1115 324 -11 -1 -510 -147 -1110 -325z"/>
<path d="M1360 2193 c0 -533 -2 -514 86 -592 115 -101 349 -175 686 -218 98
-12 211 -17 428 -17 217 0 330 5 428 17 424 54 687 159 753 302 17 37 19 73
19 508 0 261 -4 467 -9 467 -5 0 -267 -76 -582 -170 -316 -93 -589 -170 -608
-170 -19 0 -293 77 -608 170 -316 94 -578 170 -583 170 -6 0 -10 -177 -10
-467z"/>
</g>
</svg>
