<?xml version="1.0" encoding="utf-8"?>
<!-- Generator: Adobe Illustrator 22.0.0, SVG Export Plug-In . SVG Version: 6.00 Build 0)  -->
<svg version="1.1" id="Layer_1" xmlns="http://www.w3.org/2000/svg" xmlns:xlink="http://www.w3.org/1999/xlink" x="0px" y="0px"
	 viewBox="0 0 704.7 582" style="enable-background:new 0 0 704.7 582;" xml:space="preserve">
<style type="text/css">
	.st0{display:none;}
	.st1{display:inline;}
	.st2{fill:#FCFCFC;}
	.st3{fill:#ADC0CD;}
	.st4{fill:#EF4B39;}
	.st5{fill:#FA6655;}
	.st6{fill:#952308;}
	.st7{fill:#F9C410;}
	.st8{fill:#D89114;}
	.st9{enable-background:new    ;}
	.st10{fill:#C9D5DD;}
	.st11{fill:#F1F1F1;}
	.st12{fill:#2B8ABB;}
	.st13{fill:#121719;}
	.st14{fill:#A73A2E;}
	.st15{fill:#9C372B;}
	.st16{fill:#A0382C;}
	.st17{fill:#EB5543;}
	.st18{fill:#494949;}
	.st19{fill:#112B46;}
	.st20{fill:#7A7A7A;}
	.st21{fill:#767676;}
	.st22{fill:#B5B5B5;}
	.st23{fill:#C1C1C1;}
	.st24{fill:#20272B;}
	.st25{fill:#191F21;}
	.st26{fill:#757575;}
	.st27{fill:#747474;}
	.st28{fill:#40B1D1;}
	.st29{fill:#E8E8E8;}
	.st30{fill:#FFFFFF;}
	.st31{fill:#F67261;}
	.st32{fill:#B1D22E;}
	.st33{fill:#F77C12;}
	.st34{fill:#F78E7F;}
	.st35{fill:#F4A79D;}
	.st36{fill:#F9C2BA;}
	.st37{fill:#F4DDD9;}
	.st38{fill:#F7B810;}
	.st39{fill:#F9C843;}
	.st40{fill:#F8D978;}
	.st41{fill:#FBE8AE;}
	.st42{fill:#F9F7E3;}
	.st43{fill:#B8D14D;}
	.st44{fill:#BFD16F;}
	.st45{fill:#C6D291;}
	.st46{fill:#CCD2B2;}
	.st47{fill:#6CC6DD;}
	.st48{fill:#88D0E3;}
	.st49{fill:#9FD8E7;}
	.st50{fill:#B9DEE6;}
	.st51{fill:#D2E5E9;}
	.st52{fill:#F9F9F9;}
	.st53{fill:#263033;}
	.st54{fill:#DCDDDB;}
	.st55{fill:#F6F7F5;}
	.st56{fill:#EE9D12;}
	.st57{fill:#9A6711;}
	.st58{fill:#E5E5E5;}
	.st59{clip-path:url(#SVGID_2_);enable-background:new    ;}
	.st60{fill:#1C2325;}
	.st61{fill:#E1E1E1;}
	.st62{fill:#74787A;}
	.st63{fill:#8D9194;}
	.st64{fill:#A2A8AB;}
	.st65{fill:#959595;}
	.st66{fill:#C2C2C2;}
	.st67{fill:#C0C0C0;}
	.st68{fill:#13914A;}
	.st69{fill:#DEDEDE;}
	.st70{fill:#F5851B;}
	.st71{fill:#F8C211;}
	.st72{fill:#763B19;}
	.st73{fill:#1C92BB;}
	.st74{fill:#D62322;}
	.st75{fill:#F67665;}
	.st76{fill:#18A4C9;}
	.st77{fill:#F4F5F4;}
	.st78{fill:#461E06;}
	.st79{fill:none;stroke:#FFFFFF;stroke-width:2;stroke-miterlimit:10;}
	.st80{fill:none;stroke:#FFFFFF;stroke-miterlimit:10;}
	.st81{fill:#30BF39;}
</style>
<g id="Layer_3" class="st0">
	<rect x="-250.6" y="-51.3" class="st1" width="1092" height="856"/>
</g>
<g id="Layer_1_1_">
	<g id="XMLID_632_">
		<path id="XMLID_652_" class="st2" d="M139.2,499.5L139.2,499.5c-3.7,2.1-9.7,2.1-13.4,0v11.8c3.7,2.1,9.7,2.1,13.4-0.1v-1.4l0,0
			l62.7-34.8v-12.2L139.2,499.5z"/>
		<g id="XMLID_647_">
			<g id="XMLID_650_">
				<path id="XMLID_651_" class="st3" d="M141.4,498.3l-2.2,1.3c-3.7,2.1-9.7,2.1-13.4,0L25.6,441.5c-3.7-2.1-3.7-5.7,0-7.8l2.2-1.3
					L141.4,498.3z"/>
			</g>
			<g id="XMLID_648_">
				<path id="XMLID_649_" class="st3" d="M206.5,452.5c3.7,2.1,3.7,5.7,0,7.8l-49.8,29.1l-9.4,5.5l-6,3.5l-113.5-66l-2.2,1.3
					c-3.7,2.1-3.7,5.7,0,7.8l100.1,58.1c3.7,2.1,9.7,2.1,13.4,0c-3.7,2.1-9.7,2.1-13.4,0L25.6,441.5c-3.7-2.1-3.7-5.7,0-7.8
					L66.2,410l26.7-15.6c3.7-2.2,9.7-2.1,13.4,0L206.5,452.5z"/>
			</g>
		</g>
		<g id="XMLID_645_">
			<path id="XMLID_646_" class="st2" d="M209.3,456.2c0,4.1,0,8.1,0,12.2c0,1.4-0.9,2.8-2.7,3.9v-12.2
				C208.4,459,209.3,457.6,209.3,456.2z"/>
		</g>
		<g id="XMLID_643_">
			<polygon id="XMLID_644_" class="st4" points="206.5,460.1 201.8,462.8 88.3,397 93,394.2 			"/>
		</g>
		<path id="XMLID_642_" class="st3" d="M125.8,499.5L25.7,441.4c-1.9-1.1-2.8-2.5-2.8-3.9c0,4,0,8.1,0,12.2c0,1.4,0.9,2.9,2.8,3.9
			l100.1,58.1c2,1.2,4.7,1.7,7.4,1.6V501C130.4,501.1,127.8,500.6,125.8,499.5z"/>
		<path id="XMLID_641_" class="st3" d="M206.5,460.1l-49.8,29.1l-9.4,5.5l-6,3.5l-2.2,1.3c-3.7,2.1-9.7,2.1-13.4,0l-100-58.1
			c-1.9-1.1-2.8-2.5-2.8-3.9c0,0.9,0,1.8,0,2.7c0,1.4,0.9,2.8,2.8,3.9l100.1,58.1c3.7,2.1,9.7,2.1,13.4,0l2.2-1.3l6-3.5l9.4-5.5
			l49.8-29.1c1.8-1.1,2.8-2.5,2.8-3.9v-2.7C209.3,457.6,208.4,459,206.5,460.1z"/>
		<path id="XMLID_640_" class="st3" d="M206.5,460.1l-49.8,29.1l-9.4,5.5l-6,3.5l-2.2,1.3c-1.8,1-4,1.5-6.4,1.6v2.7
			c2.3,0,4.6-0.6,6.4-1.6l2.2-1.3l6-3.5l9.4-5.5l49.8-29.1c1.8-1.1,2.8-2.5,2.8-3.9v-2.7C209.3,457.6,208.4,459,206.5,460.1z"/>
		<path id="XMLID_639_" class="st3" d="M209.3,465.7v2.7c0,1.4-0.9,2.8-2.7,3.9l0,0l-4.7,2.7l-45.1,26.3l-9.4,5.5l-6,3.5l-2.2,1.3
			c-1.8,1-4,1.6-6.4,1.6v-2.7c2.3,0,4.6-0.6,6.4-1.6l2.2-1.3l6-3.5l9.4-5.5l45.1-26.3l4.7-2.7l0,0
			C208.4,468.5,209.3,467.1,209.3,465.7z"/>
		<g id="XMLID_634_">
			<polygon id="XMLID_638_" class="st5" points="166.9,494.4 166.9,497.1 159.3,498.2 159.3,495.5 			"/>
			<polygon id="XMLID_637_" class="st5" points="159.3,495.5 159.3,498.2 157.6,502.6 157.6,499.9 			"/>
			<polygon id="XMLID_636_" class="st6" points="157.6,499.9 157.6,502.6 151.2,498.9 151.2,496.2 			"/>
			<polygon id="XMLID_635_" class="st4" points="166.9,494.4 159.3,495.5 157.6,499.9 151.2,496.2 160.6,490.7 			"/>
		</g>
		<path id="XMLID_633_" class="st4" d="M206.5,460.1v12.2l0,0l-4.7,2.7v-12.2L206.5,460.1z"/>
	</g>
	<g id="XMLID_100_">
		<g id="XMLID_623_">
			<g id="XMLID_630_">
				<path id="XMLID_631_" class="st4" d="M103.5,422.8c0.2,0.3,0.7,0.4,1.2,0.1c0.8-0.4,1.4-1.5,1.4-2.4c0-0.6-0.3-1-0.7-1
					c-1.7-0.3-3.5-0.5-5.2-0.8C101.3,420.1,102.4,421.4,103.5,422.8z"/>
			</g>
			<g id="XMLID_628_">
				<path id="XMLID_629_" class="st4" d="M100.2,418.7c1.1,1.4,2.2,2.8,3.3,4.1c-0.1-0.2-0.2-0.4-0.2-0.8L100.2,418.7z"/>
			</g>
			<g id="XMLID_626_">
				<path id="XMLID_627_" class="st4" d="M105.4,419.5c-1.7-0.3-3.5-0.5-5.2-0.8l3,3.4c0-0.9,0.7-2,1.4-2.4
					C105,419.5,105.2,419.4,105.4,419.5z"/>
			</g>
			<g id="XMLID_624_">
				<path id="XMLID_625_" class="st4" d="M103.3,422.1c0,0.9,0.6,1.3,1.4,0.9s1.4-1.5,1.4-2.4s-0.6-1.3-1.4-0.8
					C103.9,420.1,103.3,421.2,103.3,422.1z"/>
			</g>
		</g>
		<g id="XMLID_612_">
			<g id="XMLID_621_">
				<path id="XMLID_622_" class="st7" d="M103.3,422.1c0,0.9,0.6,1.3,1.4,0.9s1.4-1.5,1.4-2.4s-0.6-1.3-1.4-0.8
					C103.9,420.1,103.3,421.2,103.3,422.1z"/>
			</g>
			<g id="XMLID_619_">
				<path id="XMLID_620_" class="st7" d="M108.4,429c0.6,0.8,1.7,0.9,2.9,0.2c1.9-1.1,3.5-3.8,3.6-6.1c0-1.5-0.6-2.4-1.7-2.6
					c-2.6-0.4-5.2-0.8-7.8-1.2c0.4,0.1,0.7,0.4,0.7,1c0,0.9-0.7,2-1.4,2.4c-0.5,0.3-0.9,0.2-1.2-0.1
					C105.1,424.9,106.8,427,108.4,429z"/>
			</g>
			<g id="XMLID_617_">
				<path id="XMLID_618_" class="st7" d="M103.5,422.8c1.6,2.1,3.3,4.1,4.9,6.2c-0.3-0.4-0.5-1.1-0.5-1.9l-4.6-5.1
					C103.3,422.4,103.4,422.6,103.5,422.8z"/>
			</g>
			<g id="XMLID_615_">
				<path id="XMLID_616_" class="st7" d="M113.2,420.6c-2.6-0.4-5.2-0.8-7.8-1.2c-0.2,0-0.5,0-0.7,0.2c-0.8,0.4-1.4,1.5-1.4,2.4
					l4.6,5.1c0-2.3,1.6-5,3.6-6.1C112.1,420.7,112.7,420.6,113.2,420.6z"/>
			</g>
			<g id="XMLID_613_">
				<path id="XMLID_614_" class="st7" d="M107.8,427.1c0,2.3,1.5,3.2,3.5,2.1c1.9-1.1,3.5-3.8,3.6-6.1c0-2.3-1.5-3.2-3.5-2.1
					C109.5,422.2,107.9,424.9,107.8,427.1z"/>
			</g>
		</g>
		<g id="XMLID_601_">
			<g id="XMLID_610_">
				<path id="XMLID_611_" class="st7" d="M107.8,427.1c0,2.3,1.5,3.2,3.5,2.1c1.9-1.1,3.5-3.8,3.6-6.1c0-2.3-1.5-3.2-3.5-2.1
					C109.5,422.2,107.9,424.9,107.8,427.1z"/>
			</g>
			<g id="XMLID_608_">
				<path id="XMLID_609_" class="st7" d="M159.8,459.2c0.6,0.4,1.5,0.3,2.4-0.2c1.9-1.1,3.5-3.8,3.6-6.1c0-1.2-0.4-2-1-2.3l-51-29.8
					c0.7,0.4,1,1.2,1,2.3c0,2.3-1.6,5-3.6,6.1c-1,0.5-1.8,0.6-2.4,0.2C124.2,438.4,144.5,450.3,159.8,459.2z"/>
			</g>
			<g id="XMLID_606_">
				<path id="XMLID_607_" class="st7" d="M108.9,429.5l51,29.8c-0.6-0.4-1-1.2-1-2.3l-51-29.7C107.8,428.3,108.2,429.1,108.9,429.5z
					"/>
			</g>
			<g id="XMLID_604_">
				<path id="XMLID_605_" class="st7" d="M164.8,450.6l-51-29.8c-0.6-0.4-1.5-0.3-2.4,0.2c-1.9,1.1-3.5,3.8-3.6,6.1l51,29.7
					c0-2.3,1.6-5,3.6-6.1C163.3,450.3,164.2,450.2,164.8,450.6z"/>
			</g>
			<g id="XMLID_602_">
				<path id="XMLID_603_" class="st7" d="M158.8,456.9c0,2.3,1.5,3.2,3.5,2.1c1.9-1.1,3.5-3.8,3.6-6.1c0-2.3-1.5-3.2-3.5-2.1
					C160.4,451.9,158.8,454.6,158.8,456.9z"/>
			</g>
		</g>
		<g id="XMLID_590_">
			<g id="XMLID_599_">
				<path id="XMLID_600_" class="st7" d="M158.8,456.9c0,2.3,1.5,3.2,3.5,2.1c1.9-1.1,3.5-3.8,3.6-6.1c0-2.3-1.5-3.2-3.5-2.1
					C160.4,451.9,158.8,454.6,158.8,456.9z"/>
			</g>
			<g id="XMLID_597_">
				<path id="XMLID_598_" class="st7" d="M167.3,463.6c0.6,0.4,1.5,0.3,2.4-0.2c1.9-1.1,3.5-3.8,3.6-6.1c0-1.2-0.4-2-1-2.3l-7.5-4.4
					c0.6,0.4,1,1.2,1,2.3c0,2.3-1.6,5-3.6,6.1c-1,0.5-1.8,0.6-2.4,0.2C162.1,460.6,165.1,462.3,167.3,463.6z"/>
			</g>
			<g id="XMLID_595_">
				<path id="XMLID_596_" class="st7" d="M159.8,459.2l7.5,4.4c-0.6-0.4-1-1.2-1-2.3l-7.5-4.4C158.8,458,159.2,458.9,159.8,459.2z"
					/>
			</g>
			<g id="XMLID_593_">
				<path id="XMLID_594_" class="st7" d="M172.3,455l-7.5-4.4c-0.6-0.4-1.5-0.3-2.4,0.2c-1.9,1.1-3.5,3.8-3.6,6.1l7.5,4.4
					c0-2.3,1.6-5,3.6-6.1C170.9,454.7,171.7,454.6,172.3,455z"/>
			</g>
			<g id="XMLID_591_">
				<path id="XMLID_592_" class="st8" d="M166.3,461.3c0,2.3,1.5,3.2,3.5,2.1c1.9-1.1,3.5-3.8,3.6-6.1c0-2.3-1.5-3.2-3.5-2.1
					C167.9,456.3,166.3,459,166.3,461.3z"/>
			</g>
		</g>
	</g>
	<g id="XMLID_298_">
		<g id="XMLID_370_">
			<g id="XMLID_430_">
				<g id="XMLID_481_">
					<g id="XMLID_482_" class="st9">
						<g id="XMLID_487_">
							<polygon id="XMLID_488_" class="st10" points="355.7,433.5 355.7,436.9 427,478.8 427,475.4 							"/>
						</g>
						<g id="XMLID_485_">
							<polygon id="XMLID_486_" class="st3" points="427,475.4 427,478.8 521.7,424.3 521.7,420.9 							"/>
						</g>
						<g id="XMLID_483_">
							<polygon id="XMLID_484_" class="st11" points="355.7,433.5 427,475.4 521.7,420.9 450.4,379 							"/>
						</g>
					</g>
				</g>
				<path id="XMLID_431_" class="st12" d="M427.7,394.6l-45.1,26l-22.2,12.8l67,39.2l22.2-12.8l45.1-26l22.2-12.8l-67-39.2
					L427.7,394.6z M417.1,465.7l10.4-6l10.4,6.1l-10.4,6L417.1,465.7z M460.3,388.7l-10.4,6l-10.4-6.1l10.4-6L460.3,388.7z
					 M460.2,414.4l-10.4,6l-10.4-6.1l10.4-6L460.2,414.4z M449.1,420.8l-10.4,6l-10.4-6.1l10.4-6L449.1,420.8z M438,427.2l-10.4,6
					l-10.4-6.1l10.4-6L438,427.2z M426.9,433.6l-10.4,6l-10.4-6.1l10.4-6L426.9,433.6z M427.6,434l10.4,6.1l-10.4,6l-10.4-6.1
					L427.6,434z M428.3,433.6l10.4-6l10.4,6.1l-10.4,6L428.3,433.6z M439.4,427.2l10.4-6l10.4,6.1l-10.4,6L439.4,427.2z
					 M450.5,420.8l10.4-6l10.4,6.1l-10.4,6L450.5,420.8z M449.2,407.9l-10.4,6l-10.4-6.1l10.4-6L449.2,407.9z M438.1,414.3l-10.4,6
					l-10.4-6.1l10.4-6L438.1,414.3z M427,420.7l-10.4,6l-10.4-6.1l10.4-6L427,420.7z M415.9,427.1l-10.4,6l-10.4-6.1l10.4-6
					L415.9,427.1z M405.4,433.9l10.4,6.1l-10.4,6l-10.4-6.1L405.4,433.9z M416.5,440.4l10.4,6.1l-10.4,6l-10.4-6.1L416.5,440.4z
					 M428.2,446.4l10.4-6l10.4,6.1l-10.4,6L428.2,446.4z M439.3,440.1l10.4-6l10.4,6.1l-10.4,6L439.3,440.1z M450.4,433.7l10.4-6
					l10.4,6.1l-10.4,6L450.4,433.7z M461.5,427.3l10.4-6l10.4,6.1l-10.4,6L461.5,427.3z M472,420.5l-10.4-6.1l10.4-6l10.4,6.1
					L472,420.5z M460.9,414l-10.4-6.1l10.4-6l10.4,6.1L460.9,414z M449.8,407.6l-10.4-6.1l10.4-6l10.4,6.1L449.8,407.6z
					 M394.4,427.5l10.4,6.1l-10.4,6l-10.4-6.1L394.4,427.5z M417.1,452.8l10.4-6l10.4,6.1l-10.4,6L417.1,452.8z M483,426.9
					l-10.4-6.1l10.4-6l10.4,6.1L483,426.9z M449.2,395.1l-10.4,6l-10.4-6.1l10.4-6L449.2,395.1z M438.1,401.5l-10.4,6l-10.4-6.1
					l10.4-6L438.1,401.5z M427,407.9l-10.4,6l-10.4-6.1l10.4-6L427,407.9z M415.9,414.3l-10.4,6l-10.4-6.1l10.4-6L415.9,414.3z
					 M404.8,420.7l-10.4,6l-10.4-6.1l10.4-6L404.8,420.7z M393.7,427.1l-10.4,6l-10.4-6.1l10.4-6L393.7,427.1z M383.3,433.8
					l10.4,6.1l-10.4,6l-10.4-6.1L383.3,433.8z M394.3,440.3l10.4,6.1l-10.4,6l-10.4-6.1L394.3,440.3z M405.4,446.8l10.4,6.1l-10.4,6
					l-10.4-6.1L405.4,446.8z M416.4,453.2l10.4,6.1l-10.4,6l-10.4-6.1L416.4,453.2z M428.2,459.3l10.4-6l10.4,6.1l-10.4,6
					L428.2,459.3z M439.3,452.9l10.4-6l10.4,6.1l-10.4,6L439.3,452.9z M450.4,446.5l10.4-6l10.4,6.1l-10.4,6L450.4,446.5z
					 M461.5,440.1l10.4-6l10.4,6.1l-10.4,6L461.5,440.1z M472.6,433.7l10.4-6l10.4,6.1l-10.4,6L472.6,433.7z M483.7,427.3l10.4-6
					l10.4,6.1l-10.4,6L483.7,427.3z M494.1,420.5l-10.4-6.1l10.4-6l10.4,6.1L494.1,420.5z M483.1,414.1l-10.4-6.1l10.4-6l10.4,6.1
					L483.1,414.1z M472,407.6l-10.4-6.1l10.4-6l10.4,6.1L472,407.6z M460.9,401.2l-10.4-6.1l10.4-6l10.4,6.1L460.9,401.2z
					 M372.2,427.4l10.4,6.1l-10.4,6l-10.4-6.1L372.2,427.4z M505.2,427l-10.4-6.1l10.4-6l10.4,6.1L505.2,427z"/>
			</g>
			<g id="XMLID_371_">
				<g id="XMLID_422_">
					<g id="XMLID_423_" class="st9">
						<g id="XMLID_428_">
							<polygon id="XMLID_429_" class="st10" points="355.7,427.3 355.7,430.6 427,472.5 427,469.2 							"/>
						</g>
						<g id="XMLID_426_">
							<polygon id="XMLID_427_" class="st3" points="427,469.2 427,472.5 521.7,418 521.7,414.7 							"/>
						</g>
						<g id="XMLID_424_">
							<polygon id="XMLID_425_" class="st11" points="355.7,427.3 427,469.2 521.7,414.7 450.4,372.7 							"/>
						</g>
					</g>
				</g>
				<path id="XMLID_372_" class="st3" d="M427.7,388.4l-45.1,26l-22.2,12.8l67,39.2l22.2-12.8l45.1-26l22.2-12.8l-67-39.2
					L427.7,388.4z M417.1,459.5l10.4-6l10.4,6.1l-10.4,6L417.1,459.5z M460.3,382.5l-10.4,6l-10.4-6.1l10.4-6L460.3,382.5z
					 M460.2,408.2l-10.4,6l-10.4-6.1l10.4-6L460.2,408.2z M449.1,414.6l-10.4,6l-10.4-6.1l10.4-6L449.1,414.6z M438,421l-10.4,6
					l-10.4-6.1l10.4-6L438,421z M426.9,427.3l-10.4,6l-10.4-6.1l10.4-6L426.9,427.3z M427.6,427.7l10.4,6.1l-10.4,6l-10.4-6.1
					L427.6,427.7z M428.3,427.4l10.4-6l10.4,6.1l-10.4,6L428.3,427.4z M439.4,421l10.4-6l10.4,6.1l-10.4,6L439.4,421z M450.5,414.6
					l10.4-6l10.4,6.1l-10.4,6L450.5,414.6z M449.2,401.7l-10.4,6l-10.4-6.1l10.4-6L449.2,401.7z M438.1,408.1l-10.4,6l-10.4-6.1
					l10.4-6L438.1,408.1z M427,414.5l-10.4,6l-10.4-6.1l10.4-6L427,414.5z M415.9,420.9l-10.4,6l-10.4-6.1l10.4-6L415.9,420.9z
					 M405.4,427.7l10.4,6.1l-10.4,6l-10.4-6.1L405.4,427.7z M416.5,434.1l10.4,6.1l-10.4,6l-10.4-6.1L416.5,434.1z M428.2,440.2
					l10.4-6l10.4,6.1l-10.4,6L428.2,440.2z M439.3,433.8l10.4-6l10.4,6.1l-10.4,6L439.3,433.8z M450.4,427.4l10.4-6l10.4,6.1
					l-10.4,6L450.4,427.4z M461.5,421l10.4-6l10.4,6.1l-10.4,6L461.5,421z M472,414.2l-10.4-6.1l10.4-6l10.4,6.1L472,414.2z
					 M460.9,407.8l-10.4-6.1l10.4-6l10.4,6.1L460.9,407.8z M449.9,401.3l-10.4-6.1l10.4-6l10.4,6.1L449.9,401.3z M394.4,421.2
					l10.4,6.1l-10.4,6l-10.4-6.1L394.4,421.2z M417.1,446.6l10.4-6l10.4,6.1l-10.4,6L417.1,446.6z M483,420.7l-10.4-6.1l10.4-6
					l10.4,6.1L483,420.7z M449.2,388.8l-10.4,6l-10.4-6.1l10.4-6L449.2,388.8z M438.1,395.2l-10.4,6l-10.4-6.1l10.4-6L438.1,395.2z
					 M427,401.6l-10.4,6l-10.4-6.1l10.4-6L427,401.6z M415.9,408l-10.4,6l-10.4-6.1l10.4-6L415.9,408z M404.8,414.4l-10.4,6
					l-10.4-6.1l10.4-6L404.8,414.4z M393.7,420.8l-10.4,6l-10.4-6.1l10.4-6L393.7,420.8z M383.3,427.6l10.4,6.1l-10.4,6l-10.4-6.1
					L383.3,427.6z M394.4,434.1l10.4,6.1l-10.4,6l-10.4-6.1L394.4,434.1z M405.4,440.5l10.4,6.1l-10.4,6l-10.4-6.1L405.4,440.5z
					 M416.5,447l10.4,6.1l-10.4,6L406,453L416.5,447z M428.2,453.1l10.4-6l10.4,6.1l-10.4,6L428.2,453.1z M439.3,446.7l10.4-6
					l10.4,6.1l-10.4,6L439.3,446.7z M450.4,440.3l10.4-6l10.4,6.1l-10.4,6L450.4,440.3z M461.5,433.9l10.4-6l10.4,6.1l-10.4,6
					L461.5,433.9z M472.6,427.5l10.4-6l10.4,6.1l-10.4,6L472.6,427.5z M483.7,421.1l10.4-6l10.4,6.1l-10.4,6L483.7,421.1z
					 M494.1,414.3l-10.4-6.1l10.4-6l10.4,6.1L494.1,414.3z M483.1,407.8l-10.4-6.1l10.4-6l10.4,6.1L483.1,407.8z M472,401.4
					l-10.4-6.1l10.4-6l10.4,6.1L472,401.4z M460.9,394.9l-10.4-6.1l10.4-6l10.4,6.1L460.9,394.9z M372.2,421.1l10.4,6.1l-10.4,6
					l-10.4-6.1L372.2,421.1z M505.2,420.8l-10.4-6.1l10.4-6l10.4,6.1L505.2,420.8z"/>
			</g>
		</g>
		<g id="XMLID_342_">
			<path id="XMLID_348_" class="st13" d="M420.2,416.3l-15.3,8.9l39.1,22.7l3.6-2.1l-18.4-10.7l8.8-5.1l18.4,10.7l2.9-1.7l15-8.7
				l15.3-8.9l-39.1-22.7l-15.3,8.9L420.2,416.3z M469.4,419l3.9-2.3l5.3,3.1l-3.9,2.3L469.4,419z M463,415.3l3.9-2.3l5.1,2.9
				l-3.9,2.3L463,415.3z M452.7,409.3l4-2.3l4.8,2.8l-4,2.3L452.7,409.3z M445.8,405.3l4-2.3l5.5,3.2l-4,2.3L445.8,405.3z
				 M464.5,421.8l3.8-2.2l5.3,3.1l-3.8,2.2L464.5,421.8z M458.1,418.1l3.8-2.2l5.1,2.9l-3.8,2.2L458.1,418.1z M447.9,412.2l3.8-2.2
				l4.8,2.8l-3.8,2.2L447.9,412.2z M441,408.2l3.8-2.2l5.5,3.2l-3.8,2.2L441,408.2z M455,427.4l3.8-2.2l5.3,3.1l-3.8,2.2L455,427.4z
				 M448.5,423.7l3.8-2.2l5.1,2.9l-3.8,2.2L448.5,423.7z M438.3,417.7l3.9-2.2l4.8,2.8l-3.9,2.2L438.3,417.7z M431.4,413.7l3.9-2.2
				l5.5,3.2l-3.9,2.2L431.4,413.7z M450,430.3l3.9-2.3l5.3,3.1l-3.9,2.3L450,430.3z M443.6,426.5l3.9-2.3l5.1,2.9l-3.9,2.3
				L443.6,426.5z M433.3,420.6l3.9-2.2l4.8,2.8l-3.9,2.2L433.3,420.6z M426.4,416.6l3.9-2.2l5.5,3.2l-3.9,2.2L426.4,416.6z
				 M421.4,426l-4,2.3l-5.5-3.2l4-2.3L421.4,426z M427.5,429.5l-4,2.3l-4.8-2.8l4-2.3L427.5,429.5z M426.2,423.1l-3.8,2.2l-5.5-3.2
				l3.8-2.2L426.2,423.1z M432.4,426.7l-3.8,2.2l-4.8-2.8l3.8-2.2L432.4,426.7z"/>
			<polygon id="XMLID_347_" class="st13" points="475.4,430.9 492.9,420.7 497.8,423.5 480.2,433.7 465.2,442.4 447.2,452.9 
				442.3,450.1 460.3,439.6 			"/>
			<polygon id="XMLID_346_" class="st13" points="398.7,415 403.9,418 410.7,414.1 405.4,411.1 408.3,409.4 423.3,400.7 
				436.2,393.2 450.2,396 432.7,406.1 417.7,414.9 399.7,425.3 394.9,417.2 			"/>
			<polygon id="XMLID_345_" class="st13" points="408.8,414.2 404.2,416.9 395.6,412 400.3,409.3 			"/>
			<polygon id="XMLID_344_" class="st13" points="455.6,441.2 448.7,445.2 431.2,435.1 438.1,431.1 			"/>
			<polygon id="XMLID_343_" class="st13" points="400.3,425.4 418.1,415.1 433.1,406.4 450.2,396.4 451.6,397.2 434.4,407.1 
				419.4,415.9 402.9,425.4 442.2,448.2 439.2,450 437.6,449 439.3,448 			"/>
		</g>
	</g>
	<g id="XMLID_144_">
		<g id="XMLID_489_">
			<g id="XMLID_504_">
				<g id="XMLID_577_" class="st9">
					<g id="XMLID_586_" class="st9">
						<g id="XMLID_587_" class="st9">
							<path id="XMLID_588_" class="st14" d="M340.8,465.4v3.6c0,0.5,0.3,0.9,0.9,1.2v-3.6C341.1,466.3,340.8,465.9,340.8,465.4
								L340.8,465.4z"/>
						</g>
					</g>
					<g id="XMLID_584_">
						<polygon id="XMLID_585_" class="st15" points="351.1,469.7 351.1,473.3 353.3,472.1 353.3,468.5 						"/>
					</g>
					<g id="XMLID_582_">
						<polygon id="XMLID_583_" class="st15" points="349,471 349,474.6 351.1,473.3 351.1,469.7 						"/>
					</g>
					<g id="XMLID_580_">
						<polygon id="XMLID_581_" class="st16" points="341.7,466.7 341.7,470.3 349,474.6 349,471 						"/>
					</g>
					<g id="XMLID_578_">
						<path id="XMLID_579_" class="st17" d="M341.7,464.2c-1.2,0.7-1.2,1.8,0,2.5l7.3,4.3l2.2-1.2l2.2-1.2l-7.3-4.3
							C344.8,463.5,342.9,463.5,341.7,464.2z"/>
					</g>
				</g>
				<g id="XMLID_505_" class="st9">
					<g id="XMLID_575_">
						<polygon id="XMLID_576_" class="st18" points="363.4,468.7 363.4,472.3 366.8,479 366.8,475.3 						"/>
					</g>
					<g id="XMLID_572_">
						<g id="XMLID_573_">
							<path id="XMLID_574_" class="st3" d="M345.3,474.4v3.6c0,1.1,1.2,2,3.5,2.4v-3.6C346.5,476.4,345.3,475.5,345.3,474.4
								L345.3,474.4z"/>
						</g>
					</g>
					<g id="XMLID_570_">
						<polygon id="XMLID_571_" class="st19" points="348.9,476.8 348.9,480.4 349.2,480.5 349.2,476.8 						"/>
					</g>
					<g id="XMLID_568_">
						<polygon id="XMLID_569_" class="st19" points="349.2,476.8 349.2,480.5 360.6,482.5 360.6,478.9 						"/>
					</g>
					<g id="XMLID_566_">
						<polygon id="XMLID_567_" class="st19" points="360.6,478.9 360.6,482.5 361.7,482.7 361.7,479.1 						"/>
					</g>
					<g id="XMLID_564_">
						<polygon id="XMLID_565_" class="st13" points="366.8,475.3 366.8,479 414.9,491.4 414.9,487.7 						"/>
					</g>
					<g id="XMLID_525_">
						<g id="XMLID_556_">
							<g id="XMLID_557_" class="st9">
								<g id="XMLID_562_">
									<polygon id="XMLID_563_" class="st20" points="375.5,489.6 375.5,490.4 376.2,490.9 376.2,490 									"/>
								</g>
								<g id="XMLID_560_">
									<polygon id="XMLID_561_" class="st21" points="376.2,490 376.2,490.9 389,483.5 389,482.7 									"/>
								</g>
								<g id="XMLID_558_">
									<polygon id="XMLID_559_" class="st22" points="375.5,489.6 376.2,490 389,482.7 388.3,482.2 									"/>
								</g>
							</g>
						</g>
						<g id="XMLID_534_">
							<g id="XMLID_545_">
								<path id="XMLID_547_" class="st21" d="M373.3,488.3c0,0.1,0,0.2,0,0.3c0,0,0,0,0,0.1c0,0.4,0.1,0.8,0.2,1.2
									c0.3,1,0.8,1.9,1.5,2.7c0.3,0.3,0.6,0.6,0.9,0.8c0,0,0,0,0.1,0l0.1-0.1l0,0l-0.1,0.1c0.1,0.1,0.1,0.1,0.2,0.1l0.1-0.1l0,0
									l-0.1,0.1c0,0,0.1,0,0.1,0.1c0,0,0.1,0,0.1,0.1l0,0c0.1,0,0.1-0.1,0.2-0.1l0,0c-0.1,0-0.1,0.1-0.2,0.1
									c0.7,0.3,1.3,0.3,1.8,0.1l0,0l0,0l0,0l0.9-0.5l0,0c0.1-0.1,0.2-0.2,0.3-0.2c0.1-0.1,0.1-0.1,0.2-0.2c0,0.2-0.1,0.3-0.1,0.5
									l0,0c0,0.1,0,0.1-0.1,0.2c0.2-0.1,0.4-0.2,0.6-0.4c0,0,0.1,0,0.1-0.1c-0.2,0.1-0.5,0.3-0.7,0.4v0.1c0,0,0,0.1-0.1,0.1
									c0.2-0.1,0.3-0.2,0.5-0.3c0.1-0.1,0.2-0.1,0.3-0.2c0,0,0.1,0,0.1-0.1c0,0,0-0.1,0.1-0.1v-0.1l-0.1,0.1c0,0,0.1,0,0.1-0.1
									l0,0c0-0.1,0-0.1,0.1-0.2c-0.1,0.1-0.2,0.1-0.3,0.2l0,0c0.1,0,0.2-0.1,0.2-0.1s0,0,0.1,0l0,0l0,0c0.1-0.3,0.1-0.7,0.1-1
									c0-0.1,0-0.2,0-0.3c0,0,0,0,0-0.1l0,0c0-0.4-0.1-0.7-0.2-1.1c0-0.1-0.1-0.2-0.1-0.3l0,0c0,0,0,0,0-0.1l-0.1,0.1
									c-0.1,0.1-0.2,0.1-0.3,0.2l0,0c0.2-0.1,0.3-0.2,0.5-0.3v-0.1c-0.4-1.1-1-2.2-1.8-3c-0.1,0-0.1,0.1-0.1,0.1
									c-0.1,0.1-0.2,0.1-0.3,0.2l0,0c0.2-0.1,0.3-0.2,0.5-0.3c0,0,0,0-0.1-0.1l0,0c-0.1-0.1-0.1-0.1-0.2-0.2l-0.1-0.1
									c-0.3-0.2-0.5-0.5-0.8-0.6c-0.2,0.1-0.4,0.2-0.6,0.3l0,0c0.2-0.1,0.4-0.2,0.6-0.3l0,0c-0.2,0.1-0.4,0.2-0.6,0.4l0,0
									c0.2-0.1,0.4-0.2,0.6-0.4c-0.1-0.1-0.2-0.1-0.3-0.2l-0.7,0.4l0,0c0.2-0.1,0.5-0.3,0.7-0.4c-0.2-0.1-0.4-0.2-0.6-0.3
									c-0.1,0-0.2-0.1-0.3-0.1h-0.1l0,0c-0.1,0-0.1,0-0.2,0h-0.1l0,0h-0.1c-0.4,0-0.8,0.1-1.1,0.2l-0.9,0.5
									c0.3-0.2,0.7-0.3,1.1-0.2h0.1h0.1c0.1,0,0.1,0,0.2,0l0,0h0.1c0.1,0,0.2,0.1,0.3,0.1l0,0c-0.2,0-0.5,0.1-0.7,0.2l-0.4,0.2
									l-0.5,0.3c-0.5,0.3-0.8,0.8-0.9,1.6c0.1,0,0.1-0.1,0.2-0.1l0,0c-0.1,0-0.1,0.1-0.2,0.1c0,0,0,0,0,0.1v0.1
									C373.3,488.3,373.3,488.3,373.3,488.3z M377.1,492.9L377.1,492.9l0.1-0.1c-0.1-0.1-0.3-0.2-0.4-0.3l0.1-0.1
									c0.1,0,0.2,0.1,0.4,0.1l0.9-0.5v-0.7c-0.2-0.1-0.6-0.3-1-0.5l0.9-0.5c0.2-0.1,0.3-0.5,0.3-0.7v-0.3v-0.1
									c0.4,0.8,0.7,1.8,0.7,2.6c0,0.6-0.2,1.1-0.4,1.4c-0.4,0.1-0.9-0.1-1.5-0.4L377.1,492.9z M374.9,486.2l-0.3,0.2
									c0-0.1,0.1-0.1,0.1-0.2C374.8,486.3,374.8,486.2,374.9,486.2z M376.8,491.6l-0.6,0.4l0,0
									C376.3,491.8,376.6,491.7,376.8,491.6L376.8,491.6z M377.2,491.8l-0.2,0.1h-0.1v-0.2C377.1,491.8,377.2,491.8,377.2,491.8z
									 M375.1,490.3c0,0.1,0,0.1,0,0.2c-0.4-0.8-0.7-1.8-0.7-2.6c0-0.6,0.2-1.1,0.4-1.4c0.4-0.1,0.9,0.1,1.5,0.4
									c0.1,0.1,0.3,0.2,0.4,0.3l-0.1,0.1c-0.1,0-0.2-0.1-0.4-0.1l0,0l0,0l-0.9,0.5v0.7c0.3,0.1,0.8,0.4,1,0.5l-0.9,0.5
									c-0.2,0.1-0.3,0.4-0.3,0.7c0.3-0.2,0.7-0.4,0.9-0.5l0,0l0.3,0.2c0.1,0.1,0.2,0.1,0.3,0.1l0.8-0.5c0,0.2,0.1,0.3,0.1,0.5v0.3
									l0,0l-0.3-0.2c-0.1-0.1-0.2-0.1-0.2-0.1l-0.8,0.4c0-0.2-0.1-0.4-0.1-0.6c-0.3,0.2-0.6,0.3-0.8,0.5L375.1,490.3z
									 M376.3,487.8l0.2-0.1h0.1v0.2C376.4,487.9,376.3,487.8,376.3,487.8z M378.9,493.2c0,0.1-0.1,0.1-0.1,0.2
									c-0.1,0-0.1,0-0.2,0L378.9,493.2z"/>
								<path id="XMLID_546_" class="st21" d="M380.5,493.1c-0.2,0.4-0.4,0.6-0.7,0.8l-0.9,0.5c0.3-0.2,0.6-0.4,0.7-0.8
									c0.3-0.2,0.5-0.3,0.8-0.5C380.4,493.2,380.4,493.1,380.5,493.1z"/>
							</g>
							<path id="XMLID_535_" class="st23" d="M372.7,488c0,2.3,1.6,5.1,3.5,6.2c2,1.2,3.6,0.2,3.6-2c0-2.3-1.6-5.1-3.5-6.2
								C374.3,484.8,372.7,485.7,372.7,488z M376,492v0.5l0.5,0.3l-0.5-0.3V492z M376.7,489.4v0.1c0,0.1,0,0.2-0.1,0.2
								c0.1,0,0.1-0.1,0.1-0.2V489.4z M376.3,489.7l-0.2-0.1L376.3,489.7c0.1,0.1,0.2,0.1,0.3,0.1
								C376.5,489.8,376.5,489.8,376.3,489.7z M376.3,488.9L376.3,488.9c0.1,0.1,0.2,0.1,0.2,0.1
								C376.4,488.9,376.4,488.9,376.3,488.9L376.3,488.9z M376.2,491.3c-0.1,0-0.1-0.1-0.2-0.2
								C376.1,491.2,376.2,491.3,376.2,491.3c0.2,0.1,0.4,0.2,0.6,0.4C376.7,491.5,376.5,491.4,376.2,491.3z M375.1,490.1
								c0-0.2,0-0.5,0.2-0.6c0.1-0.1,0.2-0.2,0.4-0.1c-0.2-0.1-0.3,0-0.4,0.1C375.1,489.6,375.1,489.9,375.1,490.1L375.1,490.1z
								 M375.2,488.3v-0.7c0.2,0.1,0.5,0.1,0.8,0.3c-0.3-0.2-0.6-0.3-0.8-0.3V488.3L375.2,488.3z M377.2,488.8
								c0.2,0.3,0.3,0.6,0.3,1C377.5,489.4,377.4,489.1,377.2,488.8z"/>
						</g>
						<g id="XMLID_526_">
							<g id="XMLID_527_" class="st9">
								<g id="XMLID_532_">
									<polygon id="XMLID_533_" class="st20" points="362.7,496.9 362.7,497.8 363.5,498.2 363.5,497.4 									"/>
								</g>
								<g id="XMLID_530_">
									<polygon id="XMLID_531_" class="st21" points="363.5,497.4 363.5,498.2 376.3,490.8 376.3,490 									"/>
								</g>
								<g id="XMLID_528_">
									<polygon id="XMLID_529_" class="st22" points="362.7,496.9 363.5,497.4 376.3,490 375.5,489.6 									"/>
								</g>
							</g>
						</g>
					</g>
					<g id="XMLID_522_">
						<g id="XMLID_523_">
							<path id="XMLID_524_" class="st3" d="M361.7,479.1v3.6c2.1,0.4,3.8,0.2,4.8-0.4c0.6-0.4,1-0.9,1-1.6v-3.6
								c0,0.7-0.3,1.2-1,1.6C365.5,479.3,363.8,479.4,361.7,479.1L361.7,479.1z"/>
						</g>
					</g>
					<g id="XMLID_520_">
						<path id="XMLID_521_" class="st11" d="M347.7,471.7c-3.6,2.1-3.1,4.4,1.1,5.1l0.3,0.1l11.4,2l1.1,0.2c2.1,0.4,3.8,0.2,4.8-0.4
							s1.3-1.5,0.7-2.8l-0.3-0.6l-3.4-6.7l-0.1-0.2c-1.2-2.5-5.2-2.8-8.8-0.7l-1.2,0.7l-2.2,1.2L349,471L347.7,471.7z"/>
					</g>
					<g id="XMLID_518_">
						<polygon id="XMLID_519_" class="st24" points="417,485.1 417,488.7 418.6,486.5 418.6,482.9 						"/>
					</g>
					<g id="XMLID_516_">
						<polygon id="XMLID_517_" class="st25" points="363.4,468.7 366.8,475.3 414.9,487.7 417,485.1 418.6,482.9 						"/>
					</g>
					<g id="XMLID_514_">
						<polygon id="XMLID_515_" class="st24" points="414.9,487.7 414.9,491.4 417,488.7 417,485.1 						"/>
					</g>
					<g id="XMLID_512_">
						<polygon id="XMLID_513_" class="st24" points="376.8,508.2 376.8,511.8 381.4,510.7 381.4,507 						"/>
					</g>
					<g id="XMLID_510_">
						<polygon id="XMLID_511_" class="st25" points="349.2,476.8 373.1,509.1 376.8,508.2 381.4,507 360.6,478.9 						"/>
					</g>
					<g id="XMLID_508_">
						<polygon id="XMLID_509_" class="st24" points="373.1,509.1 373.1,512.8 376.8,511.8 376.8,508.2 						"/>
					</g>
					<g id="XMLID_506_">
						<polygon id="XMLID_507_" class="st13" points="349.2,476.8 349.2,480.5 373.1,512.8 373.1,509.1 						"/>
					</g>
				</g>
			</g>
			<g id="XMLID_498_">
				<g id="XMLID_499_" class="st9">
					<g id="XMLID_502_">
						<polygon id="XMLID_503_" class="st10" points="416.2,487.5 416.2,488.7 423,489.3 423,488.1 						"/>
					</g>
					<g id="XMLID_500_">
						<polygon id="XMLID_501_" class="st22" points="417.6,485.7 416.9,486.6 416.2,487.5 423,488.1 						"/>
					</g>
				</g>
			</g>
			<g id="XMLID_490_">
				<g id="XMLID_491_" class="st9">
					<g id="XMLID_496_">
						<polygon id="XMLID_497_" class="st26" points="374.9,509.9 374.9,511.5 380.5,515.8 380.5,514.2 						"/>
					</g>
					<g id="XMLID_494_">
						<polygon id="XMLID_495_" class="st27" points="380.5,514.2 380.5,515.8 380.6,515.9 380.6,514.3 						"/>
					</g>
					<g id="XMLID_492_">
						<polygon id="XMLID_493_" class="st22" points="374.9,509.9 380.5,514.2 380.6,514.3 379.3,508.9 376.8,509.5 						"/>
					</g>
				</g>
			</g>
		</g>
	</g>
	<g id="XMLID_83_">
		<g id="XMLID_85_">
			<g id="XMLID_142_">
				<g id="XMLID_143_">
					<g id="XMLID_296_">
						<path id="XMLID_297_" class="st28" d="M327.4,63.3c3.5-2.1,6.5-0.4,6.5,3.8l0.7,136.7c0,4.2-2.9,9.4-6.4,11.5l-208.9,125
							c-3.6,2.1-6.5,0.4-6.5-3.8l-0.7-136.7c0-4.2,2.9-9.4,6.4-11.5L327.4,63.3z"/>
					</g>
					<g id="XMLID_289_">
						<polygon id="XMLID_295_" class="st29" points="311.8,107.2 327.3,98.2 327.3,80.1 311.8,89.1 						"/>
						<polygon id="XMLID_294_" class="st29" points="311.8,128.8 327.3,119.7 327.3,101.7 311.8,110.7 						"/>
						<polygon id="XMLID_293_" class="st29" points="311.8,150.4 327.3,141.3 327.3,123.3 311.8,132.3 						"/>
						<polygon id="XMLID_292_" class="st29" points="311.8,171.9 327.3,162.9 327.3,144.9 311.8,153.9 						"/>
						<polygon id="XMLID_291_" class="st29" points="311.8,193.4 327.3,184.4 327.3,166.3 311.8,175.4 						"/>
						<polygon id="XMLID_290_" class="st29" points="311.8,215 327.3,206 327.3,187.9 311.8,196.9 						"/>
					</g>
					<g id="XMLID_154_">
						<g id="XMLID_287_">
							<path id="XMLID_288_" class="st3" d="M483.8,304.4c0,0.2,0,0.3,0,0.5s0,0.3-0.1,0.5c0,0.1-0.1,0.3-0.1,0.4
								c0,0.2-0.1,0.3-0.1,0.5c0,0.1-0.1,0.2-0.2,0.4c-0.1,0.2-0.1,0.3-0.2,0.5c0,0.1-0.1,0.2-0.2,0.3c-0.1,0.2-0.2,0.4-0.3,0.5
								c-0.1,0.1-0.2,0.2-0.3,0.3c-0.2,0.2-0.3,0.5-0.6,0.7c-0.1,0.1-0.2,0.2-0.3,0.3c-0.1,0.1-0.2,0.3-0.4,0.4
								c-0.1,0.1-0.3,0.3-0.5,0.4c-0.1,0.1-0.3,0.2-0.5,0.3c-0.2,0.2-0.5,0.3-0.8,0.5l-82.1,49v-5.1l-18-10.8l26.2-15.7v-2l1.7,1
								l35.6-21.4l-0.1-12.8l-16.7-9.9l-3.8,2.3v-4.6l-5.6-3.3l-11.1-6.6L386,259.6l-4.8,2.9v-5.7l-16.7-9.9l-3.7,2.2v-4.5
								l-16.7-9.9l-17.2,10.4v4l-3.3-2l-17.2,10.4v3.9l-3.3-2l-17.2,10.4v3.9l-3.3-2l-17.2,10.4v3.9l-3.3-2l-17.2,10.4v3.9l-3.3-2
								L224,306.8v3.9l-3.3-1.9l-17.3,10.4v3.9l-3.3-1.9L183,331.5v3.9l-3.3-1.9l-17.3,10.4l0.1,12.8l9.7,5.7l-4.1,2.5v-4.4
								l-16.7-9.9L134.2,361l0.1,12.8l16.7,9.9l3.8-2.2v4.4l16.7,9.9l3.7-2.3v4.5l16.7,9.8l3.7-2.2v4.5l16.7,9.9l3.8-2.3v4.6
								l16.7,9.9l36.5-22v-2.6l2.1,1.3l27-16.2v-2.9l2.5,1.5l9.8-5.9v4.9l18.1,10.8l-67,39.9c-0.7,0.4-1.4,0.7-2.1,1
								c-0.2,0.1-0.4,0.2-0.6,0.2c-0.5,0.2-1,0.3-1.5,0.5c-0.4,0.1-0.9,0.3-1.4,0.3c-0.6,0.1-1.3,0.2-2,0.3c-0.1,0-0.2,0-0.4,0.1
								c-0.9,0.1-1.7,0.1-2.6,0.1c-0.2,0-0.3,0-0.4,0c-0.8,0-1.7-0.1-2.5-0.1c-0.1,0-0.3,0-0.4,0c-0.8-0.1-1.6-0.3-2.4-0.4
								c-0.1,0-0.3-0.1-0.5-0.1c-0.8-0.2-1.5-0.4-2.2-0.7c-0.1,0-0.2,0-0.2-0.1c-0.8-0.3-1.6-0.7-2.3-1.1l-125.5-74.7
								c-2.9-1.7-4.4-4-4.4-6.3c0,4.3,0,8.5,0.1,12.8c0,2.3,1.5,4.6,4.4,6.4l125.5,74.7c0.7,0.4,1.5,0.8,2.3,1.1c0,0,0,0,0.1,0
								s0.2,0.1,0.2,0.1c0.5,0.2,1,0.4,1.5,0.5c0.2,0.1,0.4,0.1,0.7,0.1c0.2,0,0.3,0.1,0.5,0.1s0.3,0.1,0.5,0.1
								c0.5,0.1,1,0.2,1.5,0.2c0.1,0,0.3,0,0.4,0.1c0.1,0,0.3,0,0.4,0c0.2,0.1,0.4,0.1,0.6,0.1c0.5,0.1,1,0.1,1.5,0.1
								c0.1,0,0.3,0,0.4,0c0.1,0,0.3,0,0.4,0c0.2,0,0.5,0,0.7,0c0.6,0,1.1-0.1,1.7-0.1c0.1,0,0.1,0,0.1,0c0.1,0,0.2,0,0.4-0.1
								c0.5-0.1,0.9-0.1,1.4-0.2c0.2,0,0.4-0.1,0.6-0.1c0.4-0.1,0.9-0.2,1.3-0.3c0.3-0.1,0.6-0.1,0.8-0.2c0.2-0.1,0.5-0.2,0.7-0.3
								c0.2-0.1,0.4-0.1,0.6-0.2c0.7-0.3,1.5-0.6,2.2-1.1l217.6-130.1c0.2-0.1,0.3-0.2,0.5-0.3c0.1-0.1,0.2-0.1,0.3-0.2
								c0.2-0.1,0.3-0.2,0.5-0.4c0.2-0.1,0.3-0.2,0.5-0.4c0.1-0.1,0.2-0.2,0.4-0.3c0.1-0.1,0.1-0.1,0.2-0.2s0.1-0.1,0.2-0.2
								c0.2-0.2,0.4-0.5,0.6-0.6c0-0.1,0.1-0.2,0.1-0.2s0-0.1,0.1-0.1c0.1-0.2,0.2-0.4,0.3-0.6c0-0.1,0.1-0.2,0.2-0.3v-0.1
								c0.1-0.2,0.1-0.4,0.2-0.5c0-0.1,0.1-0.2,0.1-0.3c0,0,0,0,0-0.1c0.1-0.2,0.1-0.3,0.1-0.5c0-0.1,0.1-0.2,0.1-0.3c0,0,0,0,0-0.1
								c0-0.2,0-0.3,0.1-0.5c0-0.1,0-0.2,0-0.4V317C483.9,312.9,483.8,308.6,483.8,304.4z"/>
						</g>
						<g id="XMLID_155_">
							<g id="XMLID_285_">
								<path id="XMLID_286_" class="st29" d="M479.4,298l-125.5-74.6c-5.9-3.5-15.6-3.5-21.5,0.1L114.8,353.6
									c-5.9,3.5-5.9,9.3,0,12.8L240.3,441c5.9,3.5,15.5,3.5,21.5-0.1l217.6-130.1C485.3,307.3,485.3,301.5,479.4,298z"/>
							</g>
							<g id="XMLID_282_">
								<g id="XMLID_283_">
									<polygon id="XMLID_284_" class="st24" points="335.3,264.4 352,274.2 334.7,284.6 318,274.7 									"/>
								</g>
							</g>
							<g id="XMLID_279_">
								<g id="XMLID_280_">
									<polygon id="XMLID_281_" class="st24" points="361.9,272.7 378.6,282.6 361.4,293 344.7,283.1 									"/>
								</g>
							</g>
							<g id="XMLID_276_">
								<g id="XMLID_277_">
									<polygon id="XMLID_278_" class="st24" points="385.9,259.6 405.2,271 416.4,277.6 421.9,280.9 392.9,298.4 376.2,288.5 
										385.1,283.2 365.8,271.7 									"/>
								</g>
							</g>
							<g id="XMLID_273_">
								<g id="XMLID_274_">
									<polygon id="XMLID_275_" class="st24" points="342.5,284.4 359.2,294.3 342,304.6 325.2,294.8 									"/>
								</g>
							</g>
							<g id="XMLID_270_">
								<g id="XMLID_271_">
									<polygon id="XMLID_272_" class="st24" points="425.8,283.2 442.5,293.1 406.9,314.4 390.2,304.6 									"/>
								</g>
							</g>
							<g id="XMLID_267_">
								<g id="XMLID_268_">
									<polygon id="XMLID_269_" class="st24" points="388.5,305.6 405.2,315.5 378.3,331.7 361.6,321.8 									"/>
								</g>
							</g>
							<g id="XMLID_264_">
								<g id="XMLID_265_">
									<polygon id="XMLID_266_" class="st24" points="335.4,313.1 352,323 334.8,333.3 318.1,323.4 									"/>
								</g>
							</g>
							<g id="XMLID_261_">
								<g id="XMLID_262_">
									<polygon id="XMLID_263_" class="st24" points="343.9,234.8 360.6,244.6 343.4,255 326.7,245.1 									"/>
								</g>
							</g>
							<g id="XMLID_258_">
								<g id="XMLID_259_">
									<polygon id="XMLID_260_" class="st24" points="323.4,247.1 340.1,257 322.9,267.4 306.2,257.5 									"/>
								</g>
							</g>
							<g id="XMLID_255_">
								<g id="XMLID_256_">
									<polygon id="XMLID_257_" class="st24" points="364.4,246.9 381.1,256.7 354.3,272.8 337.6,262.9 									"/>
								</g>
							</g>
							<g id="XMLID_252_">
								<g id="XMLID_253_">
									<polygon id="XMLID_254_" class="st24" points="302.9,259.4 319.6,269.3 302.3,279.7 285.6,269.8 									"/>
								</g>
							</g>
							<g id="XMLID_249_">
								<g id="XMLID_250_">
									<polygon id="XMLID_251_" class="st24" points="282.3,271.8 299,281.7 281.8,292 265.1,282.2 									"/>
								</g>
							</g>
							<g id="XMLID_246_">
								<g id="XMLID_247_">
									<polygon id="XMLID_248_" class="st24" points="315.6,276.1 332.4,286 315.1,296.4 298.4,286.5 									"/>
								</g>
							</g>
							<g id="XMLID_243_">
								<g id="XMLID_244_">
									<polygon id="XMLID_245_" class="st24" points="261.8,284.1 278.5,294 261.3,304.4 244.6,294.5 									"/>
								</g>
							</g>
							<g id="XMLID_240_">
								<g id="XMLID_241_">
									<polygon id="XMLID_242_" class="st24" points="296,288 312.7,297.8 295.5,308.2 278.8,298.3 									"/>
								</g>
							</g>
							<g id="XMLID_237_">
								<g id="XMLID_238_">
									<polygon id="XMLID_239_" class="st24" points="373.9,289.9 390.6,299.7 373.4,310.1 356.7,300.2 									"/>
								</g>
							</g>
							<g id="XMLID_234_">
								<g id="XMLID_235_">
									<polygon id="XMLID_236_" class="st24" points="241.3,296.5 258,306.3 240.7,316.7 224,306.8 									"/>
								</g>
							</g>
							<g id="XMLID_231_">
								<g id="XMLID_232_">
									<polygon id="XMLID_233_" class="st24" points="323.1,296 339.8,305.9 322.5,316.3 305.8,306.4 									"/>
								</g>
							</g>
							<g id="XMLID_228_">
								<g id="XMLID_229_">
									<polygon id="XMLID_230_" class="st24" points="276.4,299.7 293.1,309.6 275.9,320 259.2,310.1 									"/>
								</g>
							</g>
							<g id="XMLID_225_">
								<g id="XMLID_226_">
									<polygon id="XMLID_227_" class="st24" points="354.5,301.5 371.2,311.4 354,321.8 337.3,311.9 									"/>
								</g>
							</g>
							<g id="XMLID_222_">
								<g id="XMLID_223_">
									<polygon id="XMLID_224_" class="st24" points="303.7,307.7 320.4,317.6 303.2,327.9 286.5,318.1 									"/>
								</g>
							</g>
							<g id="XMLID_219_">
								<g id="XMLID_220_">
									<polygon id="XMLID_221_" class="st24" points="220.8,308.8 237.5,318.7 220.2,329.1 203.5,319.2 									"/>
								</g>
							</g>
							<g id="XMLID_216_">
								<g id="XMLID_217_">
									<polygon id="XMLID_218_" class="st24" points="256.8,311.5 273.5,321.4 256.3,331.8 239.5,321.9 									"/>
								</g>
							</g>
							<g id="XMLID_213_">
								<g id="XMLID_214_">
									<polygon id="XMLID_215_" class="st24" points="284.3,319.4 301,329.2 283.7,339.6 267,329.7 									"/>
								</g>
							</g>
							<g id="XMLID_210_">
								<g id="XMLID_211_">
									<polygon id="XMLID_212_" class="st24" points="200.2,321.2 216.9,331.1 199.7,341.4 183,331.5 									"/>
								</g>
							</g>
							<g id="XMLID_207_">
								<g id="XMLID_208_">
									<polygon id="XMLID_209_" class="st24" points="237.1,323.3 253.9,333.2 236.6,343.6 219.9,333.7 									"/>
								</g>
							</g>
							<g id="XMLID_204_">
								<g id="XMLID_205_">
									<polygon id="XMLID_206_" class="st24" points="315.3,325.1 332,335 314.8,345.4 298.1,335.5 									"/>
								</g>
							</g>
							<g id="XMLID_201_">
								<g id="XMLID_202_">
									<polygon id="XMLID_203_" class="st24" points="264.9,331 281.6,340.9 264.4,351.3 247.7,341.4 									"/>
								</g>
							</g>
							<g id="XMLID_198_">
								<g id="XMLID_199_">
									<polygon id="XMLID_200_" class="st24" points="179.7,333.5 196.4,343.4 179.1,353.8 162.5,343.9 									"/>
								</g>
							</g>
							<g id="XMLID_195_">
								<g id="XMLID_196_">
									<polygon id="XMLID_197_" class="st24" points="217.5,335.1 234.2,345 217,355.4 200.3,345.5 									"/>
								</g>
							</g>
							<g id="XMLID_192_">
								<g id="XMLID_193_">
									<polygon id="XMLID_194_" class="st24" points="296.1,336.7 312.8,346.5 295.6,356.9 278.9,347 									"/>
								</g>
							</g>
							<g id="XMLID_189_">
								<g id="XMLID_190_">
									<polygon id="XMLID_191_" class="st24" points="245.5,342.7 262.2,352.6 244.9,363 228.2,353.1 									"/>
								</g>
							</g>
							<g id="XMLID_186_">
								<g id="XMLID_187_">
									<polygon id="XMLID_188_" class="st24" points="276.7,348.3 293.4,358.2 276.2,368.6 259.5,358.7 									"/>
								</g>
							</g>
							<g id="XMLID_183_">
								<g id="XMLID_184_">
									<polygon id="XMLID_185_" class="st24" points="151.4,350.5 168.1,360.4 150.8,370.8 134.2,360.9 									"/>
								</g>
							</g>
							<g id="XMLID_180_">
								<g id="XMLID_181_">
									<polygon id="XMLID_182_" class="st24" points="226.1,354.4 242.8,364.2 225.6,374.6 208.9,364.7 									"/>
								</g>
							</g>
							<g id="XMLID_177_">
								<g id="XMLID_178_">
									<polygon id="XMLID_179_" class="st24" points="359.8,322.8 376.5,332.7 300.8,378.3 284.1,368.4 									"/>
								</g>
							</g>
							<g id="XMLID_174_">
								<g id="XMLID_175_">
									<polygon id="XMLID_176_" class="st24" points="257.5,359.9 274.2,369.7 257,380.1 240.3,370.2 									"/>
								</g>
							</g>
							<g id="XMLID_171_">
								<g id="XMLID_172_">
									<polygon id="XMLID_173_" class="st24" points="197,347.5 213.7,357.3 171.3,382.9 154.6,373 									"/>
								</g>
							</g>
							<g id="XMLID_168_">
								<g id="XMLID_169_">
									<polygon id="XMLID_170_" class="st24" points="372.7,340.2 397.3,354.8 335.3,391.9 310.6,377.2 									"/>
								</g>
							</g>
							<g id="XMLID_165_">
								<g id="XMLID_166_">
									<polygon id="XMLID_167_" class="st24" points="206.6,366.1 223.3,376 191.7,395 175,385.1 									"/>
								</g>
							</g>
							<g id="XMLID_162_">
								<g id="XMLID_163_">
									<polygon id="XMLID_164_" class="st24" points="281.6,369.9 298.3,379.7 271.4,395.9 254.7,386 									"/>
								</g>
							</g>
							<g id="XMLID_159_">
								<g id="XMLID_160_">
									<polygon id="XMLID_161_" class="st24" points="237.9,371.6 254.6,381.5 212.2,407 195.5,397.2 									"/>
								</g>
							</g>
							<g id="XMLID_156_">
								<g id="XMLID_157_">
									<polygon id="XMLID_158_" class="st24" points="252.5,387.4 269.2,397.2 232.7,419.2 216,409.3 									"/>
								</g>
							</g>
						</g>
					</g>
					<g id="XMLID_151_">
						<g id="XMLID_152_">
							<path id="XMLID_153_" class="st3" d="M338.2,47.9c-0.1-0.1-0.3-0.1-0.4-0.2c-1-0.6-2-1.2-3.1-1.8s-2.1-1.2-3.1-1.8
								c-2-1.2-4.7-1-7.7,0.8l-217.5,130c-5.9,3.5-10.7,12.2-10.7,19.2l0.8,149.3c0,3.5,1.2,5.9,3.2,7.1c2.6,1.5,5.1,3.1,7.7,4.6
								c-1.9-1.2-3.2-3.6-3.2-7.1l-0.8-149.3c0-7,4.8-15.6,10.7-19.2L331.6,49.3c3-1.8,5.7-1.9,7.7-0.8
								C338.9,48.3,338.6,48.1,338.2,47.9z"/>
						</g>
					</g>
					<g id="XMLID_146_">
						<g id="XMLID_147_">
							<path id="XMLID_148_" class="st30" d="M331.6,49.3c5.9-3.5,10.8-0.7,10.8,6.3l0.8,149.3c0,7-4.8,15.6-10.7,19.2L115,354.2
								c-5.9,3.5-10.8,0.7-10.8-6.3l-0.8-149.3c0-7,4.8-15.6,10.7-19.2L331.6,49.3z M334.6,203.8l-0.7-136.7c0-4.2-3-5.9-6.5-3.8
								l-208.9,125c-3.6,2.1-6.4,7.3-6.4,11.5l0.7,136.7c0,4.2,2.9,5.9,6.5,3.8l208.9-125C331.7,213.1,334.6,208,334.6,203.8
								L334.6,203.8z"/>
						</g>
					</g>
					<polygon id="XMLID_145_" class="st29" points="299.4,110.9 146.9,199.3 146.9,299.5 299.8,210.7 					"/>
				</g>
			</g>
			<path id="XMLID_140_" class="st30" d="M118.4,276v41.6v13.7l12.3-7.1l0,0l11.5-6.7l11.9-6.9l0,0l11.9-6.9l0,0l12.3-7.1v-55.3
				l-11.9,6.9L142.6,262L118.4,276z"/>
			<g id="XMLID_136_">
				<polygon id="XMLID_139_" class="st31" points="169.4,227.1 115,258.7 115,255.3 169.4,223.8 				"/>
				<polygon id="XMLID_138_" class="st32" points="169.4,233.3 115,264.9 115,261.5 169.4,229.9 				"/>
				<polygon id="XMLID_137_" class="st33" points="169.4,239.5 115,271.1 115,267.7 169.4,236.1 				"/>
			</g>
			<g id="XMLID_99_">
				<g id="XMLID_130_">
					<polygon id="XMLID_135_" class="st31" points="176,257.4 165,263.8 165,251 176,244.6 					"/>
					<polygon id="XMLID_134_" class="st34" points="164.9,263.9 153.9,270.2 153.9,257.5 164.9,251.1 					"/>
					<polygon id="XMLID_133_" class="st35" points="153.8,270.3 142.8,276.7 142.8,263.9 153.8,257.5 					"/>
					<polygon id="XMLID_132_" class="st36" points="142.7,276.7 131.7,283.1 131.7,270.3 142.7,264 					"/>
					<polygon id="XMLID_131_" class="st37" points="131.6,283.2 120.6,289.6 120.6,276.8 131.6,270.4 					"/>
				</g>
				<g id="XMLID_113_">
					<polygon id="XMLID_119_" class="st38" points="176,270.2 165,276.6 165,263.8 176,257.4 					"/>
					<polygon id="XMLID_117_" class="st39" points="164.9,276.6 153.9,283 153.9,270.2 164.9,263.9 					"/>
					<polygon id="XMLID_116_" class="st40" points="153.8,283.1 142.8,289.5 142.8,276.7 153.8,270.3 					"/>
					<polygon id="XMLID_115_" class="st41" points="142.7,289.5 131.7,295.9 131.7,283.1 142.7,276.7 					"/>
					<polygon id="XMLID_114_" class="st42" points="131.6,295.9 120.6,302.3 120.6,289.6 131.6,283.2 					"/>
				</g>
				<g id="XMLID_107_">
					<polygon id="XMLID_112_" class="st32" points="176,283 165,289.3 165,276.6 176,270.2 					"/>
					<polygon id="XMLID_111_" class="st43" points="164.9,289.4 153.9,295.8 153.9,283 164.9,276.6 					"/>
					<polygon id="XMLID_110_" class="st44" points="153.8,295.8 142.8,302.2 142.8,289.5 153.8,283.1 					"/>
					<polygon id="XMLID_109_" class="st45" points="142.7,302.3 131.7,308.7 131.7,295.9 142.7,289.5 					"/>
					<polygon id="XMLID_108_" class="st46" points="131.6,308.7 120.6,315.1 120.6,302.3 131.6,295.9 					"/>
				</g>
				<g id="XMLID_101_">
					<polygon id="XMLID_106_" class="st47" points="176,295.7 165,302.1 165,289.3 176,283 					"/>
					<polygon id="XMLID_105_" class="st48" points="164.9,302.2 153.9,308.6 153.9,295.8 164.9,289.4 					"/>
					<polygon id="XMLID_104_" class="st49" points="153.8,308.6 142.8,315 142.8,302.2 153.8,295.8 					"/>
					<polygon id="XMLID_103_" class="st50" points="142.7,315 131.7,321.4 131.7,308.7 142.7,302.3 					"/>
					<polygon id="XMLID_102_" class="st51" points="131.6,321.5 120.6,327.9 120.6,315.1 131.6,308.7 					"/>
				</g>
			</g>
			<polygon id="XMLID_97_" class="st52" points="165.8,170.7 119.5,197.5 119.5,242.4 165.9,215.5 			"/>
		</g>
	</g>
	<g id="XMLID_26765_">
		<path id="XMLID_26775_" class="st13" d="M526.9,297c0,0.9,0.6,1.8,1.8,2.5l12.3,7.1v-2.8c0-0.5,0.3-0.9,0.9-1.3l-4.3-2.5
			c-0.5-0.3-0.7-0.6-0.7-1v-5.8c0-0.3,0.2-0.7,0.7-1l47.6-27.8c0.9-0.5,2.5-0.5,3.4,0l11.3,6.6c0-0.8,0-1.7,0-2.4
			c0-0.2,0.1-0.4,0.4-0.5c0.5-0.3,1.4-0.3,1.9,0l8.1,4.7c0.3,0.2,0.4,0.4,0.4,0.6v3.9l5.9,3.4c0.5,0.3,0.7,0.6,0.7,1v3.5l5-2.9
			c1.2-0.7,1.7-1.6,1.7-2.5c0,1.9,0,3.9,0,5.8c0,0.9-0.6,1.8-1.7,2.5L565,321.5c-2.3,1.4-6.2,1.4-8.5,0l-27.8-16.1
			c-1.2-0.7-1.8-1.6-1.8-2.5C526.9,300.9,526.9,298.9,526.9,297z"/>
		<g id="XMLID_26766_">
			<path id="XMLID_26774_" class="st28" d="M537.5,292.2l47.6-27.8c0.9-0.5,2.5-0.5,3.4,0l28,16.2c0.9,0.5,0.9,1.4,0,2l-47.6,27.8
				c-0.9,0.5-2.5,0.5-3.4,0l-28-16.2C536.6,293.7,536.6,292.8,537.5,292.2z"/>
			<path id="XMLID_26773_" class="st2" d="M546.9,302.4c-1.4-0.8-3.6-0.8-4.9,0c-1.4,0.8-1.4,2.1,0,2.9l5,2.9c1.4,0.8,3.6,0.8,4.9,0
				c1.4-0.8,1.3-2.1,0-2.9L546.9,302.4z"/>
			<path id="XMLID_26768_" class="st53" d="M622.2,277.2c2.3,1.4,2.4,3.6,0,5L565,315.6c-2.4,1.4-6.2,1.4-8.5,0l-27.8-16.1
				c-2.4-1.4-2.4-3.6,0-5l57.3-33.4c2.3-1.4,6.2-1.4,8.5,0L622.2,277.2z M537.5,292.2c-0.9,0.6-0.9,1.5,0,2l28,16.2
				c0.9,0.5,2.5,0.5,3.4,0l47.6-27.8c0.9-0.5,0.9-1.4,0-2l-28-16.2c-0.9-0.5-2.5-0.5-3.4,0L537.5,292.2L537.5,292.2z M542,305.2
				l5,2.9c1.4,0.8,3.6,0.8,4.9,0c1.4-0.8,1.3-2.1,0-2.9l-5-2.9c-1.4-0.8-3.6-0.8-4.9,0C540.6,303.2,540.6,304.4,542,305.2L542,305.2
				z M610.2,272.7l-8.1-4.7c-0.5-0.3-1.4-0.3-1.9,0s-0.5,0.8,0,1.1l8.1,4.7c0.5,0.3,1.4,0.3,1.9,0
				C610.7,273.5,610.7,273,610.2,272.7L610.2,272.7z"/>
			<path id="XMLID_26767_" class="st2" d="M602.1,268c-0.5-0.3-1.4-0.3-1.9,0s-0.5,0.8,0,1.1l8.1,4.7c0.5,0.3,1.4,0.3,1.9,0
				s0.5-0.8,0-1.1L602.1,268z"/>
		</g>
	</g>
	<g id="XMLID_26027_">
		<g id="XMLID_26792_">
			<g id="XMLID_26793_" class="st9">
				<g id="XMLID_26798_">
					<polygon id="XMLID_26799_" class="st3" points="574.9,211.1 574.9,212.9 474.5,271.5 474.5,269.7 					"/>
				</g>
				<g id="XMLID_26796_">
					<polygon id="XMLID_26797_" class="st10" points="474.5,269.7 474.5,271.5 398.4,227.4 398.4,225.5 					"/>
				</g>
				<g id="XMLID_26794_">
					<polygon id="XMLID_26795_" class="st54" points="574.9,211.1 474.5,269.7 398.4,225.5 498.8,167 					"/>
				</g>
			</g>
		</g>
		<g id="XMLID_26784_">
			<g id="XMLID_26785_" class="st9">
				<g id="XMLID_26790_">
					<polygon id="XMLID_26791_" class="st3" points="625.3,209.7 625.3,211.4 533.2,265.2 533.2,263.6 					"/>
				</g>
				<g id="XMLID_26788_">
					<polygon id="XMLID_26789_" class="st10" points="533.2,263.6 533.2,265.2 463.3,224.7 463.3,223 					"/>
				</g>
				<g id="XMLID_26786_">
					<polygon id="XMLID_26787_" class="st54" points="625.3,209.7 533.2,263.6 463.3,223 555.4,169.2 					"/>
				</g>
			</g>
		</g>
		<g id="XMLID_26776_">
			<g id="XMLID_26777_" class="st9">
				<g id="XMLID_26782_">
					<polygon id="XMLID_26783_" class="st3" points="574.9,204.8 574.9,206.6 474.5,265.2 474.5,263.4 					"/>
				</g>
				<g id="XMLID_26780_">
					<polygon id="XMLID_26781_" class="st10" points="474.5,263.4 474.5,265.2 398.4,221 398.4,219.2 					"/>
				</g>
				<g id="XMLID_26778_">
					<polygon id="XMLID_26779_" class="st55" points="574.9,204.8 474.5,263.4 398.4,219.2 498.8,160.6 					"/>
				</g>
			</g>
		</g>
		<g id="XMLID_26054_">
			<g id="XMLID_26721_">
				<g id="XMLID_26756_">
					<g id="XMLID_26757_" class="st9">
						<g id="XMLID_26762_">
							<polygon id="XMLID_26764_" class="st56" points="611.3,205.8 611.3,210.9 519.1,264.7 519.2,259.6 							"/>
						</g>
						<g id="XMLID_26760_">
							<polygon id="XMLID_26761_" class="st8" points="519.2,259.6 519.1,264.7 449.2,224.1 449.2,219.1 							"/>
						</g>
						<g id="XMLID_26758_">
							<polygon id="XMLID_26759_" class="st57" points="611.3,205.8 519.2,259.6 449.2,219.1 541.4,165.3 							"/>
						</g>
					</g>
				</g>
				<g id="XMLID_26748_">
					<g id="XMLID_26749_" class="st9">
						<g id="XMLID_26754_">
							<polygon id="XMLID_26755_" class="st3" points="625.3,209.7 625.3,211.4 533.2,265.2 533.2,263.6 							"/>
						</g>
						<g id="XMLID_26752_">
							<polygon id="XMLID_26753_" class="st10" points="533.2,263.6 533.2,265.2 463.3,224.7 463.3,223 							"/>
						</g>
						<g id="XMLID_26750_">
							<polygon id="XMLID_26751_" class="st54" points="625.3,209.7 533.2,263.6 463.3,223 555.4,169.2 							"/>
						</g>
					</g>
				</g>
				<g id="XMLID_26739_">
					<g id="XMLID_26740_" class="st9">
						<g id="XMLID_26746_">
							<polygon id="XMLID_26747_" class="st3" points="614.4,208.5 614.4,210.2 522.3,264 522.3,262.3 							"/>
						</g>
						<g id="XMLID_26744_">
							<polygon id="XMLID_26745_" class="st10" points="522.3,262.3 522.3,264 452.3,223.4 452.3,221.7 							"/>
						</g>
						<g id="XMLID_26741_">
							<polygon id="XMLID_26742_" class="st58" points="614.4,208.5 522.3,262.3 452.3,221.7 544.5,167.9 							"/>
						</g>
					</g>
				</g>
				<g id="XMLID_26730_">
					<g id="XMLID_26732_" class="st9">
						<g id="XMLID_26737_">
							<polygon id="XMLID_26738_" class="st3" points="625.4,197 625.4,198.7 533.3,252.5 533.3,250.8 							"/>
						</g>
						<g id="XMLID_26735_">
							<polygon id="XMLID_26736_" class="st10" points="533.3,250.8 533.3,252.5 463.3,212 463.3,210.3 							"/>
						</g>
						<g id="XMLID_26733_">
							<polygon id="XMLID_26734_" class="st55" points="625.4,197 533.3,250.8 463.3,210.3 555.5,156.5 							"/>
						</g>
					</g>
				</g>
				<g id="XMLID_26722_">
					<g id="XMLID_26723_" class="st9">
						<g id="XMLID_26728_">
							<polygon id="XMLID_26729_" class="st56" points="611.3,196.3 611.3,201.4 519.1,255.2 519.2,250.1 							"/>
						</g>
						<g id="XMLID_26726_">
							<polygon id="XMLID_26727_" class="st8" points="519.2,250.1 519.1,255.2 453,216.8 452.9,221.7 449.2,224.1 449.2,214.6 
								449.2,209.6 							"/>
						</g>
						<g id="XMLID_26724_">
							<polygon id="XMLID_26725_" class="st7" points="611.3,196.3 519.2,250.1 449.2,209.6 541.4,155.8 							"/>
						</g>
					</g>
				</g>
			</g>
			<g id="XMLID_26588_">
				<g id="XMLID_26592_">
					<g id="XMLID_26702_">
						<g id="XMLID_26703_" class="st9">
							<g id="XMLID_26717_" class="st9">
								<g id="XMLID_26718_">
									<path id="XMLID_26719_" class="st13" d="M498.4,183.5l32.4-18.9c2.1-1.2,5.1-1.1,8.3,0.8l-32.5,18.9
										C503.4,182.4,500.5,182.2,498.4,183.5L498.4,183.5z"/>
								</g>
							</g>
							<g id="XMLID_26708_" class="st9">
								<g>
									<path id="XMLID_26710_" class="st13" d="M547.4,193.2l-32.5,18.9c2.1-1.2,3.4-3.8,3.4-7.5c0-7.5-5.2-16.6-11.7-20.3
										l32.5-18.9c6.5,3.7,11.7,12.8,11.7,20.3C550.8,189.4,549.5,192,547.4,193.2z"/>
								</g>
								<g>
									<g>
										<defs>
											<path id="SVGID_1_" d="M547.4,193.2l-32.5,18.9c2.1-1.2,3.4-3.8,3.4-7.5c0-7.5-5.2-16.6-11.7-20.3l32.5-18.9
												c6.5,3.7,11.7,12.8,11.7,20.3C550.8,189.4,549.5,192,547.4,193.2z"/>
										</defs>
										<clipPath id="SVGID_2_">
											<use xlink:href="#SVGID_1_"  style="overflow:visible;"/>
										</clipPath>
										<g id="XMLID_26711_" class="st59">
											<path id="XMLID_26716_" class="st13" d="M506.7,184.3l32.5-18.9c0.7,0.4,1.4,0.9,2.1,1.4l-32.4,18.9
												C508.1,185.2,507.4,184.7,506.7,184.3L506.7,184.3z"/>
											<path id="XMLID_26715_" class="st13" d="M508.8,185.7l32.4-18.9c1.4,1.1,2.7,2.4,3.9,3.9l-32.5,19
												C511.5,188.2,510.2,186.8,508.8,185.7L508.8,185.7z"/>
											<path id="XMLID_26714_" class="st13" d="M512.7,189.7l32.5-19c3.4,4.3,5.7,10,5.7,14.9c0,0.6,0,1.1-0.1,1.6l-32.5,19
												c0.1-0.5,0.1-1.1,0.1-1.6C518.4,199.7,516.1,194,512.7,189.7L512.7,189.7z"/>
											<path id="XMLID_26713_" class="st13" d="M518.3,206.2l32.5-19c-0.2,1.5-0.6,2.8-1.3,3.9l-32.5,19
												C517.6,209.1,518.1,207.8,518.3,206.2L518.3,206.2z"/>
											<path id="XMLID_26712_" class="st13" d="M517,210.1l32.5-19c-0.6,0.9-1.2,1.6-2.1,2.1l-32.5,18.9
												C515.8,211.7,516.5,211,517,210.1L517,210.1z"/>
										</g>
									</g>
								</g>
							</g>
							<g id="XMLID_26704_">
								<path id="XMLID_26707_" class="st13" d="M506.7,184.3c6.5,3.8,11.7,12.8,11.7,20.3s-5.3,10.5-11.7,6.7
									c-6.5-3.8-11.7-12.8-11.7-20.3C495,183.6,500.2,180.6,506.7,184.3z"/>
								<path id="XMLID_26706_" class="st13" d="M511.9,211.2c-1.3,0-2.8-0.5-4.4-1.4c-6-3.5-10.8-11.9-10.8-18.8
									c0-4.1,1.8-6.6,4.7-6.6c1.3,0,2.8,0.5,4.4,1.4c6,3.5,10.8,11.9,10.8,18.8C516.6,208.7,514.8,211.2,511.9,211.2z"/>
								<path id="XMLID_26705_" class="st13" d="M511.9,210.4c-1.2,0-2.5-0.4-4-1.3c-5.7-3.3-10.4-11.4-10.4-18.1
									c0-1.7,0.4-5.8,3.9-5.8c1.2,0,2.5,0.4,4,1.3c5.7,3.3,10.4,11.4,10.4,18.1C515.8,206.3,515.4,210.4,511.9,210.4z"/>
							</g>
						</g>
					</g>
					<g id="XMLID_26687_" class="st9">
						<g id="XMLID_26700_">
							<path id="XMLID_26701_" class="st53" d="M481.1,161l14-8.2c1.4-0.8,3.3-0.7,5.3,0.5l-14,8.2
								C484.4,160.3,482.5,160.2,481.1,161z"/>
						</g>
						<g id="XMLID_26697_">
							<path id="XMLID_26699_" class="st60" d="M556,230.4l-14,8.2c1.4-0.8,2.2-2.5,2.2-4.8l14-8.2C558.2,228,557.3,229.6,556,230.4
								z"/>
						</g>
						<g id="XMLID_26695_">
							<polygon id="XMLID_26696_" class="st60" points="544.3,203.7 558.2,195.5 558.2,225.6 544.2,233.8 							"/>
						</g>
						<g id="XMLID_26693_">
							<polygon id="XMLID_26694_" class="st53" points="486.5,161.5 500.5,153.3 550.8,182.5 536.8,190.7 							"/>
						</g>
						<g id="XMLID_26691_">
							<path id="XMLID_26692_" class="st60" d="M536.8,190.7l14-8.2c4.2,2.4,7.5,8.2,7.5,13l-14,8.2
								C544.3,198.9,540.9,193.1,536.8,190.7z"/>
						</g>
						<g id="XMLID_26688_">
							<path id="XMLID_26689_" class="st13" d="M536.8,190.7c4.2,2.4,7.5,8.2,7.5,13l-0.1,30.1c0,4.8-3.4,6.7-7.5,4.3l-50.3-29.2
								c-4.2-2.4-7.5-8.2-7.5-13l0.1-30.1c0-4.8,3.4-6.7,7.5-4.3L536.8,190.7z"/>
						</g>
					</g>
					<g id="XMLID_26679_">
						<g id="XMLID_26680_" class="st9">
							<g id="XMLID_26685_">
								<path id="XMLID_26686_" class="st3" d="M530.1,214.1l1-0.6c0.6-0.3,1.4-0.3,2.2,0.2l-1,0.6
									C531.5,213.8,530.7,213.7,530.1,214.1z"/>
							</g>
							<g id="XMLID_26683_">
								<path id="XMLID_26684_" class="st3" d="M535.6,221.2l-1,0.6c0.6-0.3,0.9-1,0.9-2c0-2-1.4-4.5-3.1-5.5l1-0.6
									c1.7,1,3.1,3.5,3.1,5.5C536.5,220.2,536.1,220.9,535.6,221.2z"/>
							</g>
							<g id="XMLID_26681_">
								<path id="XMLID_26682_" class="st61" d="M532.4,214.3c1.7,1,3.1,3.5,3.1,5.5s-1.4,2.8-3.2,1.8c-1.7-1-3.1-3.5-3.1-5.5
									S530.6,213.3,532.4,214.3z"/>
							</g>
						</g>
					</g>
					<g id="XMLID_26670_">
						<g id="XMLID_26671_" class="st9">
							<g id="XMLID_26674_" class="st9">
								<g id="XMLID_26675_" class="st9">
									<path id="XMLID_26678_" class="st62" d="M541.8,181.7v2c0,0.2,0,0.3-0.1,0.5v-2C541.7,182,541.8,181.9,541.8,181.7
										L541.8,181.7z"/>
									<path id="XMLID_26677_" class="st63" d="M541.7,182.2v2c-0.2,0.4-0.5,0.7-1,1c-0.7,0.4-1.7,0.7-2.7,0.6v-2
										c1,0,2-0.2,2.7-0.6C541.2,182.9,541.5,182.6,541.7,182.2L541.7,182.2z"/>
									<path id="XMLID_26676_" class="st62" d="M538,183.8v2c-0.9,0-1.8-0.2-2.6-0.6c-0.7-0.4-1.1-1-1.1-1.5v-2
										c0,0.6,0.4,1.1,1.1,1.5C536.1,183.6,537.1,183.8,538,183.8L538,183.8z"/>
								</g>
							</g>
							<g id="XMLID_26672_">
								<path id="XMLID_26673_" class="st64" d="M540.7,180.2c1.5,0.8,1.5,2.2,0,3s-3.8,0.8-5.3,0s-1.5-2.2,0-3.1
									C536.9,179.3,539.2,179.3,540.7,180.2z"/>
							</g>
						</g>
					</g>
					<polygon id="XMLID_26669_" class="st25" points="523.7,225.2 483.1,201.6 483.1,165.9 523.7,189.4 					"/>
					<polygon id="XMLID_26668_" class="st47" points="483.9,201.2 483.9,167.3 522.9,189.9 522.9,223.7 					"/>
					<g id="XMLID_26660_">
						<g id="XMLID_26661_" class="st9">
							<g id="XMLID_26666_">
								<polygon id="XMLID_26667_" class="st65" points="536.9,207.5 537.6,207.1 537.6,212.5 536.9,212.9 								"/>
							</g>
							<g id="XMLID_26664_">
								<polygon id="XMLID_26665_" class="st66" points="530,203.5 530.7,203.1 537.6,207.1 536.9,207.5 								"/>
							</g>
							<g id="XMLID_26662_">
								<polygon id="XMLID_26663_" class="st61" points="536.9,207.5 536.9,212.9 530,208.9 530,203.5 								"/>
							</g>
						</g>
					</g>
					<g id="XMLID_26646_">
						<g id="XMLID_26647_" class="st9">
							<g id="XMLID_26656_" class="st9">
								<g id="XMLID_26657_" class="st9">
									<path id="XMLID_26659_" class="st3" d="M530.4,194.2l0.7-0.4c0.2-0.1,0.5-0.2,0.8-0.1l-0.7,0.4
										C530.9,194,530.6,194.1,530.4,194.2L530.4,194.2z"/>
									<path id="XMLID_26658_" class="st67" d="M531.2,194.1l0.7-0.4c0.2,0,0.3,0.1,0.5,0.2l-0.7,0.4
										C531.5,194.2,531.3,194.1,531.2,194.1L531.2,194.1z"/>
								</g>
							</g>
							<g id="XMLID_26654_">
								<polygon id="XMLID_26655_" class="st66" points="531.7,194.3 532.4,193.9 537.2,196.7 536.5,197.1 								"/>
							</g>
							<g id="XMLID_26650_" class="st9">
								<g id="XMLID_26651_" class="st9">
									<path id="XMLID_26653_" class="st67" d="M536.5,197.1l0.7-0.4c0.7,0.4,1.3,1.2,1.6,2l-0.7,0.4
										C537.8,198.3,537.2,197.5,536.5,197.1L536.5,197.1z"/>
									<path id="XMLID_26652_" class="st3" d="M538.1,199.1l0.7-0.4c0.1,0.4,0.2,0.8,0.2,1.1c0,0.6-0.2,1-0.5,1.2l-0.7,0.4
										c0.3-0.2,0.5-0.6,0.5-1.2C538.3,199.9,538.2,199.5,538.1,199.1L538.1,199.1z"/>
								</g>
							</g>
							<g id="XMLID_26648_">
								<path id="XMLID_26649_" class="st61" d="M536.5,197.1c1,0.6,1.8,2,1.8,3.1c0,1.2-0.8,1.6-1.8,1l-4.8-2.8
									c-1-0.6-1.8-2-1.8-3.1c0-1.2,0.8-1.6,1.8-1L536.5,197.1z"/>
							</g>
						</g>
					</g>
					<g id="XMLID_26627_">
						<g id="XMLID_26629_" class="st9">
							<g id="XMLID_26641_" class="st9">
								<g id="XMLID_26642_" class="st9">
									<path id="XMLID_26645_" class="st3" d="M534.8,227.3l0.5-0.3c0.2-0.1,0.5-0.2,0.8-0.1l-0.5,0.3
										C535.3,227.2,535,227.2,534.8,227.3L534.8,227.3z"/>
									<path id="XMLID_26644_" class="st67" d="M535.6,227.3l0.5-0.3c0.1,0,0.3,0.1,0.5,0.2l-0.5,0.3
										C535.9,227.4,535.7,227.3,535.6,227.3L535.6,227.3z"/>
								</g>
							</g>
							<g id="XMLID_26637_">
								<polygon id="XMLID_26640_" class="st66" points="536.1,227.5 536.6,227.1 538.1,228 537.5,228.3 								"/>
							</g>
							<g id="XMLID_26633_" class="st9">
								<g id="XMLID_26634_" class="st9">
									<path id="XMLID_26636_" class="st67" d="M537.5,228.3l0.5-0.3c0.6,0.4,1.2,1.1,1.5,1.9l-0.5,0.3
										C538.7,229.4,538.2,228.7,537.5,228.3L537.5,228.3z"/>
									<path id="XMLID_26635_" class="st3" d="M539,230.2l0.5-0.3c0.1,0.4,0.2,0.7,0.2,1.1c0,0.6-0.2,0.9-0.5,1.1l-0.5,0.3
										c0.3-0.2,0.5-0.6,0.5-1.1C539.2,231,539.2,230.6,539,230.2L539,230.2z"/>
								</g>
							</g>
							<g id="XMLID_26630_">
								<path id="XMLID_26631_" class="st61" d="M537.5,228.3c1,0.6,1.7,1.9,1.7,3s-0.8,1.5-1.7,1l-1.5-0.9c-1-0.6-1.7-1.9-1.7-3
									s0.8-1.6,1.7-1L537.5,228.3z"/>
							</g>
						</g>
					</g>
					<g id="XMLID_26607_">
						<g id="XMLID_26608_" class="st9">
							<g id="XMLID_26620_" class="st9">
								<g id="XMLID_26622_" class="st9">
									<path id="XMLID_26625_" class="st3" d="M526.5,222.4l0.5-0.3c0.2-0.1,0.5-0.2,0.7-0.1l-0.5,0.3
										C527,222.3,526.7,222.3,526.5,222.4L526.5,222.4z"/>
									<path id="XMLID_26624_" class="st67" d="M527.3,222.4l0.5-0.3c0.2,0,0.3,0.1,0.5,0.2l-0.5,0.3
										C527.6,222.5,527.4,222.4,527.3,222.4L527.3,222.4z"/>
								</g>
							</g>
							<g id="XMLID_26618_">
								<polygon id="XMLID_26619_" class="st66" points="527.8,222.6 528.3,222.2 529.8,223.1 529.2,223.4 								"/>
							</g>
							<g id="XMLID_26613_" class="st9">
								<g id="XMLID_26615_" class="st9">
									<path id="XMLID_26617_" class="st67" d="M529.2,223.4l0.5-0.3c0.7,0.4,1.2,1.1,1.5,1.9l-0.5,0.3
										C530.4,224.5,529.9,223.8,529.2,223.4L529.2,223.4z"/>
									<path id="XMLID_26616_" class="st3" d="M530.7,225.3l0.5-0.3c0.1,0.4,0.2,0.7,0.2,1.1c0,0.5-0.2,0.9-0.5,1.1l-0.5,0.3
										c0.3-0.2,0.5-0.6,0.5-1.1C531,226.1,530.9,225.7,530.7,225.3L530.7,225.3z"/>
								</g>
							</g>
							<g id="XMLID_26610_">
								<path id="XMLID_26611_" class="st61" d="M529.2,223.4c0.9,0.6,1.7,1.9,1.7,3s-0.8,1.5-1.7,1l-1.5-0.8c-1-0.6-1.7-1.9-1.7-3
									s0.8-1.5,1.7-1L529.2,223.4z"/>
							</g>
						</g>
					</g>
					<g id="XMLID_26593_">
						<path id="XMLID_26606_" class="st68" d="M499.4,198.1c0.4-0.4,0.4-8.4,9-3.5c0,0,1.4,10.6-7.6,8.5
							C498.6,202.5,499.4,198.1,499.4,198.1z"/>
						<path id="XMLID_26605_" class="st68" d="M499.9,201.4c-0.3-0.7-0.4-7.3-7.4-11.4c0,0-1.1,7.4,6.2,14.2
							C500.6,205.8,499.9,201.4,499.9,201.4z"/>
						<polygon id="XMLID_26604_" class="st68" points="500.1,207.2 498.9,206.5 498.9,190.1 500.1,190.8 						"/>
						<g id="XMLID_26595_">
							<path id="XMLID_26603_" class="st69" d="M501.6,186.5c0-1.4-1-3-2.1-3.7c-1.2-0.7-2.1-0.1-2.1,1.2c0,1.4,1,3,2.1,3.7
								C500.7,188.4,501.6,187.9,501.6,186.5z"/>
							<path id="XMLID_26602_" class="st70" d="M501.6,181.8c0-1.9-1-4.1-2.1-4.7c-1.2-0.7-2.1,0.3-2.1,2.3c0,1.9,1,4.1,2.1,4.8
								C500.7,184.7,501.6,183.7,501.6,181.8z"/>
							<path id="XMLID_26601_" class="st71" d="M497,179.3c-1.4-1.8-3.1-2.6-3.7-1.7c-0.6,0.8,0.1,3,1.6,4.8s3.1,2.6,3.7,1.7
								C499.2,183.3,498.5,181.1,497,179.3z"/>
							<path id="XMLID_26600_" class="st70" d="M494.9,182.8c-1.4,0.1-2.1,1.5-1.6,3c0.6,1.5,2.2,2.7,3.7,2.5c1.4-0.1,2.1-1.5,1.6-3
								C498,183.8,496.3,182.7,494.9,182.8z"/>
							<path id="XMLID_26599_" class="st71" d="M497.3,188.7c0,1.9,1,4.1,2.1,4.8c1.2,0.7,2.1-0.3,2.1-2.3c0-1.9-1-4.1-2.1-4.8
								C498.3,185.8,497.3,186.8,497.3,188.7z"/>
							<path id="XMLID_26598_" class="st70" d="M501.9,191.2c1.4,1.8,3.1,2.6,3.7,1.7c0.6-0.8-0.1-3-1.6-4.8
								c-1.4-1.8-3.1-2.6-3.7-1.8C499.8,187.2,500.5,189.4,501.9,191.2z"/>
							<path id="XMLID_26597_" class="st71" d="M504.1,187.7c1.4-0.1,2.1-1.5,1.6-3c-0.6-1.5-2.2-2.7-3.7-2.5
								c-1.4,0.1-2.1,1.5-1.6,3C501,186.7,502.6,187.8,504.1,187.7z"/>
							<path id="XMLID_26596_" class="st69" d="M501.6,186.5c0-1.4-1-3-2.1-3.7c-1.2-0.7-2.1-0.1-2.1,1.2c0,1.4,1,3,2.1,3.7
								C500.7,188.4,501.6,187.9,501.6,186.5z"/>
						</g>
						<path id="XMLID_26594_" class="st72" d="M505.7,212.7c-0.4-2.1-3.1-5-6.3-6.9c-3.2-1.9-5.8-2-6.3-0.4L505.7,212.7z"/>
					</g>
				</g>
				<polygon id="XMLID_26591_" class="st61" points="554.7,209.6 547.7,213.6 547.7,203.3 554.7,199.3 				"/>
				<polygon id="XMLID_26590_" class="st61" points="554.7,213.7 547.7,217.7 547.7,214.9 554.7,210.9 				"/>
				<path id="XMLID_26589_" class="st13" d="M531.9,177.1c1.6,0.9,1.6,2.5,0,3.4l0,0c-1.6,0.9-4.2,0.9-5.8,0l-3.4-2
					c-1.6-0.9-1.6-2.5,0-3.4l0,0c1.6-0.9,4.2-0.9,5.8,0L531.9,177.1z"/>
			</g>
		</g>
		<g id="XMLID_26028_">
			<g id="XMLID_26040_">
				<g id="XMLID_26041_" class="st9">
					<g id="XMLID_26052_">
						<path id="XMLID_26053_" class="st73" d="M389.7,203.2l-2.4-1.4c0.4-0.8,0.9-1.7,1.3-2.5c0.6-1.1,1.1-2.3,1.6-3.4l2.4,1.4
							c-0.5,1.1-1,2.3-1.6,3.4C390.6,201.5,390.2,202.3,389.7,203.2z"/>
					</g>
					<g id="XMLID_26050_">
						<path id="XMLID_26051_" class="st74" d="M402.6,171.9l2.4,1.4c0,0,0.1,0,0.1,0.1c0.4,0.4,0.6,2.2-0.2,5.8
							c-1.9,8.6-5.9,14.4-12,18c-0.1,0-0.2,0.1-0.3,0.1l-2.4-1.4c0.1,0,0.2-0.1,0.3-0.1c6.1-3.5,10-9.4,12-18
							C403.3,174.1,403.2,172.3,402.6,171.9C402.7,171.9,402.7,171.9,402.6,171.9z"/>
					</g>
					<g id="XMLID_26048_">
						<path id="XMLID_26049_" class="st75" d="M405.4,167.1l2.4,1.4c-1.5-0.9-3.9,0-6.1,1.3l-2.4-1.4
							C401.5,167.1,403.9,166.3,405.4,167.1z"/>
					</g>
					<g id="XMLID_26046_">
						<path id="XMLID_26047_" class="st76" d="M395.7,177.5l-2.4-1.4c0.3-1.7,0.4-3.3,0.6-5l2.4,1.4
							C396.1,174.2,396,175.8,395.7,177.5z"/>
					</g>
					<g id="XMLID_26044_">
						<path id="XMLID_26045_" class="st75" d="M396.3,172.5l-2.4-1.4c0.6-0.5,4.6-2.3,5.3-2.7l2.4,1.4
							C401,170.2,397,172.1,396.3,172.5z"/>
					</g>
					<g id="XMLID_26042_">
						<path id="XMLID_26043_" class="st4" d="M401.7,169.8c4.5-2.6,9.6-3.6,6.9,8.5c-2.8,12.5-9.3,19.6-15.7,23.3
							c-1.1,0.6-2.1,1.1-3.2,1.6c0.4-0.8,0.9-1.7,1.3-2.5c0.6-1.1,1.1-2.3,1.6-3.4c0.1,0,0.2-0.1,0.3-0.1c6.1-3.5,10-9.4,12-18
							c0.8-3.6,0.7-5.5,0.2-5.8c-0.4-0.4-1.7-0.1-3.4,0.9c-1,0.6-5.2,2.7-6,3.3c0.3-1.7,0.4-3.3,0.6-5
							C397,172.1,401,170.2,401.7,169.8z"/>
					</g>
				</g>
			</g>
			<g id="XMLID_26029_">
				<g id="XMLID_26030_" class="st9">
					<g id="XMLID_26036_" class="st9">
						<g id="XMLID_26037_" class="st9">
							<path id="XMLID_26039_" class="st4" d="M397.4,166.8l-0.1,37.7c0,3-1.9,5.9-5.8,8.2c-3.2,1.9-7.2,3-11.4,3.3l0.1-37.7
								c4.2-0.3,8.2-1.4,11.4-3.3C395.4,172.8,397.4,169.8,397.4,166.8L397.4,166.8z"/>
							<path id="XMLID_26038_" class="st74" d="M380.2,178.3l-0.1,37.7c-6,0.5-12.3-0.6-16.9-3.3c-4-2.3-5.9-5.3-5.9-8.3l0.1-37.7
								c0,3,2,6,5.9,8.3C367.9,177.7,374.2,178.8,380.2,178.3L380.2,178.3z"/>
						</g>
					</g>
					<g id="XMLID_26034_">
						<path id="XMLID_26035_" class="st75" d="M391.5,158.5c7.8,4.5,7.9,11.9,0.1,16.5c-7.8,4.5-20.4,4.5-28.3,0
							c-7.8-4.6-7.9-11.9-0.1-16.5C371,154,383.6,154,391.5,158.5z"/>
					</g>
					<g id="XMLID_26032_">
						<path id="XMLID_26033_" class="st77" d="M389.2,159.9c6.6,3.8,6.6,10,0.1,13.8s-17.1,3.8-23.7,0s-6.6-10-0.1-13.8
							C372,156.1,382.6,156.1,389.2,159.9z"/>
					</g>
					<path id="XMLID_26031_" class="st78" d="M365.6,173.7c6.6,3.8,17.2,3.8,23.7,0c2.5-1.5,4-3.3,4.6-5.1c-0.6-1.9-2.1-3.7-4.7-5.2
						c-6.6-3.8-17.2-3.8-23.7,0c-2.5,1.4-4,3.2-4.6,5.1C361.5,170.4,363,172.2,365.6,173.7z"/>
				</g>
			</g>
		</g>
	</g>
	<line class="st79" x1="195.4" y1="123.7" x2="195.4" y2="69.7"/>
	<polyline class="st79" points="511.6,159.7 511.6,93.7 547.4,93.7 	"/>
	<polyline class="st79" points="587.5,308.2 646.4,308.2 646.4,342.7 	"/>
	<polyline class="st79" points="74.4,405 74.4,370.7 51.4,370.7 	"/>
	<circle class="st30" cx="50.9" cy="371.2" r="5.5"/>
	<circle class="st30" cx="194.9" cy="69.2" r="5.5"/>
	<circle class="st30" cx="546.9" cy="93.2" r="5.5"/>
	<circle class="st30" cx="646.9" cy="343.2" r="5.5"/>
	<polyline class="st79" points="495.5,433.2 554.4,433.2 554.4,467.7 	"/>
	<circle class="st30" cx="554.9" cy="468.2" r="5.5"/>
	<circle class="st30" cx="319.9" cy="560.2" r="5.5"/>
	<polyline class="st80" points="273.5,446.7 273.5,560.7 320.4,560.7 	"/>
</g>
<g id="Layer_4" class="st0">
	<g class="st1">
		<path class="st81" d="M348,291.2c-0.7-0.4-4.2-2.3-4.9-2.5c-0.7-0.3-1.1-0.4-1.6,0.3c-0.5,0.7-2,2.3-2.4,2.8s-0.9,0.5-1.6,0.1
			s-3-1.2-5.7-3.8c-2.1-2-3.5-4.4-3.8-5.2c-0.4-0.7,0-1.1,0.4-1.5c0.3-0.3,0.8-0.8,1.1-1.2c0.4-0.4,0.5-0.7,0.8-1.2s0.2-0.9,0-1.3
			s-1.5-4-2-5.5c-0.6-1.5-1.2-1.3-1.6-1.3s-0.9-0.1-1.4-0.1s-1.3,0.1-2,0.8c-0.7,0.7-2.6,2.4-2.8,6c-0.1,3.6,2.3,7.1,2.7,7.6
			c0.3,0.5,4.7,8.2,12,11.4c7.3,3.2,7.3,2.2,8.6,2.1c1.3-0.1,4.4-1.6,5-3.3c0.7-1.7,0.7-3.1,0.6-3.4
			C349.2,291.8,348.7,291.6,348,291.2L348,291.2z M334.7,308.4c-4.8,0-9.3-1.4-13-3.9l-9.1,2.9l3-8.8c-2.8-3.9-4.5-8.7-4.5-13.9
			c0-13,10.6-23.7,23.6-23.7s23.7,10.6,23.7,23.7C358.3,297.8,347.7,308.4,334.7,308.4L334.7,308.4z M334.7,256.4
			c-15.7,0-28.4,12.7-28.4,28.4c0,5.4,1.5,10.4,4.1,14.7l-5.1,15.2l15.7-5c4.1,2.3,8.8,3.5,13.7,3.5c15.7,0,28.4-12.7,28.4-28.4
			C363.1,269.1,350.4,256.4,334.7,256.4L334.7,256.4z"/>
	</g>
</g>
<g id="Layer_2_1_">
	<g class="st0">
		
			<text transform="matrix(1 0 0 1 -337.1362 -28.7249)" style="display:inline;fill:#F9C410; font-family:'BROOKLINE-Condensed'; font-size:30px;">Paulo </text>
		
			<text transform="matrix(1 0 0 1 -261.1362 -28.7249)" style="display:inline;fill:none;stroke:#F9C410;stroke-width:0.5;stroke-miterlimit:10; font-family:'BROOKLINE-Condensed'; font-size:30px;">Jnior</text>
	</g>
</g>
</svg>
