<?xml version="1.0" standalone="no"?>
<!DOCTYPE svg PUBLIC "-//W3C//DTD SVG 20010904//EN"
 "http://www.w3.org/TR/2001/REC-SVG-20010904/DTD/svg10.dtd">
<svg version="1.0" xmlns="http://www.w3.org/2000/svg"
 width="512.000000pt" height="512.000000pt" viewBox="0 0 512.000000 512.000000"
 preserveAspectRatio="xMidYMid meet">

<g transform="translate(0.000000,512.000000) scale(0.100000,-0.100000)"
fill="#000000" stroke="none">
<path d="M2505 4935 c-25 -24 -25 -26 -25 -215 0 -189 0 -191 25 -215 15 -16
36 -25 55 -25 19 0 40 9 55 25 25 24 25 26 25 215 0 189 0 191 -25 215 -15 16
-36 25 -55 25 -19 0 -40 -9 -55 -25z"/>
<path d="M985 4455 c-16 -16 -25 -35 -25 -57 0 -28 18 -50 143 -175 125 -125
147 -143 175 -143 44 0 82 38 82 82 0 28 -18 50 -143 175 -125 125 -147 143
-175 143 -22 0 -41 -9 -57 -25z"/>
<path d="M3903 4337 c-125 -125 -143 -147 -143 -175 0 -44 38 -82 82 -82 28 0
50 18 175 143 125 125 143 147 143 175 0 22 -9 41 -25 57 -16 16 -35 25 -57
25 -28 0 -50 -18 -175 -143z"/>
<path d="M2362 4309 c-683 -92 -1128 -581 -1159 -1273 -21 -467 141 -893 469
-1233 l88 -91 0 -272 0 -272 80 -82 80 -82 0 -100 0 -99 -33 -15 c-62 -29 -62
-111 0 -140 l33 -15 0 -95 0 -94 143 -143 143 -143 354 0 353 0 139 137 c76
76 141 147 144 158 3 11 20 27 37 35 62 29 62 111 0 140 l-33 15 0 179 0 180
80 82 80 82 0 272 0 272 88 91 c296 308 450 663 469 1087 32 721 -377 1263
-1056 1401 -113 23 -388 33 -499 18z m468 -174 c407 -82 717 -338 850 -703 56
-154 74 -266 74 -472 0 -205 -12 -292 -66 -460 -70 -217 -180 -400 -344 -570
-56 -58 -110 -121 -120 -140 -17 -31 -19 -62 -22 -295 l-3 -260 -57 -58 -56
-57 -143 0 -143 0 0 209 0 209 48 11 c160 40 252 126 252 237 0 113 -108 214
-228 214 -110 0 -198 -98 -224 -250 l-12 -70 -76 0 -76 0 -12 70 c-32 187
-147 280 -296 239 -45 -13 -118 -76 -140 -123 -34 -72 -13 -168 51 -228 33
-31 117 -72 186 -89 l47 -11 0 -209 0 -209 -143 0 -143 0 -56 57 -57 58 -3
260 c-3 233 -5 264 -22 295 -10 19 -65 83 -122 142 -255 264 -393 584 -411
953 -24 515 192 926 597 1134 110 57 253 104 360 120 41 6 86 13 100 15 51 9
337 -4 410 -19z m-551 -2316 c17 -18 47 -106 39 -114 -2 -2 -21 3 -42 10 -85
30 -118 78 -74 109 30 22 53 20 77 -5z m639 5 c44 -31 11 -79 -74 -109 -21 -7
-40 -12 -42 -10 -8 8 22 96 39 114 24 25 47 27 77 5z m-278 -504 l0 -200 -80
0 -80 0 0 200 0 200 80 0 80 0 0 -200z m400 -520 l0 -160 -175 0 c-173 0 -176
0 -200 -25 -33 -32 -33 -78 0 -110 24 -24 28 -25 182 -25 l158 0 -80 -80 -80
-80 -285 0 -285 0 -97 97 -98 98 0 62 0 63 175 0 c173 0 176 0 200 25 16 15
25 36 25 55 0 19 -9 40 -25 55 -24 25 -27 25 -200 25 l-175 0 0 80 0 80 480 0
480 0 0 -160z"/>
<path d="M1945 3335 l-25 -24 0 -431 0 -431 25 -24 c24 -25 26 -25 215 -25
189 0 191 0 215 25 33 32 33 78 0 110 -23 24 -29 25 -160 25 l-135 0 0 120 0
120 135 0 c131 0 137 1 160 25 33 32 33 78 0 110 -23 24 -29 25 -160 25 l-135
0 0 120 0 120 135 0 c131 0 137 1 160 25 16 15 25 36 25 55 0 19 -9 40 -25 55
-24 25 -26 25 -215 25 -189 0 -191 0 -215 -25z"/>
<path d="M2585 3335 l-25 -24 0 -431 0 -431 25 -24 c29 -30 74 -32 106 -6 24
19 24 20 29 292 l5 273 169 -283 c93 -155 177 -286 187 -292 31 -16 69 -10 94
16 l25 24 0 431 0 431 -25 24 c-29 30 -74 32 -106 6 -24 -19 -24 -20 -29 -292
l-5 -273 -169 283 c-93 155 -177 286 -187 292 -31 16 -69 10 -94 -16z"/>
<path d="M505 2935 c-16 -15 -25 -36 -25 -55 0 -19 9 -40 25 -55 24 -25 26
-25 215 -25 189 0 191 0 215 25 16 15 25 36 25 55 0 19 -9 40 -25 55 -24 25
-26 25 -215 25 -189 0 -191 0 -215 -25z"/>
<path d="M4185 2935 c-16 -15 -25 -36 -25 -55 0 -19 9 -40 25 -55 24 -25 26
-25 215 -25 189 0 191 0 215 25 16 15 25 36 25 55 0 19 -9 40 -25 55 -24 25
-26 25 -215 25 -189 0 -191 0 -215 -25z"/>
<path d="M1103 1537 c-125 -125 -143 -147 -143 -175 0 -44 38 -82 82 -82 28 0
50 18 175 143 125 125 143 147 143 175 0 22 -9 41 -25 57 -16 16 -35 25 -57
25 -28 0 -50 -18 -175 -143z"/>
<path d="M3785 1655 c-16 -16 -25 -35 -25 -57 0 -28 18 -50 143 -175 125 -125
147 -143 175 -143 44 0 82 38 82 82 0 28 -18 50 -143 175 -125 125 -147 143
-175 143 -22 0 -41 -9 -57 -25z"/>
</g>
</svg>
