<?xml version="1.0" standalone="no"?>
<!DOCTYPE svg PUBLIC "-//W3C//DTD SVG 20010904//EN"
 "http://www.w3.org/TR/2001/REC-SVG-20010904/DTD/svg10.dtd">
<svg version="1.0" xmlns="http://www.w3.org/2000/svg"
 width="512.000000pt" height="512.000000pt" viewBox="0 0 512.000000 512.000000"
 preserveAspectRatio="xMidYMid meet">

<g transform="translate(0.000000,512.000000) scale(0.100000,-0.100000)"
fill="#000000" stroke="none">
<path d="M2495 5106 c-41 -18 -83 -69 -90 -109 -4 -18 -5 -101 -3 -184 3 -165
8 -180 72 -227 39 -29 133 -29 172 0 67 49 69 58 69 254 0 195 -3 205 -67 253
-33 25 -113 32 -153 13z"/>
<path d="M893 4439 c-67 -42 -94 -140 -59 -207 8 -15 63 -75 123 -133 116
-115 151 -134 218 -119 66 15 106 53 125 121 19 65 -2 104 -119 222 -58 60
-118 115 -133 123 -40 21 -117 18 -155 -7z"/>
<path d="M4065 4441 c-16 -10 -76 -65 -131 -122 -111 -114 -133 -154 -114
-218 19 -68 59 -106 125 -121 67 -15 102 4 218 119 60 58 115 118 123 133 21
40 18 115 -7 154 -43 70 -147 97 -214 55z"/>
<path d="M2375 4233 c-626 -81 -1136 -530 -1289 -1134 -35 -136 -46 -231 -46
-384 0 -520 269 -1000 722 -1288 31 -20 62 -45 67 -56 6 -11 11 -64 11 -118 0
-141 25 -222 95 -308 30 -37 32 -43 20 -65 -27 -53 -37 -137 -34 -277 4 -138
5 -141 42 -215 69 -140 187 -216 346 -226 l88 -5 11 -42 c14 -51 66 -101 117
-111 84 -15 166 33 187 111 l11 42 88 5 c159 10 277 86 346 226 37 74 38 77
42 215 3 140 -7 224 -34 277 -12 22 -10 28 20 65 70 86 95 167 95 308 0 54 5
107 11 118 5 11 36 36 67 56 742 470 944 1449 447 2164 -79 113 -277 309 -393
388 -258 175 -549 263 -860 260 -81 -1 -160 -4 -177 -6z m365 -327 c173 -27
353 -97 501 -196 96 -65 257 -231 325 -335 139 -214 202 -444 192 -703 -16
-396 -213 -740 -555 -965 -191 -126 -242 -217 -243 -435 0 -96 -2 -105 -25
-127 l-24 -25 -349 0 c-329 0 -351 1 -373 19 -22 18 -24 28 -30 153 -5 123 -8
140 -36 200 -42 90 -88 137 -217 222 -351 233 -546 592 -546 1006 0 736 651
1295 1380 1186z m115 -3131 c24 -23 25 -31 25 -135 0 -104 -1 -112 -25 -135
l-24 -25 -271 0 -271 0 -24 25 c-24 23 -25 31 -25 135 0 104 1 112 25 135 l24
25 271 0 271 0 24 -25z"/>
<path d="M2425 3585 c-105 -37 -142 -163 -74 -249 38 -48 74 -59 199 -61 86
-2 132 -8 181 -23 136 -45 260 -151 329 -284 22 -42 54 -88 70 -102 84 -70
221 -24 250 86 15 52 -4 113 -68 222 -88 150 -246 286 -414 358 -144 61 -377
87 -473 53z"/>
<path d="M3099 2497 c-126 -84 -68 -287 83 -287 57 0 96 17 131 59 61 73 34
190 -55 237 -42 22 -119 18 -159 -9z"/>
<path d="M255 2866 c-97 -43 -124 -171 -54 -251 44 -50 81 -57 261 -53 171 3
184 8 232 72 29 39 29 133 0 172 -48 65 -60 69 -242 71 -124 2 -175 -1 -197
-11z"/>
<path d="M4495 2866 c-97 -43 -124 -171 -54 -251 44 -50 81 -57 261 -53 171 3
184 8 232 72 29 39 29 133 0 172 -48 65 -60 69 -242 71 -124 2 -175 -1 -197
-11z"/>
<path d="M1096 1455 c-42 -15 -235 -197 -262 -247 -36 -68 -7 -166 60 -207 39
-25 114 -28 154 -7 15 8 75 63 133 123 80 81 110 118 118 147 22 84 -29 172
-114 195 -48 13 -41 13 -89 -4z"/>
<path d="M3930 1458 c-80 -22 -131 -113 -109 -194 8 -29 38 -66 118 -147 58
-60 118 -115 133 -123 15 -8 49 -14 75 -14 90 0 153 63 153 153 0 26 -6 60
-14 75 -8 15 -63 75 -123 133 -81 81 -118 110 -148 118 -22 6 -42 11 -45 10
-3 0 -21 -5 -40 -11z"/>
</g>
</svg>
