<?xml version="1.0" standalone="no"?>
<!DOCTYPE svg PUBLIC "-//W3C//DTD SVG 20010904//EN"
 "http://www.w3.org/TR/2001/REC-SVG-20010904/DTD/svg10.dtd">
<svg version="1.0" xmlns="http://www.w3.org/2000/svg"
 width="200.000000pt" height="200.000000pt" viewBox="0 0 200.000000 200.000000"
 preserveAspectRatio="xMidYMid meet">

<g transform="translate(0.000000,200.000000) scale(0.100000,-0.100000)"
fill="#000000" stroke="none">
<path d="M1 1333 c1 -368 3 -660 6 -650 7 28 23 19 23 -14 0 -24 -4 -30 -15
-25 -13 5 -15 -35 -15 -319 l0 -325 325 0 325 0 -6 28 c-20 89 -26 112 -41
160 -14 41 -19 49 -25 35 -4 -10 -5 -3 -2 17 5 33 -5 88 -40 210 -28 100 -29
106 -19 95 6 -5 18 -35 28 -65 10 -30 24 -62 32 -71 7 -9 11 -23 8 -31 -3 -8
1 -30 9 -49 8 -19 16 -29 16 -24 0 6 7 -1 15 -15 12 -23 14 -23 21 -6 5 12 2
21 -9 28 -10 5 -17 14 -17 21 0 8 4 6 11 -3 8 -11 9 -8 4 15 -4 16 -12 36 -18
44 -7 8 -13 26 -14 40 -3 47 -15 91 -24 91 -5 0 -9 8 -9 18 0 9 -6 35 -14 57
-19 57 -29 118 -18 111 5 -3 15 -27 22 -53 6 -27 20 -62 31 -79 10 -17 19 -39
19 -48 0 -9 4 -16 9 -16 5 0 12 -21 16 -47 4 -29 10 -42 15 -34 4 8 8 -5 8
-30 1 -24 15 -98 32 -164 32 -128 39 -186 15 -125 -8 19 -19 61 -25 92 -13 65
-18 71 -42 54 -16 -12 -16 -19 2 -126 11 -62 20 -116 20 -121 0 -14 68 -11 73
4 4 9 6 9 6 0 1 -9 90 -12 381 -13 209 0 380 2 380 4 0 9 -102 171 -120 191
-9 11 -25 37 -35 58 -9 20 -25 37 -34 37 -9 1 -33 22 -53 48 -50 63 -87 100
-145 145 -107 84 -134 107 -126 107 8 0 89 -55 103 -70 3 -3 16 -14 29 -25 23
-19 -19 39 -95 130 -55 67 -104 135 -104 145 0 27 248 -114 290 -166 7 -8 30
-14 54 -14 38 0 42 3 58 38 10 20 42 82 73 137 31 54 53 105 51 112 -7 17 8
17 21 1 12 -15 29 -69 37 -118 3 -19 16 -51 27 -70 20 -32 23 -33 31 -15 7 17
8 17 4 -4 -3 -14 -1 -30 3 -35 5 -6 16 -32 26 -58 10 -26 21 -45 26 -42 5 3 9
-7 9 -23 1 -31 37 -164 41 -148 4 18 18 -116 25 -242 l7 -123 148 0 149 0 0
350 c0 341 -1 350 -20 350 -46 0 -65 20 -96 106 -32 87 -27 107 14 59 18 -21
30 -25 62 -23 l40 3 0 578 0 577 -1000 0 -1000 0 1 -667z m1222 455 c51 -37
67 -52 67 -65 0 -7 4 -13 9 -13 5 0 7 -9 4 -20 -3 -12 0 -20 6 -20 7 0 10 4 6
9 -3 5 -1 12 4 16 17 10 40 -50 45 -114 5 -68 -5 -81 -63 -81 -30 0 -125 -42
-137 -61 -3 -6 -1 -16 5 -22 8 -8 19 -3 40 17 36 35 109 47 130 22 11 -14 7
-17 -33 -28 -25 -7 -46 -16 -46 -20 0 -14 33 -23 38 -10 6 18 29 15 36 -4 4
-10 -1 -25 -10 -35 -16 -18 -16 -19 1 -19 9 0 32 16 50 35 29 33 33 34 46 19
16 -19 18 -100 5 -239 -7 -77 -13 -100 -44 -155 -23 -40 -37 -78 -37 -100 0
-28 -5 -37 -29 -49 -49 -23 -128 -41 -186 -41 -61 0 -83 12 -144 73 -32 33
-42 37 -70 32 -29 -6 -37 -2 -79 41 -51 51 -55 64 -32 88 14 14 12 28 -24 138
-44 135 -53 189 -33 195 6 3 12 0 12 -5 0 -5 10 -12 23 -15 12 -3 36 -11 54
-18 25 -10 37 -10 55 -1 13 6 34 12 48 14 14 2 23 8 21 13 -1 6 -6 9 -10 9 -3
-1 -21 -4 -40 -8 -27 -5 -32 -3 -27 9 3 9 0 15 -9 15 -8 0 -15 6 -15 14 0 16
-27 30 -52 27 -40 -5 -79 45 -49 63 9 6 -3 85 -18 114 -10 19 3 62 19 62 6 0
20 16 31 35 31 52 108 85 201 86 40 0 82 4 93 9 39 17 105 11 138 -12z m-668
-308 c3 -5 1 -10 -4 -10 -6 0 -11 5 -11 10 0 6 2 10 4 10 3 0 8 -4 11 -10z
m-5 -134 c-1 -38 -2 -40 -15 -22 -8 11 -15 35 -15 54 0 30 2 33 15 22 9 -7 15
-29 15 -54z m108 -8 c19 -19 14 -30 -8 -18 -11 6 -20 15 -20 20 0 14 14 12 28
-2z m31 -93 c23 -34 37 -130 21 -140 -8 -5 -53 41 -68 71 -13 26 -31 101 -26
107 13 12 53 -9 73 -38z m-516 -132 c-4 -10 -9 -11 -16 -4 -5 5 -7 18 -3 28 6
14 9 15 16 4 4 -8 6 -21 3 -28z m-138 -32 c-3 -12 -11 -19 -16 -16 -5 4 -5 14
2 26 13 26 23 18 14 -10z m479 -83 c-4 -29 -12 -93 -18 -142 -7 -54 -17 -91
-24 -94 -13 -4 -14 50 -1 78 4 8 9 44 13 80 7 88 17 130 28 130 6 0 7 -20 2
-52z m-59 2 c-4 -6 -1 -18 7 -27 11 -14 8 -13 -22 2 -31 16 -33 19 -15 26 28
11 37 11 30 -1z m1275 -25 c-7 -8 -24 -15 -39 -15 -25 1 -25 2 9 19 39 20 49
19 30 -4z m250 16 c0 -5 -7 -14 -15 -21 -16 -14 -18 -10 -9 14 6 17 24 22 24
7z m-1660 -125 c0 -27 -15 -42 -25 -26 -8 13 3 50 16 50 5 0 9 -11 9 -24z
m1560 -88 c25 -47 25 -48 -5 -48 -39 0 -70 71 -43 98 13 13 16 10 48 -50z
m-1500 -58 c8 -5 11 -12 7 -16 -4 -4 -15 0 -24 9 -18 18 -8 23 17 7z m250 -73
c10 -28 21 -61 26 -71 5 -13 4 -17 -4 -12 -11 7 -45 91 -56 141 -9 43 10 10
34 -58z m-201 16 c0 -31 -2 -34 -9 -18 -12 28 -12 55 0 55 6 0 10 -17 9 -37z
m-40 -105 c6 -45 9 -83 7 -85 -2 -2 -9 18 -16 44 -7 26 -19 55 -26 63 -15 19
-7 71 11 64 7 -3 17 -40 24 -86z m-319 48 c0 -3 -4 -8 -10 -11 -5 -3 -10 -1
-10 4 0 6 5 11 10 11 6 0 10 -2 10 -4z m249 -29 c6 -8 9 -16 6 -19 -3 -2 0
-20 6 -39 6 -19 12 -52 15 -74 3 -22 7 -45 9 -52 2 -7 0 -15 -4 -18 -5 -2 -12
12 -16 32 -10 53 -36 114 -46 107 -10 -6 0 -184 11 -199 5 -5 11 -41 14 -80 6
-69 6 -70 -7 -30 -8 22 -20 73 -28 114 -8 47 -20 80 -31 90 -10 8 -18 21 -18
27 0 7 -7 14 -15 18 -12 4 -14 0 -11 -17 13 -63 15 -93 5 -107 -9 -13 -10 -13
-6 0 4 13 -8 50 -38 125 -4 11 -9 43 -11 70 -3 42 -1 47 9 31 7 -11 25 -33 40
-50 l28 -30 -7 52 -6 51 26 -12 c14 -7 26 -15 26 -19 0 -5 5 -8 10 -8 6 0 10
11 10 25 0 28 12 32 29 12z m420 -60 c0 -21 -1 -21 -9 -2 -12 28 -12 37 0 30
6 -3 10 -16 9 -28z m-623 -32 c7 -29 1 -41 -15 -30 -14 8 -14 55 -1 55 5 0 12
-11 16 -25z m1037 -95 c112 -83 148 -112 143 -117 -7 -7 -254 177 -261 195 -2
7 15 -2 40 -20 24 -18 60 -44 78 -58z m-633 -80 c38 -133 59 -241 52 -255 -6
-9 -26 65 -52 190 -7 33 -18 80 -25 105 -8 25 -16 61 -19 80 -9 56 8 9 44
-120z m-380 84 c0 -8 -4 -12 -10 -9 -5 3 -10 10 -10 16 0 5 5 9 10 9 6 0 10
-7 10 -16z m243 -120 c19 -80 22 -113 9 -98 -8 8 -42 151 -42 176 0 30 18 -13
33 -78z m65 6 c0 -9 -3 -7 -8 5 -5 11 -8 29 -8 40 0 16 2 15 8 -5 4 -14 8 -32
8 -40z m305 -12 c28 -83 63 -245 54 -254 -3 -3 -9 11 -12 32 -4 22 -10 48 -15
59 -5 11 -18 60 -29 110 -11 50 -23 98 -26 108 -4 9 -5 17 -2 17 2 0 16 -33
30 -72z m141 30 c8 -24 17 -65 20 -93 l5 -50 -12 41 c-7 23 -17 48 -23 55 -16
19 -27 89 -15 89 5 0 16 -19 25 -42z m227 25 c13 -17 13 -17 -6 -3 -11 8 -22
16 -24 17 -2 2 0 3 6 3 6 0 17 -8 24 -17z m-924 -35 c-3 -8 -6 -5 -6 6 -1 11
2 17 5 13 3 -3 4 -12 1 -19z m971 5 c11 -10 30 -25 42 -33 65 -45 100 -73 96
-77 -2 -3 -35 18 -72 46 -37 28 -70 51 -74 51 -5 0 -10 7 -14 15 -7 19 -4 19
22 -2z m-324 -91 c9 -35 16 -69 15 -75 0 -16 -35 89 -43 133 -11 56 10 13 28
-58z m-376 -2 l0 -25 -8 25 c-4 14 -8 34 -8 45 l-1 20 9 -20 c5 -11 8 -31 8
-45z m9 -62 c-3 -8 -6 -5 -6 6 -1 11 2 17 5 13 3 -3 4 -12 1 -19z m253 -88 c0
-11 -2 -20 -4 -20 -2 0 -6 9 -9 20 -3 11 -1 20 4 20 5 0 9 -9 9 -20z"/>
<path d="M1035 1420 c3 -5 8 -10 11 -10 2 0 4 5 4 10 0 6 -5 10 -11 10 -5 0
-7 -4 -4 -10z"/>
<path d="M1215 1201 c-6 -6 -23 -17 -40 -25 -25 -13 -27 -16 -9 -16 35 0 84
21 84 36 0 16 -21 19 -35 5z"/>
<path d="M1078 1183 c7 -3 16 -2 19 1 4 3 -2 6 -13 5 -11 0 -14 -3 -6 -6z"/>
<path d="M1328 572 c3 -9 15 -32 25 -50 19 -31 19 -34 2 -46 -17 -12 -17 -13
0 -20 10 -3 19 -5 20 -4 8 10 14 118 7 122 -5 3 -20 7 -35 10 -21 4 -25 1 -19
-12z"/>
<path d="M1180 550 c0 -5 17 -20 38 -34 20 -13 43 -31 51 -40 13 -15 41 -22
41 -10 0 17 -24 45 -35 40 -8 -3 -30 8 -51 25 -41 32 -44 34 -44 19z"/>
</g>
</svg>
