<?xml version="1.0" ?><!DOCTYPE svg  PUBLIC '-//W3C//DTD SVG 1.1//EN'  'http://www.w3.org/Graphics/SVG/1.1/DTD/svg11.dtd'><svg enable-background="new 0 0 512 512" height="512px" id="Layer_3" version="1.1" viewBox="0 0 512 512" width="512px" xml:space="preserve" xmlns="http://www.w3.org/2000/svg" xmlns:xlink="http://www.w3.org/1999/xlink"><g><path d="M408.9,158.6h-35.3c-0.3-3-2.9-5.3-6-5.3h-42.6c-3.3,0-6,2.7-6,6v0.2c-0.9-0.5-2-0.9-3.1-0.9h-9.8v-19.1    c0-12.3-10-22.3-22.3-22.3H228c-12.3,0-22.3,10-22.3,22.3v19.1h-11.3c-0.8,0-1.6,0.2-2.3,0.5c-0.1-3.2-2.7-5.8-6-5.8h-42.6    c-3.1,0-5.6,2.3-6,5.3h-34.6c-3.3,0-6,2.7-6,6V382c0,3.3,2.7,6,6,6h34.5v0.8c0,3.3,2.7,6,6,6h42.6c3.3,0,6-2.7,6-6v-1.2    c0.7,0.3,1.5,0.5,2.3,0.5H316c1.1,0,2.2-0.3,3.1-0.9v1.6c0,3.3,2.7,6,6,6h42.6c3.3,0,6-2.7,6-6V388h35.2c3.3,0,6-2.7,6-6V164.6    C414.9,161.3,412.2,158.6,408.9,158.6z M109.1,376V170.6h28.5V376H109.1z M180.2,382.8h-30.6V165.2h30.6V382.8z M217.8,139.5    c0-5.7,4.6-10.3,10.3-10.3H284c5.7,0,10.3,4.6,10.3,10.3v19.1h-76.4V139.5z M316,376H194.5c-0.8,0-1.6,0.2-2.3,0.5V170.1    c0.7,0.3,1.5,0.5,2.3,0.5h17.3h88.4H316c1.1,0,2.2-0.3,3.1-0.9v207.2C318.2,376.3,317.1,376,316,376z M361.7,382.8h-30.6V165.2    h30.6V382.8z M402.9,376h-29.2V170.6h29.2V376z"/></g></svg>