<?xml version="1.0" encoding="utf-8"?>
<!-- Generator: Adobe Illustrator 22.0.0, SVG Export Plug-In . SVG Version: 6.00 Build 0)  -->
<svg version="1.1" xmlns="http://www.w3.org/2000/svg" xmlns:xlink="http://www.w3.org/1999/xlink" x="0px" y="0px"
	 viewBox="0 0 72.2 68.8" style="enable-background:new 0 0 72.2 68.8;" xml:space="preserve">
<style type="text/css">
	.st0{display:none;}
	.st1{display:inline;}
	.st2{fill:#FCFCFC;}
	.st3{fill:#ADC0CD;}
	.st4{fill:#EF4B39;}
	.st5{fill:#FA6655;}
	.st6{fill:#952308;}
	.st7{fill:#F9C410;}
	.st8{fill:#D89114;}
	.st9{enable-background:new    ;}
	.st10{fill:#C9D5DD;}
	.st11{fill:#F1F1F1;}
	.st12{fill:#2B8ABB;}
	.st13{fill:#121719;}
	.st14{fill:#A73A2E;}
	.st15{fill:#9C372B;}
	.st16{fill:#A0382C;}
	.st17{fill:#EB5543;}
	.st18{fill:#494949;}
	.st19{fill:#112B46;}
	.st20{fill:#7A7A7A;}
	.st21{fill:#767676;}
	.st22{fill:#B5B5B5;}
	.st23{fill:#C1C1C1;}
	.st24{fill:#20272B;}
	.st25{fill:#191F21;}
	.st26{fill:#757575;}
	.st27{fill:#747474;}
	.st28{fill:#40B1D1;}
	.st29{fill:#E8E8E8;}
	.st30{fill:#FFFFFF;}
	.st31{fill:#F67261;}
	.st32{fill:#B1D22E;}
	.st33{fill:#F77C12;}
	.st34{fill:#F78E7F;}
	.st35{fill:#F4A79D;}
	.st36{fill:#F9C2BA;}
	.st37{fill:#F4DDD9;}
	.st38{fill:#F7B810;}
	.st39{fill:#F9C843;}
	.st40{fill:#F8D978;}
	.st41{fill:#FBE8AE;}
	.st42{fill:#F9F7E3;}
	.st43{fill:#B8D14D;}
	.st44{fill:#BFD16F;}
	.st45{fill:#C6D291;}
	.st46{fill:#CCD2B2;}
	.st47{fill:#6CC6DD;}
	.st48{fill:#88D0E3;}
	.st49{fill:#9FD8E7;}
	.st50{fill:#B9DEE6;}
	.st51{fill:#D2E5E9;}
	.st52{fill:#F9F9F9;}
	.st53{fill:#263033;}
	.st54{fill:#DCDDDB;}
	.st55{fill:#F6F7F5;}
	.st56{fill:#EE9D12;}
	.st57{fill:#9A6711;}
	.st58{fill:#E5E5E5;}
	.st59{clip-path:url(#XMLID_2_);enable-background:new    ;}
	.st60{fill:#1C2325;}
	.st61{fill:#E1E1E1;}
	.st62{fill:#74787A;}
	.st63{fill:#8D9194;}
	.st64{fill:#A2A8AB;}
	.st65{fill:#959595;}
	.st66{fill:#C2C2C2;}
	.st67{fill:#C0C0C0;}
	.st68{fill:#13914A;}
	.st69{fill:#DEDEDE;}
	.st70{fill:#F5851B;}
	.st71{fill:#F8C211;}
	.st72{fill:#763B19;}
	.st73{fill:#1C92BB;}
	.st74{fill:#D62322;}
	.st75{fill:#F67665;}
	.st76{fill:#18A4C9;}
	.st77{fill:#F4F5F4;}
	.st78{fill:#461E06;}
	.st79{display:inline;fill:none;stroke:#FFFFFF;stroke-width:2;stroke-miterlimit:10;}
	.st80{display:inline;fill:#FFFFFF;}
	.st81{display:inline;fill:none;stroke:#FFFFFF;stroke-miterlimit:10;}
	.st82{fill-rule:evenodd;clip-rule:evenodd;fill:#30BF39;}
</style>
<g id="Layer_3" class="st0">
	<rect x="-546.9" y="-302.3" class="st1" width="1092" height="856"/>
</g>
<g id="Layer_1" class="st0">
	<g id="XMLID_632_" class="st1">
		<path id="XMLID_652_" class="st2" d="M-157.2,248.5L-157.2,248.5c-3.7,2.1-9.7,2.1-13.4,0l0,11.8c3.7,2.1,9.7,2.1,13.4-0.1l0-1.4
			h0l62.7-34.8l0-12.2L-157.2,248.5z"/>
		<g id="XMLID_647_">
			<g id="XMLID_650_">
				<path id="XMLID_651_" class="st3" d="M-155,247.4l-2.2,1.3c-3.7,2.1-9.7,2.1-13.4,0l-100.1-58.1c-3.7-2.1-3.7-5.7,0-7.8l2.2-1.3
					L-155,247.4z"/>
			</g>
			<g id="XMLID_648_">
				<path id="XMLID_649_" class="st3" d="M-89.9,201.5c3.7,2.1,3.7,5.7,0,7.8l-49.8,29.1l-9.4,5.5l-6,3.5l-113.6-65.9l-2.2,1.3
					c-3.7,2.1-3.7,5.7,0,7.8l100.1,58.1c3.7,2.1,9.7,2.1,13.4,0c-3.7,2.1-9.7,2.1-13.4,0l-100.1-58.1c-3.7-2.1-3.7-5.7,0-7.8
					l40.7-23.8l26.7-15.6c3.7-2.2,9.7-2.1,13.4,0L-89.9,201.5z"/>
			</g>
		</g>
		<g id="XMLID_645_">
			<path id="XMLID_646_" class="st2" d="M-87.1,205.3c0,4.1,0,8.1,0,12.2c0,1.4-0.9,2.8-2.7,3.9l0-12.2
				C-88,208.1-87.1,206.7-87.1,205.3z"/>
		</g>
		<g id="XMLID_643_">
			<polygon id="XMLID_644_" class="st4" points="-89.8,209.2 -94.5,211.9 -208.1,146 -203.4,143.3 			"/>
		</g>
		<path id="XMLID_642_" class="st3" d="M-170.6,248.5l-100.1-58.1c-1.9-1.1-2.8-2.5-2.8-3.9c0,4,0,8.1,0,12.2c0,1.4,0.9,2.9,2.8,3.9
			l100.1,58.1c2,1.2,4.7,1.7,7.4,1.6v-12.2C-165.9,250.2-168.6,249.7-170.6,248.5z"/>
		<path id="XMLID_641_" class="st3" d="M-89.9,209.2l-49.8,29.1l-9.4,5.5l-6,3.5l-2.2,1.3c-3.7,2.1-9.7,2.1-13.4,0l-100.1-58.1
			c-1.9-1.1-2.8-2.5-2.8-3.9c0,0.9,0,1.8,0,2.7c0,1.4,0.9,2.8,2.8,3.9l100.1,58.1c3.7,2.1,9.7,2.1,13.4,0l2.2-1.3l6-3.5l9.4-5.5
			l49.8-29.1c1.8-1.1,2.8-2.5,2.8-3.9l0-2.7C-87.1,206.7-88,208.1-89.9,209.2z"/>
		<path id="XMLID_640_" class="st3" d="M-89.9,209.2l-49.8,29.1l-9.4,5.5l-6,3.5l-2.2,1.3c-1.8,1-4,1.5-6.4,1.6v2.7
			c2.3,0,4.6-0.6,6.4-1.6l2.2-1.3l6-3.5l9.4-5.5l49.8-29.1c1.8-1.1,2.8-2.5,2.8-3.9l0-2.7C-87.1,206.7-88,208.1-89.9,209.2z"/>
		<path id="XMLID_639_" class="st3" d="M-87.1,214.8l0,2.7c0,1.4-0.9,2.8-2.7,3.9c0,0,0,0,0,0l-4.7,2.7l-45.1,26.3l-9.4,5.5l-6,3.5
			l-2.2,1.3c-1.8,1-4,1.6-6.4,1.6v-2.7c2.3,0,4.6-0.6,6.4-1.6l2.2-1.3l6-3.5l9.4-5.5l45.1-26.3l4.7-2.7c0,0,0,0,0,0
			C-88,217.6-87.1,216.2-87.1,214.8z"/>
		<g id="XMLID_634_">
			<polygon id="XMLID_638_" class="st5" points="-129.5,243.5 -129.5,246.2 -137.1,247.2 -137.1,244.5 			"/>
			<polygon id="XMLID_637_" class="st5" points="-137.1,244.5 -137.1,247.2 -138.8,251.6 -138.8,248.9 			"/>
			<polygon id="XMLID_636_" class="st6" points="-138.8,248.9 -138.8,251.6 -145.2,248 -145.2,245.3 			"/>
			<polygon id="XMLID_635_" class="st4" points="-129.5,243.5 -137.1,244.5 -138.8,248.9 -145.2,245.3 -135.8,239.8 			"/>
		</g>
		<path id="XMLID_633_" class="st4" d="M-89.8,209.2v12.2c0,0,0,0,0,0l-4.7,2.7v-12.2L-89.8,209.2z"/>
	</g>
	<g id="XMLID_100_" class="st1">
		<g id="XMLID_623_">
			<g id="XMLID_630_">
				<path id="XMLID_631_" class="st4" d="M-192.9,171.9c0.2,0.3,0.7,0.4,1.2,0.1c0.8-0.4,1.4-1.5,1.4-2.4c0-0.6-0.3-1-0.7-1
					c-1.7-0.3-3.5-0.5-5.2-0.8C-195,169.1-194,170.5-192.9,171.9z"/>
			</g>
			<g id="XMLID_628_">
				<path id="XMLID_629_" class="st4" d="M-196.1,167.7c1.1,1.4,2.2,2.8,3.3,4.1c-0.1-0.2-0.2-0.4-0.2-0.8L-196.1,167.7z"/>
			</g>
			<g id="XMLID_626_">
				<path id="XMLID_627_" class="st4" d="M-190.9,168.5c-1.7-0.3-3.5-0.5-5.2-0.8l3,3.4c0-0.9,0.7-2,1.4-2.4
					C-191.4,168.5-191.1,168.5-190.9,168.5z"/>
			</g>
			<g id="XMLID_624_">
				<path id="XMLID_625_" class="st4" d="M-193.1,171.1c0,0.9,0.6,1.3,1.4,0.9c0.8-0.4,1.4-1.5,1.4-2.4c0-0.9-0.6-1.3-1.4-0.8
					C-192.4,169.1-193.1,170.2-193.1,171.1z"/>
			</g>
		</g>
		<g id="XMLID_612_">
			<g id="XMLID_621_">
				<path id="XMLID_622_" class="st7" d="M-193.1,171.1c0,0.9,0.6,1.3,1.4,0.9c0.8-0.4,1.4-1.5,1.4-2.4c0-0.9-0.6-1.3-1.4-0.8
					C-192.4,169.1-193.1,170.2-193.1,171.1z"/>
			</g>
			<g id="XMLID_619_">
				<path id="XMLID_620_" class="st7" d="M-188,178.1c0.6,0.8,1.7,0.9,2.9,0.2c1.9-1.1,3.5-3.8,3.6-6.1c0-1.5-0.6-2.4-1.7-2.6
					c-2.6-0.4-5.2-0.8-7.8-1.2c0.4,0.1,0.7,0.4,0.7,1c0,0.9-0.7,2-1.4,2.4c-0.5,0.3-0.9,0.2-1.2-0.1
					C-191.3,173.9-189.6,176-188,178.1z"/>
			</g>
			<g id="XMLID_617_">
				<path id="XMLID_618_" class="st7" d="M-192.9,171.9c1.6,2.1,3.3,4.1,4.9,6.2c-0.3-0.4-0.5-1.1-0.5-1.9l-4.6-5.1
					C-193.1,171.4-193,171.7-192.9,171.9z"/>
			</g>
			<g id="XMLID_615_">
				<path id="XMLID_616_" class="st7" d="M-183.1,169.7c-2.6-0.4-5.2-0.8-7.8-1.2c-0.2,0-0.5,0-0.7,0.2c-0.8,0.4-1.4,1.5-1.4,2.4
					l4.6,5.1c0-2.3,1.6-5,3.6-6.1C-184.3,169.7-183.7,169.6-183.1,169.7z"/>
			</g>
			<g id="XMLID_613_">
				<path id="XMLID_614_" class="st7" d="M-188.5,176.2c0,2.3,1.5,3.2,3.5,2.1c1.9-1.1,3.5-3.8,3.6-6.1c0-2.3-1.5-3.2-3.5-2.1
					C-186.9,171.2-188.5,173.9-188.5,176.2z"/>
			</g>
		</g>
		<g id="XMLID_601_">
			<g id="XMLID_610_">
				<path id="XMLID_611_" class="st7" d="M-188.5,176.2c0,2.3,1.5,3.2,3.5,2.1c1.9-1.1,3.5-3.8,3.6-6.1c0-2.3-1.5-3.2-3.5-2.1
					C-186.9,171.2-188.5,173.9-188.5,176.2z"/>
			</g>
			<g id="XMLID_608_">
				<path id="XMLID_609_" class="st7" d="M-136.6,208.3c0.6,0.4,1.5,0.3,2.4-0.2c1.9-1.1,3.5-3.8,3.6-6.1c0-1.2-0.4-2-1-2.3
					l-51-29.8c0.7,0.4,1,1.2,1,2.3c0,2.3-1.6,5-3.6,6.1c-1,0.5-1.8,0.6-2.4,0.2C-172.2,187.5-151.8,199.4-136.6,208.3z"/>
			</g>
			<g id="XMLID_606_">
				<path id="XMLID_607_" class="st7" d="M-187.5,178.5l51,29.8c-0.6-0.4-1-1.2-1-2.3l-51-29.7
					C-188.6,177.3-188.2,178.2-187.5,178.5z"/>
			</g>
			<g id="XMLID_604_">
				<path id="XMLID_605_" class="st7" d="M-131.6,199.7l-51-29.8c-0.6-0.4-1.5-0.3-2.4,0.2c-1.9,1.1-3.5,3.8-3.6,6.1l51,29.7
					c0-2.3,1.6-5,3.6-6.1C-133.1,199.3-132.2,199.3-131.6,199.7z"/>
			</g>
			<g id="XMLID_602_">
				<path id="XMLID_603_" class="st7" d="M-137.6,205.9c0,2.3,1.5,3.2,3.5,2.1c1.9-1.1,3.5-3.8,3.6-6.1c0-2.3-1.5-3.2-3.5-2.1
					C-136,201-137.6,203.7-137.6,205.9z"/>
			</g>
		</g>
		<g id="XMLID_590_">
			<g id="XMLID_599_">
				<path id="XMLID_600_" class="st7" d="M-137.6,205.9c0,2.3,1.5,3.2,3.5,2.1c1.9-1.1,3.5-3.8,3.6-6.1c0-2.3-1.5-3.2-3.5-2.1
					C-136,201-137.6,203.7-137.6,205.9z"/>
			</g>
			<g id="XMLID_597_">
				<path id="XMLID_598_" class="st7" d="M-129,212.7c0.6,0.4,1.5,0.3,2.4-0.2c1.9-1.1,3.5-3.8,3.6-6.1c0-1.2-0.4-2-1-2.3l-7.5-4.4
					c0.6,0.4,1,1.2,1,2.3c0,2.3-1.6,5-3.6,6.1c-1,0.5-1.8,0.6-2.4,0.2C-134.3,209.6-131.3,211.4-129,212.7z"/>
			</g>
			<g id="XMLID_595_">
				<path id="XMLID_596_" class="st7" d="M-136.6,208.3l7.5,4.4c-0.6-0.4-1-1.2-1-2.3l-7.5-4.4
					C-137.6,207.1-137.2,207.9-136.6,208.3z"/>
			</g>
			<g id="XMLID_593_">
				<path id="XMLID_594_" class="st7" d="M-124,204l-7.5-4.4c-0.6-0.4-1.5-0.3-2.4,0.2c-1.9,1.1-3.5,3.8-3.6,6.1l7.5,4.4
					c0-2.3,1.6-5,3.6-6.1C-125.5,203.7-124.7,203.7-124,204z"/>
			</g>
			<g id="XMLID_591_">
				<path id="XMLID_592_" class="st8" d="M-130.1,210.3c0,2.3,1.5,3.2,3.5,2.1c1.9-1.1,3.5-3.8,3.6-6.1c0-2.3-1.5-3.2-3.5-2.1
					C-128.4,205.4-130,208.1-130.1,210.3z"/>
			</g>
		</g>
	</g>
	<g id="XMLID_298_" class="st1">
		<g id="XMLID_370_">
			<g id="XMLID_430_">
				<g id="XMLID_481_">
					<g id="XMLID_482_" class="st9">
						<g id="XMLID_487_">
							<polygon id="XMLID_488_" class="st10" points="59.3,182.5 59.3,185.9 130.6,227.8 130.6,224.5 							"/>
						</g>
						<g id="XMLID_485_">
							<polygon id="XMLID_486_" class="st3" points="130.6,224.5 130.6,227.8 225.3,173.3 225.3,170 							"/>
						</g>
						<g id="XMLID_483_">
							<polygon id="XMLID_484_" class="st11" points="59.3,182.5 130.6,224.5 225.3,170 154,128 							"/>
						</g>
					</g>
				</g>
				<path id="XMLID_431_" class="st12" d="M131.3,143.7l-45.1,26l-22.2,12.8l67,39.2l22.2-12.8l45.1-26l22.2-12.8l-67-39.2
					L131.3,143.7z M120.7,214.7l10.4-6l10.4,6.1l-10.4,6L120.7,214.7z M163.9,137.7l-10.4,6l-10.4-6.1l10.4-6L163.9,137.7z
					 M163.8,163.5l-10.4,6l-10.4-6.1l10.4-6L163.8,163.5z M152.7,169.9l-10.4,6l-10.4-6.1l10.4-6L152.7,169.9z M141.6,176.2l-10.4,6
					l-10.4-6.1l10.4-6L141.6,176.2z M130.5,182.6l-10.4,6l-10.4-6.1l10.4-6L130.5,182.6z M131.2,183l10.4,6.1l-10.4,6l-10.4-6.1
					L131.2,183z M131.9,182.6l10.4-6l10.4,6.1l-10.4,6L131.9,182.6z M143,176.2l10.4-6l10.4,6.1l-10.4,6L143,176.2z M154.1,169.9
					l10.4-6l10.4,6.1l-10.4,6L154.1,169.9z M152.8,157l-10.4,6l-10.4-6.1l10.4-6L152.8,157z M141.7,163.4l-10.4,6l-10.4-6.1l10.4-6
					L141.7,163.4z M130.6,169.8l-10.4,6l-10.4-6.1l10.4-6L130.6,169.8z M119.5,176.2l-10.4,6l-10.4-6.1l10.4-6L119.5,176.2z
					 M109,183l10.4,6.1l-10.4,6L98.6,189L109,183z M120.1,189.4l10.4,6.1l-10.4,6l-10.4-6.1L120.1,189.4z M131.8,195.5l10.4-6
					l10.4,6.1l-10.4,6L131.8,195.5z M142.9,189.1l10.4-6l10.4,6.1l-10.4,6L142.9,189.1z M154,182.7l10.4-6l10.4,6.1l-10.4,6
					L154,182.7z M165.1,176.3l10.4-6l10.4,6.1l-10.4,6L165.1,176.3z M175.6,169.5l-10.4-6.1l10.4-6l10.4,6.1L175.6,169.5z
					 M164.5,163.1l-10.4-6.1l10.4-6l10.4,6.1L164.5,163.1z M153.4,156.6l-10.4-6.1l10.4-6l10.4,6.1L153.4,156.6z M98,176.5l10.4,6.1
					l-10.4,6l-10.4-6.1L98,176.5z M120.7,201.9l10.4-6l10.4,6.1l-10.4,6L120.7,201.9z M186.6,176l-10.4-6.1l10.4-6l10.4,6.1
					L186.6,176z M152.8,144.1l-10.4,6l-10.4-6.1l10.4-6L152.8,144.1z M141.7,150.5l-10.4,6l-10.4-6.1l10.4-6L141.7,150.5z
					 M130.6,156.9l-10.4,6l-10.4-6.1l10.4-6L130.6,156.9z M119.5,163.3l-10.4,6l-10.4-6.1l10.4-6L119.5,163.3z M108.4,169.7l-10.4,6
					l-10.4-6.1l10.4-6L108.4,169.7z M97.3,176.1l-10.4,6L76.5,176l10.4-6L97.3,176.1z M86.9,182.9l10.4,6.1l-10.4,6l-10.4-6.1
					L86.9,182.9z M97.9,189.4l10.4,6.1l-10.4,6l-10.4-6.1L97.9,189.4z M109,195.8l10.4,6.1l-10.4,6l-10.4-6.1L109,195.8z
					 M120.1,202.3l10.4,6.1l-10.4,6l-10.4-6.1L120.1,202.3z M131.8,208.4l10.4-6l10.4,6.1l-10.4,6L131.8,208.4z M142.9,202l10.4-6
					l10.4,6.1l-10.4,6L142.9,202z M154,195.6l10.4-6l10.4,6.1l-10.4,6L154,195.6z M165.1,189.2l10.4-6l10.4,6.1l-10.4,6L165.1,189.2
					z M176.2,182.8l10.4-6l10.4,6.1l-10.4,6L176.2,182.8z M187.3,176.4l10.4-6l10.4,6.1l-10.4,6L187.3,176.4z M197.7,169.6
					l-10.4-6.1l10.4-6l10.4,6.1L197.7,169.6z M186.7,163.1l-10.4-6.1l10.4-6l10.4,6.1L186.7,163.1z M175.6,156.7l-10.4-6.1l10.4-6
					l10.4,6.1L175.6,156.7z M164.5,150.2l-10.4-6.1l10.4-6l10.4,6.1L164.5,150.2z M75.8,176.4l10.4,6.1l-10.4,6l-10.4-6.1
					L75.8,176.4z M208.8,176.1l-10.4-6.1l10.4-6l10.4,6.1L208.8,176.1z"/>
			</g>
			<g id="XMLID_371_">
				<g id="XMLID_422_">
					<g id="XMLID_423_" class="st9">
						<g id="XMLID_428_">
							<polygon id="XMLID_429_" class="st10" points="59.4,176.3 59.4,179.7 130.7,221.6 130.7,218.2 							"/>
						</g>
						<g id="XMLID_426_">
							<polygon id="XMLID_427_" class="st3" points="130.7,218.2 130.7,221.6 225.3,167.1 225.3,163.7 							"/>
						</g>
						<g id="XMLID_424_">
							<polygon id="XMLID_425_" class="st11" points="59.4,176.3 130.7,218.2 225.3,163.7 154,121.8 							"/>
						</g>
					</g>
				</g>
				<path id="XMLID_372_" class="st3" d="M131.3,137.4l-45.1,26l-22.2,12.8l67,39.2l22.2-12.8l45.1-26l22.2-12.8l-67-39.2
					L131.3,137.4z M120.7,208.5l10.4-6l10.4,6.1l-10.4,6L120.7,208.5z M163.9,131.5l-10.4,6l-10.4-6.1l10.4-6L163.9,131.5z
					 M163.9,157.2l-10.4,6l-10.4-6.1l10.4-6L163.9,157.2z M152.8,163.6l-10.4,6l-10.4-6.1l10.4-6L152.8,163.6z M141.7,170l-10.4,6
					l-10.4-6.1l10.4-6L141.7,170z M130.6,176.4l-10.4,6l-10.4-6.1l10.4-6L130.6,176.4z M131.2,176.8l10.4,6.1l-10.4,6l-10.4-6.1
					L131.2,176.8z M131.9,176.4l10.4-6l10.4,6.1l-10.4,6L131.9,176.4z M143,170l10.4-6l10.4,6.1l-10.4,6L143,170z M154.1,163.6
					l10.4-6l10.4,6.1l-10.4,6L154.1,163.6z M152.8,150.8l-10.4,6l-10.4-6.1l10.4-6L152.8,150.8z M141.7,157.1l-10.4,6l-10.4-6.1
					l10.4-6L141.7,157.1z M130.6,163.5l-10.4,6l-10.4-6.1l10.4-6L130.6,163.5z M119.5,169.9l-10.4,6l-10.4-6.1l10.4-6L119.5,169.9z
					 M109.1,176.7l10.4,6.1l-10.4,6l-10.4-6.1L109.1,176.7z M120.1,183.2l10.4,6.1l-10.4,6l-10.4-6.1L120.1,183.2z M131.9,189.3
					l10.4-6l10.4,6.1l-10.4,6L131.9,189.3z M143,182.9l10.4-6l10.4,6.1l-10.4,6L143,182.9z M154.1,176.5l10.4-6l10.4,6.1l-10.4,6
					L154.1,176.5z M165.2,170.1l10.4-6l10.4,6.1l-10.4,6L165.2,170.1z M175.6,163.3l-10.4-6.1l10.4-6l10.4,6.1L175.6,163.3z
					 M164.5,156.8l-10.4-6.1l10.4-6l10.4,6.1L164.5,156.8z M153.5,150.4l-10.4-6.1l10.4-6l10.4,6.1L153.5,150.4z M98,170.3l10.4,6.1
					l-10.4,6l-10.4-6.1L98,170.3z M120.8,195.7l10.4-6l10.4,6.1l-10.4,6L120.8,195.7z M186.6,169.7l-10.4-6.1l10.4-6l10.4,6.1
					L186.6,169.7z M152.8,137.9l-10.4,6l-10.4-6.1l10.4-6L152.8,137.9z M141.7,144.3l-10.4,6l-10.4-6.1l10.4-6L141.7,144.3z
					 M130.6,150.7l-10.4,6l-10.4-6.1l10.4-6L130.6,150.7z M119.5,157.1l-10.4,6L98.7,157l10.4-6L119.5,157.1z M108.4,163.5l-10.4,6
					l-10.4-6.1l10.4-6L108.4,163.5z M97.3,169.9l-10.4,6l-10.4-6.1l10.4-6L97.3,169.9z M86.9,176.7l10.4,6.1l-10.4,6l-10.4-6.1
					L86.9,176.7z M98,183.1l10.4,6.1l-10.4,6l-10.4-6.1L98,183.1z M109,189.6l10.4,6.1l-10.4,6l-10.4-6.1L109,189.6z M120.1,196
					l10.4,6.1l-10.4,6l-10.4-6.1L120.1,196z M131.8,202.1l10.4-6l10.4,6.1l-10.4,6L131.8,202.1z M142.9,195.7l10.4-6l10.4,6.1
					l-10.4,6L142.9,195.7z M154,189.3l10.4-6l10.4,6.1l-10.4,6L154,189.3z M165.1,182.9l10.4-6l10.4,6.1l-10.4,6L165.1,182.9z
					 M176.2,176.5l10.4-6l10.4,6.1l-10.4,6L176.2,176.5z M187.3,170.1l10.4-6l10.4,6.1l-10.4,6L187.3,170.1z M197.7,163.4l-10.4-6.1
					l10.4-6l10.4,6.1L197.7,163.4z M186.7,156.9l-10.4-6.1l10.4-6l10.4,6.1L186.7,156.9z M175.6,150.4l-10.4-6.1l10.4-6l10.4,6.1
					L175.6,150.4z M164.6,144l-10.4-6.1l10.4-6L175,138L164.6,144z M75.8,170.2l10.4,6.1l-10.4,6l-10.4-6.1L75.8,170.2z
					 M208.8,169.8l-10.4-6.1l10.4-6l10.4,6.1L208.8,169.8z"/>
			</g>
		</g>
		<g id="XMLID_342_">
			<path id="XMLID_348_" class="st13" d="M123.8,165.4l-15.3,8.9l39.1,22.7l3.6-2.1l-18.4-10.7l8.8-5.1l18.4,10.7l2.9-1.7l15-8.7
				l15.3-8.9l-39.1-22.7l-15.3,8.9L123.8,165.4z M173,168l3.9-2.3l5.3,3.1l-3.9,2.3L173,168z M166.6,164.3l3.9-2.3l5.1,2.9l-3.9,2.3
				L166.6,164.3z M156.3,158.4l4-2.3l4.8,2.8l-4,2.3L156.3,158.4z M149.4,154.4l4-2.3l5.5,3.2l-4,2.3L149.4,154.4z M168.2,170.9
				l3.8-2.2l5.3,3.1l-3.8,2.2L168.2,170.9z M161.7,167.2l3.8-2.2l5.1,2.9l-3.8,2.2L161.7,167.2z M151.5,161.2l3.8-2.2l4.8,2.8
				l-3.8,2.2L151.5,161.2z M144.6,157.2l3.8-2.2l5.5,3.2l-3.8,2.2L144.6,157.2z M158.6,176.4l3.8-2.2l5.3,3.1l-3.8,2.2L158.6,176.4z
				 M152.2,172.7l3.8-2.2l5.1,2.9l-3.8,2.2L152.2,172.7z M141.9,166.8l3.9-2.2l4.8,2.8l-3.9,2.2L141.9,166.8z M135,162.8l3.9-2.2
				l5.5,3.2l-3.9,2.2L135,162.8z M153.6,179.3l3.9-2.3l5.3,3.1l-3.9,2.3L153.6,179.3z M147.2,175.6l3.9-2.3l5.1,2.9l-3.9,2.3
				L147.2,175.6z M136.9,169.6l3.9-2.2l4.8,2.8l-3.9,2.2L136.9,169.6z M130,165.6l3.9-2.2l5.5,3.2l-3.9,2.2L130,165.6z M125,175
				l-4,2.3l-5.5-3.2l4-2.3L125,175z M131.1,178.6l-4,2.3l-4.8-2.8l4-2.3L131.1,178.6z M129.8,172.2l-3.8,2.2l-5.5-3.2l3.8-2.2
				L129.8,172.2z M136,175.8l-3.8,2.2l-4.8-2.8l3.8-2.2L136,175.8z"/>
			<polygon id="XMLID_347_" class="st13" points="179,179.9 196.5,169.8 201.4,172.6 183.9,182.8 168.8,191.5 150.8,201.9 
				145.9,199.1 163.9,188.7 			"/>
			<polygon id="XMLID_346_" class="st13" points="102.3,164 107.6,167.1 114.3,163.2 109.1,160.1 111.9,158.5 126.9,149.7 
				139.8,142.3 153.8,145 136.3,155.2 121.3,163.9 103.3,174.4 98.5,166.2 			"/>
			<polygon id="XMLID_345_" class="st13" points="112.4,163.3 107.8,166 99.2,161 103.9,158.3 			"/>
			<polygon id="XMLID_344_" class="st13" points="159.3,190.3 152.4,194.3 134.8,184.1 141.7,180.1 			"/>
			<polygon id="XMLID_343_" class="st13" points="104,174.4 121.7,164.1 136.7,155.4 153.9,145.5 155.2,146.2 138,156.2 123,164.9 
				106.5,174.5 145.8,197.3 142.8,199 141.2,198.1 142.9,197.1 			"/>
		</g>
	</g>
	<g id="XMLID_144_" class="st1">
		<g id="XMLID_489_">
			<g id="XMLID_504_">
				<g id="XMLID_577_" class="st9">
					<g id="XMLID_586_" class="st9">
						<g id="XMLID_587_" class="st9">
							<path id="XMLID_588_" class="st14" d="M44.4,214.5v3.6c0,0.5,0.3,0.9,0.9,1.2l0-3.6C44.7,215.4,44.4,214.9,44.4,214.5
								L44.4,214.5z"/>
						</g>
					</g>
					<g id="XMLID_584_">
						<polygon id="XMLID_585_" class="st15" points="54.7,218.8 54.7,222.4 56.9,221.2 56.9,217.5 						"/>
					</g>
					<g id="XMLID_582_">
						<polygon id="XMLID_583_" class="st15" points="52.6,220 52.6,223.6 54.7,222.4 54.7,218.8 						"/>
					</g>
					<g id="XMLID_580_">
						<polygon id="XMLID_581_" class="st16" points="45.3,215.7 45.3,219.3 52.6,223.6 52.6,220 						"/>
					</g>
					<g id="XMLID_578_">
						<path id="XMLID_579_" class="st17" d="M45.3,213.2c-1.2,0.7-1.2,1.8,0,2.5l7.3,4.3l2.2-1.2l2.2-1.2l-7.3-4.3
							C48.4,212.5,46.5,212.5,45.3,213.2z"/>
					</g>
				</g>
				<g id="XMLID_505_" class="st9">
					<g id="XMLID_575_">
						<polygon id="XMLID_576_" class="st18" points="67,217.7 67,221.3 70.4,228 70.4,224.4 						"/>
					</g>
					<g id="XMLID_572_">
						<g id="XMLID_573_">
							<path id="XMLID_574_" class="st3" d="M49,223.5v3.6c0,1.1,1.2,2,3.5,2.4v-3.6C50.2,225.4,49,224.5,49,223.5L49,223.5z"/>
						</g>
					</g>
					<g id="XMLID_570_">
						<polygon id="XMLID_571_" class="st19" points="52.5,225.8 52.5,229.5 52.8,229.5 52.8,225.9 						"/>
					</g>
					<g id="XMLID_568_">
						<polygon id="XMLID_569_" class="st19" points="52.8,225.9 52.8,229.5 64.2,231.6 64.2,227.9 						"/>
					</g>
					<g id="XMLID_566_">
						<polygon id="XMLID_567_" class="st19" points="64.2,227.9 64.2,231.6 65.3,231.8 65.3,228.1 						"/>
					</g>
					<g id="XMLID_564_">
						<polygon id="XMLID_565_" class="st13" points="70.4,224.4 70.4,228 118.6,240.4 118.6,236.8 						"/>
					</g>
					<g id="XMLID_525_">
						<g id="XMLID_556_">
							<g id="XMLID_557_" class="st9">
								<g id="XMLID_562_">
									<polygon id="XMLID_563_" class="st20" points="79.1,238.7 79.1,239.5 79.9,239.9 79.9,239.1 									"/>
								</g>
								<g id="XMLID_560_">
									<polygon id="XMLID_561_" class="st21" points="79.9,239.1 79.9,239.9 92.7,232.5 92.7,231.7 									"/>
								</g>
								<g id="XMLID_558_">
									<polygon id="XMLID_559_" class="st22" points="79.1,238.7 79.9,239.1 92.7,231.7 91.9,231.3 									"/>
								</g>
							</g>
						</g>
						<g id="XMLID_534_">
							<g id="XMLID_545_">
								<path id="XMLID_547_" class="st21" d="M76.9,237.4c0,0.1,0,0.2,0,0.3c0,0,0,0,0,0.1c0,0.4,0.1,0.8,0.2,1.2
									c0.3,1,0.8,1.9,1.5,2.7c0.3,0.3,0.6,0.6,0.9,0.8c0,0,0,0,0.1,0c0,0,0.1-0.1,0.1-0.1l0,0c0,0-0.1,0.1-0.1,0.1
									c0.1,0.1,0.1,0.1,0.2,0.1c0,0,0.1-0.1,0.1-0.1l0,0l-0.1,0.1c0,0,0.1,0,0.1,0.1c0,0,0.1,0,0.1,0.1c0,0,0,0,0,0
									c0.1,0,0.1-0.1,0.2-0.1l0,0c-0.1,0-0.1,0.1-0.2,0.1c0.7,0.3,1.3,0.3,1.8,0.1l0,0l0,0l0,0l0.9-0.5l0,0
									c0.1-0.1,0.2-0.2,0.3-0.2c0.1-0.1,0.1-0.1,0.2-0.2c0,0.2-0.1,0.3-0.1,0.5c0,0,0,0,0,0c0,0.1,0,0.1-0.1,0.2
									c0.2-0.1,0.4-0.2,0.6-0.4c0,0,0.1,0,0.1-0.1c-0.2,0.1-0.5,0.3-0.7,0.4c0,0,0,0.1,0,0.1c0,0,0,0.1-0.1,0.1
									c0.2-0.1,0.3-0.2,0.5-0.3c0.1-0.1,0.2-0.1,0.3-0.2c0,0,0.1,0,0.1-0.1c0,0,0-0.1,0.1-0.1c0,0,0-0.1,0-0.1
									c0,0-0.1,0.1-0.1,0.1c0,0,0.1,0,0.1-0.1c0,0,0,0,0,0c0-0.1,0-0.1,0.1-0.2c-0.1,0.1-0.2,0.1-0.3,0.2c0,0,0,0,0,0
									c0.1,0,0.2-0.1,0.2-0.1c0,0,0,0,0.1,0c0,0,0,0,0,0l0,0c0.1-0.3,0.1-0.7,0.1-1c0-0.1,0-0.2,0-0.3c0,0,0,0,0-0.1l0,0
									c0-0.4-0.1-0.7-0.2-1.1c0-0.1-0.1-0.2-0.1-0.3l0,0c0,0,0,0,0-0.1c0,0-0.1,0.1-0.1,0.1c-0.1,0.1-0.2,0.1-0.3,0.2l0,0
									c0.2-0.1,0.3-0.2,0.5-0.3c0,0,0-0.1,0-0.1c-0.4-1.1-1-2.2-1.8-3c-0.1,0-0.1,0.1-0.1,0.1c-0.1,0.1-0.2,0.1-0.3,0.2l0,0
									c0.2-0.1,0.3-0.2,0.5-0.3c0,0,0,0-0.1-0.1l0,0c-0.1-0.1-0.1-0.1-0.2-0.2c0,0-0.1-0.1-0.1-0.1c-0.3-0.2-0.5-0.5-0.8-0.6
									c-0.2,0.1-0.4,0.2-0.6,0.3l0,0c0.2-0.1,0.4-0.2,0.6-0.3c0,0,0,0,0,0c-0.2,0.1-0.4,0.2-0.6,0.4l0,0c0.2-0.1,0.4-0.2,0.6-0.4
									c-0.1-0.1-0.2-0.1-0.3-0.2l-0.7,0.4l0,0c0.2-0.1,0.5-0.3,0.7-0.4c-0.2-0.1-0.4-0.2-0.6-0.3c-0.1,0-0.2-0.1-0.3-0.1
									c0,0-0.1,0-0.1,0c0,0,0,0,0,0c-0.1,0-0.1,0-0.2,0c0,0-0.1,0-0.1,0l0,0c0,0-0.1,0-0.1,0c-0.4,0-0.8,0.1-1.1,0.2l-0.9,0.5
									c0.3-0.2,0.7-0.3,1.1-0.2c0,0,0.1,0,0.1,0c0,0,0.1,0,0.1,0c0.1,0,0.1,0,0.2,0c0,0,0,0,0,0c0,0,0.1,0,0.1,0
									c0.1,0,0.2,0.1,0.3,0.1c0,0,0,0,0,0c-0.2,0-0.5,0.1-0.7,0.2l-0.4,0.2l-0.5,0.3c-0.5,0.3-0.8,0.8-0.9,1.6
									c0.1,0,0.1-0.1,0.2-0.1l0,0c-0.1,0-0.1,0.1-0.2,0.1c0,0,0,0,0,0.1c0,0,0,0.1,0,0.1C76.9,237.3,76.9,237.3,76.9,237.4z
									 M80.7,241.9L80.7,241.9c0,0,0.1-0.1,0.1-0.1c-0.1-0.1-0.3-0.2-0.4-0.3l0.1-0.1c0.1,0,0.2,0.1,0.4,0.1l0.9-0.5l0-0.7
									c-0.2-0.1-0.6-0.3-1-0.5l0.9-0.5c0.2-0.1,0.3-0.5,0.3-0.7l0-0.3c0,0,0-0.1,0-0.1c0.4,0.8,0.7,1.8,0.7,2.6
									c0,0.6-0.2,1.1-0.4,1.4c-0.4,0.1-0.9-0.1-1.5-0.4L80.7,241.9z M78.5,235.3l-0.3,0.2c0-0.1,0.1-0.1,0.1-0.2
									C78.4,235.3,78.5,235.3,78.5,235.3z M80.4,240.6l-0.6,0.4l0,0C80,240.9,80.2,240.8,80.4,240.6L80.4,240.6z M80.9,240.9
									l-0.2,0.1l-0.1,0l0-0.2C80.7,240.8,80.8,240.8,80.9,240.9z M78.7,239.4c0,0.1,0,0.1,0,0.2c-0.4-0.8-0.7-1.8-0.7-2.6
									c0-0.6,0.2-1.1,0.4-1.4c0.4-0.1,0.9,0.1,1.5,0.4c0.1,0.1,0.3,0.2,0.4,0.3l-0.1,0.1c-0.1,0-0.2-0.1-0.4-0.1l0,0l0,0l-0.9,0.5
									l0,0.7c0.3,0.1,0.8,0.4,1,0.5l-0.9,0.5c-0.2,0.1-0.3,0.4-0.3,0.7c0.3-0.2,0.7-0.4,0.9-0.5c0,0,0,0,0,0l0.3,0.2
									c0.1,0.1,0.2,0.1,0.3,0.1l0.8-0.5c0,0.2,0.1,0.3,0.1,0.5l0,0.3c0,0,0,0,0,0l-0.3-0.2c-0.1-0.1-0.2-0.1-0.2-0.1l-0.8,0.4
									c0-0.2-0.1-0.4-0.1-0.6c-0.3,0.2-0.6,0.3-0.8,0.5L78.7,239.4z M79.9,236.8l0.2-0.1l0.1,0l0,0.2
									C80,236.9,80,236.9,79.9,236.8z M82.5,242.2c0,0.1-0.1,0.1-0.1,0.2c-0.1,0-0.1,0-0.2,0L82.5,242.2z"/>
								<path id="XMLID_546_" class="st21" d="M84.1,242.1c-0.2,0.4-0.4,0.6-0.7,0.8l-0.9,0.5c0.3-0.2,0.6-0.4,0.7-0.8
									c0.3-0.2,0.5-0.3,0.8-0.5C84,242.2,84,242.2,84.1,242.1z"/>
							</g>
							<path id="XMLID_535_" class="st23" d="M76.3,237c0,2.3,1.6,5.1,3.5,6.2c2,1.2,3.6,0.2,3.6-2c0-2.3-1.6-5.1-3.5-6.2
								C78,233.9,76.3,234.8,76.3,237z M79.7,241l0,0.5l0.5,0.3l-0.5-0.3L79.7,241z M80.3,238.5v0.1c0,0.1,0,0.2-0.1,0.2
								c0.1,0,0.1-0.1,0.1-0.2V238.5z M80,238.7l-0.2-0.1L80,238.7c0.1,0.1,0.2,0.1,0.3,0.1C80.2,238.8,80.1,238.8,80,238.7z
								 M79.9,237.9C79.9,237.9,79.9,237.9,79.9,237.9c0.1,0.1,0.2,0.1,0.2,0.1C80.1,238,80,238,79.9,237.9
								C79.9,237.9,79.9,237.9,79.9,237.9z M79.9,240.3c-0.1,0-0.1-0.1-0.2-0.2C79.7,240.2,79.8,240.3,79.9,240.3
								c0.2,0.1,0.4,0.2,0.6,0.4C80.3,240.6,80.1,240.5,79.9,240.3z M78.7,239.1c0-0.2,0-0.5,0.2-0.6c0.1-0.1,0.2-0.2,0.4-0.1
								c-0.2-0.1-0.3,0-0.4,0.1C78.8,238.6,78.7,238.9,78.7,239.1L78.7,239.1z M78.9,237.4l0-0.7c0.2,0.1,0.5,0.1,0.8,0.3
								c-0.3-0.2-0.6-0.3-0.8-0.3L78.9,237.4L78.9,237.4z M80.8,237.9c0.2,0.3,0.3,0.6,0.3,1C81.1,238.4,81,238.1,80.8,237.9z"/>
						</g>
						<g id="XMLID_526_">
							<g id="XMLID_527_" class="st9">
								<g id="XMLID_532_">
									<polygon id="XMLID_533_" class="st20" points="66.4,246 66.4,246.8 67.1,247.3 67.1,246.4 									"/>
								</g>
								<g id="XMLID_530_">
									<polygon id="XMLID_531_" class="st21" points="67.1,246.4 67.1,247.3 79.9,239.9 79.9,239.1 									"/>
								</g>
								<g id="XMLID_528_">
									<polygon id="XMLID_529_" class="st22" points="66.4,246 67.1,246.4 79.9,239.1 79.2,238.6 									"/>
								</g>
							</g>
						</g>
					</g>
					<g id="XMLID_522_">
						<g id="XMLID_523_">
							<path id="XMLID_524_" class="st3" d="M65.3,228.1v3.6c2.1,0.4,3.8,0.2,4.8-0.4c0.6-0.4,1-0.9,1-1.6l0-3.6
								c0,0.7-0.3,1.2-1,1.6C69.1,228.3,67.4,228.5,65.3,228.1L65.3,228.1z"/>
						</g>
					</g>
					<g id="XMLID_520_">
						<path id="XMLID_521_" class="st11" d="M51.4,220.7c-3.6,2.1-3.1,4.4,1.1,5.1l0.3,0.1l11.4,2l1.1,0.2c2.1,0.4,3.8,0.2,4.8-0.4
							c1-0.6,1.3-1.5,0.7-2.8l-0.3-0.6l-3.4-6.7l-0.1-0.2c-1.2-2.5-5.2-2.8-8.8-0.7l-1.2,0.7l-2.2,1.2l-2.2,1.2L51.4,220.7z"/>
					</g>
					<g id="XMLID_518_">
						<polygon id="XMLID_519_" class="st24" points="120.6,234.1 120.6,237.8 122.3,235.6 122.3,231.9 						"/>
					</g>
					<g id="XMLID_516_">
						<polygon id="XMLID_517_" class="st25" points="67,217.7 70.4,224.4 118.6,236.8 120.6,234.1 122.3,231.9 						"/>
					</g>
					<g id="XMLID_514_">
						<polygon id="XMLID_515_" class="st24" points="118.6,236.8 118.6,240.4 120.6,237.8 120.6,234.1 						"/>
					</g>
					<g id="XMLID_512_">
						<polygon id="XMLID_513_" class="st24" points="80.4,257.3 80.4,260.9 85,259.7 85,256.1 						"/>
					</g>
					<g id="XMLID_510_">
						<polygon id="XMLID_511_" class="st25" points="52.8,225.9 76.7,258.2 80.4,257.3 85,256.1 64.2,227.9 						"/>
					</g>
					<g id="XMLID_508_">
						<polygon id="XMLID_509_" class="st24" points="76.7,258.2 76.7,261.8 80.4,260.9 80.4,257.3 						"/>
					</g>
					<g id="XMLID_506_">
						<polygon id="XMLID_507_" class="st13" points="52.8,225.9 52.8,229.5 76.7,261.8 76.7,258.2 						"/>
					</g>
				</g>
			</g>
			<g id="XMLID_498_">
				<g id="XMLID_499_" class="st9">
					<g id="XMLID_502_">
						<polygon id="XMLID_503_" class="st10" points="119.9,236.6 119.9,237.8 126.6,238.3 126.6,237.2 						"/>
					</g>
					<g id="XMLID_500_">
						<polygon id="XMLID_501_" class="st22" points="121.2,234.7 120.6,235.6 119.9,236.6 126.6,237.2 						"/>
					</g>
				</g>
			</g>
			<g id="XMLID_490_">
				<g id="XMLID_491_" class="st9">
					<g id="XMLID_496_">
						<polygon id="XMLID_497_" class="st26" points="78.5,259 78.5,260.6 84.2,264.9 84.2,263.3 						"/>
					</g>
					<g id="XMLID_494_">
						<polygon id="XMLID_495_" class="st27" points="84.2,263.3 84.2,264.9 84.2,264.9 84.2,263.3 						"/>
					</g>
					<g id="XMLID_492_">
						<polygon id="XMLID_493_" class="st22" points="78.5,259 84.2,263.3 84.2,263.3 83,257.9 80.4,258.5 						"/>
					</g>
				</g>
			</g>
		</g>
	</g>
	<g id="XMLID_83_" class="st1">
		<g id="XMLID_85_">
			<g id="XMLID_142_">
				<g id="XMLID_143_">
					<g id="XMLID_296_">
						<path id="XMLID_297_" class="st28" d="M31-187.6c3.5-2.1,6.5-0.4,6.5,3.8l0.7,136.7c0,4.2-2.9,9.4-6.4,11.5l-208.9,125
							c-3.6,2.1-6.5,0.4-6.5-3.8l-0.7-136.7c0-4.2,2.9-9.4,6.4-11.5L31-187.6z"/>
					</g>
					<g id="XMLID_289_">
						<polygon id="XMLID_295_" class="st29" points="15.4,-143.8 31,-152.8 31,-170.8 15.4,-161.8 						"/>
						<polygon id="XMLID_294_" class="st29" points="15.4,-122.2 31,-131.2 31,-149.2 15.4,-140.2 						"/>
						<polygon id="XMLID_293_" class="st29" points="15.4,-100.6 31,-109.6 31,-127.7 15.4,-118.6 						"/>
						<polygon id="XMLID_292_" class="st29" points="15.4,-79 31,-88 31,-106.1 15.4,-97 						"/>
						<polygon id="XMLID_291_" class="st29" points="15.4,-57.5 31,-66.6 31,-84.6 15.4,-75.6 						"/>
						<polygon id="XMLID_290_" class="st29" points="15.4,-36 31,-45 31,-63 15.4,-54 						"/>
					</g>
					<g id="XMLID_154_">
						<g id="XMLID_287_">
							<path id="XMLID_288_" class="st3" d="M187.4,53.4c0,0.2,0,0.3,0,0.5c0,0.2,0,0.3-0.1,0.5c0,0.1-0.1,0.3-0.1,0.4
								c0,0.2-0.1,0.3-0.1,0.5c0,0.1-0.1,0.2-0.2,0.4c-0.1,0.2-0.1,0.3-0.2,0.5c0,0.1-0.1,0.2-0.2,0.3c-0.1,0.2-0.2,0.4-0.3,0.5
								c-0.1,0.1-0.2,0.2-0.3,0.3c-0.2,0.2-0.3,0.5-0.6,0.7c-0.1,0.1-0.2,0.2-0.3,0.3c-0.1,0.1-0.2,0.3-0.4,0.4
								c-0.1,0.1-0.3,0.3-0.5,0.4c-0.1,0.1-0.3,0.2-0.5,0.3c-0.2,0.2-0.5,0.3-0.8,0.5l-82.1,49l0-5.1L82.7,93l26.2-15.7l0-2l1.7,1
								l35.6-21.4l-0.1-12.8l-16.7-9.9l-3.8,2.3l0-4.6l-5.6-3.3l-11.1-6.6L89.5,8.6l-4.8,2.9l0-5.7L68-4.1l-3.7,2.2l0-4.5l-16.7-9.9
								L30.3-5.8l0,4l-3.3-2L9.8,6.5l0,3.9l-3.3-2l-17.2,10.4l0,3.9l-3.3-2l-17.2,10.4l0,3.9l-3.3-2l-17.2,10.4l0,3.9l-3.3-2
								l-17.3,10.4l0,3.9l-3.3-1.9l-17.3,10.4l0,3.9l-3.3-1.9l-17.2,10.3l0,3.9l-3.3-1.9l-17.3,10.4l0.1,12.8l9.7,5.7l-4.1,2.5
								l0-4.4l-16.7-9.9l-17.2,10.4l0.1,12.8l16.7,9.9l3.8-2.2l0,4.4l16.7,9.9l3.7-2.3l0,4.5l16.7,9.8l3.7-2.2l0,4.5l16.7,9.9
								l3.8-2.3l0,4.6l16.7,9.9l36.5-22l0-2.6l2.1,1.3l27-16.2l0-2.9l2.5,1.5l9.8-5.9l0,4.9l18.1,10.8L-34.6,190
								c-0.7,0.4-1.4,0.7-2.1,1c-0.2,0.1-0.4,0.2-0.6,0.2c-0.5,0.2-1,0.3-1.5,0.5c-0.4,0.1-0.9,0.3-1.4,0.3c-0.6,0.1-1.3,0.2-2,0.3
								c-0.1,0-0.2,0-0.4,0.1c-0.9,0.1-1.7,0.1-2.6,0.1c-0.2,0-0.3,0-0.4,0c-0.8,0-1.7-0.1-2.5-0.1c-0.1,0-0.3,0-0.4,0
								c-0.8-0.1-1.6-0.3-2.4-0.4c-0.1,0-0.3-0.1-0.5-0.1c-0.8-0.2-1.5-0.4-2.2-0.7c-0.1,0-0.2,0-0.2-0.1c-0.8-0.3-1.6-0.7-2.3-1.1
								l-125.5-74.7c-2.9-1.7-4.4-4-4.4-6.3c0,4.3,0,8.5,0.1,12.8c0,2.3,1.5,4.6,4.4,6.4L-56,202.9c0.7,0.4,1.5,0.8,2.3,1.1
								c0,0,0,0,0.1,0c0.1,0,0.2,0.1,0.2,0.1c0.5,0.2,1,0.4,1.5,0.5c0.2,0.1,0.4,0.1,0.7,0.1c0.2,0,0.3,0.1,0.5,0.1
								c0.2,0,0.3,0.1,0.5,0.1c0.5,0.1,1,0.2,1.5,0.2c0.1,0,0.3,0,0.4,0.1c0.1,0,0.3,0,0.4,0c0.2,0.1,0.4,0.1,0.6,0.1
								c0.5,0.1,1,0.1,1.5,0.1c0.1,0,0.3,0,0.4,0c0.1,0,0.3,0,0.4,0c0.2,0,0.5,0,0.7,0c0.6,0,1.1-0.1,1.7-0.1c0.1,0,0.1,0,0.1,0
								c0.1,0,0.2,0,0.4-0.1c0.5-0.1,0.9-0.1,1.4-0.2c0.2,0,0.4-0.1,0.6-0.1c0.4-0.1,0.9-0.2,1.3-0.3c0.3-0.1,0.6-0.1,0.8-0.2
								c0.2-0.1,0.5-0.2,0.7-0.3c0.2-0.1,0.4-0.1,0.6-0.2c0.7-0.3,1.5-0.6,2.2-1.1L183.1,72.7c0.2-0.1,0.3-0.2,0.5-0.3
								c0.1-0.1,0.2-0.1,0.3-0.2c0.2-0.1,0.3-0.2,0.5-0.4c0.2-0.1,0.3-0.2,0.5-0.4c0.1-0.1,0.2-0.2,0.4-0.3c0.1-0.1,0.1-0.1,0.2-0.2
								c0.1-0.1,0.1-0.1,0.2-0.2c0.2-0.2,0.4-0.5,0.6-0.6c0-0.1,0.1-0.2,0.1-0.2c0,0,0-0.1,0.1-0.1c0.1-0.2,0.2-0.4,0.3-0.6
								c0-0.1,0.1-0.2,0.2-0.3c0,0,0-0.1,0-0.1c0.1-0.2,0.1-0.4,0.2-0.5c0-0.1,0.1-0.2,0.1-0.3c0,0,0,0,0-0.1
								c0.1-0.2,0.1-0.3,0.1-0.5c0-0.1,0.1-0.2,0.1-0.3c0,0,0,0,0-0.1c0-0.2,0-0.3,0.1-0.5c0-0.1,0-0.2,0-0.4c0,0,0-0.1,0-0.1
								C187.5,61.9,187.5,57.7,187.4,53.4z"/>
						</g>
						<g id="XMLID_155_">
							<g id="XMLID_285_">
								<path id="XMLID_286_" class="st29" d="M183.1,47.1L57.5-27.6c-5.9-3.5-15.6-3.5-21.5,0.1l-217.6,130.1
									c-5.9,3.5-5.9,9.3,0,12.8l125.5,74.7c5.9,3.5,15.5,3.5,21.5-0.1L183,59.9C188.9,56.3,188.9,50.6,183.1,47.1z"/>
							</g>
							<g id="XMLID_282_">
								<g id="XMLID_283_">
									<polygon id="XMLID_284_" class="st24" points="38.9,13.4 55.6,23.3 38.4,33.6 21.7,23.8 									"/>
								</g>
							</g>
							<g id="XMLID_279_">
								<g id="XMLID_280_">
									<polygon id="XMLID_281_" class="st24" points="65.5,21.8 82.2,31.6 65,42 48.3,32.1 									"/>
								</g>
							</g>
							<g id="XMLID_276_">
								<g id="XMLID_277_">
									<polygon id="XMLID_278_" class="st24" points="89.5,8.6 108.9,20.1 120,26.6 125.6,30 96.5,47.4 79.8,37.6 88.7,32.2 
										69.4,20.7 									"/>
								</g>
							</g>
							<g id="XMLID_273_">
								<g id="XMLID_274_">
									<polygon id="XMLID_275_" class="st24" points="46.1,33.4 62.8,43.3 45.6,53.7 28.9,43.8 									"/>
								</g>
							</g>
							<g id="XMLID_270_">
								<g id="XMLID_271_">
									<polygon id="XMLID_272_" class="st24" points="129.4,32.2 146.1,42.1 110.6,63.5 93.8,53.6 									"/>
								</g>
							</g>
							<g id="XMLID_267_">
								<g id="XMLID_268_">
									<polygon id="XMLID_269_" class="st24" points="92.2,54.6 108.9,64.5 81.9,80.7 65.2,70.8 									"/>
								</g>
							</g>
							<g id="XMLID_264_">
								<g id="XMLID_265_">
									<polygon id="XMLID_266_" class="st24" points="39,62.1 55.7,72 38.4,82.4 21.7,72.5 									"/>
								</g>
							</g>
							<g id="XMLID_261_">
								<g id="XMLID_262_">
									<polygon id="XMLID_263_" class="st24" points="47.6,-16.2 64.3,-6.3 47,4.1 30.3,-5.8 									"/>
								</g>
							</g>
							<g id="XMLID_258_">
								<g id="XMLID_259_">
									<polygon id="XMLID_260_" class="st24" points="27,-3.9 43.7,6 26.5,16.4 9.8,6.5 									"/>
								</g>
							</g>
							<g id="XMLID_255_">
								<g id="XMLID_256_">
									<polygon id="XMLID_257_" class="st24" points="68,-4.1 84.7,5.8 58,21.8 41.3,12 									"/>
								</g>
							</g>
							<g id="XMLID_252_">
								<g id="XMLID_253_">
									<polygon id="XMLID_254_" class="st24" points="6.5,8.5 23.2,18.4 6,28.7 -10.7,18.9 									"/>
								</g>
							</g>
							<g id="XMLID_249_">
								<g id="XMLID_250_">
									<polygon id="XMLID_251_" class="st24" points="-14,20.8 2.7,30.7 -14.6,41.1 -31.3,31.2 									"/>
								</g>
							</g>
							<g id="XMLID_246_">
								<g id="XMLID_247_">
									<polygon id="XMLID_248_" class="st24" points="19.3,25.2 36,35.1 18.7,45.4 2,35.6 									"/>
								</g>
							</g>
							<g id="XMLID_243_">
								<g id="XMLID_244_">
									<polygon id="XMLID_245_" class="st24" points="-34.6,33.2 -17.9,43.1 -35.1,53.4 -51.8,43.5 									"/>
								</g>
							</g>
							<g id="XMLID_240_">
								<g id="XMLID_241_">
									<polygon id="XMLID_242_" class="st24" points="-0.4,37 16.3,46.9 -0.9,57.2 -17.6,47.4 									"/>
								</g>
							</g>
							<g id="XMLID_237_">
								<g id="XMLID_238_">
									<polygon id="XMLID_239_" class="st24" points="77.5,38.9 94.2,48.8 77,59.2 60.3,49.3 									"/>
								</g>
							</g>
							<g id="XMLID_234_">
								<g id="XMLID_235_">
									<polygon id="XMLID_236_" class="st24" points="-55.1,45.5 -38.4,55.4 -55.6,65.8 -72.3,55.9 									"/>
								</g>
							</g>
							<g id="XMLID_231_">
								<g id="XMLID_232_">
									<polygon id="XMLID_233_" class="st24" points="26.7,45.1 43.4,55 26.2,65.3 9.5,55.5 									"/>
								</g>
							</g>
							<g id="XMLID_228_">
								<g id="XMLID_229_">
									<polygon id="XMLID_230_" class="st24" points="-20,48.8 -3.3,58.7 -20.5,69 -37.2,59.2 									"/>
								</g>
							</g>
							<g id="XMLID_225_">
								<g id="XMLID_226_">
									<polygon id="XMLID_227_" class="st24" points="58.2,50.6 74.8,60.5 57.6,70.8 40.9,60.9 									"/>
								</g>
							</g>
							<g id="XMLID_222_">
								<g id="XMLID_223_">
									<polygon id="XMLID_224_" class="st24" points="7.3,56.8 24,66.6 6.8,77 -9.9,67.1 									"/>
								</g>
							</g>
							<g id="XMLID_219_">
								<g id="XMLID_220_">
									<polygon id="XMLID_221_" class="st24" points="-75.6,57.9 -58.9,67.7 -76.2,78.1 -92.9,68.2 									"/>
								</g>
							</g>
							<g id="XMLID_216_">
								<g id="XMLID_217_">
									<polygon id="XMLID_218_" class="st24" points="-39.6,60.6 -22.9,70.5 -40.1,80.8 -56.8,71 									"/>
								</g>
							</g>
							<g id="XMLID_213_">
								<g id="XMLID_214_">
									<polygon id="XMLID_215_" class="st24" points="-12.1,68.4 4.6,78.3 -12.6,88.7 -29.3,78.8 									"/>
								</g>
							</g>
							<g id="XMLID_210_">
								<g id="XMLID_211_">
									<polygon id="XMLID_212_" class="st24" points="-96.2,70.2 -79.4,80.1 -96.7,90.5 -113.4,80.6 									"/>
								</g>
							</g>
							<g id="XMLID_207_">
								<g id="XMLID_208_">
									<polygon id="XMLID_209_" class="st24" points="-59.2,72.4 -42.5,82.3 -59.8,92.6 -76.5,82.8 									"/>
								</g>
							</g>
							<g id="XMLID_204_">
								<g id="XMLID_205_">
									<polygon id="XMLID_206_" class="st24" points="18.9,74.2 35.6,84 18.4,94.4 1.7,84.5 									"/>
								</g>
							</g>
							<g id="XMLID_201_">
								<g id="XMLID_202_">
									<polygon id="XMLID_203_" class="st24" points="-31.5,80.1 -14.8,90 -32,100.3 -48.7,90.5 									"/>
								</g>
							</g>
							<g id="XMLID_198_">
								<g id="XMLID_199_">
									<polygon id="XMLID_200_" class="st24" points="-116.7,82.5 -100,92.4 -117.2,102.8 -133.9,92.9 									"/>
								</g>
							</g>
							<g id="XMLID_195_">
								<g id="XMLID_196_">
									<polygon id="XMLID_197_" class="st24" points="-78.8,84.2 -62.2,94.1 -79.4,104.4 -96.1,94.6 									"/>
								</g>
							</g>
							<g id="XMLID_192_">
								<g id="XMLID_193_">
									<polygon id="XMLID_194_" class="st24" points="-0.3,85.7 16.4,95.6 -0.8,105.9 -17.5,96.1 									"/>
								</g>
							</g>
							<g id="XMLID_189_">
								<g id="XMLID_190_">
									<polygon id="XMLID_191_" class="st24" points="-50.9,91.7 -34.2,101.6 -51.4,112 -68.1,102.1 									"/>
								</g>
							</g>
							<g id="XMLID_186_">
								<g id="XMLID_187_">
									<polygon id="XMLID_188_" class="st24" points="-19.7,97.4 -3,107.3 -20.2,117.6 -36.9,107.7 									"/>
								</g>
							</g>
							<g id="XMLID_183_">
								<g id="XMLID_184_">
									<polygon id="XMLID_185_" class="st24" points="-145,99.6 -128.3,109.5 -145.5,119.8 -162.2,110 									"/>
								</g>
							</g>
							<g id="XMLID_180_">
								<g id="XMLID_181_">
									<polygon id="XMLID_182_" class="st24" points="-70.3,103.4 -53.6,113.3 -70.8,123.7 -87.5,113.8 									"/>
								</g>
							</g>
							<g id="XMLID_177_">
								<g id="XMLID_178_">
									<polygon id="XMLID_179_" class="st24" points="63.4,71.9 80.1,81.8 4.4,127.3 -12.3,117.4 									"/>
								</g>
							</g>
							<g id="XMLID_174_">
								<g id="XMLID_175_">
									<polygon id="XMLID_176_" class="st24" points="-38.8,108.9 -22.1,118.8 -39.4,129.1 -56.1,119.3 									"/>
								</g>
							</g>
							<g id="XMLID_171_">
								<g id="XMLID_172_">
									<polygon id="XMLID_173_" class="st24" points="-99.3,96.5 -82.6,106.4 -125.1,131.9 -141.8,122 									"/>
								</g>
							</g>
							<g id="XMLID_168_">
								<g id="XMLID_169_">
									<polygon id="XMLID_170_" class="st24" points="76.3,89.2 100.9,103.9 38.9,140.9 14.3,126.3 									"/>
								</g>
							</g>
							<g id="XMLID_165_">
								<g id="XMLID_166_">
									<polygon id="XMLID_167_" class="st24" points="-89.7,115.1 -73,125 -104.6,144 -121.4,134.1 									"/>
								</g>
							</g>
							<g id="XMLID_162_">
								<g id="XMLID_163_">
									<polygon id="XMLID_164_" class="st24" points="-14.7,118.9 2,128.8 -25,145 -41.7,135.1 									"/>
								</g>
							</g>
							<g id="XMLID_159_">
								<g id="XMLID_160_">
									<polygon id="XMLID_161_" class="st24" points="-58.5,120.7 -41.8,130.6 -84.2,156.1 -100.9,146.2 									"/>
								</g>
							</g>
							<g id="XMLID_156_">
								<g id="XMLID_157_">
									<polygon id="XMLID_158_" class="st24" points="-43.8,136.4 -27.2,146.3 -63.7,168.3 -80.4,158.4 									"/>
								</g>
							</g>
						</g>
					</g>
					<g id="XMLID_151_">
						<g id="XMLID_152_">
							<path id="XMLID_153_" class="st3" d="M41.8-203.1c-0.1-0.1-0.3-0.1-0.4-0.2c-1-0.6-2-1.2-3.1-1.8c-1.1-0.6-2.1-1.2-3.1-1.8
								c-2-1.2-4.7-1-7.7,0.8L-190-76.1c-5.9,3.5-10.7,12.2-10.7,19.2l0.8,149.3c0,3.5,1.2,5.9,3.2,7.1c2.6,1.5,5.1,3.1,7.7,4.6
								c-1.9-1.2-3.2-3.6-3.2-7.1L-193-52.3c0-7,4.8-15.6,10.7-19.2L35.3-201.6c3-1.8,5.7-1.9,7.7-0.8
								C42.5-202.6,42.2-202.8,41.8-203.1z"/>
						</g>
					</g>
					<g id="XMLID_146_">
						<g id="XMLID_147_">
							<path id="XMLID_148_" class="st30" d="M35.3-201.6c5.9-3.5,10.8-0.7,10.8,6.3l0.8,149.3c0,7-4.8,15.6-10.7,19.2l-217.6,130.2
								c-5.9,3.5-10.8,0.7-10.8-6.3L-193-52.3c0-7,4.8-15.6,10.7-19.2L35.3-201.6z M38.2-47.2l-0.7-136.7c0-4.2-3-5.9-6.5-3.8
								l-208.9,125c-3.6,2.1-6.4,7.3-6.4,11.5l0.7,136.7c0,4.2,2.9,5.9,6.5,3.8l208.9-125C35.4-37.8,38.2-43,38.2-47.2L38.2-47.2z"
								/>
						</g>
					</g>
					<polygon id="XMLID_145_" class="st29" points="3,-140.1 -149.5,-51.6 -149.5,48.5 3.4,-40.2 					"/>
				</g>
			</g>
			<path id="XMLID_140_" class="st30" d="M-178,25l0,41.6v13.7l12.3-7.1l0,0l11.5-6.7l11.9-6.9l0,0l11.9-6.9v0l12.3-7.1V-9.7
				L-130-2.8L-153.8,11L-178,25z"/>
			<g id="XMLID_136_">
				<polygon id="XMLID_139_" class="st31" points="-127,-23.8 -181.4,7.7 -181.4,4.3 -127,-27.2 				"/>
				<polygon id="XMLID_138_" class="st32" points="-127,-17.6 -181.4,13.9 -181.4,10.5 -127,-21 				"/>
				<polygon id="XMLID_137_" class="st33" points="-127,-11.4 -181.4,20.1 -181.4,16.7 -127,-14.8 				"/>
			</g>
			<g id="XMLID_99_">
				<g id="XMLID_130_">
					<polygon id="XMLID_135_" class="st31" points="-120.4,6.5 -131.4,12.9 -131.4,0.1 -120.4,-6.3 					"/>
					<polygon id="XMLID_134_" class="st34" points="-131.5,12.9 -142.5,19.3 -142.5,6.5 -131.5,0.1 					"/>
					<polygon id="XMLID_133_" class="st35" points="-142.6,19.3 -153.6,25.7 -153.6,12.9 -142.6,6.6 					"/>
					<polygon id="XMLID_132_" class="st36" points="-153.7,25.8 -164.7,32.2 -164.7,19.4 -153.7,13 					"/>
					<polygon id="XMLID_131_" class="st37" points="-164.8,32.2 -175.8,38.6 -175.8,25.8 -164.8,19.4 					"/>
				</g>
				<g id="XMLID_113_">
					<polygon id="XMLID_119_" class="st38" points="-120.4,19.3 -131.4,25.6 -131.4,12.9 -120.4,6.5 					"/>
					<polygon id="XMLID_117_" class="st39" points="-131.5,25.7 -142.5,32.1 -142.5,19.3 -131.5,12.9 					"/>
					<polygon id="XMLID_116_" class="st40" points="-142.6,32.1 -153.6,38.5 -153.6,25.7 -142.6,19.3 					"/>
					<polygon id="XMLID_115_" class="st41" points="-153.7,38.5 -164.7,44.9 -164.7,32.2 -153.7,25.8 					"/>
					<polygon id="XMLID_114_" class="st42" points="-164.8,45 -175.8,51.4 -175.8,38.6 -164.8,32.2 					"/>
				</g>
				<g id="XMLID_107_">
					<polygon id="XMLID_112_" class="st32" points="-120.4,32 -131.4,38.4 -131.4,25.6 -120.4,19.3 					"/>
					<polygon id="XMLID_111_" class="st43" points="-131.5,38.4 -142.5,44.8 -142.5,32.1 -131.5,25.7 					"/>
					<polygon id="XMLID_110_" class="st44" points="-142.6,44.9 -153.6,51.3 -153.6,38.5 -142.6,32.1 					"/>
					<polygon id="XMLID_109_" class="st45" points="-153.7,51.3 -164.7,57.7 -164.7,44.9 -153.7,38.5 					"/>
					<polygon id="XMLID_108_" class="st46" points="-164.8,57.8 -175.8,64.1 -175.8,51.4 -164.8,45 					"/>
				</g>
				<g id="XMLID_101_">
					<polygon id="XMLID_106_" class="st47" points="-120.4,44.8 -131.4,51.2 -131.4,38.4 -120.4,32 					"/>
					<polygon id="XMLID_105_" class="st48" points="-131.5,51.2 -142.5,57.6 -142.5,44.8 -131.5,38.4 					"/>
					<polygon id="XMLID_104_" class="st49" points="-142.6,57.7 -153.6,64 -153.6,51.3 -142.6,44.9 					"/>
					<polygon id="XMLID_103_" class="st50" points="-153.7,64.1 -164.7,70.5 -164.7,57.7 -153.7,51.3 					"/>
					<polygon id="XMLID_102_" class="st51" points="-164.8,70.5 -175.8,76.9 -175.8,64.1 -164.8,57.8 					"/>
				</g>
			</g>
			<polygon id="XMLID_97_" class="st52" points="-130.6,-80.3 -176.9,-53.4 -176.9,-8.5 -130.5,-35.4 			"/>
		</g>
	</g>
	<g id="XMLID_26765_" class="st1">
		<path id="XMLID_26775_" class="st13" d="M230.5,46c0,0.9,0.6,1.8,1.8,2.5l12.3,7.1v-2.8c0-0.5,0.3-0.9,0.9-1.3l-4.3-2.5
			c-0.5-0.3-0.7-0.6-0.7-1l0-5.8c0-0.3,0.2-0.7,0.7-1l47.6-27.8c0.9-0.5,2.5-0.5,3.4,0l11.3,6.6c0-0.8,0-1.7,0-2.4
			c0-0.2,0.1-0.4,0.4-0.5c0.5-0.3,1.4-0.3,1.9,0l8.1,4.7c0.3,0.2,0.4,0.4,0.4,0.6l0,3.9l5.9,3.4c0.5,0.3,0.7,0.6,0.7,1l0,3.5l5-2.9
			c1.2-0.7,1.7-1.6,1.7-2.5c0,1.9,0,3.9,0,5.8c0,0.9-0.6,1.8-1.7,2.5l-57.3,33.4c-2.3,1.4-6.2,1.4-8.5,0l-27.8-16.1
			c-1.2-0.7-1.8-1.6-1.8-2.5C230.5,49.9,230.5,48,230.5,46z"/>
		<g id="XMLID_26766_">
			<path id="XMLID_26774_" class="st28" d="M241.1,41.3l47.6-27.8c0.9-0.5,2.5-0.5,3.4,0l28,16.2c0.9,0.5,0.9,1.4,0,2l-47.6,27.8
				c-0.9,0.5-2.5,0.5-3.4,0l-28-16.2C240.2,42.7,240.2,41.8,241.1,41.3z"/>
			<path id="XMLID_26773_" class="st2" d="M250.5,51.4c-1.4-0.8-3.6-0.8-4.9,0c-1.4,0.8-1.3,2.1,0,2.9l5,2.9c1.4,0.8,3.6,0.8,4.9,0
				c1.4-0.8,1.3-2.1,0-2.9L250.5,51.4z"/>
			<path id="XMLID_26768_" class="st53" d="M325.8,26.2c2.3,1.4,2.4,3.6,0,5l-57.3,33.4c-2.4,1.4-6.2,1.4-8.5,0l-27.8-16.1
				c-2.4-1.4-2.4-3.6,0-5l57.3-33.4c2.3-1.4,6.2-1.4,8.5,0L325.8,26.2z M241.1,41.3c-0.9,0.6-0.9,1.5,0,2l28,16.2
				c0.9,0.5,2.5,0.5,3.4,0l47.6-27.8c0.9-0.5,0.9-1.4,0-2l-28-16.2c-0.9-0.5-2.5-0.5-3.4,0L241.1,41.3L241.1,41.3z M245.6,54.3
				l5,2.9c1.4,0.8,3.6,0.8,4.9,0c1.4-0.8,1.3-2.1,0-2.9l-5-2.9c-1.4-0.8-3.6-0.8-4.9,0C244.2,52.2,244.2,53.5,245.6,54.3L245.6,54.3
				z M313.8,21.8l-8.1-4.7c-0.5-0.3-1.4-0.3-1.9,0c-0.5,0.3-0.5,0.8,0,1.1l8.1,4.7c0.5,0.3,1.4,0.3,1.9,0
				C314.4,22.6,314.4,22.1,313.8,21.8L313.8,21.8z"/>
			<path id="XMLID_26767_" class="st2" d="M305.8,17.1c-0.5-0.3-1.4-0.3-1.9,0c-0.5,0.3-0.5,0.8,0,1.1l8.1,4.7
				c0.5,0.3,1.4,0.3,1.9,0c0.5-0.3,0.5-0.8,0-1.1L305.8,17.1z"/>
		</g>
	</g>
	<g id="XMLID_26027_" class="st1">
		<g id="XMLID_26792_">
			<g id="XMLID_26793_" class="st9">
				<g id="XMLID_26798_">
					<polygon id="XMLID_26799_" class="st3" points="278.5,-39.8 278.5,-38 178.2,20.6 178.2,18.8 					"/>
				</g>
				<g id="XMLID_26796_">
					<polygon id="XMLID_26797_" class="st10" points="178.2,18.8 178.2,20.6 102,-23.6 102,-25.4 					"/>
				</g>
				<g id="XMLID_26794_">
					<polygon id="XMLID_26795_" class="st54" points="278.5,-39.8 178.2,18.8 102,-25.4 202.4,-84 					"/>
				</g>
			</g>
		</g>
		<g id="XMLID_26784_">
			<g id="XMLID_26785_" class="st9">
				<g id="XMLID_26790_">
					<polygon id="XMLID_26791_" class="st3" points="329,-41.2 329,-39.5 236.8,14.3 236.8,12.6 					"/>
				</g>
				<g id="XMLID_26788_">
					<polygon id="XMLID_26789_" class="st10" points="236.8,12.6 236.8,14.3 166.9,-26.3 166.9,-28 					"/>
				</g>
				<g id="XMLID_26786_">
					<polygon id="XMLID_26787_" class="st54" points="329,-41.2 236.8,12.6 166.9,-28 259,-81.8 					"/>
				</g>
			</g>
		</g>
		<g id="XMLID_26776_">
			<g id="XMLID_26777_" class="st9">
				<g id="XMLID_26782_">
					<polygon id="XMLID_26783_" class="st3" points="278.5,-46.2 278.5,-44.3 178.2,14.2 178.2,12.4 					"/>
				</g>
				<g id="XMLID_26780_">
					<polygon id="XMLID_26781_" class="st10" points="178.2,12.4 178.2,14.2 102,-29.9 102,-31.7 					"/>
				</g>
				<g id="XMLID_26778_">
					<polygon id="XMLID_26779_" class="st55" points="278.5,-46.2 178.2,12.4 102,-31.7 202.4,-90.3 					"/>
				</g>
			</g>
		</g>
		<g id="XMLID_26054_">
			<g id="XMLID_26721_">
				<g id="XMLID_26756_">
					<g id="XMLID_26757_" class="st9">
						<g id="XMLID_26762_">
							<polygon id="XMLID_26764_" class="st56" points="314.9,-45.1 314.9,-40.1 222.8,13.7 222.8,8.7 							"/>
						</g>
						<g id="XMLID_26760_">
							<polygon id="XMLID_26761_" class="st8" points="222.8,8.7 222.8,13.7 152.8,-26.8 152.9,-31.9 							"/>
						</g>
						<g id="XMLID_26758_">
							<polygon id="XMLID_26759_" class="st57" points="314.9,-45.1 222.8,8.7 152.9,-31.9 245,-85.7 							"/>
						</g>
					</g>
				</g>
				<g id="XMLID_26748_">
					<g id="XMLID_26749_" class="st9">
						<g id="XMLID_26754_">
							<polygon id="XMLID_26755_" class="st3" points="329,-41.2 329,-39.5 236.8,14.3 236.8,12.6 							"/>
						</g>
						<g id="XMLID_26752_">
							<polygon id="XMLID_26753_" class="st10" points="236.8,12.6 236.8,14.3 166.9,-26.3 166.9,-28 							"/>
						</g>
						<g id="XMLID_26750_">
							<polygon id="XMLID_26751_" class="st54" points="329,-41.2 236.8,12.6 166.9,-28 259,-81.8 							"/>
						</g>
					</g>
				</g>
				<g id="XMLID_26739_">
					<g id="XMLID_26740_" class="st9">
						<g id="XMLID_26746_">
							<polygon id="XMLID_26747_" class="st3" points="318,-42.5 318,-40.8 225.9,13 225.9,11.3 							"/>
						</g>
						<g id="XMLID_26744_">
							<polygon id="XMLID_26745_" class="st10" points="225.9,11.3 225.9,13 156,-27.5 156,-29.2 							"/>
						</g>
						<g id="XMLID_26741_">
							<polygon id="XMLID_26742_" class="st58" points="318,-42.5 225.9,11.3 156,-29.2 248.1,-83 							"/>
						</g>
					</g>
				</g>
				<g id="XMLID_26730_">
					<g id="XMLID_26732_" class="st9">
						<g id="XMLID_26737_">
							<polygon id="XMLID_26738_" class="st3" points="329.1,-53.9 329,-52.2 236.9,1.6 236.9,-0.1 							"/>
						</g>
						<g id="XMLID_26735_">
							<polygon id="XMLID_26736_" class="st10" points="236.9,-0.1 236.9,1.6 167,-39 167,-40.7 							"/>
						</g>
						<g id="XMLID_26733_">
							<polygon id="XMLID_26734_" class="st55" points="329.1,-53.9 236.9,-0.1 167,-40.7 259.1,-94.5 							"/>
						</g>
					</g>
				</g>
				<g id="XMLID_26722_">
					<g id="XMLID_26723_" class="st9">
						<g id="XMLID_26728_">
							<polygon id="XMLID_26729_" class="st56" points="314.9,-54.6 314.9,-49.6 222.8,4.2 222.8,-0.8 							"/>
						</g>
						<g id="XMLID_26726_">
							<polygon id="XMLID_26727_" class="st8" points="222.8,-0.8 222.8,4.2 156.6,-34.2 156.6,-29.3 152.8,-26.8 152.8,-36.3 
								152.9,-41.4 							"/>
						</g>
						<g id="XMLID_26724_">
							<polygon id="XMLID_26725_" class="st7" points="314.9,-54.6 222.8,-0.8 152.9,-41.4 245,-95.2 							"/>
						</g>
					</g>
				</g>
			</g>
			<g id="XMLID_26588_">
				<g id="XMLID_26592_">
					<g id="XMLID_26702_">
						<g id="XMLID_26703_" class="st9">
							<g id="XMLID_26717_" class="st9">
								<g id="XMLID_26718_">
									<path id="XMLID_26719_" class="st13" d="M202-67.5l32.4-18.9c2.1-1.2,5.1-1.1,8.3,0.8l-32.5,18.9
										C207-68.5,204.1-68.7,202-67.5L202-67.5z"/>
								</g>
							</g>
							<g id="XMLID_26708_" class="st9">
								<defs>
									<path id="XMLID_26710_" class="st9" d="M251-57.7l-32.5,18.9c2.1-1.2,3.4-3.8,3.4-7.5c0-7.5-5.2-16.6-11.7-20.3l32.5-18.9
										c6.5,3.7,11.7,12.8,11.7,20.3C254.4-61.6,253.1-59,251-57.7z"/>
								</defs>
								<use xlink:href="#XMLID_26710_"  style="overflow:visible;fill:#121719;"/>
								<clipPath id="XMLID_2_">
									<use xlink:href="#XMLID_26710_"  style="overflow:visible;"/>
								</clipPath>
								<g id="XMLID_26711_" class="st59">
									<path id="XMLID_26716_" class="st13" d="M210.3-66.7l32.5-18.9c0.7,0.4,1.4,0.9,2.1,1.4l-32.4,18.9
										C211.7-65.8,211-66.2,210.3-66.7L210.3-66.7z"/>
									<path id="XMLID_26715_" class="st13" d="M212.4-65.2l32.4-18.9c1.4,1.1,2.7,2.4,3.9,3.9l-32.5,19
										C215.1-62.8,213.8-64.1,212.4-65.2L212.4-65.2z"/>
									<path id="XMLID_26714_" class="st13" d="M216.3-61.3l32.5-19c3.4,4.3,5.7,10,5.7,14.9c0,0.6,0,1.1-0.1,1.6l-32.5,19
										c0.1-0.5,0.1-1.1,0.1-1.6C222-51.3,219.7-56.9,216.3-61.3L216.3-61.3z"/>
									<path id="XMLID_26713_" class="st13" d="M221.9-44.7l32.5-19c-0.2,1.5-0.6,2.8-1.3,3.9l-32.5,19
										C221.3-41.9,221.7-43.2,221.9-44.7L221.9-44.7z"/>
									<path id="XMLID_26712_" class="st13" d="M220.6-40.8l32.5-19c-0.6,0.9-1.2,1.6-2.1,2.1l-32.5,18.9
										C219.4-39.3,220.1-40,220.6-40.8L220.6-40.8z"/>
								</g>
							</g>
							<g id="XMLID_26704_">
								<path id="XMLID_26707_" class="st13" d="M210.3-66.7c6.5,3.8,11.7,12.8,11.7,20.3c0,7.5-5.3,10.5-11.7,6.7
									c-6.5-3.8-11.7-12.8-11.7-20.3C198.6-67.4,203.8-70.4,210.3-66.7z"/>
								<path id="XMLID_26706_" class="st13" d="M215.5-39.8c-1.3,0-2.8-0.5-4.4-1.4c-6-3.5-10.8-11.9-10.8-18.8
									c0-4.1,1.8-6.6,4.7-6.6c1.3,0,2.8,0.5,4.4,1.4c6,3.5,10.8,11.9,10.8,18.8C220.2-42.2,218.4-39.8,215.5-39.8z"/>
								<path id="XMLID_26705_" class="st13" d="M215.5-40.6c-1.2,0-2.5-0.4-4-1.3c-5.7-3.3-10.4-11.4-10.4-18.1
									c0-1.7,0.4-5.8,3.9-5.8c1.2,0,2.5,0.4,4,1.3c5.7,3.3,10.4,11.4,10.4,18.1C219.4-44.6,219-40.6,215.5-40.6z"/>
							</g>
						</g>
					</g>
					<g id="XMLID_26687_" class="st9">
						<g id="XMLID_26700_">
							<path id="XMLID_26701_" class="st53" d="M184.8-90l14-8.2c1.4-0.8,3.3-0.7,5.3,0.5l-14,8.2C188-90.7,186.1-90.8,184.8-90z"/>
						</g>
						<g id="XMLID_26697_">
							<path id="XMLID_26699_" class="st60" d="M259.6-20.5l-14,8.2c1.4-0.8,2.2-2.5,2.2-4.8l14-8.2C261.8-23,260.9-21.3,259.6-20.5
								z"/>
						</g>
						<g id="XMLID_26695_">
							<polygon id="XMLID_26696_" class="st60" points="247.9,-47.3 261.9,-55.4 261.8,-25.4 247.8,-17.2 							"/>
						</g>
						<g id="XMLID_26693_">
							<polygon id="XMLID_26694_" class="st53" points="190.1,-89.5 204.1,-97.6 254.4,-68.5 240.4,-60.3 							"/>
						</g>
						<g id="XMLID_26691_">
							<path id="XMLID_26692_" class="st60" d="M240.4-60.3l14-8.2c4.2,2.4,7.5,8.2,7.5,13l-14,8.2
								C247.9-52.1,244.5-57.9,240.4-60.3z"/>
						</g>
						<g id="XMLID_26688_">
							<path id="XMLID_26689_" class="st13" d="M240.4-60.3c4.2,2.4,7.5,8.2,7.5,13l-0.1,30.1c0,4.8-3.4,6.7-7.5,4.3L190-42
								c-4.2-2.4-7.5-8.2-7.5-13l0.1-30.1c0-4.8,3.4-6.7,7.5-4.3L240.4-60.3z"/>
						</g>
					</g>
					<g id="XMLID_26679_">
						<g id="XMLID_26680_" class="st9">
							<g id="XMLID_26685_">
								<path id="XMLID_26686_" class="st3" d="M233.8-36.9l1-0.6c0.6-0.3,1.4-0.3,2.2,0.2l-1,0.6C235.1-37.2,234.3-37.2,233.8-36.9
									z"/>
							</g>
							<g id="XMLID_26683_">
								<path id="XMLID_26684_" class="st3" d="M239.2-29.7l-1,0.6c0.6-0.3,0.9-1,0.9-2c0-2-1.4-4.5-3.1-5.5l1-0.6
									c1.7,1,3.1,3.5,3.1,5.5C240.1-30.7,239.8-30.1,239.2-29.7z"/>
							</g>
							<g id="XMLID_26681_">
								<path id="XMLID_26682_" class="st61" d="M236-36.7c1.7,1,3.1,3.5,3.1,5.5c0,2-1.4,2.8-3.2,1.8c-1.7-1-3.1-3.5-3.1-5.5
									C232.8-36.9,234.3-37.7,236-36.7z"/>
							</g>
						</g>
					</g>
					<g id="XMLID_26670_">
						<g id="XMLID_26671_" class="st9">
							<g id="XMLID_26674_" class="st9">
								<g id="XMLID_26675_" class="st9">
									<path id="XMLID_26678_" class="st62" d="M245.4-69.3l0,2c0,0.2,0,0.3-0.1,0.5l0-2C245.4-68.9,245.4-69.1,245.4-69.3
										L245.4-69.3z"/>
									<path id="XMLID_26677_" class="st63" d="M245.3-68.8l0,2c-0.2,0.4-0.5,0.7-1,1c-0.7,0.4-1.7,0.7-2.7,0.6l0-2
										c1,0,2-0.2,2.7-0.6C244.8-68,245.1-68.4,245.3-68.8L245.3-68.8z"/>
									<path id="XMLID_26676_" class="st62" d="M241.6-67.1l0,2c-0.9,0-1.8-0.2-2.6-0.6c-0.7-0.4-1.1-1-1.1-1.5l0-2
										c0,0.6,0.4,1.1,1.1,1.5C239.8-67.3,240.7-67.1,241.6-67.1L241.6-67.1z"/>
								</g>
							</g>
							<g id="XMLID_26672_">
								<path id="XMLID_26673_" class="st64" d="M244.3-70.8c1.5,0.8,1.5,2.2,0,3c-1.5,0.8-3.8,0.8-5.3,0c-1.5-0.8-1.5-2.2,0-3.1
									C240.5-71.6,242.9-71.6,244.3-70.8z"/>
							</g>
						</g>
					</g>
					<polygon id="XMLID_26669_" class="st25" points="227.3,-25.8 186.7,-49.3 186.7,-85.1 227.3,-61.5 					"/>
					<polygon id="XMLID_26668_" class="st47" points="187.5,-49.8 187.5,-83.7 226.5,-61.1 226.5,-27.2 					"/>
					<g id="XMLID_26660_">
						<g id="XMLID_26661_" class="st9">
							<g id="XMLID_26666_">
								<polygon id="XMLID_26667_" class="st65" points="240.6,-43.4 241.3,-43.8 241.3,-38.5 240.5,-38.1 								"/>
							</g>
							<g id="XMLID_26664_">
								<polygon id="XMLID_26665_" class="st66" points="233.7,-47.4 234.4,-47.8 241.3,-43.8 240.6,-43.4 								"/>
							</g>
							<g id="XMLID_26662_">
								<polygon id="XMLID_26663_" class="st61" points="240.6,-43.4 240.5,-38.1 233.6,-42.1 233.7,-47.4 								"/>
							</g>
						</g>
					</g>
					<g id="XMLID_26646_">
						<g id="XMLID_26647_" class="st9">
							<g id="XMLID_26656_" class="st9">
								<g id="XMLID_26657_" class="st9">
									<path id="XMLID_26659_" class="st3" d="M234-56.8l0.7-0.4c0.2-0.1,0.5-0.2,0.8-0.1l-0.7,0.4
										C234.5-56.9,234.2-56.9,234-56.8L234-56.8z"/>
									<path id="XMLID_26658_" class="st67" d="M234.8-56.8l0.7-0.4c0.2,0,0.3,0.1,0.5,0.2l-0.7,0.4
										C235.1-56.7,234.9-56.8,234.8-56.8L234.8-56.8z"/>
								</g>
							</g>
							<g id="XMLID_26654_">
								<polygon id="XMLID_26655_" class="st66" points="235.3,-56.6 236,-57 240.8,-54.2 240.1,-53.8 								"/>
							</g>
							<g id="XMLID_26650_" class="st9">
								<g id="XMLID_26651_" class="st9">
									<path id="XMLID_26653_" class="st67" d="M240.1-53.8l0.7-0.4c0.7,0.4,1.3,1.2,1.6,2l-0.7,0.4
										C241.4-52.7,240.8-53.4,240.1-53.8L240.1-53.8z"/>
									<path id="XMLID_26652_" class="st3" d="M241.7-51.8l0.7-0.4c0.1,0.4,0.2,0.8,0.2,1.1c0,0.6-0.2,1-0.5,1.2l-0.7,0.4
										c0.3-0.2,0.5-0.6,0.5-1.2C241.9-51.1,241.8-51.5,241.7-51.8L241.7-51.8z"/>
								</g>
							</g>
							<g id="XMLID_26648_">
								<path id="XMLID_26649_" class="st61" d="M240.1-53.8c1,0.6,1.8,2,1.8,3.1c0,1.2-0.8,1.6-1.8,1l-4.8-2.8
									c-1-0.6-1.8-2-1.8-3.1c0-1.2,0.8-1.6,1.8-1L240.1-53.8z"/>
							</g>
						</g>
					</g>
					<g id="XMLID_26627_">
						<g id="XMLID_26629_" class="st9">
							<g id="XMLID_26641_" class="st9">
								<g id="XMLID_26642_" class="st9">
									<path id="XMLID_26645_" class="st3" d="M238.4-23.6l0.5-0.3c0.2-0.1,0.5-0.2,0.8-0.1l-0.5,0.3
										C238.9-23.8,238.6-23.7,238.4-23.6L238.4-23.6z"/>
									<path id="XMLID_26644_" class="st67" d="M239.2-23.7l0.5-0.3c0.1,0,0.3,0.1,0.5,0.2l-0.5,0.3
										C239.5-23.6,239.3-23.7,239.2-23.7L239.2-23.7z"/>
								</g>
							</g>
							<g id="XMLID_26637_">
								<polygon id="XMLID_26640_" class="st66" points="239.7,-23.5 240.2,-23.8 241.7,-23 241.1,-22.6 								"/>
							</g>
							<g id="XMLID_26633_" class="st9">
								<g id="XMLID_26634_" class="st9">
									<path id="XMLID_26636_" class="st67" d="M241.1-22.6l0.5-0.3c0.6,0.4,1.2,1.1,1.5,1.9l-0.5,0.3
										C242.4-21.5,241.8-22.3,241.1-22.6L241.1-22.6z"/>
									<path id="XMLID_26635_" class="st3" d="M242.6-20.7l0.5-0.3c0.1,0.4,0.2,0.7,0.2,1.1c0,0.6-0.2,0.9-0.5,1.1l-0.5,0.3
										c0.3-0.2,0.5-0.6,0.5-1.1C242.9-20,242.8-20.4,242.6-20.7L242.6-20.7z"/>
								</g>
							</g>
							<g id="XMLID_26630_">
								<path id="XMLID_26631_" class="st61" d="M241.1-22.6c1,0.6,1.7,1.9,1.7,3c0,1.1-0.8,1.5-1.7,1l-1.5-0.9
									c-1-0.6-1.7-1.9-1.7-3c0-1.1,0.8-1.6,1.7-1L241.1-22.6z"/>
							</g>
						</g>
					</g>
					<g id="XMLID_26607_">
						<g id="XMLID_26608_" class="st9">
							<g id="XMLID_26620_" class="st9">
								<g id="XMLID_26622_" class="st9">
									<path id="XMLID_26625_" class="st3" d="M230.2-28.5l0.5-0.3c0.2-0.1,0.5-0.2,0.7-0.1l-0.5,0.3
										C230.6-28.7,230.4-28.6,230.2-28.5L230.2-28.5z"/>
									<path id="XMLID_26624_" class="st67" d="M230.9-28.6l0.5-0.3c0.2,0,0.3,0.1,0.5,0.2l-0.5,0.3
										C231.2-28.5,231.1-28.6,230.9-28.6L230.9-28.6z"/>
								</g>
							</g>
							<g id="XMLID_26618_">
								<polygon id="XMLID_26619_" class="st66" points="231.4,-28.4 231.9,-28.7 233.4,-27.9 232.8,-27.5 								"/>
							</g>
							<g id="XMLID_26613_" class="st9">
								<g id="XMLID_26615_" class="st9">
									<path id="XMLID_26617_" class="st67" d="M232.8-27.5l0.5-0.3c0.7,0.4,1.2,1.1,1.5,1.9l-0.5,0.3
										C234.1-26.4,233.5-27.2,232.8-27.5L232.8-27.5z"/>
									<path id="XMLID_26616_" class="st3" d="M234.4-25.6l0.5-0.3c0.1,0.4,0.2,0.7,0.2,1.1c0,0.5-0.2,0.9-0.5,1.1l-0.5,0.3
										c0.3-0.2,0.5-0.6,0.5-1.1C234.6-24.9,234.5-25.3,234.4-25.6L234.4-25.6z"/>
								</g>
							</g>
							<g id="XMLID_26610_">
								<path id="XMLID_26611_" class="st61" d="M232.8-27.5c0.9,0.6,1.7,1.9,1.7,3c0,1.1-0.8,1.5-1.7,1l-1.5-0.8
									c-1-0.6-1.7-1.9-1.7-3c0-1.1,0.8-1.5,1.7-1L232.8-27.5z"/>
							</g>
						</g>
					</g>
					<g id="XMLID_26593_">
						<path id="XMLID_26606_" class="st68" d="M203-52.9c0.4-0.4,0.4-8.4,9-3.5c0,0,1.4,10.6-7.6,8.5C202.2-48.4,203-52.9,203-52.9z
							"/>
						<path id="XMLID_26605_" class="st68" d="M203.6-49.6c-0.3-0.7-0.4-7.3-7.4-11.4c0,0-1.1,7.4,6.2,14.2
							C204.2-45.2,203.6-49.6,203.6-49.6z"/>
						<polygon id="XMLID_26604_" class="st68" points="203.7,-43.8 202.5,-44.4 202.5,-60.8 203.7,-60.1 						"/>
						<g id="XMLID_26595_">
							<path id="XMLID_26603_" class="st69" d="M205.2-64.5c0-1.4-1-3-2.1-3.7c-1.2-0.7-2.1-0.1-2.1,1.2c0,1.4,1,3,2.1,3.7
								C204.3-62.5,205.2-63.1,205.2-64.5z"/>
							<path id="XMLID_26602_" class="st70" d="M205.2-69.2c0-1.9-1-4.1-2.1-4.7c-1.2-0.7-2.1,0.3-2.1,2.3c0,1.9,1,4.1,2.1,4.8
								C204.3-66.2,205.2-67.2,205.2-69.2z"/>
							<path id="XMLID_26601_" class="st71" d="M200.6-71.6c-1.4-1.8-3.1-2.6-3.7-1.7c-0.6,0.8,0.1,3,1.6,4.8
								c1.5,1.8,3.1,2.6,3.7,1.7C202.8-67.7,202.1-69.8,200.6-71.6z"/>
							<path id="XMLID_26600_" class="st70" d="M198.5-68.1c-1.4,0.1-2.1,1.5-1.6,3c0.6,1.5,2.2,2.7,3.7,2.5c1.4-0.1,2.1-1.5,1.6-3
								C201.6-67.1,200-68.3,198.5-68.1z"/>
							<path id="XMLID_26599_" class="st71" d="M201-62.2c0,1.9,1,4.1,2.1,4.8c1.2,0.7,2.1-0.3,2.1-2.3c0-1.9-1-4.1-2.1-4.8
								C201.9-65.2,201-64.2,201-62.2z"/>
							<path id="XMLID_26598_" class="st70" d="M205.5-59.8c1.4,1.8,3.1,2.6,3.7,1.7c0.6-0.8-0.1-3-1.6-4.8
								c-1.4-1.8-3.1-2.6-3.7-1.8C203.4-63.7,204.1-61.6,205.5-59.8z"/>
							<path id="XMLID_26597_" class="st71" d="M207.7-63.2c1.4-0.1,2.1-1.5,1.6-3c-0.6-1.5-2.2-2.7-3.7-2.5c-1.4,0.1-2.1,1.5-1.6,3
								C204.6-64.2,206.2-63.1,207.7-63.2z"/>
							<path id="XMLID_26596_" class="st69" d="M205.2-64.5c0-1.4-1-3-2.1-3.7c-1.2-0.7-2.1-0.1-2.1,1.2c0,1.4,1,3,2.1,3.7
								C204.3-62.5,205.2-63.1,205.2-64.5z"/>
						</g>
						<path id="XMLID_26594_" class="st72" d="M209.4-38.3c-0.4-2.1-3.1-5-6.3-6.9c-3.2-1.9-5.8-2-6.3-0.4L209.4-38.3z"/>
					</g>
				</g>
				<polygon id="XMLID_26591_" class="st61" points="258.3,-41.4 251.4,-37.4 251.4,-47.6 258.3,-51.7 				"/>
				<polygon id="XMLID_26590_" class="st61" points="258.3,-37.3 251.4,-33.3 251.4,-36 258.3,-40.1 				"/>
				<path id="XMLID_26589_" class="st13" d="M235.5-73.8c1.6,0.9,1.6,2.5,0,3.4l0,0c-1.6,0.9-4.2,0.9-5.8,0l-3.4-2
					c-1.6-0.9-1.6-2.5,0-3.4l0,0c1.6-0.9,4.2-0.9,5.8,0L235.5-73.8z"/>
			</g>
		</g>
		<g id="XMLID_26028_">
			<g id="XMLID_26040_">
				<g id="XMLID_26041_" class="st9">
					<g id="XMLID_26052_">
						<path id="XMLID_26053_" class="st73" d="M93.3-47.8l-2.4-1.4c0.4-0.8,0.9-1.7,1.3-2.5c0.6-1.1,1.1-2.3,1.6-3.4l2.4,1.4
							c-0.5,1.1-1,2.3-1.6,3.4C94.2-49.4,93.8-48.6,93.3-47.8z"/>
					</g>
					<g id="XMLID_26050_">
						<path id="XMLID_26051_" class="st74" d="M106.3-79.1l2.4,1.4c0,0,0.1,0,0.1,0.1c0.4,0.4,0.6,2.2-0.2,5.8
							c-1.9,8.6-5.9,14.4-12,18c-0.1,0-0.2,0.1-0.3,0.1l-2.4-1.4c0.1,0,0.2-0.1,0.3-0.1c6.1-3.5,10-9.4,12-18
							C106.9-76.8,106.8-78.6,106.3-79.1C106.3-79.1,106.3-79.1,106.3-79.1z"/>
					</g>
					<g id="XMLID_26048_">
						<path id="XMLID_26049_" class="st75" d="M109-83.8l2.4,1.4c-1.5-0.9-3.9,0-6.1,1.3l-2.4-1.4C105.1-83.8,107.5-84.7,109-83.8z"
							/>
					</g>
					<g id="XMLID_26046_">
						<path id="XMLID_26047_" class="st76" d="M99.3-73.4l-2.4-1.4c0.3-1.7,0.4-3.3,0.6-5l2.4,1.4C99.7-76.7,99.6-75.1,99.3-73.4z"
							/>
					</g>
					<g id="XMLID_26044_">
						<path id="XMLID_26045_" class="st75" d="M100-78.4l-2.4-1.4c0.6-0.5,4.6-2.3,5.3-2.7l2.4,1.4C104.6-80.7,100.6-78.9,100-78.4z
							"/>
					</g>
					<g id="XMLID_26042_">
						<path id="XMLID_26043_" class="st4" d="M105.3-81.1c4.5-2.6,9.6-3.6,6.9,8.5c-2.8,12.5-9.3,19.6-15.7,23.3
							c-1.1,0.6-2.1,1.1-3.2,1.6c0.4-0.8,0.9-1.7,1.3-2.5c0.6-1.1,1.1-2.3,1.6-3.4c0.1,0,0.2-0.1,0.3-0.1c6.1-3.5,10-9.4,12-18
							c0.8-3.6,0.7-5.5,0.2-5.8c-0.4-0.4-1.7-0.1-3.4,0.9c-1,0.6-5.2,2.7-6,3.3c0.3-1.7,0.4-3.3,0.6-5
							C100.6-78.9,104.6-80.7,105.3-81.1z"/>
					</g>
				</g>
			</g>
			<g id="XMLID_26029_">
				<g id="XMLID_26030_" class="st9">
					<g id="XMLID_26036_" class="st9">
						<g id="XMLID_26037_" class="st9">
							<path id="XMLID_26039_" class="st4" d="M101-84.1l-0.1,37.7c0,3-1.9,5.9-5.8,8.2c-3.2,1.9-7.2,3-11.4,3.3l0.1-37.7
								C88-73,92-74.1,95.2-75.9C99-78.2,101-81.2,101-84.1L101-84.1z"/>
							<path id="XMLID_26038_" class="st74" d="M83.8-72.6l-0.1,37.7c-6,0.5-12.3-0.6-16.9-3.3c-4-2.3-5.9-5.3-5.9-8.3L61-84.2
								c0,3,2,6,5.9,8.3C71.5-73.3,77.8-72.2,83.8-72.6L83.8-72.6z"/>
						</g>
					</g>
					<g id="XMLID_26034_">
						<path id="XMLID_26035_" class="st75" d="M95.1-92.4c7.8,4.5,7.9,11.9,0.1,16.5c-7.8,4.5-20.4,4.5-28.3,0
							C59-80.5,59-87.9,66.8-92.4C74.6-97,87.2-97,95.1-92.4z"/>
					</g>
					<g id="XMLID_26032_">
						<path id="XMLID_26033_" class="st77" d="M92.8-91.1c6.6,3.8,6.6,10,0.1,13.8c-6.5,3.8-17.1,3.8-23.7,0
							c-6.6-3.8-6.6-10-0.1-13.8C75.6-94.9,86.2-94.9,92.8-91.1z"/>
					</g>
					<path id="XMLID_26031_" class="st78" d="M69.2-77.3c6.6,3.8,17.2,3.8,23.7,0c2.5-1.5,4-3.3,4.6-5.1c-0.6-1.9-2.1-3.7-4.7-5.2
						c-6.6-3.8-17.2-3.8-23.7,0c-2.5,1.4-4,3.2-4.6,5.1C65.1-80.6,66.6-78.8,69.2-77.3z"/>
				</g>
			</g>
		</g>
	</g>
	<line class="st79" x1="-100.9" y1="-127.3" x2="-100.9" y2="-232.3"/>
	<polyline class="st79" points="215.2,-91.2 215.2,-157.3 251.1,-157.3 	"/>
	<polyline class="st79" points="291.1,57.2 350.1,57.2 350.1,91.7 	"/>
	<polyline class="st79" points="-235.9,164 -235.9,103.7 -258.9,103.7 	"/>
	<circle class="st80" cx="-259.4" cy="104.2" r="5.5"/>
	<polyline class="st79" points="-218.9,153 -218.9,-5.3 -270.9,-5.3 	"/>
	<circle class="st80" cx="-271.4" cy="-4.8" r="5.5"/>
	<circle class="st80" cx="-101.4" cy="-232.8" r="5.5"/>
	<circle class="st80" cx="250.6" cy="-157.8" r="5.5"/>
	<circle class="st80" cx="350.6" cy="92.2" r="5.5"/>
	<circle class="st80" cx="23.6" cy="309.2" r="5.5"/>
	<polyline class="st81" points="-22.9,195.7 -22.9,309.7 24.1,309.7 	"/>
</g>
<g id="Layer_4">
	<g>
		<path class="st82" d="M51.6,40.3c-0.7-0.4-4.2-2.3-4.9-2.5c-0.7-0.3-1.1-0.4-1.6,0.3c-0.5,0.7-2,2.3-2.4,2.8
			c-0.4,0.5-0.9,0.5-1.6,0.1c-0.7-0.4-3-1.2-5.7-3.8c-2.1-2-3.5-4.4-3.8-5.2c-0.4-0.7,0-1.1,0.4-1.5c0.3-0.3,0.8-0.8,1.1-1.2
			c0.4-0.4,0.5-0.7,0.8-1.2c0.3-0.5,0.2-0.9,0-1.3c-0.2-0.4-1.5-4-2-5.5c-0.6-1.5-1.2-1.3-1.6-1.3c-0.4,0-0.9-0.1-1.4-0.1
			c-0.5,0-1.3,0.1-2,0.8c-0.7,0.7-2.6,2.4-2.8,6c-0.1,3.6,2.3,7.1,2.7,7.6c0.3,0.5,4.7,8.2,12,11.4c7.3,3.2,7.3,2.2,8.6,2.1
			c1.3-0.1,4.4-1.6,5-3.3c0.7-1.7,0.7-3.1,0.6-3.4C52.8,40.9,52.3,40.7,51.6,40.3L51.6,40.3z M38.3,57.5c-4.8,0-9.3-1.4-13-3.9
			l-9.1,2.9l3-8.8c-2.8-3.9-4.5-8.7-4.5-13.9c0-13,10.6-23.7,23.6-23.7c13,0,23.7,10.6,23.7,23.7C61.9,46.9,51.3,57.5,38.3,57.5
			L38.3,57.5z M38.3,5.4C22.6,5.4,9.9,18.1,9.9,33.8c0,5.4,1.5,10.4,4.1,14.7L8.8,63.7l15.7-5c4.1,2.3,8.8,3.5,13.7,3.5
			c15.7,0,28.4-12.7,28.4-28.4C66.7,18.1,54,5.4,38.3,5.4L38.3,5.4z"/>
	</g>
</g>
<g id="Layer_2" class="st0">
	<g class="st1">
		<text transform="matrix(1 0 0 1 -633.5172 -279.6773)"><tspan x="0" y="0" class="st7" style="font-family:'BROOKLINE-Condensed'; font-size:30px;">Paulo </tspan><tspan x="76" y="0" style="fill:none;stroke:#F9C410;stroke-width:0.5;stroke-miterlimit:10; font-family:'BROOKLINE-Condensed'; font-size:30px;">Jnior</tspan></text>
	</g>
</g>
</svg>
