<?xml version="1.0" encoding="utf-8"?>
<!-- Generator: Adobe Illustrator 22.0.0, SVG Export Plug-In . SVG Version: 6.00 Build 0)  -->
<svg version="1.1" xmlns="http://www.w3.org/2000/svg" xmlns:xlink="http://www.w3.org/1999/xlink" x="0px" y="0px"
	 viewBox="0 0 156.5 41.3" style="enable-background:new 0 0 156.5 41.3;" xml:space="preserve">
<style type="text/css">
	.st0{display:none;}
	.st1{display:inline;}
	.st2{fill:#FCFCFC;}
	.st3{fill:#ADC0CD;}
	.st4{fill:#EF4B39;}
	.st5{fill:#FA6655;}
	.st6{fill:#952308;}
	.st7{fill:#F9C410;}
	.st8{fill:#D89114;}
	.st9{enable-background:new    ;}
	.st10{fill:#C9D5DD;}
	.st11{fill:#F1F1F1;}
	.st12{fill:#2B8ABB;}
	.st13{fill:#121719;}
	.st14{fill:#A73A2E;}
	.st15{fill:#9C372B;}
	.st16{fill:#A0382C;}
	.st17{fill:#EB5543;}
	.st18{fill:#494949;}
	.st19{fill:#112B46;}
	.st20{fill:#7A7A7A;}
	.st21{fill:#767676;}
	.st22{fill:#B5B5B5;}
	.st23{fill:#C1C1C1;}
	.st24{fill:#20272B;}
	.st25{fill:#191F21;}
	.st26{fill:#757575;}
	.st27{fill:#747474;}
	.st28{fill:#40B1D1;}
	.st29{fill:#E8E8E8;}
	.st30{fill:#FFFFFF;}
	.st31{fill:#F67261;}
	.st32{fill:#B1D22E;}
	.st33{fill:#F77C12;}
	.st34{fill:#F78E7F;}
	.st35{fill:#F4A79D;}
	.st36{fill:#F9C2BA;}
	.st37{fill:#F4DDD9;}
	.st38{fill:#F7B810;}
	.st39{fill:#F9C843;}
	.st40{fill:#F8D978;}
	.st41{fill:#FBE8AE;}
	.st42{fill:#F9F7E3;}
	.st43{fill:#B8D14D;}
	.st44{fill:#BFD16F;}
	.st45{fill:#C6D291;}
	.st46{fill:#CCD2B2;}
	.st47{fill:#6CC6DD;}
	.st48{fill:#88D0E3;}
	.st49{fill:#9FD8E7;}
	.st50{fill:#B9DEE6;}
	.st51{fill:#D2E5E9;}
	.st52{fill:#F9F9F9;}
	.st53{fill:#263033;}
	.st54{fill:#DCDDDB;}
	.st55{fill:#F6F7F5;}
	.st56{fill:#EE9D12;}
	.st57{fill:#9A6711;}
	.st58{fill:#E5E5E5;}
	.st59{clip-path:url(#XMLID_2_);enable-background:new    ;}
	.st60{fill:#1C2325;}
	.st61{fill:#E1E1E1;}
	.st62{fill:#74787A;}
	.st63{fill:#8D9194;}
	.st64{fill:#A2A8AB;}
	.st65{fill:#959595;}
	.st66{fill:#C2C2C2;}
	.st67{fill:#C0C0C0;}
	.st68{fill:#13914A;}
	.st69{fill:#DEDEDE;}
	.st70{fill:#F5851B;}
	.st71{fill:#F8C211;}
	.st72{fill:#763B19;}
	.st73{fill:#1C92BB;}
	.st74{fill:#D62322;}
	.st75{fill:#F67665;}
	.st76{fill:#18A4C9;}
	.st77{fill:#F4F5F4;}
	.st78{fill:#461E06;}
	.st79{fill:none;stroke:#F9C410;stroke-width:0.5;stroke-miterlimit:10;}
</style>
<g id="Layer_1" class="st0">
	<g id="XMLID_632_" class="st1">
		<path id="XMLID_652_" class="st2" d="M-106.3,273.6L-106.3,273.6c-3.7,2.1-9.7,2.1-13.4,0l0,11.8c3.7,2.1,9.7,2.1,13.4-0.1l0-1.4
			h0l62.7-34.8l0-12.2L-106.3,273.6z"/>
		<g id="XMLID_647_">
			<g id="XMLID_650_">
				<path id="XMLID_651_" class="st3" d="M-104.1,272.5l-2.2,1.3c-3.7,2.1-9.7,2.1-13.4,0l-100.1-58.1c-3.7-2.1-3.7-5.7,0-7.8
					l2.2-1.3L-104.1,272.5z"/>
			</g>
			<g id="XMLID_648_">
				<path id="XMLID_649_" class="st3" d="M-39,226.6c3.7,2.1,3.7,5.7,0,7.8l-49.8,29.1l-9.4,5.5l-6,3.5l-113.6-65.9l-2.2,1.3
					c-3.7,2.1-3.7,5.7,0,7.8l100.1,58.1c3.7,2.1,9.7,2.1,13.4,0c-3.7,2.1-9.7,2.1-13.4,0l-100.1-58.1c-3.7-2.1-3.7-5.7,0-7.8
					l67.4-39.3c3.7-2.2,9.7-2.1,13.4,0L-39,226.6z"/>
			</g>
		</g>
		<g id="XMLID_645_">
			<path id="XMLID_646_" class="st2" d="M-36.2,230.4c0,4.1,0,8.1,0,12.2c0,1.4-0.9,2.8-2.7,3.9l0-12.2
				C-37.1,233.2-36.2,231.8-36.2,230.4z"/>
		</g>
		<g id="XMLID_643_">
			<polygon id="XMLID_644_" class="st4" points="-38.9,234.3 -43.6,237 -157.2,171.1 -152.5,168.4 			"/>
		</g>
		<path id="XMLID_642_" class="st3" d="M-119.7,273.6l-100.1-58.1c-1.9-1.1-2.8-2.5-2.8-3.9c0,4,0,8.1,0,12.2c0,1.4,0.9,2.9,2.8,3.9
			l100.1,58.1c2,1.2,4.7,1.7,7.4,1.6v-12.2C-115,275.3-117.7,274.8-119.7,273.6z"/>
		<path id="XMLID_641_" class="st3" d="M-38.9,234.3l-49.8,29.1l-9.4,5.5l-6,3.5l-2.2,1.3c-3.7,2.1-9.7,2.1-13.4,0l-100.1-58.1
			c-1.9-1.1-2.8-2.5-2.8-3.9c0,0.9,0,1.8,0,2.7c0,1.4,0.9,2.8,2.8,3.9l100.1,58.1c3.7,2.1,9.7,2.1,13.4,0l2.2-1.3l6-3.5l9.4-5.5
			l49.8-29.1c1.8-1.1,2.8-2.5,2.8-3.9l0-2.7C-36.2,231.8-37.1,233.2-38.9,234.3z"/>
		<path id="XMLID_640_" class="st3" d="M-38.9,234.3l-49.8,29.1l-9.4,5.5l-6,3.5l-2.2,1.3c-1.8,1-4,1.5-6.4,1.6v2.7
			c2.3,0,4.6-0.6,6.4-1.6l2.2-1.3l6-3.5l9.4-5.5l49.8-29.1c1.8-1.1,2.8-2.5,2.8-3.9l0-2.7C-36.2,231.8-37.1,233.2-38.9,234.3z"/>
		<path id="XMLID_639_" class="st3" d="M-36.2,239.9l0,2.7c0,1.4-0.9,2.8-2.7,3.9c0,0,0,0,0,0l-4.7,2.7l-45.1,26.3L-98,281l-6,3.5
			l-2.2,1.3c-1.8,1-4,1.6-6.4,1.6v-2.7c2.3,0,4.6-0.6,6.4-1.6l2.2-1.3l6-3.5l9.4-5.5l45.1-26.3l4.7-2.7c0,0,0,0,0,0
			C-37.1,242.7-36.2,241.3-36.2,239.9z"/>
		<g id="XMLID_634_">
			<polygon id="XMLID_638_" class="st5" points="-78.5,268.6 -78.5,271.3 -86.1,272.3 -86.1,269.6 			"/>
			<polygon id="XMLID_637_" class="st5" points="-86.1,269.6 -86.1,272.3 -87.9,276.8 -87.9,274 			"/>
			<polygon id="XMLID_636_" class="st6" points="-87.9,274 -87.9,276.8 -94.2,273.1 -94.2,270.4 			"/>
			<polygon id="XMLID_635_" class="st4" points="-78.5,268.6 -86.1,269.6 -87.9,274 -94.2,270.4 -84.9,264.9 			"/>
		</g>
		<path id="XMLID_633_" class="st4" d="M-38.9,234.3v12.2c0,0,0,0,0,0l-4.7,2.7V237L-38.9,234.3z"/>
	</g>
	<g id="XMLID_100_" class="st1">
		<g id="XMLID_623_">
			<g id="XMLID_630_">
				<path id="XMLID_631_" class="st4" d="M-141.9,197c0.2,0.3,0.7,0.4,1.2,0.1c0.8-0.4,1.4-1.5,1.4-2.4c0-0.6-0.3-1-0.7-1
					c-1.7-0.3-3.5-0.5-5.2-0.8C-144.1,194.2-143,195.6-141.9,197z"/>
			</g>
			<g id="XMLID_628_">
				<path id="XMLID_629_" class="st4" d="M-145.2,192.8c1.1,1.4,2.2,2.8,3.3,4.1c-0.1-0.2-0.2-0.4-0.2-0.8L-145.2,192.8z"/>
			</g>
			<g id="XMLID_626_">
				<path id="XMLID_627_" class="st4" d="M-140,193.6c-1.7-0.3-3.5-0.5-5.2-0.8l3,3.4c0-0.9,0.7-2,1.4-2.4
					C-140.5,193.6-140.2,193.6-140,193.6z"/>
			</g>
			<g id="XMLID_624_">
				<path id="XMLID_625_" class="st4" d="M-142.2,196.2c0,0.9,0.6,1.3,1.4,0.9c0.8-0.4,1.4-1.5,1.4-2.4c0-0.9-0.6-1.3-1.4-0.8
					C-141.5,194.2-142.1,195.3-142.2,196.2z"/>
			</g>
		</g>
		<g id="XMLID_612_">
			<g id="XMLID_621_">
				<path id="XMLID_622_" class="st7" d="M-142.2,196.2c0,0.9,0.6,1.3,1.4,0.9c0.8-0.4,1.4-1.5,1.4-2.4c0-0.9-0.6-1.3-1.4-0.8
					C-141.5,194.2-142.1,195.3-142.2,196.2z"/>
			</g>
			<g id="XMLID_619_">
				<path id="XMLID_620_" class="st7" d="M-137.1,203.2c0.6,0.8,1.7,0.9,2.9,0.2c1.9-1.1,3.5-3.8,3.6-6.1c0-1.5-0.6-2.4-1.7-2.6
					c-2.6-0.4-5.2-0.8-7.8-1.2c0.4,0.1,0.7,0.4,0.7,1c0,0.9-0.7,2-1.4,2.4c-0.5,0.3-0.9,0.2-1.2-0.1
					C-140.3,199.1-138.7,201.1-137.1,203.2z"/>
			</g>
			<g id="XMLID_617_">
				<path id="XMLID_618_" class="st7" d="M-141.9,197c1.6,2.1,3.3,4.1,4.9,6.2c-0.3-0.4-0.5-1.1-0.5-1.9l-4.6-5.1
					C-142.2,196.5-142.1,196.8-141.9,197z"/>
			</g>
			<g id="XMLID_615_">
				<path id="XMLID_616_" class="st7" d="M-132.2,194.8c-2.6-0.4-5.2-0.8-7.8-1.2c-0.2,0-0.5,0-0.7,0.2c-0.8,0.4-1.4,1.5-1.4,2.4
					l4.6,5.1c0-2.3,1.6-5,3.6-6.1C-133.3,194.9-132.7,194.7-132.2,194.8z"/>
			</g>
			<g id="XMLID_613_">
				<path id="XMLID_614_" class="st7" d="M-137.6,201.3c0,2.3,1.5,3.2,3.5,2.1c1.9-1.1,3.5-3.8,3.6-6.1c0-2.3-1.5-3.2-3.5-2.1
					C-136,196.3-137.6,199-137.6,201.3z"/>
			</g>
		</g>
		<g id="XMLID_601_">
			<g id="XMLID_610_">
				<path id="XMLID_611_" class="st7" d="M-137.6,201.3c0,2.3,1.5,3.2,3.5,2.1c1.9-1.1,3.5-3.8,3.6-6.1c0-2.3-1.5-3.2-3.5-2.1
					C-136,196.3-137.6,199-137.6,201.3z"/>
			</g>
			<g id="XMLID_608_">
				<path id="XMLID_609_" class="st7" d="M-85.6,233.4c0.6,0.4,1.5,0.3,2.4-0.2c1.9-1.1,3.5-3.8,3.6-6.1c0-1.2-0.4-2-1-2.3l-51-29.8
					c0.7,0.4,1,1.2,1,2.3c0,2.3-1.6,5-3.6,6.1c-1,0.5-1.8,0.6-2.4,0.2C-121.3,212.6-100.9,224.5-85.6,233.4z"/>
			</g>
			<g id="XMLID_606_">
				<path id="XMLID_607_" class="st7" d="M-136.6,203.6l51,29.8c-0.6-0.4-1-1.2-1-2.3l-51-29.7
					C-137.6,202.5-137.2,203.3-136.6,203.6z"/>
			</g>
			<g id="XMLID_604_">
				<path id="XMLID_605_" class="st7" d="M-80.6,224.8l-51-29.8c-0.6-0.4-1.5-0.3-2.4,0.2c-1.9,1.1-3.5,3.8-3.6,6.1l51,29.7
					c0-2.3,1.6-5,3.6-6.1C-82.1,224.4-81.2,224.4-80.6,224.8z"/>
			</g>
			<g id="XMLID_602_">
				<path id="XMLID_603_" class="st7" d="M-86.6,231.1c0,2.3,1.5,3.2,3.5,2.1c1.9-1.1,3.5-3.8,3.6-6.1c0-2.3-1.5-3.2-3.5-2.1
					C-85,226.1-86.6,228.8-86.6,231.1z"/>
			</g>
		</g>
		<g id="XMLID_590_">
			<g id="XMLID_599_">
				<path id="XMLID_600_" class="st7" d="M-86.6,231.1c0,2.3,1.5,3.2,3.5,2.1c1.9-1.1,3.5-3.8,3.6-6.1c0-2.3-1.5-3.2-3.5-2.1
					C-85,226.1-86.6,228.8-86.6,231.1z"/>
			</g>
			<g id="XMLID_597_">
				<path id="XMLID_598_" class="st7" d="M-78.1,237.8c0.6,0.4,1.5,0.3,2.4-0.2c1.9-1.1,3.5-3.8,3.6-6.1c0-1.2-0.4-2-1-2.3l-7.5-4.4
					c0.6,0.4,1,1.2,1,2.3c0,2.3-1.6,5-3.6,6.1c-1,0.5-1.8,0.6-2.4,0.2C-83.4,234.7-80.3,236.5-78.1,237.8z"/>
			</g>
			<g id="XMLID_595_">
				<path id="XMLID_596_" class="st7" d="M-85.6,233.4l7.5,4.4c-0.6-0.4-1-1.2-1-2.3l-7.5-4.4C-86.7,232.2-86.3,233-85.6,233.4z"/>
			</g>
			<g id="XMLID_593_">
				<path id="XMLID_594_" class="st7" d="M-73.1,229.2l-7.5-4.4c-0.6-0.4-1.5-0.3-2.4,0.2c-1.9,1.1-3.5,3.8-3.6,6.1l7.5,4.4
					c0-2.3,1.6-5,3.6-6.1C-74.6,228.8-73.7,228.8-73.1,229.2z"/>
			</g>
			<g id="XMLID_591_">
				<path id="XMLID_592_" class="st8" d="M-79.1,235.5c0,2.3,1.5,3.2,3.5,2.1c1.9-1.1,3.5-3.8,3.6-6.1c0-2.3-1.5-3.2-3.5-2.1
					C-77.5,230.5-79.1,233.2-79.1,235.5z"/>
			</g>
		</g>
	</g>
	<g id="XMLID_298_" class="st1">
		<g id="XMLID_370_">
			<g id="XMLID_430_">
				<g id="XMLID_481_">
					<g id="XMLID_482_" class="st9">
						<g id="XMLID_487_">
							<polygon id="XMLID_488_" class="st10" points="110.3,207.7 110.3,211 181.6,252.9 181.6,249.6 							"/>
						</g>
						<g id="XMLID_485_">
							<polygon id="XMLID_486_" class="st3" points="181.6,249.6 181.6,252.9 276.2,198.4 276.2,195.1 							"/>
						</g>
						<g id="XMLID_483_">
							<polygon id="XMLID_484_" class="st11" points="110.3,207.7 181.6,249.6 276.2,195.1 204.9,153.1 							"/>
						</g>
					</g>
				</g>
				<path id="XMLID_431_" class="st12" d="M182.3,168.8l-45.1,26L115,207.5l67,39.2l22.2-12.8l45.1-26l22.2-12.8l-67-39.2
					L182.3,168.8z M171.6,239.9l10.4-6l10.4,6.1l-10.4,6L171.6,239.9z M214.9,162.9l-10.4,6l-10.4-6.1l10.4-6L214.9,162.9z
					 M214.8,188.6l-10.4,6l-10.4-6.1l10.4-6L214.8,188.6z M203.7,195l-10.4,6l-10.4-6.1l10.4-6L203.7,195z M192.6,201.4l-10.4,6
					l-10.4-6.1l10.4-6L192.6,201.4z M181.5,207.7l-10.4,6l-10.4-6.1l10.4-6L181.5,207.7z M182.2,208.1l10.4,6.1l-10.4,6l-10.4-6.1
					L182.2,208.1z M182.8,207.8l10.4-6l10.4,6.1l-10.4,6L182.8,207.8z M193.9,201.4l10.4-6l10.4,6.1l-10.4,6L193.9,201.4z M205,195
					l10.4-6l10.4,6.1l-10.4,6L205,195z M203.7,182.1l-10.4,6l-10.4-6.1l10.4-6L203.7,182.1z M192.6,188.5l-10.4,6l-10.4-6.1l10.4-6
					L192.6,188.5z M181.5,194.9l-10.4,6l-10.4-6.1l10.4-6L181.5,194.9z M170.4,201.3l-10.4,6l-10.4-6.1l10.4-6L170.4,201.3z
					 M160,208.1l10.4,6.1l-10.4,6l-10.4-6.1L160,208.1z M171.1,214.5l10.4,6.1l-10.4,6l-10.4-6.1L171.1,214.5z M182.8,220.6l10.4-6
					l10.4,6.1l-10.4,6L182.8,220.6z M193.9,214.2l10.4-6l10.4,6.1l-10.4,6L193.9,214.2z M205,207.8l10.4-6l10.4,6.1l-10.4,6
					L205,207.8z M216.1,201.4l10.4-6l10.4,6.1l-10.4,6L216.1,201.4z M226.5,194.6l-10.4-6.1l10.4-6l10.4,6.1L226.5,194.6z
					 M215.5,188.2l-10.4-6.1l10.4-6l10.4,6.1L215.5,188.2z M204.4,181.7l-10.4-6.1l10.4-6l10.4,6.1L204.4,181.7z M148.9,201.6
					l10.4,6.1l-10.4,6l-10.4-6.1L148.9,201.6z M171.7,227l10.4-6l10.4,6.1l-10.4,6L171.7,227z M237.6,201.1l-10.4-6.1l10.4-6
					l10.4,6.1L237.6,201.1z M203.8,169.2l-10.4,6l-10.4-6.1l10.4-6L203.8,169.2z M192.7,175.6l-10.4,6l-10.4-6.1l10.4-6L192.7,175.6
					z M181.6,182l-10.4,6l-10.4-6.1l10.4-6L181.6,182z M170.5,188.4l-10.4,6l-10.4-6.1l10.4-6L170.5,188.4z M159.4,194.8l-10.4,6
					l-10.4-6.1l10.4-6L159.4,194.8z M148.3,201.2l-10.4,6l-10.4-6.1l10.4-6L148.3,201.2z M137.8,208l10.4,6.1l-10.4,6l-10.4-6.1
					L137.8,208z M148.9,214.5l10.4,6.1l-10.4,6l-10.4-6.1L148.9,214.5z M160,220.9l10.4,6.1l-10.4,6l-10.4-6.1L160,220.9z
					 M171,227.4l10.4,6.1l-10.4,6l-10.4-6.1L171,227.4z M182.7,233.5l10.4-6l10.4,6.1l-10.4,6L182.7,233.5z M193.8,227.1l10.4-6
					l10.4,6.1l-10.4,6L193.8,227.1z M204.9,220.7l10.4-6l10.4,6.1l-10.4,6L204.9,220.7z M216,214.3l10.4-6l10.4,6.1l-10.4,6
					L216,214.3z M227.1,207.9l10.4-6L248,208l-10.4,6L227.1,207.9z M238.2,201.5l10.4-6l10.4,6.1l-10.4,6L238.2,201.5z M248.7,194.7
					l-10.4-6.1l10.4-6l10.4,6.1L248.7,194.7z M237.6,188.2l-10.4-6.1l10.4-6l10.4,6.1L237.6,188.2z M226.6,181.8l-10.4-6.1l10.4-6
					l10.4,6.1L226.6,181.8z M215.5,175.3l-10.4-6.1l10.4-6l10.4,6.1L215.5,175.3z M126.8,201.5l10.4,6.1l-10.4,6l-10.4-6.1
					L126.8,201.5z M259.7,201.2l-10.4-6.1l10.4-6l10.4,6.1L259.7,201.2z"/>
			</g>
			<g id="XMLID_371_">
				<g id="XMLID_422_">
					<g id="XMLID_423_" class="st9">
						<g id="XMLID_428_">
							<polygon id="XMLID_429_" class="st10" points="110.3,201.4 110.3,204.8 181.6,246.7 181.6,243.3 							"/>
						</g>
						<g id="XMLID_426_">
							<polygon id="XMLID_427_" class="st3" points="181.6,243.3 181.6,246.7 276.2,192.2 276.2,188.8 							"/>
						</g>
						<g id="XMLID_424_">
							<polygon id="XMLID_425_" class="st11" points="110.3,201.4 181.6,243.3 276.2,188.8 204.9,146.9 							"/>
						</g>
					</g>
				</g>
				<path id="XMLID_372_" class="st3" d="M182.3,162.6l-45.1,26L115,201.3l67,39.2l22.2-12.8l45.1-26l22.2-12.8l-67-39.2
					L182.3,162.6z M171.7,233.6l10.4-6l10.4,6.1l-10.4,6L171.7,233.6z M214.9,156.6l-10.4,6l-10.4-6.1l10.4-6L214.9,156.6z
					 M214.8,182.3l-10.4,6l-10.4-6.1l10.4-6L214.8,182.3z M203.7,188.7l-10.4,6l-10.4-6.1l10.4-6L203.7,188.7z M192.6,195.1l-10.4,6
					l-10.4-6.1l10.4-6L192.6,195.1z M181.5,201.5l-10.4,6l-10.4-6.1l10.4-6L181.5,201.5z M182.2,201.9l10.4,6.1l-10.4,6l-10.4-6.1
					L182.2,201.9z M182.8,201.5l10.4-6l10.4,6.1l-10.4,6L182.8,201.5z M193.9,195.1l10.4-6l10.4,6.1l-10.4,6L193.9,195.1z
					 M205,188.7l10.4-6l10.4,6.1l-10.4,6L205,188.7z M203.7,175.9l-10.4,6l-10.4-6.1l10.4-6L203.7,175.9z M192.6,182.3l-10.4,6
					l-10.4-6.1l10.4-6L192.6,182.3z M181.5,188.7l-10.4,6l-10.4-6.1l10.4-6L181.5,188.7z M170.4,195l-10.4,6l-10.4-6.1l10.4-6
					L170.4,195z M160,201.8l10.4,6.1l-10.4,6l-10.4-6.1L160,201.8z M171.1,208.3l10.4,6.1l-10.4,6l-10.4-6.1L171.1,208.3z
					 M182.8,214.4l10.4-6l10.4,6.1l-10.4,6L182.8,214.4z M193.9,208l10.4-6l10.4,6.1l-10.4,6L193.9,208z M205,201.6l10.4-6l10.4,6.1
					l-10.4,6L205,201.6z M216.1,195.2l10.4-6l10.4,6.1l-10.4,6L216.1,195.2z M226.5,188.4l-10.4-6.1l10.4-6l10.4,6.1L226.5,188.4z
					 M215.5,181.9l-10.4-6.1l10.4-6l10.4,6.1L215.5,181.9z M204.4,175.5l-10.4-6.1l10.4-6l10.4,6.1L204.4,175.5z M149,195.4
					l10.4,6.1l-10.4,6l-10.4-6.1L149,195.4z M171.7,220.8l10.4-6l10.4,6.1l-10.4,6L171.7,220.8z M237.6,194.9l-10.4-6.1l10.4-6
					l10.4,6.1L237.6,194.9z M203.8,163l-10.4,6l-10.4-6.1l10.4-6L203.8,163z M192.7,169.4l-10.4,6l-10.4-6.1l10.4-6L192.7,169.4z
					 M181.6,175.8l-10.4,6l-10.4-6.1l10.4-6L181.6,175.8z M170.5,182.2l-10.4,6l-10.4-6.1l10.4-6L170.5,182.2z M159.4,188.6l-10.4,6
					l-10.4-6.1l10.4-6L159.4,188.6z M148.3,195l-10.4,6l-10.4-6.1l10.4-6L148.3,195z M137.9,201.8l10.4,6.1l-10.4,6l-10.4-6.1
					L137.9,201.8z M148.9,208.2l10.4,6.1l-10.4,6l-10.4-6.1L148.9,208.2z M160,214.7l10.4,6.1l-10.4,6l-10.4-6.1L160,214.7z
					 M171,221.2l10.4,6.1l-10.4,6l-10.4-6.1L171,221.2z M182.8,227.2l10.4-6l10.4,6.1l-10.4,6L182.8,227.2z M193.9,220.8l10.4-6
					l10.4,6.1l-10.4,6L193.9,220.8z M205,214.4l10.4-6l10.4,6.1l-10.4,6L205,214.4z M216.1,208l10.4-6l10.4,6.1l-10.4,6L216.1,208z
					 M227.2,201.6l10.4-6l10.4,6.1l-10.4,6L227.2,201.6z M238.3,195.3l10.4-6l10.4,6.1l-10.4,6L238.3,195.3z M248.7,188.5l-10.4-6.1
					l10.4-6l10.4,6.1L248.7,188.5z M237.6,182l-10.4-6.1l10.4-6l10.4,6.1L237.6,182z M226.6,175.5l-10.4-6.1l10.4-6l10.4,6.1
					L226.6,175.5z M215.5,169.1l-10.4-6.1l10.4-6l10.4,6.1L215.5,169.1z M126.8,195.3l10.4,6.1l-10.4,6l-10.4-6.1L126.8,195.3z
					 M259.8,194.9l-10.4-6.1l10.4-6l10.4,6.1L259.8,194.9z"/>
			</g>
		</g>
		<g id="XMLID_342_">
			<path id="XMLID_348_" class="st13" d="M174.7,190.5l-15.3,8.9l39.1,22.7l3.6-2.1l-18.4-10.7l8.8-5.1l18.4,10.7l2.9-1.7l15-8.7
				l15.3-8.9l-39.1-22.7l-15.3,8.9L174.7,190.5z M224,193.2l3.9-2.3l5.3,3.1l-3.9,2.3L224,193.2z M217.6,189.4l3.9-2.3l5.1,2.9
				l-3.9,2.3L217.6,189.4z M207.3,183.5l4-2.3l4.8,2.8l-4,2.3L207.3,183.5z M200.4,179.5l4-2.3l5.5,3.2l-4,2.3L200.4,179.5z
				 M219.1,196l3.8-2.2l5.3,3.1l-3.8,2.2L219.1,196z M212.7,192.3l3.8-2.2l5.1,2.9l-3.8,2.2L212.7,192.3z M202.4,186.3l3.8-2.2
				l4.8,2.8l-3.8,2.2L202.4,186.3z M195.5,182.3l3.8-2.2l5.5,3.2l-3.8,2.2L195.5,182.3z M209.5,201.5l3.8-2.2l5.3,3.1l-3.8,2.2
				L209.5,201.5z M203.1,197.8l3.8-2.2l5.1,2.9l-3.8,2.2L203.1,197.8z M192.8,191.9l3.9-2.2l4.8,2.8l-3.9,2.2L192.8,191.9z
				 M185.9,187.9l3.9-2.2l5.5,3.2l-3.9,2.2L185.9,187.9z M204.6,204.4l3.9-2.3l5.3,3.1l-3.9,2.3L204.6,204.4z M198.1,200.7l3.9-2.3
				l5.1,2.9l-3.9,2.3L198.1,200.7z M187.9,194.8l3.9-2.2l4.8,2.8l-3.9,2.2L187.9,194.8z M181,190.8l3.9-2.2l5.5,3.2l-3.9,2.2
				L181,190.8z M175.9,200.1l-4,2.3l-5.5-3.2l4-2.3L175.9,200.1z M182.1,203.7l-4,2.3l-4.8-2.8l4-2.3L182.1,203.7z M180.8,197.3
				l-3.8,2.2l-5.5-3.2l3.8-2.2L180.8,197.3z M186.9,200.9l-3.8,2.2l-4.8-2.8l3.8-2.2L186.9,200.9z"/>
			<polygon id="XMLID_347_" class="st13" points="229.9,205 247.5,194.9 252.4,197.7 234.8,207.9 219.8,216.6 201.7,227.1 
				196.9,224.2 214.9,213.8 			"/>
			<polygon id="XMLID_346_" class="st13" points="153.2,189.2 158.5,192.2 165.3,188.3 160,185.2 162.8,183.6 177.9,174.9 
				190.7,167.4 204.8,170.1 187.3,180.3 172.2,189 154.2,199.5 149.5,191.3 			"/>
			<polygon id="XMLID_345_" class="st13" points="163.4,188.4 158.7,191.1 150.2,186.2 154.8,183.5 			"/>
			<polygon id="XMLID_344_" class="st13" points="210.2,215.4 203.3,219.4 185.8,209.2 192.7,205.2 			"/>
			<polygon id="XMLID_343_" class="st13" points="154.9,199.6 172.6,189.3 187.7,180.5 204.8,170.6 206.1,171.4 189,181.3 
				173.9,190 157.4,199.6 196.7,222.4 193.8,224.1 192.1,223.2 193.9,222.2 			"/>
		</g>
	</g>
	<g id="XMLID_144_" class="st1">
		<g id="XMLID_489_">
			<g id="XMLID_504_">
				<g id="XMLID_577_" class="st9">
					<g id="XMLID_586_" class="st9">
						<g id="XMLID_587_" class="st9">
							<path id="XMLID_588_" class="st14" d="M95.4,239.6v3.6c0,0.5,0.3,0.9,0.9,1.2l0-3.6C95.6,240.5,95.4,240,95.4,239.6
								L95.4,239.6z"/>
						</g>
					</g>
					<g id="XMLID_584_">
						<polygon id="XMLID_585_" class="st15" points="105.7,243.9 105.7,247.5 107.8,246.3 107.8,242.6 						"/>
					</g>
					<g id="XMLID_582_">
						<polygon id="XMLID_583_" class="st15" points="103.5,245.1 103.5,248.8 105.7,247.5 105.7,243.9 						"/>
					</g>
					<g id="XMLID_580_">
						<polygon id="XMLID_581_" class="st16" points="96.2,240.8 96.2,244.5 103.5,248.8 103.5,245.1 						"/>
					</g>
					<g id="XMLID_578_">
						<path id="XMLID_579_" class="st17" d="M96.3,238.3c-1.2,0.7-1.2,1.8,0,2.5l7.3,4.3l2.2-1.2l2.2-1.2l-7.3-4.3
							C99.4,237.6,97.4,237.6,96.3,238.3z"/>
					</g>
				</g>
				<g id="XMLID_505_" class="st9">
					<g id="XMLID_575_">
						<polygon id="XMLID_576_" class="st18" points="118,242.8 118,246.5 121.3,253.1 121.3,249.5 						"/>
					</g>
					<g id="XMLID_572_">
						<g id="XMLID_573_">
							<path id="XMLID_574_" class="st3" d="M99.9,248.6v3.6c0,1.1,1.2,2,3.5,2.4V251C101.1,250.5,99.9,249.7,99.9,248.6L99.9,248.6
								z"/>
						</g>
					</g>
					<g id="XMLID_570_">
						<polygon id="XMLID_571_" class="st19" points="103.4,251 103.4,254.6 103.7,254.6 103.7,251 						"/>
					</g>
					<g id="XMLID_568_">
						<polygon id="XMLID_569_" class="st19" points="103.7,251 103.7,254.6 115.2,256.7 115.2,253 						"/>
					</g>
					<g id="XMLID_566_">
						<polygon id="XMLID_567_" class="st19" points="115.2,253 115.2,256.7 116.2,256.9 116.2,253.2 						"/>
					</g>
					<g id="XMLID_564_">
						<polygon id="XMLID_565_" class="st13" points="121.3,249.5 121.3,253.1 169.5,265.5 169.5,261.9 						"/>
					</g>
					<g id="XMLID_525_">
						<g id="XMLID_556_">
							<g id="XMLID_557_" class="st9">
								<g id="XMLID_562_">
									<polygon id="XMLID_563_" class="st20" points="130.1,263.8 130.1,264.6 130.8,265 130.8,264.2 									"/>
								</g>
								<g id="XMLID_560_">
									<polygon id="XMLID_561_" class="st21" points="130.8,264.2 130.8,265 143.6,257.6 143.6,256.8 									"/>
								</g>
								<g id="XMLID_558_">
									<polygon id="XMLID_559_" class="st22" points="130.1,263.8 130.8,264.2 143.6,256.8 142.9,256.4 									"/>
								</g>
							</g>
						</g>
						<g id="XMLID_534_">
							<g id="XMLID_545_">
								<path id="XMLID_547_" class="st21" d="M127.9,262.5c0,0.1,0,0.2,0,0.3c0,0,0,0,0,0.1c0,0.4,0.1,0.8,0.2,1.2
									c0.3,1,0.8,1.9,1.5,2.7c0.3,0.3,0.6,0.6,0.9,0.8c0,0,0,0,0.1,0c0,0,0.1-0.1,0.1-0.1l0,0c0,0-0.1,0.1-0.1,0.1
									c0.1,0.1,0.1,0.1,0.2,0.1c0,0,0.1-0.1,0.1-0.1l0,0l-0.1,0.1c0,0,0.1,0,0.1,0.1c0,0,0.1,0,0.1,0.1c0,0,0,0,0,0
									c0.1,0,0.1-0.1,0.2-0.1l0,0c-0.1,0-0.1,0.1-0.2,0.1c0.7,0.3,1.3,0.3,1.8,0.1l0,0l0,0l0,0l0.9-0.5l0,0
									c0.1-0.1,0.2-0.2,0.3-0.2c0.1-0.1,0.1-0.1,0.2-0.2c0,0.2-0.1,0.3-0.1,0.5c0,0,0,0,0,0c0,0.1,0,0.1-0.1,0.2
									c0.2-0.1,0.4-0.2,0.6-0.4c0,0,0.1,0,0.1-0.1c-0.2,0.1-0.5,0.3-0.7,0.4c0,0,0,0.1,0,0.1c0,0,0,0.1-0.1,0.1
									c0.2-0.1,0.3-0.2,0.5-0.3c0.1-0.1,0.2-0.1,0.3-0.2c0,0,0.1,0,0.1-0.1c0,0,0-0.1,0.1-0.1c0,0,0-0.1,0-0.1
									c0,0-0.1,0.1-0.1,0.1c0,0,0.1,0,0.1-0.1c0,0,0,0,0,0c0-0.1,0-0.1,0.1-0.2c-0.1,0.1-0.2,0.1-0.3,0.2c0,0,0,0,0,0
									c0.1,0,0.2-0.1,0.2-0.1c0,0,0,0,0.1,0c0,0,0,0,0,0l0,0c0.1-0.3,0.1-0.7,0.1-1c0-0.1,0-0.2,0-0.3c0,0,0,0,0-0.1l0,0
									c0-0.4-0.1-0.7-0.2-1.1c0-0.1-0.1-0.2-0.1-0.3l0,0c0,0,0,0,0-0.1c0,0-0.1,0.1-0.1,0.1c-0.1,0.1-0.2,0.1-0.3,0.2l0,0
									c0.2-0.1,0.3-0.2,0.5-0.3c0,0,0-0.1,0-0.1c-0.4-1.1-1-2.2-1.8-3c-0.1,0-0.1,0.1-0.1,0.1c-0.1,0.1-0.2,0.1-0.3,0.2l0,0
									c0.2-0.1,0.3-0.2,0.5-0.3c0,0,0,0-0.1-0.1l0,0c-0.1-0.1-0.1-0.1-0.2-0.2c0,0-0.1-0.1-0.1-0.1c-0.3-0.2-0.5-0.5-0.8-0.6
									c-0.2,0.1-0.4,0.2-0.6,0.3l0,0c0.2-0.1,0.4-0.2,0.6-0.3c0,0,0,0,0,0c-0.2,0.1-0.4,0.2-0.6,0.4l0,0c0.2-0.1,0.4-0.2,0.6-0.4
									c-0.1-0.1-0.2-0.1-0.3-0.2l-0.7,0.4l0,0c0.2-0.1,0.5-0.3,0.7-0.4c-0.2-0.1-0.4-0.2-0.6-0.3c-0.1,0-0.2-0.1-0.3-0.1
									c0,0-0.1,0-0.1,0c0,0,0,0,0,0c-0.1,0-0.1,0-0.2,0c0,0-0.1,0-0.1,0l0,0c0,0-0.1,0-0.1,0c-0.4,0-0.8,0.1-1.1,0.2l-0.9,0.5
									c0.3-0.2,0.7-0.3,1.1-0.2c0,0,0.1,0,0.1,0c0,0,0.1,0,0.1,0c0.1,0,0.1,0,0.2,0c0,0,0,0,0,0c0,0,0.1,0,0.1,0
									c0.1,0,0.2,0.1,0.3,0.1c0,0,0,0,0,0c-0.2,0-0.5,0.1-0.7,0.2l-0.4,0.2l-0.5,0.3c-0.5,0.3-0.8,0.8-0.9,1.6
									c0.1,0,0.1-0.1,0.2-0.1l0,0c-0.1,0-0.1,0.1-0.2,0.1c0,0,0,0,0,0.1c0,0,0,0.1,0,0.1C127.9,262.4,127.9,262.5,127.9,262.5z
									 M131.6,267L131.6,267c0,0,0.1-0.1,0.1-0.1c-0.1-0.1-0.3-0.2-0.4-0.3l0.1-0.1c0.1,0,0.2,0.1,0.4,0.1l0.9-0.5l0-0.7
									c-0.2-0.1-0.6-0.3-1-0.5l0.9-0.5c0.2-0.1,0.3-0.5,0.3-0.7l0-0.3c0,0,0-0.1,0-0.1c0.4,0.8,0.7,1.8,0.7,2.6
									c0,0.6-0.2,1.1-0.4,1.4c-0.4,0.1-0.9-0.1-1.5-0.4L131.6,267z M129.5,260.4l-0.3,0.2c0-0.1,0.1-0.1,0.1-0.2
									C129.3,260.4,129.4,260.4,129.5,260.4z M131.3,265.7l-0.6,0.4l0,0C130.9,266,131.1,265.9,131.3,265.7L131.3,265.7z
									 M131.8,266l-0.2,0.1l-0.1,0l0-0.2C131.6,265.9,131.7,266,131.8,266z M129.7,264.5c0,0.1,0,0.1,0,0.2
									c-0.4-0.8-0.7-1.8-0.7-2.6c0-0.6,0.2-1.1,0.4-1.4c0.4-0.1,0.9,0.1,1.5,0.4c0.1,0.1,0.3,0.2,0.4,0.3l-0.1,0.1
									c-0.1,0-0.2-0.1-0.4-0.1l0,0l0,0l-0.9,0.5l0,0.7c0.3,0.1,0.8,0.4,1,0.5l-0.9,0.5c-0.2,0.1-0.3,0.4-0.3,0.7
									c0.3-0.2,0.7-0.4,0.9-0.5c0,0,0,0,0,0l0.3,0.2c0.1,0.1,0.2,0.1,0.3,0.1l0.8-0.5c0,0.2,0.1,0.3,0.1,0.5l0,0.3c0,0,0,0,0,0
									l-0.3-0.2c-0.1-0.1-0.2-0.1-0.2-0.1l-0.8,0.4c0-0.2-0.1-0.4-0.1-0.6c-0.3,0.2-0.6,0.3-0.8,0.5L129.7,264.5z M130.8,262
									l0.2-0.1l0.1,0l0,0.2C131,262,130.9,262,130.8,262z M133.5,267.3c0,0.1-0.1,0.1-0.1,0.2c-0.1,0-0.1,0-0.2,0L133.5,267.3z"/>
								<path id="XMLID_546_" class="st21" d="M135,267.3c-0.2,0.4-0.4,0.6-0.7,0.8l-0.9,0.5c0.3-0.2,0.6-0.4,0.7-0.8
									c0.3-0.2,0.5-0.3,0.8-0.5C134.9,267.3,135,267.3,135,267.3z"/>
							</g>
							<path id="XMLID_535_" class="st23" d="M127.3,262.2c0,2.3,1.6,5.1,3.5,6.2c2,1.2,3.6,0.2,3.6-2c0-2.3-1.6-5.1-3.5-6.2
								C128.9,259,127.3,259.9,127.3,262.2z M130.6,266.2l0,0.5l0.5,0.3l-0.5-0.3L130.6,266.2z M131.2,263.6v0.1
								c0,0.1,0,0.2-0.1,0.2c0.1,0,0.1-0.1,0.1-0.2V263.6z M130.9,263.8l-0.2-0.1L130.9,263.8c0.1,0.1,0.2,0.1,0.3,0.1
								C131.1,263.9,131,263.9,130.9,263.8z M130.8,263C130.8,263,130.9,263,130.8,263c0.1,0.1,0.2,0.1,0.2,0.1
								C131,263.1,130.9,263.1,130.8,263C130.9,263,130.8,263,130.8,263z M130.8,265.5c-0.1,0-0.1-0.1-0.2-0.2
								C130.7,265.4,130.7,265.4,130.8,265.5c0.2,0.1,0.4,0.2,0.6,0.4C131.2,265.7,131,265.6,130.8,265.5z M129.7,264.2
								c0-0.2,0-0.5,0.2-0.6c0.1-0.1,0.2-0.2,0.4-0.1c-0.2-0.1-0.3,0-0.4,0.1C129.7,263.8,129.7,264,129.7,264.2L129.7,264.2z
								 M129.8,262.5l0-0.7c0.2,0.1,0.5,0.1,0.8,0.3c-0.3-0.2-0.6-0.3-0.8-0.3L129.8,262.5L129.8,262.5z M131.7,263
								c0.2,0.3,0.3,0.6,0.3,1C132,263.6,131.9,263.2,131.7,263z"/>
						</g>
						<g id="XMLID_526_">
							<g id="XMLID_527_" class="st9">
								<g id="XMLID_532_">
									<polygon id="XMLID_533_" class="st20" points="117.3,271.1 117.3,271.9 118,272.4 118,271.5 									"/>
								</g>
								<g id="XMLID_530_">
									<polygon id="XMLID_531_" class="st21" points="118,271.5 118,272.4 130.8,265 130.8,264.2 									"/>
								</g>
								<g id="XMLID_528_">
									<polygon id="XMLID_529_" class="st22" points="117.3,271.1 118,271.5 130.8,264.2 130.1,263.7 									"/>
								</g>
							</g>
						</g>
					</g>
					<g id="XMLID_522_">
						<g id="XMLID_523_">
							<path id="XMLID_524_" class="st3" d="M116.2,253.2v3.6c2.1,0.4,3.8,0.2,4.8-0.4c0.6-0.4,1-0.9,1-1.6l0-3.6
								c0,0.7-0.3,1.2-1,1.6C120,253.4,118.3,253.6,116.2,253.2L116.2,253.2z"/>
						</g>
					</g>
					<g id="XMLID_520_">
						<path id="XMLID_521_" class="st11" d="M102.3,245.8c-3.6,2.1-3.1,4.4,1.1,5.1l0.3,0.1l11.4,2l1.1,0.2c2.1,0.4,3.8,0.2,4.8-0.4
							c1-0.6,1.3-1.5,0.7-2.8l-0.3-0.6l-3.4-6.7l-0.1-0.2c-1.2-2.5-5.2-2.8-8.8-0.7l-1.2,0.7l-2.2,1.2l-2.2,1.2L102.3,245.8z"/>
					</g>
					<g id="XMLID_518_">
						<polygon id="XMLID_519_" class="st24" points="171.5,259.3 171.5,262.9 173.2,260.7 173.2,257 						"/>
					</g>
					<g id="XMLID_516_">
						<polygon id="XMLID_517_" class="st25" points="118,242.8 121.3,249.5 169.5,261.9 171.5,259.3 173.2,257 						"/>
					</g>
					<g id="XMLID_514_">
						<polygon id="XMLID_515_" class="st24" points="169.5,261.9 169.5,265.5 171.5,262.9 171.5,259.3 						"/>
					</g>
					<g id="XMLID_512_">
						<polygon id="XMLID_513_" class="st24" points="131.3,282.4 131.3,286 136,284.8 136,281.2 						"/>
					</g>
					<g id="XMLID_510_">
						<polygon id="XMLID_511_" class="st25" points="103.7,251 127.6,283.3 131.3,282.4 136,281.2 115.2,253 						"/>
					</g>
					<g id="XMLID_508_">
						<polygon id="XMLID_509_" class="st24" points="127.6,283.3 127.6,286.9 131.3,286 131.3,282.4 						"/>
					</g>
					<g id="XMLID_506_">
						<polygon id="XMLID_507_" class="st13" points="103.7,251 103.7,254.6 127.6,286.9 127.6,283.3 						"/>
					</g>
				</g>
			</g>
			<g id="XMLID_498_">
				<g id="XMLID_499_" class="st9">
					<g id="XMLID_502_">
						<polygon id="XMLID_503_" class="st10" points="170.8,261.7 170.8,262.9 177.6,263.4 177.6,262.3 						"/>
					</g>
					<g id="XMLID_500_">
						<polygon id="XMLID_501_" class="st22" points="172.2,259.8 171.5,260.8 170.8,261.7 177.6,262.3 						"/>
					</g>
				</g>
			</g>
			<g id="XMLID_490_">
				<g id="XMLID_491_" class="st9">
					<g id="XMLID_496_">
						<polygon id="XMLID_497_" class="st26" points="129.5,284.1 129.5,285.7 135.1,290 135.1,288.4 						"/>
					</g>
					<g id="XMLID_494_">
						<polygon id="XMLID_495_" class="st27" points="135.1,288.4 135.1,290 135.2,290.1 135.2,288.4 						"/>
					</g>
					<g id="XMLID_492_">
						<polygon id="XMLID_493_" class="st22" points="129.5,284.1 135.1,288.4 135.2,288.4 133.9,283 131.4,283.6 						"/>
					</g>
				</g>
			</g>
		</g>
	</g>
	<g id="XMLID_83_" class="st1">
		<g id="XMLID_85_">
			<g id="XMLID_142_">
				<g id="XMLID_143_">
					<g id="XMLID_296_">
						<path id="XMLID_297_" class="st28" d="M82-162.5c3.5-2.1,6.5-0.4,6.5,3.8l0.7,136.7c0,4.2-2.9,9.4-6.4,11.5l-208.9,125
							c-3.6,2.1-6.5,0.4-6.5-3.8l-0.7-136.7c0-4.2,2.9-9.4,6.4-11.5L82-162.5z"/>
					</g>
					<g id="XMLID_289_">
						<polygon id="XMLID_295_" class="st29" points="66.4,-118.7 81.9,-127.7 81.9,-145.7 66.4,-136.7 						"/>
						<polygon id="XMLID_294_" class="st29" points="66.4,-97.1 81.9,-106.1 81.9,-124.1 66.4,-115.1 						"/>
						<polygon id="XMLID_293_" class="st29" points="66.4,-75.5 81.9,-84.5 81.9,-102.5 66.4,-93.5 						"/>
						<polygon id="XMLID_292_" class="st29" points="66.4,-53.9 81.9,-62.9 81.9,-81 66.4,-71.9 						"/>
						<polygon id="XMLID_291_" class="st29" points="66.4,-32.4 81.9,-41.5 81.9,-59.5 66.4,-50.5 						"/>
						<polygon id="XMLID_290_" class="st29" points="66.4,-10.8 81.9,-19.9 81.9,-37.9 66.4,-28.9 						"/>
					</g>
					<g id="XMLID_154_">
						<g id="XMLID_287_">
							<path id="XMLID_288_" class="st3" d="M238.4,78.5c0,0.2,0,0.3,0,0.5c0,0.2,0,0.3-0.1,0.5c0,0.1-0.1,0.3-0.1,0.4
								c0,0.2-0.1,0.3-0.1,0.5c0,0.1-0.1,0.2-0.2,0.4c-0.1,0.2-0.1,0.3-0.2,0.5c0,0.1-0.1,0.2-0.2,0.3c-0.1,0.2-0.2,0.4-0.3,0.5
								c-0.1,0.1-0.2,0.2-0.3,0.3c-0.2,0.2-0.3,0.5-0.6,0.7c-0.1,0.1-0.2,0.2-0.3,0.3c-0.1,0.1-0.2,0.3-0.4,0.4
								c-0.1,0.1-0.3,0.3-0.5,0.4c-0.1,0.1-0.3,0.2-0.5,0.3c-0.2,0.2-0.5,0.3-0.8,0.5l-82.1,49l0-5.1l-18.2-10.8l26.2-15.7l0-2
								l1.7,1L197.1,80L197,67.2l-16.7-9.9l-3.8,2.3l0-4.6l-5.6-3.3l-11.1-6.6l-19.3-11.4l-4.8,2.9l0-5.7L118.9,21l-3.7,2.2l0-4.5
								L98.5,8.9L81.3,19.3l0,4l-3.3-2L60.7,31.6l0,3.9l-3.3-2L40.2,44l0,3.9l-3.3-2L19.7,56.3l0,3.9l-3.3-2L-0.9,68.7l0,3.9l-3.3-2
								L-21.4,81l0,3.9l-3.3-1.9l-17.3,10.4l0,3.9l-3.3-1.9l-17.2,10.3l0,3.9l-3.3-1.9L-83,118l0.1,12.8l9.7,5.7l-4.1,2.5l0-4.4
								l-16.7-9.9l-17.2,10.4l0.1,12.8l16.7,9.9l3.8-2.2l0,4.4l16.7,9.9l3.7-2.3l0,4.5l16.7,9.8l3.7-2.2l0,4.5l16.7,9.9l3.8-2.3
								l0,4.6l16.7,9.9l36.5-22l0-2.6l2.1,1.3l27-16.2l0-2.9l2.5,1.5l9.8-5.9l0,4.9L83.4,175l-67.1,40.1c-0.7,0.4-1.4,0.7-2.1,1
								c-0.2,0.1-0.4,0.2-0.6,0.2c-0.5,0.2-1,0.3-1.5,0.5c-0.4,0.1-0.9,0.3-1.4,0.3c-0.6,0.1-1.3,0.2-2,0.3c-0.1,0-0.2,0-0.4,0.1
								c-0.9,0.1-1.7,0.1-2.6,0.1c-0.2,0-0.3,0-0.4,0c-0.8,0-1.7-0.1-2.5-0.1c-0.1,0-0.3,0-0.4,0c-0.8-0.1-1.6-0.3-2.4-0.4
								c-0.1,0-0.3-0.1-0.5-0.1c-0.8-0.2-1.5-0.4-2.2-0.7c-0.1,0-0.2,0-0.2-0.1c-0.8-0.3-1.6-0.7-2.3-1.1l-125.5-74.7
								c-2.9-1.7-4.4-4-4.4-6.3c0,4.3,0,8.5,0.1,12.8c0,2.3,1.5,4.6,4.4,6.4L-5.1,228c0.7,0.4,1.5,0.8,2.3,1.1c0,0,0,0,0.1,0
								c0.1,0,0.2,0.1,0.2,0.1c0.5,0.2,1,0.4,1.5,0.5c0.2,0.1,0.4,0.1,0.7,0.1c0.2,0,0.3,0.1,0.5,0.1c0.2,0,0.3,0.1,0.5,0.1
								c0.5,0.1,1,0.2,1.5,0.2c0.1,0,0.3,0,0.4,0.1c0.1,0,0.3,0,0.4,0c0.2,0.1,0.4,0.1,0.6,0.1c0.5,0.1,1,0.1,1.5,0.1
								c0.1,0,0.3,0,0.4,0c0.1,0,0.3,0,0.4,0c0.2,0,0.5,0,0.7,0c0.6,0,1.1-0.1,1.7-0.1c0.1,0,0.1,0,0.1,0c0.1,0,0.2,0,0.4-0.1
								c0.5-0.1,0.9-0.1,1.4-0.2c0.2,0,0.4-0.1,0.6-0.1c0.4-0.1,0.9-0.2,1.3-0.3c0.3-0.1,0.6-0.1,0.8-0.2c0.2-0.1,0.5-0.2,0.7-0.3
								c0.2-0.1,0.4-0.1,0.6-0.2c0.7-0.3,1.5-0.6,2.2-1.1L234,97.8c0.2-0.1,0.3-0.2,0.5-0.3c0.1-0.1,0.2-0.1,0.3-0.2
								c0.2-0.1,0.3-0.2,0.5-0.4c0.2-0.1,0.3-0.2,0.5-0.4c0.1-0.1,0.2-0.2,0.4-0.3c0.1-0.1,0.1-0.1,0.2-0.2c0.1-0.1,0.1-0.1,0.2-0.2
								c0.2-0.2,0.4-0.5,0.6-0.6c0-0.1,0.1-0.2,0.1-0.2c0,0,0-0.1,0.1-0.1c0.1-0.2,0.2-0.4,0.3-0.6c0-0.1,0.1-0.2,0.2-0.3
								c0,0,0-0.1,0-0.1c0.1-0.2,0.1-0.4,0.2-0.5c0-0.1,0.1-0.2,0.1-0.3c0,0,0,0,0-0.1c0.1-0.2,0.1-0.3,0.1-0.5
								c0-0.1,0.1-0.2,0.1-0.3c0,0,0,0,0-0.1c0-0.2,0-0.3,0.1-0.5c0-0.1,0-0.2,0-0.4c0,0,0-0.1,0-0.1
								C238.4,87.1,238.4,82.8,238.4,78.5z"/>
						</g>
						<g id="XMLID_155_">
							<g id="XMLID_285_">
								<path id="XMLID_286_" class="st29" d="M234,72.2L108.4-2.5C102.5-6,92.9-5.9,87-2.4l-217.6,130.1c-5.9,3.5-5.9,9.3,0,12.8
									l125.5,74.7c5.9,3.5,15.5,3.5,21.5-0.1L233.9,85C239.8,81.4,239.8,75.7,234,72.2z"/>
							</g>
							<g id="XMLID_282_">
								<g id="XMLID_283_">
									<polygon id="XMLID_284_" class="st24" points="89.8,38.5 106.5,48.4 89.3,58.8 72.6,48.9 									"/>
								</g>
							</g>
							<g id="XMLID_279_">
								<g id="XMLID_280_">
									<polygon id="XMLID_281_" class="st24" points="116.5,46.9 133.1,56.8 115.9,67.1 99.2,57.2 									"/>
								</g>
							</g>
							<g id="XMLID_276_">
								<g id="XMLID_277_">
									<polygon id="XMLID_278_" class="st24" points="140.5,33.8 159.8,45.2 170.9,51.8 176.5,55.1 147.4,72.5 130.7,62.7 
										139.7,57.3 120.3,45.9 									"/>
								</g>
							</g>
							<g id="XMLID_273_">
								<g id="XMLID_274_">
									<polygon id="XMLID_275_" class="st24" points="97.1,58.5 113.7,68.4 96.5,78.8 79.8,68.9 									"/>
								</g>
							</g>
							<g id="XMLID_270_">
								<g id="XMLID_271_">
									<polygon id="XMLID_272_" class="st24" points="180.4,57.3 197,67.2 161.5,88.6 144.8,78.7 									"/>
								</g>
							</g>
							<g id="XMLID_267_">
								<g id="XMLID_268_">
									<polygon id="XMLID_269_" class="st24" points="143.1,79.7 159.8,89.6 132.9,105.8 116.1,95.9 									"/>
								</g>
							</g>
							<g id="XMLID_264_">
								<g id="XMLID_265_">
									<polygon id="XMLID_266_" class="st24" points="89.9,87.2 106.6,97.1 89.4,107.5 72.7,97.6 									"/>
								</g>
							</g>
							<g id="XMLID_261_">
								<g id="XMLID_262_">
									<polygon id="XMLID_263_" class="st24" points="98.5,8.9 115.2,18.8 97.9,29.2 81.3,19.3 									"/>
								</g>
							</g>
							<g id="XMLID_258_">
								<g id="XMLID_259_">
									<polygon id="XMLID_260_" class="st24" points="78,21.3 94.7,31.1 77.4,41.5 60.7,31.6 									"/>
								</g>
							</g>
							<g id="XMLID_255_">
								<g id="XMLID_256_">
									<polygon id="XMLID_257_" class="st24" points="118.9,21 135.6,30.9 108.9,46.9 92.2,37.1 									"/>
								</g>
							</g>
							<g id="XMLID_252_">
								<g id="XMLID_253_">
									<polygon id="XMLID_254_" class="st24" points="57.4,33.6 74.1,43.5 56.9,53.8 40.2,44 									"/>
								</g>
							</g>
							<g id="XMLID_249_">
								<g id="XMLID_250_">
									<polygon id="XMLID_251_" class="st24" points="36.9,45.9 53.6,55.8 36.4,66.2 19.7,56.3 									"/>
								</g>
							</g>
							<g id="XMLID_246_">
								<g id="XMLID_247_">
									<polygon id="XMLID_248_" class="st24" points="70.2,50.3 86.9,60.2 69.7,70.5 53,60.7 									"/>
								</g>
							</g>
							<g id="XMLID_243_">
								<g id="XMLID_244_">
									<polygon id="XMLID_245_" class="st24" points="16.4,58.3 33.1,68.2 15.8,78.5 -0.9,68.7 									"/>
								</g>
							</g>
							<g id="XMLID_240_">
								<g id="XMLID_241_">
									<polygon id="XMLID_242_" class="st24" points="50.6,62.1 67.3,72 50,82.4 33.3,72.5 									"/>
								</g>
							</g>
							<g id="XMLID_237_">
								<g id="XMLID_238_">
									<polygon id="XMLID_239_" class="st24" points="128.5,64 145.2,73.9 127.9,84.3 111.3,74.4 									"/>
								</g>
							</g>
							<g id="XMLID_234_">
								<g id="XMLID_235_">
									<polygon id="XMLID_236_" class="st24" points="-4.1,70.6 12.6,80.5 -4.7,90.9 -21.4,81 									"/>
								</g>
							</g>
							<g id="XMLID_231_">
								<g id="XMLID_232_">
									<polygon id="XMLID_233_" class="st24" points="77.6,70.2 94.3,80.1 77.1,90.5 60.4,80.6 									"/>
								</g>
							</g>
							<g id="XMLID_228_">
								<g id="XMLID_229_">
									<polygon id="XMLID_230_" class="st24" points="31,73.9 47.7,83.8 30.4,94.2 13.7,84.3 									"/>
								</g>
							</g>
							<g id="XMLID_225_">
								<g id="XMLID_226_">
									<polygon id="XMLID_227_" class="st24" points="109.1,75.7 125.8,85.6 108.6,95.9 91.8,86.1 									"/>
								</g>
							</g>
							<g id="XMLID_222_">
								<g id="XMLID_223_">
									<polygon id="XMLID_224_" class="st24" points="58.3,81.9 75,91.8 57.7,102.1 41,92.2 									"/>
								</g>
							</g>
							<g id="XMLID_219_">
								<g id="XMLID_220_">
									<polygon id="XMLID_221_" class="st24" points="-24.7,83 -8,92.8 -25.2,103.2 -41.9,93.4 									"/>
								</g>
							</g>
							<g id="XMLID_216_">
								<g id="XMLID_217_">
									<polygon id="XMLID_218_" class="st24" points="11.4,85.7 28,95.6 10.8,105.9 -5.9,96.1 									"/>
								</g>
							</g>
							<g id="XMLID_213_">
								<g id="XMLID_214_">
									<polygon id="XMLID_215_" class="st24" points="38.9,93.5 55.6,103.4 38.3,113.8 21.6,103.9 									"/>
								</g>
							</g>
							<g id="XMLID_210_">
								<g id="XMLID_211_">
									<polygon id="XMLID_212_" class="st24" points="-45.2,95.3 -28.5,105.2 -45.7,115.6 -62.4,105.7 									"/>
								</g>
							</g>
							<g id="XMLID_207_">
								<g id="XMLID_208_">
									<polygon id="XMLID_209_" class="st24" points="-8.3,97.5 8.4,107.4 -8.8,117.7 -25.5,107.9 									"/>
								</g>
							</g>
							<g id="XMLID_204_">
								<g id="XMLID_205_">
									<polygon id="XMLID_206_" class="st24" points="69.9,99.3 86.6,109.1 69.3,119.5 52.6,109.6 									"/>
								</g>
							</g>
							<g id="XMLID_201_">
								<g id="XMLID_202_">
									<polygon id="XMLID_203_" class="st24" points="19.5,105.2 36.2,115.1 18.9,125.4 2.2,115.6 									"/>
								</g>
							</g>
							<g id="XMLID_198_">
								<g id="XMLID_199_">
									<polygon id="XMLID_200_" class="st24" points="-65.7,107.7 -49,117.5 -66.3,127.9 -83,118 									"/>
								</g>
							</g>
							<g id="XMLID_195_">
								<g id="XMLID_196_">
									<polygon id="XMLID_197_" class="st24" points="-27.9,109.3 -11.2,119.2 -28.5,129.6 -45.1,119.7 									"/>
								</g>
							</g>
							<g id="XMLID_192_">
								<g id="XMLID_193_">
									<polygon id="XMLID_194_" class="st24" points="50.7,110.8 67.4,120.7 50.1,131 33.4,121.2 									"/>
								</g>
							</g>
							<g id="XMLID_189_">
								<g id="XMLID_190_">
									<polygon id="XMLID_191_" class="st24" points="0.1,116.9 16.8,126.7 -0.5,137.1 -17.2,127.2 									"/>
								</g>
							</g>
							<g id="XMLID_186_">
								<g id="XMLID_187_">
									<polygon id="XMLID_188_" class="st24" points="31.3,122.5 48,132.4 30.7,142.7 14,132.8 									"/>
								</g>
							</g>
							<g id="XMLID_183_">
								<g id="XMLID_184_">
									<polygon id="XMLID_185_" class="st24" points="-94,124.7 -77.4,134.6 -94.6,144.9 -111.3,135.1 									"/>
								</g>
							</g>
							<g id="XMLID_180_">
								<g id="XMLID_181_">
									<polygon id="XMLID_182_" class="st24" points="-19.3,128.5 -2.6,138.4 -19.9,148.8 -36.6,138.9 									"/>
								</g>
							</g>
							<g id="XMLID_177_">
								<g id="XMLID_178_">
									<polygon id="XMLID_179_" class="st24" points="114.4,97 131.1,106.9 55.3,152.4 38.7,142.6 									"/>
								</g>
							</g>
							<g id="XMLID_174_">
								<g id="XMLID_175_">
									<polygon id="XMLID_176_" class="st24" points="12.1,134 28.8,143.9 11.6,154.3 -5.1,144.4 									"/>
								</g>
							</g>
							<g id="XMLID_171_">
								<g id="XMLID_172_">
									<polygon id="XMLID_173_" class="st24" points="-48.4,121.6 -31.7,131.5 -74.2,157 -90.8,147.2 									"/>
								</g>
							</g>
							<g id="XMLID_168_">
								<g id="XMLID_169_">
									<polygon id="XMLID_170_" class="st24" points="127.2,114.3 151.9,129 89.8,166 65.2,151.4 									"/>
								</g>
							</g>
							<g id="XMLID_165_">
								<g id="XMLID_166_">
									<polygon id="XMLID_167_" class="st24" points="-38.8,140.2 -22.1,150.1 -53.7,169.1 -70.4,159.2 									"/>
								</g>
							</g>
							<g id="XMLID_162_">
								<g id="XMLID_163_">
									<polygon id="XMLID_164_" class="st24" points="36.2,144 52.9,153.9 26,170.1 9.3,160.2 									"/>
								</g>
							</g>
							<g id="XMLID_159_">
								<g id="XMLID_160_">
									<polygon id="XMLID_161_" class="st24" points="-7.5,145.8 9.2,155.7 -33.3,181.2 -50,171.3 									"/>
								</g>
							</g>
							<g id="XMLID_156_">
								<g id="XMLID_157_">
									<polygon id="XMLID_158_" class="st24" points="7.1,161.5 23.8,171.4 -12.7,193.4 -29.4,183.5 									"/>
								</g>
							</g>
						</g>
					</g>
					<g id="XMLID_151_">
						<g id="XMLID_152_">
							<path id="XMLID_153_" class="st3" d="M92.7-178c-0.1-0.1-0.3-0.1-0.4-0.2c-1-0.6-2-1.2-3.1-1.8c-1.1-0.6-2.1-1.2-3.1-1.8
								c-2-1.2-4.7-1-7.7,0.8L-139-50.9c-5.9,3.5-10.7,12.2-10.7,19.2l0.8,149.3c0,3.5,1.2,5.9,3.2,7.1c2.6,1.5,5.1,3.1,7.7,4.6
								c-1.9-1.2-3.2-3.6-3.2-7.1L-142-27.2c0-7,4.8-15.6,10.7-19.2L86.2-176.5c3-1.8,5.7-1.9,7.7-0.8
								C93.5-177.5,93.1-177.7,92.7-178z"/>
						</g>
					</g>
					<g id="XMLID_146_">
						<g id="XMLID_147_">
							<path id="XMLID_148_" class="st30" d="M86.2-176.5c5.9-3.5,10.8-0.7,10.8,6.3l0.8,149.3c0,7-4.8,15.6-10.7,19.2l-217.6,130.2
								c-5.9,3.5-10.8,0.7-10.8-6.3L-142-27.2c0-7,4.8-15.6,10.7-19.2L86.2-176.5z M89.2-22.1l-0.7-136.7c0-4.2-3-5.9-6.5-3.8
								L-127-37.6c-3.6,2.1-6.4,7.3-6.4,11.5l0.7,136.7c0,4.2,2.9,5.9,6.5,3.8l208.9-125C86.3-12.7,89.2-17.9,89.2-22.1L89.2-22.1z"
								/>
						</g>
					</g>
					<polygon id="XMLID_145_" class="st29" points="54,-115 -98.6,-26.5 -98.6,73.6 54.4,-15.1 					"/>
				</g>
			</g>
			<path id="XMLID_140_" class="st30" d="M-127.1,50.1l0,41.6v13.7l12.3-7.1l0,0l11.5-6.7l11.9-6.9l0,0l11.9-6.9v0l12.3-7.1V15.4
				l-11.9,6.9l-23.8,13.8L-127.1,50.1z"/>
			<g id="XMLID_136_">
				<polygon id="XMLID_139_" class="st31" points="-76.1,1.3 -130.4,32.8 -130.4,29.4 -76.1,-2.1 				"/>
				<polygon id="XMLID_138_" class="st32" points="-76.1,7.5 -130.4,39 -130.4,35.6 -76.1,4.1 				"/>
				<polygon id="XMLID_137_" class="st33" points="-76.1,13.7 -130.4,45.2 -130.4,41.8 -76.1,10.3 				"/>
			</g>
			<g id="XMLID_99_">
				<g id="XMLID_130_">
					<polygon id="XMLID_135_" class="st31" points="-69.4,31.6 -80.4,38 -80.4,25.2 -69.4,18.8 					"/>
					<polygon id="XMLID_134_" class="st34" points="-80.5,38 -91.5,44.4 -91.5,31.6 -80.5,25.2 					"/>
					<polygon id="XMLID_133_" class="st35" points="-91.6,44.5 -102.6,50.8 -102.6,38.1 -91.6,31.7 					"/>
					<polygon id="XMLID_132_" class="st36" points="-102.7,50.9 -113.7,57.3 -113.7,44.5 -102.7,38.1 					"/>
					<polygon id="XMLID_131_" class="st37" points="-113.8,57.3 -124.8,63.7 -124.8,50.9 -113.8,44.5 					"/>
				</g>
				<g id="XMLID_113_">
					<polygon id="XMLID_119_" class="st38" points="-69.4,44.4 -80.4,50.7 -80.4,38 -69.4,31.6 					"/>
					<polygon id="XMLID_117_" class="st39" points="-80.5,50.8 -91.5,57.2 -91.5,44.4 -80.5,38 					"/>
					<polygon id="XMLID_116_" class="st40" points="-91.6,57.2 -102.6,63.6 -102.6,50.8 -91.6,44.5 					"/>
					<polygon id="XMLID_115_" class="st41" points="-102.7,63.7 -113.7,70 -113.7,57.3 -102.7,50.9 					"/>
					<polygon id="XMLID_114_" class="st42" points="-113.8,70.1 -124.8,76.5 -124.8,63.7 -113.8,57.3 					"/>
				</g>
				<g id="XMLID_107_">
					<polygon id="XMLID_112_" class="st32" points="-69.4,57.1 -80.4,63.5 -80.4,50.7 -69.4,44.4 					"/>
					<polygon id="XMLID_111_" class="st43" points="-80.5,63.6 -91.5,69.9 -91.5,57.2 -80.5,50.8 					"/>
					<polygon id="XMLID_110_" class="st44" points="-91.6,70 -102.6,76.4 -102.6,63.6 -91.6,57.2 					"/>
					<polygon id="XMLID_109_" class="st45" points="-102.7,76.4 -113.7,82.8 -113.7,70 -102.7,63.7 					"/>
					<polygon id="XMLID_108_" class="st46" points="-113.8,82.9 -124.8,89.3 -124.8,76.5 -113.8,70.1 					"/>
				</g>
				<g id="XMLID_101_">
					<polygon id="XMLID_106_" class="st47" points="-69.4,69.9 -80.4,76.3 -80.4,63.5 -69.4,57.1 					"/>
					<polygon id="XMLID_105_" class="st48" points="-80.5,76.3 -91.5,82.7 -91.5,69.9 -80.5,63.6 					"/>
					<polygon id="XMLID_104_" class="st49" points="-91.6,82.8 -102.6,89.2 -102.6,76.4 -91.6,70 					"/>
					<polygon id="XMLID_103_" class="st50" points="-102.7,89.2 -113.7,95.6 -113.7,82.8 -102.7,76.4 					"/>
					<polygon id="XMLID_102_" class="st51" points="-113.8,95.6 -124.8,102 -124.8,89.3 -113.8,82.9 					"/>
				</g>
			</g>
			<polygon id="XMLID_97_" class="st52" points="-79.7,-55.1 -125.9,-28.3 -125.9,16.6 -79.5,-10.3 			"/>
		</g>
	</g>
	<g id="XMLID_26765_" class="st1">
		<path id="XMLID_26775_" class="st13" d="M281.4,71.2c0,0.9,0.6,1.8,1.8,2.5l12.3,7.1v-2.8c0-0.5,0.3-0.9,0.9-1.3l-4.3-2.5
			c-0.5-0.3-0.7-0.6-0.7-1l0-5.8c0-0.3,0.2-0.7,0.7-1l47.6-27.8c0.9-0.5,2.5-0.5,3.4,0l11.3,6.6c0-0.8,0-1.7,0-2.4
			c0-0.2,0.1-0.4,0.4-0.5c0.5-0.3,1.4-0.3,1.9,0l8.1,4.7c0.3,0.2,0.4,0.4,0.4,0.6l0,3.9l5.9,3.4c0.5,0.3,0.7,0.6,0.7,1l0,3.5l5-2.9
			c1.2-0.7,1.7-1.6,1.7-2.5c0,1.9,0,3.9,0,5.8c0,0.9-0.6,1.8-1.7,2.5l-57.3,33.4c-2.3,1.4-6.2,1.4-8.5,0l-27.8-16.1
			c-1.2-0.7-1.8-1.6-1.8-2.5C281.4,75,281.4,73.1,281.4,71.2z"/>
		<g id="XMLID_26766_">
			<path id="XMLID_26774_" class="st28" d="M292.1,66.4l47.6-27.8c0.9-0.5,2.5-0.5,3.4,0l28,16.2c0.9,0.5,0.9,1.4,0,2l-47.6,27.8
				c-0.9,0.5-2.5,0.5-3.4,0l-28-16.2C291.2,67.8,291.1,66.9,292.1,66.4z"/>
			<path id="XMLID_26773_" class="st2" d="M301.4,76.5c-1.4-0.8-3.6-0.8-4.9,0c-1.4,0.8-1.4,2.1,0,2.9l5,2.9c1.4,0.8,3.6,0.8,4.9,0
				c1.4-0.8,1.3-2.1,0-2.9L301.4,76.5z"/>
			<path id="XMLID_26768_" class="st53" d="M376.8,51.4c2.3,1.4,2.4,3.6,0,5l-57.3,33.4c-2.4,1.4-6.2,1.4-8.5,0l-27.8-16.1
				c-2.4-1.4-2.4-3.6,0-5l57.3-33.4c2.3-1.4,6.2-1.4,8.5,0L376.8,51.4z M292.1,66.4c-0.9,0.6-0.9,1.5,0,2l28,16.2
				c0.9,0.5,2.5,0.5,3.4,0l47.6-27.8c0.9-0.5,0.9-1.4,0-2l-28-16.2c-0.9-0.5-2.5-0.5-3.4,0L292.1,66.4L292.1,66.4z M296.5,79.4
				l5,2.9c1.4,0.8,3.6,0.8,4.9,0c1.4-0.8,1.3-2.1,0-2.9l-5-2.9c-1.4-0.8-3.6-0.8-4.9,0C295.1,77.3,295.1,78.6,296.5,79.4L296.5,79.4
				z M364.8,46.9l-8.1-4.7c-0.5-0.3-1.4-0.3-1.9,0c-0.5,0.3-0.5,0.8,0,1.1l8.1,4.7c0.5,0.3,1.4,0.3,1.9,0
				C365.3,47.7,365.3,47.2,364.8,46.9L364.8,46.9z"/>
			<path id="XMLID_26767_" class="st2" d="M356.7,42.2c-0.5-0.3-1.4-0.3-1.9,0c-0.5,0.3-0.5,0.8,0,1.1l8.1,4.7
				c0.5,0.3,1.4,0.3,1.9,0c0.5-0.3,0.5-0.8,0-1.1L356.7,42.2z"/>
		</g>
	</g>
	<g id="XMLID_26027_" class="st1">
		<g id="XMLID_26792_">
			<g id="XMLID_26793_" class="st9">
				<g id="XMLID_26798_">
					<polygon id="XMLID_26799_" class="st3" points="329.4,-14.7 329.4,-12.9 229.1,45.7 229.1,43.9 					"/>
				</g>
				<g id="XMLID_26796_">
					<polygon id="XMLID_26797_" class="st10" points="229.1,43.9 229.1,45.7 153,1.5 153,-0.3 					"/>
				</g>
				<g id="XMLID_26794_">
					<polygon id="XMLID_26795_" class="st54" points="329.4,-14.7 229.1,43.9 153,-0.3 253.3,-58.9 					"/>
				</g>
			</g>
		</g>
		<g id="XMLID_26784_">
			<g id="XMLID_26785_" class="st9">
				<g id="XMLID_26790_">
					<polygon id="XMLID_26791_" class="st3" points="379.9,-16.1 379.9,-14.4 287.7,39.4 287.7,37.7 					"/>
				</g>
				<g id="XMLID_26788_">
					<polygon id="XMLID_26789_" class="st10" points="287.7,37.7 287.7,39.4 217.8,-1.2 217.8,-2.9 					"/>
				</g>
				<g id="XMLID_26786_">
					<polygon id="XMLID_26787_" class="st54" points="379.9,-16.1 287.7,37.7 217.8,-2.9 310,-56.7 					"/>
				</g>
			</g>
		</g>
		<g id="XMLID_26776_">
			<g id="XMLID_26777_" class="st9">
				<g id="XMLID_26782_">
					<polygon id="XMLID_26783_" class="st3" points="329.4,-21.1 329.4,-19.2 229.1,39.4 229.1,37.5 					"/>
				</g>
				<g id="XMLID_26780_">
					<polygon id="XMLID_26781_" class="st10" points="229.1,37.5 229.1,39.4 153,-4.8 153,-6.6 					"/>
				</g>
				<g id="XMLID_26778_">
					<polygon id="XMLID_26779_" class="st55" points="329.4,-21.1 229.1,37.5 153,-6.6 253.3,-65.2 					"/>
				</g>
			</g>
		</g>
		<g id="XMLID_26054_">
			<g id="XMLID_26721_">
				<g id="XMLID_26756_">
					<g id="XMLID_26757_" class="st9">
						<g id="XMLID_26762_">
							<polygon id="XMLID_26764_" class="st56" points="365.9,-20 365.9,-15 273.7,38.8 273.7,33.8 							"/>
						</g>
						<g id="XMLID_26760_">
							<polygon id="XMLID_26761_" class="st8" points="273.7,33.8 273.7,38.8 203.8,-1.7 203.8,-6.8 							"/>
						</g>
						<g id="XMLID_26758_">
							<polygon id="XMLID_26759_" class="st57" points="365.9,-20 273.7,33.8 203.8,-6.8 296,-60.6 							"/>
						</g>
					</g>
				</g>
				<g id="XMLID_26748_">
					<g id="XMLID_26749_" class="st9">
						<g id="XMLID_26754_">
							<polygon id="XMLID_26755_" class="st3" points="379.9,-16.1 379.9,-14.4 287.7,39.4 287.7,37.7 							"/>
						</g>
						<g id="XMLID_26752_">
							<polygon id="XMLID_26753_" class="st10" points="287.7,37.7 287.7,39.4 217.8,-1.2 217.8,-2.9 							"/>
						</g>
						<g id="XMLID_26750_">
							<polygon id="XMLID_26751_" class="st54" points="379.9,-16.1 287.7,37.7 217.8,-2.9 310,-56.7 							"/>
						</g>
					</g>
				</g>
				<g id="XMLID_26739_">
					<g id="XMLID_26740_" class="st9">
						<g id="XMLID_26746_">
							<polygon id="XMLID_26747_" class="st3" points="369,-17.4 369,-15.7 276.8,38.1 276.8,36.5 							"/>
						</g>
						<g id="XMLID_26744_">
							<polygon id="XMLID_26745_" class="st10" points="276.8,36.5 276.8,38.1 206.9,-2.4 206.9,-4.1 							"/>
						</g>
						<g id="XMLID_26741_">
							<polygon id="XMLID_26742_" class="st58" points="369,-17.4 276.8,36.5 206.9,-4.1 299.1,-57.9 							"/>
						</g>
					</g>
				</g>
				<g id="XMLID_26730_">
					<g id="XMLID_26732_" class="st9">
						<g id="XMLID_26737_">
							<polygon id="XMLID_26738_" class="st3" points="380,-28.8 380,-27.1 287.8,26.7 287.8,25 							"/>
						</g>
						<g id="XMLID_26735_">
							<polygon id="XMLID_26736_" class="st10" points="287.8,25 287.8,26.7 217.9,-13.9 217.9,-15.6 							"/>
						</g>
						<g id="XMLID_26733_">
							<polygon id="XMLID_26734_" class="st55" points="380,-28.8 287.8,25 217.9,-15.6 310.1,-69.4 							"/>
						</g>
					</g>
				</g>
				<g id="XMLID_26722_">
					<g id="XMLID_26723_" class="st9">
						<g id="XMLID_26728_">
							<polygon id="XMLID_26729_" class="st56" points="365.9,-29.5 365.9,-24.5 273.7,29.3 273.7,24.3 							"/>
						</g>
						<g id="XMLID_26726_">
							<polygon id="XMLID_26727_" class="st8" points="273.7,24.3 273.7,29.3 207.6,-9 207.5,-4.1 203.8,-1.7 203.8,-11.2 
								203.8,-16.3 							"/>
						</g>
						<g id="XMLID_26724_">
							<polygon id="XMLID_26725_" class="st7" points="365.9,-29.5 273.7,24.3 203.8,-16.3 296,-70.1 							"/>
						</g>
					</g>
				</g>
			</g>
			<g id="XMLID_26588_">
				<g id="XMLID_26592_">
					<g id="XMLID_26702_">
						<g id="XMLID_26703_" class="st9">
							<g id="XMLID_26717_" class="st9">
								<g id="XMLID_26718_">
									<path id="XMLID_26719_" class="st13" d="M252.9-42.4l32.4-18.9c2.1-1.2,5.1-1.1,8.3,0.8l-32.5,18.9
										C258-43.4,255-43.6,252.9-42.4L252.9-42.4z"/>
								</g>
							</g>
							<g id="XMLID_26708_" class="st9">
								<defs>
									<path id="XMLID_26710_" class="st9" d="M301.9-32.6l-32.5,18.9c2.1-1.2,3.4-3.8,3.4-7.5c0-7.5-5.2-16.6-11.7-20.3
										l32.5-18.9c6.5,3.7,11.7,12.8,11.7,20.3C305.4-36.5,304.1-33.9,301.9-32.6z"/>
								</defs>
								<use xlink:href="#XMLID_26710_"  style="overflow:visible;fill:#121719;"/>
								<clipPath id="XMLID_2_">
									<use xlink:href="#XMLID_26710_"  style="overflow:visible;"/>
								</clipPath>
								<g id="XMLID_26711_" class="st59">
									<path id="XMLID_26716_" class="st13" d="M261.2-41.5l32.5-18.9c0.7,0.4,1.4,0.9,2.1,1.4l-32.4,18.9
										C262.7-40.6,262-41.1,261.2-41.5L261.2-41.5z"/>
									<path id="XMLID_26715_" class="st13" d="M263.3-40.1l32.4-18.9c1.4,1.1,2.7,2.4,3.9,3.9l-32.5,19
										C266.1-37.7,264.7-39,263.3-40.1L263.3-40.1z"/>
									<path id="XMLID_26714_" class="st13" d="M267.2-36.2l32.5-19c3.4,4.3,5.7,10,5.7,14.9c0,0.6,0,1.1-0.1,1.6l-32.5,19
										c0.1-0.5,0.1-1.1,0.1-1.6C272.9-26.2,270.6-31.8,267.2-36.2L267.2-36.2z"/>
									<path id="XMLID_26713_" class="st13" d="M272.8-19.6l32.5-19c-0.2,1.5-0.6,2.8-1.3,3.9l-32.5,19
										C272.2-16.8,272.6-18.1,272.8-19.6L272.8-19.6z"/>
									<path id="XMLID_26712_" class="st13" d="M271.6-15.7l32.5-19c-0.6,0.9-1.2,1.6-2.1,2.1l-32.5,18.9
										C270.3-14.2,271-14.8,271.6-15.7L271.6-15.7z"/>
								</g>
							</g>
							<g id="XMLID_26704_">
								<path id="XMLID_26707_" class="st13" d="M261.2-41.5c6.5,3.8,11.7,12.8,11.7,20.3c0,7.5-5.3,10.5-11.7,6.7
									c-6.5-3.8-11.7-12.8-11.7-20.3C249.5-42.3,254.8-45.3,261.2-41.5z"/>
								<path id="XMLID_26706_" class="st13" d="M266.4-14.7c-1.3,0-2.8-0.5-4.4-1.4c-6-3.5-10.8-11.9-10.8-18.8
									c0-4.1,1.8-6.6,4.7-6.6c1.3,0,2.8,0.5,4.4,1.4c6,3.5,10.8,11.9,10.8,18.8C271.1-17.1,269.4-14.7,266.4-14.7z"/>
								<path id="XMLID_26705_" class="st13" d="M266.4-15.5c-1.2,0-2.5-0.4-4-1.3c-5.7-3.3-10.4-11.4-10.4-18.1
									c0-1.7,0.4-5.8,3.9-5.8c1.2,0,2.5,0.4,4,1.3c5.7,3.3,10.4,11.4,10.4,18.1C270.3-19.5,269.9-15.5,266.4-15.5z"/>
							</g>
						</g>
					</g>
					<g id="XMLID_26687_" class="st9">
						<g id="XMLID_26700_">
							<path id="XMLID_26701_" class="st53" d="M235.7-64.9l14-8.2c1.4-0.8,3.3-0.7,5.3,0.5l-14,8.2C239-65.6,237.1-65.7,235.7-64.9
								z"/>
						</g>
						<g id="XMLID_26697_">
							<path id="XMLID_26699_" class="st60" d="M310.5,4.6l-14,8.2c1.4-0.8,2.2-2.5,2.2-4.8l14-8.2C312.7,2.1,311.9,3.8,310.5,4.6z"
								/>
						</g>
						<g id="XMLID_26695_">
							<polygon id="XMLID_26696_" class="st60" points="298.8,-22.2 312.8,-30.3 312.7,-0.2 298.7,7.9 							"/>
						</g>
						<g id="XMLID_26693_">
							<polygon id="XMLID_26694_" class="st53" points="241.1,-64.4 255,-72.5 305.3,-43.4 291.3,-35.2 							"/>
						</g>
						<g id="XMLID_26691_">
							<path id="XMLID_26692_" class="st60" d="M291.3-35.2l14-8.2c4.2,2.4,7.5,8.2,7.5,13l-14,8.2
								C298.8-26.9,295.5-32.8,291.3-35.2z"/>
						</g>
						<g id="XMLID_26688_">
							<path id="XMLID_26689_" class="st13" d="M291.3-35.2c4.2,2.4,7.5,8.2,7.5,13l-0.1,30.1c0,4.8-3.4,6.7-7.5,4.3l-50.3-29.2
								c-4.2-2.4-7.5-8.2-7.5-13l0.1-30.1c0-4.8,3.4-6.7,7.5-4.3L291.3-35.2z"/>
						</g>
					</g>
					<g id="XMLID_26679_">
						<g id="XMLID_26680_" class="st9">
							<g id="XMLID_26685_">
								<path id="XMLID_26686_" class="st3" d="M284.7-11.8l1-0.6c0.6-0.3,1.4-0.3,2.2,0.2l-1,0.6C286.1-12.1,285.3-12.1,284.7-11.8
									z"/>
							</g>
							<g id="XMLID_26683_">
								<path id="XMLID_26684_" class="st3" d="M290.1-4.6l-1,0.6c0.6-0.3,0.9-1,0.9-2c0-2-1.4-4.5-3.1-5.5l1-0.6
									c1.7,1,3.1,3.5,3.1,5.5C291.1-5.6,290.7-4.9,290.1-4.6z"/>
							</g>
							<g id="XMLID_26681_">
								<path id="XMLID_26682_" class="st61" d="M287-11.5c1.7,1,3.1,3.5,3.1,5.5c0,2-1.4,2.8-3.2,1.8c-1.7-1-3.1-3.5-3.1-5.5
									C283.8-11.8,285.2-12.6,287-11.5z"/>
							</g>
						</g>
					</g>
					<g id="XMLID_26670_">
						<g id="XMLID_26671_" class="st9">
							<g id="XMLID_26674_" class="st9">
								<g id="XMLID_26675_" class="st9">
									<path id="XMLID_26678_" class="st62" d="M296.3-44.2l0,2c0,0.2,0,0.3-0.1,0.5l0-2C296.3-43.8,296.3-44,296.3-44.2
										L296.3-44.2z"/>
									<path id="XMLID_26677_" class="st63" d="M296.2-43.6l0,2c-0.2,0.4-0.5,0.7-1,1c-0.7,0.4-1.7,0.7-2.7,0.6l0-2
										c1,0,2-0.2,2.7-0.6C295.8-42.9,296.1-43.3,296.2-43.6L296.2-43.6z"/>
									<path id="XMLID_26676_" class="st62" d="M292.6-42l0,2c-0.9,0-1.8-0.2-2.6-0.6c-0.7-0.4-1.1-1-1.1-1.5l0-2
										c0,0.6,0.4,1.1,1.1,1.5C290.7-42.2,291.6-42,292.6-42L292.6-42z"/>
								</g>
							</g>
							<g id="XMLID_26672_">
								<path id="XMLID_26673_" class="st64" d="M295.2-45.7c1.5,0.8,1.5,2.2,0,3c-1.5,0.8-3.8,0.8-5.3,0c-1.5-0.8-1.5-2.2,0-3.1
									C291.4-46.5,293.8-46.5,295.2-45.7z"/>
							</g>
						</g>
					</g>
					<polygon id="XMLID_26669_" class="st25" points="278.2,-0.7 237.7,-24.2 237.7,-60 278.2,-36.4 					"/>
					<polygon id="XMLID_26668_" class="st47" points="238.5,-24.7 238.5,-58.6 277.4,-36 277.4,-2.1 					"/>
					<g id="XMLID_26660_">
						<g id="XMLID_26661_" class="st9">
							<g id="XMLID_26666_">
								<polygon id="XMLID_26667_" class="st65" points="291.5,-18.3 292.2,-18.7 292.2,-13.4 291.5,-13 								"/>
							</g>
							<g id="XMLID_26664_">
								<polygon id="XMLID_26665_" class="st66" points="284.6,-22.3 285.3,-22.7 292.2,-18.7 291.5,-18.3 								"/>
							</g>
							<g id="XMLID_26662_">
								<polygon id="XMLID_26663_" class="st61" points="291.5,-18.3 291.5,-13 284.6,-17 284.6,-22.3 								"/>
							</g>
						</g>
					</g>
					<g id="XMLID_26646_">
						<g id="XMLID_26647_" class="st9">
							<g id="XMLID_26656_" class="st9">
								<g id="XMLID_26657_" class="st9">
									<path id="XMLID_26659_" class="st3" d="M284.9-31.6l0.7-0.4c0.2-0.1,0.5-0.2,0.8-0.1l-0.7,0.4
										C285.4-31.8,285.2-31.8,284.9-31.6L284.9-31.6z"/>
									<path id="XMLID_26658_" class="st67" d="M285.7-31.7l0.7-0.4c0.2,0,0.3,0.1,0.5,0.2l-0.7,0.4
										C286.1-31.6,285.9-31.7,285.7-31.7L285.7-31.7z"/>
								</g>
							</g>
							<g id="XMLID_26654_">
								<polygon id="XMLID_26655_" class="st66" points="286.2,-31.5 286.9,-31.9 291.8,-29.1 291.1,-28.7 								"/>
							</g>
							<g id="XMLID_26650_" class="st9">
								<g id="XMLID_26651_" class="st9">
									<path id="XMLID_26653_" class="st67" d="M291.1-28.7l0.7-0.4c0.7,0.4,1.3,1.2,1.6,2l-0.7,0.4
										C292.3-27.5,291.7-28.3,291.1-28.7L291.1-28.7z"/>
									<path id="XMLID_26652_" class="st3" d="M292.6-26.7l0.7-0.4c0.1,0.4,0.2,0.8,0.2,1.1c0,0.6-0.2,1-0.5,1.2l-0.7,0.4
										c0.3-0.2,0.5-0.6,0.5-1.2C292.9-26,292.8-26.3,292.6-26.7L292.6-26.7z"/>
								</g>
							</g>
							<g id="XMLID_26648_">
								<path id="XMLID_26649_" class="st61" d="M291.1-28.7c1,0.6,1.8,2,1.8,3.1c0,1.2-0.8,1.6-1.8,1l-4.8-2.8
									c-1-0.6-1.8-2-1.8-3.1c0-1.2,0.8-1.6,1.8-1L291.1-28.7z"/>
							</g>
						</g>
					</g>
					<g id="XMLID_26627_">
						<g id="XMLID_26629_" class="st9">
							<g id="XMLID_26641_" class="st9">
								<g id="XMLID_26642_" class="st9">
									<path id="XMLID_26645_" class="st3" d="M289.4,1.5l0.5-0.3c0.2-0.1,0.5-0.2,0.8-0.1l-0.5,0.3
										C289.9,1.4,289.6,1.4,289.4,1.5L289.4,1.5z"/>
									<path id="XMLID_26644_" class="st67" d="M290.1,1.4l0.5-0.3c0.1,0,0.3,0.1,0.5,0.2l-0.5,0.3C290.5,1.5,290.3,1.5,290.1,1.4
										L290.1,1.4z"/>
								</g>
							</g>
							<g id="XMLID_26637_">
								<polygon id="XMLID_26640_" class="st66" points="290.6,1.6 291.2,1.3 292.6,2.2 292.1,2.5 								"/>
							</g>
							<g id="XMLID_26633_" class="st9">
								<g id="XMLID_26634_" class="st9">
									<path id="XMLID_26636_" class="st67" d="M292.1,2.5l0.5-0.3c0.6,0.4,1.2,1.1,1.5,1.9l-0.5,0.3
										C293.3,3.6,292.7,2.8,292.1,2.5L292.1,2.5z"/>
									<path id="XMLID_26635_" class="st3" d="M293.6,4.4l0.5-0.3c0.1,0.4,0.2,0.7,0.2,1.1c0,0.6-0.2,0.9-0.5,1.1l-0.5,0.3
										c0.3-0.2,0.5-0.6,0.5-1.1C293.8,5.1,293.7,4.7,293.6,4.4L293.6,4.4z"/>
								</g>
							</g>
							<g id="XMLID_26630_">
								<path id="XMLID_26631_" class="st61" d="M292.1,2.5c1,0.6,1.7,1.9,1.7,3c0,1.1-0.8,1.5-1.7,1l-1.5-0.9c-1-0.6-1.7-1.9-1.7-3
									c0-1.1,0.8-1.6,1.7-1L292.1,2.5z"/>
							</g>
						</g>
					</g>
					<g id="XMLID_26607_">
						<g id="XMLID_26608_" class="st9">
							<g id="XMLID_26620_" class="st9">
								<g id="XMLID_26622_" class="st9">
									<path id="XMLID_26625_" class="st3" d="M281.1-3.4l0.5-0.3c0.2-0.1,0.5-0.2,0.7-0.1l-0.5,0.3
										C281.6-3.6,281.3-3.5,281.1-3.4L281.1-3.4z"/>
									<path id="XMLID_26624_" class="st67" d="M281.8-3.5l0.5-0.3c0.2,0,0.3,0.1,0.5,0.2l-0.5,0.3C282.2-3.4,282-3.4,281.8-3.5
										L281.8-3.5z"/>
								</g>
							</g>
							<g id="XMLID_26618_">
								<polygon id="XMLID_26619_" class="st66" points="282.3,-3.3 282.9,-3.6 284.3,-2.7 283.8,-2.4 								"/>
							</g>
							<g id="XMLID_26613_" class="st9">
								<g id="XMLID_26615_" class="st9">
									<path id="XMLID_26617_" class="st67" d="M283.8-2.4l0.5-0.3c0.7,0.4,1.2,1.1,1.5,1.9l-0.5,0.3C285-1.3,284.4-2.1,283.8-2.4
										L283.8-2.4z"/>
									<path id="XMLID_26616_" class="st3" d="M285.3-0.5l0.5-0.3c0.1,0.4,0.2,0.7,0.2,1.1c0,0.5-0.2,0.9-0.5,1.1L285,1.7
										c0.3-0.2,0.5-0.6,0.5-1.1C285.5,0.2,285.4-0.2,285.3-0.5L285.3-0.5z"/>
								</g>
							</g>
							<g id="XMLID_26610_">
								<path id="XMLID_26611_" class="st61" d="M283.8-2.4c0.9,0.6,1.7,1.9,1.7,3c0,1.1-0.8,1.5-1.7,1l-1.5-0.8
									c-1-0.6-1.7-1.9-1.7-3c0-1.1,0.8-1.5,1.7-1L283.8-2.4z"/>
							</g>
						</g>
					</g>
					<g id="XMLID_26593_">
						<path id="XMLID_26606_" class="st68" d="M254-27.8c0.4-0.4,0.4-8.4,9-3.5c0,0,1.4,10.6-7.6,8.5C253.1-23.3,254-27.8,254-27.8z
							"/>
						<path id="XMLID_26605_" class="st68" d="M254.5-24.5c-0.3-0.7-0.4-7.3-7.4-11.4c0,0-1.1,7.4,6.2,14.2
							C255.2-20,254.5-24.5,254.5-24.5z"/>
						<polygon id="XMLID_26604_" class="st68" points="254.6,-18.7 253.5,-19.3 253.5,-35.7 254.6,-35 						"/>
						<g id="XMLID_26595_">
							<path id="XMLID_26603_" class="st69" d="M256.2-39.3c0-1.4-1-3-2.1-3.7c-1.2-0.7-2.1-0.1-2.1,1.2c0,1.4,1,3,2.1,3.7
								C255.2-37.4,256.2-38,256.2-39.3z"/>
							<path id="XMLID_26602_" class="st70" d="M256.2-44.1c0-1.9-1-4.1-2.1-4.7c-1.2-0.7-2.1,0.3-2.1,2.3c0,1.9,1,4.1,2.1,4.8
								C255.2-41.1,256.2-42.1,256.2-44.1z"/>
							<path id="XMLID_26601_" class="st71" d="M251.6-46.5c-1.4-1.8-3.1-2.6-3.7-1.7c-0.6,0.8,0.1,3,1.6,4.8
								c1.5,1.8,3.1,2.6,3.7,1.7C253.7-42.5,253-44.7,251.6-46.5z"/>
							<path id="XMLID_26600_" class="st70" d="M249.5-43c-1.4,0.1-2.1,1.5-1.6,3c0.6,1.5,2.2,2.7,3.7,2.5c1.4-0.1,2.1-1.5,1.6-3
								C252.6-42,250.9-43.2,249.5-43z"/>
							<path id="XMLID_26599_" class="st71" d="M251.9-37.1c0,1.9,1,4.1,2.1,4.8c1.2,0.7,2.1-0.3,2.1-2.3c0-1.9-1-4.1-2.1-4.8
								C252.9-40.1,251.9-39,251.9-37.1z"/>
							<path id="XMLID_26598_" class="st70" d="M256.5-34.7c1.4,1.8,3.1,2.6,3.7,1.7c0.6-0.8-0.1-3-1.6-4.8
								c-1.4-1.8-3.1-2.6-3.7-1.8C254.3-38.6,255-36.5,256.5-34.7z"/>
							<path id="XMLID_26597_" class="st71" d="M258.6-38.1c1.4-0.1,2.1-1.5,1.6-3c-0.6-1.5-2.2-2.7-3.7-2.5c-1.4,0.1-2.1,1.5-1.6,3
								C255.5-39.1,257.2-38,258.6-38.1z"/>
							<path id="XMLID_26596_" class="st69" d="M256.2-39.3c0-1.4-1-3-2.1-3.7c-1.2-0.7-2.1-0.1-2.1,1.2c0,1.4,1,3,2.1,3.7
								C255.2-37.4,256.2-38,256.2-39.3z"/>
						</g>
						<path id="XMLID_26594_" class="st72" d="M260.3-13.2c-0.4-2.1-3.1-5-6.3-6.9c-3.2-1.9-5.8-2-6.3-0.4L260.3-13.2z"/>
					</g>
				</g>
				<polygon id="XMLID_26591_" class="st61" points="309.2,-16.3 302.3,-12.2 302.3,-22.5 309.2,-26.5 				"/>
				<polygon id="XMLID_26590_" class="st61" points="309.2,-12.2 302.3,-8.2 302.3,-10.9 309.2,-14.9 				"/>
				<path id="XMLID_26589_" class="st13" d="M286.4-48.7c1.6,0.9,1.6,2.5,0,3.4l0,0c-1.6,0.9-4.2,0.9-5.8,0l-3.4-2
					c-1.6-0.9-1.6-2.5,0-3.4l0,0c1.6-0.9,4.2-0.9,5.8,0L286.4-48.7z"/>
			</g>
		</g>
		<g id="XMLID_26028_">
			<g id="XMLID_26040_">
				<g id="XMLID_26041_" class="st9">
					<g id="XMLID_26052_">
						<path id="XMLID_26053_" class="st73" d="M144.3-22.7l-2.4-1.4c0.4-0.8,0.9-1.7,1.3-2.5c0.6-1.1,1.1-2.3,1.6-3.4l2.4,1.4
							c-0.5,1.1-1,2.3-1.6,3.4C145.2-24.3,144.7-23.5,144.3-22.7z"/>
					</g>
					<g id="XMLID_26050_">
						<path id="XMLID_26051_" class="st74" d="M157.2-54l2.4,1.4c0,0,0.1,0,0.1,0.1c0.4,0.4,0.6,2.2-0.2,5.8
							c-1.9,8.6-5.9,14.4-12,18c-0.1,0-0.2,0.1-0.3,0.1l-2.4-1.4c0.1,0,0.2-0.1,0.3-0.1c6.1-3.5,10-9.4,12-18
							C157.9-51.7,157.7-53.5,157.2-54C157.3-53.9,157.2-54,157.2-54z"/>
					</g>
					<g id="XMLID_26048_">
						<path id="XMLID_26049_" class="st75" d="M159.9-58.7l2.4,1.4c-1.5-0.9-3.9,0-6.1,1.3l-2.4-1.4C156-58.7,158.4-59.6,159.9-58.7
							z"/>
					</g>
					<g id="XMLID_26046_">
						<path id="XMLID_26047_" class="st76" d="M150.3-48.3l-2.4-1.4c0.3-1.7,0.4-3.3,0.6-5l2.4,1.4C150.7-51.6,150.6-50,150.3-48.3z
							"/>
					</g>
					<g id="XMLID_26044_">
						<path id="XMLID_26045_" class="st75" d="M150.9-53.3l-2.4-1.4c0.6-0.5,4.6-2.3,5.3-2.7l2.4,1.4
							C155.5-55.6,151.5-53.8,150.9-53.3z"/>
					</g>
					<g id="XMLID_26042_">
						<path id="XMLID_26043_" class="st4" d="M156.2-56c4.5-2.6,9.6-3.6,6.9,8.5c-2.8,12.5-9.3,19.6-15.7,23.3
							c-1.1,0.6-2.1,1.1-3.2,1.6c0.4-0.8,0.9-1.7,1.3-2.5c0.6-1.1,1.1-2.3,1.6-3.4c0.1,0,0.2-0.1,0.3-0.1c6.1-3.5,10-9.4,12-18
							c0.8-3.6,0.7-5.5,0.2-5.8c-0.4-0.4-1.7-0.1-3.4,0.9c-1,0.6-5.2,2.7-6,3.3c0.3-1.7,0.4-3.3,0.6-5
							C151.5-53.8,155.5-55.6,156.2-56z"/>
					</g>
				</g>
			</g>
			<g id="XMLID_26029_">
				<g id="XMLID_26030_" class="st9">
					<g id="XMLID_26036_" class="st9">
						<g id="XMLID_26037_" class="st9">
							<path id="XMLID_26039_" class="st4" d="M151.9-59l-0.1,37.7c0,3-1.9,5.9-5.8,8.2c-3.2,1.9-7.2,3-11.4,3.3l0.1-37.7
								c4.2-0.3,8.2-1.4,11.4-3.3C150-53.1,151.9-56,151.9-59L151.9-59z"/>
							<path id="XMLID_26038_" class="st74" d="M134.7-47.5l-0.1,37.7c-6,0.5-12.3-0.6-16.9-3.3c-4-2.3-5.9-5.3-5.9-8.3l0.1-37.7
								c0,3,2,6,5.9,8.3C122.5-48.1,128.8-47,134.7-47.5L134.7-47.5z"/>
						</g>
					</g>
					<g id="XMLID_26034_">
						<path id="XMLID_26035_" class="st75" d="M146-67.3c7.8,4.5,7.9,11.9,0.1,16.5c-7.8,4.5-20.4,4.5-28.3,0
							c-7.8-4.6-7.9-11.9-0.1-16.5C125.5-71.8,138.2-71.8,146-67.3z"/>
					</g>
					<g id="XMLID_26032_">
						<path id="XMLID_26033_" class="st77" d="M143.7-66c6.6,3.8,6.6,10,0.1,13.8c-6.5,3.8-17.1,3.8-23.7,0
							c-6.6-3.8-6.6-10-0.1-13.8C126.6-69.8,137.2-69.8,143.7-66z"/>
					</g>
					<path id="XMLID_26031_" class="st78" d="M120.1-52.2c6.6,3.8,17.2,3.8,23.7,0c2.5-1.5,4-3.3,4.6-5.1c-0.6-1.9-2.1-3.7-4.7-5.2
						c-6.6-3.8-17.2-3.8-23.7,0c-2.5,1.4-4,3.2-4.6,5.1C116-55.5,117.6-53.6,120.1-52.2z"/>
				</g>
			</g>
		</g>
	</g>
</g>
<g id="Layer_2">
	<g>
		<g>
			<path class="st7" d="M5.1,37.4V11.9h5.9c0.9,0,1.7,0.2,2.4,0.5c0.7,0.3,1.2,0.7,1.7,1.3c0.5,0.5,0.8,1.1,1,1.8
				c0.2,0.7,0.3,1.4,0.3,2.2V23c0,0.5-0.2,0.9-0.5,1.2l-7.2,6.9v6.3H5.1z M12.8,22.3v-4.7c0-0.6-0.1-1.1-0.4-1.5
				c-0.3-0.4-0.7-0.6-1.4-0.6H8.7v10.7L12.8,22.3z"/>
			<path class="st7" d="M27.1,37.4l-0.8-5h-4.9l-0.8,5H17L21,11.9h5.5l4.1,25.5H27.1z M21.9,28.9h3.8l-1.9-12.3L21.9,28.9z"/>
			<path class="st7" d="M36.5,11.9v19.9c0,0.6,0.1,1.1,0.4,1.5c0.3,0.4,0.8,0.6,1.4,0.6h1.1c0.6,0,1.1-0.2,1.4-0.6
				c0.3-0.4,0.4-0.9,0.4-1.5V11.9h3.6v19.9c0,0.7-0.1,1.5-0.3,2.1c-0.2,0.7-0.6,1.3-1,1.8c-0.4,0.5-0.9,1-1.5,1.3
				c-0.6,0.3-1.2,0.5-2,0.5h-2.4c-0.8,0-1.4-0.2-2-0.5c-0.6-0.3-1.1-0.8-1.5-1.3c-0.4-0.5-0.7-1.1-0.9-1.8s-0.3-1.4-0.3-2.1V11.9
				H36.5z"/>
			<path class="st7" d="M48,37.4V11.9h3.6v21.9h4.6v3.6H48z"/>
			<path class="st7" d="M62.7,37.6c-0.8,0-1.5-0.2-2.1-0.5s-1.1-0.8-1.5-1.4c-0.4-0.5-0.7-1.2-0.9-1.8c-0.2-0.7-0.3-1.4-0.3-2V17.5
				c0-0.8,0.1-1.6,0.4-2.3c0.3-0.7,0.6-1.3,1.1-1.8c0.5-0.5,1-0.9,1.7-1.2c0.7-0.3,1.4-0.4,2.2-0.4h1.4c0.8,0,1.5,0.2,2.2,0.5
				c0.6,0.3,1.2,0.7,1.6,1.3c0.5,0.5,0.8,1.1,1,1.8c0.2,0.7,0.3,1.4,0.3,2.2v14.3c0,0.7-0.1,1.4-0.3,2.1c-0.2,0.7-0.5,1.3-1,1.8
				c-0.4,0.5-0.9,1-1.5,1.3c-0.6,0.3-1.2,0.5-2,0.5H62.7z M66.3,31.8V17.5c0-0.6-0.1-1.1-0.4-1.5c-0.3-0.4-0.7-0.6-1.3-0.7h-1.4
				c-0.6,0.1-1.1,0.3-1.3,0.7c-0.2,0.4-0.4,0.9-0.4,1.4v14.3c0,0.6,0.1,1.1,0.4,1.5c0.3,0.4,0.8,0.6,1.4,0.6h1.1
				c0.6,0,1.1-0.2,1.4-0.6C66.1,32.9,66.3,32.4,66.3,31.8z"/>
			<path class="st79" d="M85.7,32.4c0,0.8-0.1,1.5-0.4,2.1c-0.3,0.6-0.6,1.1-1.1,1.6c-0.5,0.4-1,0.8-1.6,1c-0.6,0.2-1.3,0.3-1.9,0.3
				h-2.5v-3.6h2.5c0.4,0,0.7-0.1,1-0.4s0.4-0.6,0.4-1V11.9h3.6V32.4z"/>
			<path class="st79" d="M92.4,11.9v19.9c0,0.6,0.2,1.1,0.5,1.5c0.3,0.4,0.8,0.6,1.4,0.6h1.1c0.6,0,1.1-0.2,1.4-0.6
				c0.3-0.4,0.4-0.9,0.4-1.5V11.9h3.6v19.9c0,0.7-0.1,1.5-0.3,2.1c-0.2,0.7-0.6,1.3-1,1.8c-0.4,0.5-0.9,1-1.5,1.3
				c-0.6,0.3-1.2,0.5-2,0.5h-2.4c-0.8,0-1.4-0.2-2-0.5c-0.6-0.3-1.1-0.8-1.5-1.3c-0.4-0.5-0.7-1.2-0.9-1.8c-0.2-0.7-0.3-1.4-0.3-2.1
				V11.9H92.4z M101.2,6.1l-5.8,4.2h-3l4.2-4.2H101.2z"/>
			<path class="st79" d="M112.8,37.4l-5.4-15.3v15.3h-3.6V11.9h3.6l5.4,15.3V11.9h3.6v25.5H112.8z"/>
			<path class="st79" d="M119.6,37.4V11.9h3.6v25.5H119.6z"/>
			<path class="st79" d="M131.1,37.6c-0.8,0-1.5-0.2-2.1-0.5s-1.1-0.8-1.5-1.4c-0.4-0.5-0.7-1.2-0.9-1.8c-0.2-0.7-0.3-1.4-0.3-2
				V17.5c0-0.8,0.1-1.6,0.4-2.3c0.3-0.7,0.6-1.3,1.1-1.8c0.5-0.5,1-0.9,1.7-1.2c0.7-0.3,1.4-0.4,2.2-0.4h1.4c0.8,0,1.5,0.2,2.2,0.5
				c0.6,0.3,1.2,0.7,1.6,1.3c0.5,0.5,0.8,1.1,1,1.8c0.2,0.7,0.3,1.4,0.3,2.2v14.3c0,0.7-0.1,1.4-0.3,2.1c-0.2,0.7-0.5,1.3-1,1.8
				c-0.4,0.5-0.9,1-1.5,1.3s-1.2,0.5-2,0.5H131.1z M134.7,31.8V17.5c0-0.6-0.1-1.1-0.4-1.5c-0.3-0.4-0.7-0.6-1.3-0.7h-1.4
				c-0.6,0.1-1,0.3-1.3,0.7c-0.2,0.4-0.4,0.9-0.4,1.4v14.3c0,0.6,0.1,1.1,0.4,1.5c0.3,0.4,0.8,0.6,1.4,0.6h1.1
				c0.6,0,1.1-0.2,1.4-0.6C134.5,32.9,134.7,32.4,134.7,31.8z"/>
			<path class="st79" d="M149.7,37.4l-2.3-8.7h-0.2H145v8.7h-3.6V11.9h5.9c0.8,0,1.6,0.2,2.3,0.5c0.7,0.3,1.2,0.7,1.7,1.3
				c0.5,0.5,0.8,1.1,1.1,1.8c0.3,0.7,0.4,1.4,0.4,2.2V23c0,0.9-0.2,1.7-0.5,2.5c-0.3,0.8-0.8,1.4-1.4,2l2.6,10H149.7z M149.1,23
				v-5.3c0-0.6-0.1-1.1-0.4-1.5c-0.3-0.4-0.8-0.6-1.4-0.6H145v9.6h2.3c0.6,0,1.1-0.2,1.4-0.6C148.9,24.1,149.1,23.6,149.1,23z"/>
		</g>
	</g>
</g>
</svg>
