<?xml version="1.0" encoding="utf-8"?>
<!-- Generator: Adobe Illustrator 22.0.0, SVG Export Plug-In . SVG Version: 6.00 Build 0)  -->
<svg version="1.1" xmlns="http://www.w3.org/2000/svg" xmlns:xlink="http://www.w3.org/1999/xlink" x="0px" y="0px"
	 viewBox="0 0 373 304.7" style="enable-background:new 0 0 373 304.7;" xml:space="preserve">
<style type="text/css">
	.st0{opacity:0.61;fill:url(#SVGID_1_);}
	.st1{enable-background:new    ;}
	.st2{fill:#FFFFFF;}
	.st3{fill:#9E46C1;}
	.st4{fill:#F9C410;}
	.st5{fill:url(#SVGID_2_);}
	.st6{opacity:0.61;fill:url(#SVGID_3_);}
	.st7{opacity:0.61;fill:url(#SVGID_4_);}
	.st8{opacity:0.61;fill:url(#SVGID_5_);}
	.st9{opacity:0.61;fill:url(#SVGID_6_);}
	.st10{fill:url(#SVGID_7_);}
	.st11{fill:#CE9B0D;}
	.st12{fill:url(#SVGID_8_);}
	.st13{fill:url(#SVGID_9_);}
	.st14{fill:url(#SVGID_10_);}
</style>
<g id="BACKGROUND">
</g>
<g id="OBJECTS">
	<g>
		
			<linearGradient id="SVGID_1_" gradientUnits="userSpaceOnUse" x1="138.6868" y1="-40.3636" x2="81.9979" y2="54.6549" gradientTransform="matrix(1 0 0 -1 0 293.2383)">
			<stop  offset="0.4335" style="stop-color:#A0A7A9"/>
			<stop  offset="0.4838" style="stop-color:#B8BDBF"/>
			<stop  offset="0.5526" style="stop-color:#D2D5D6"/>
			<stop  offset="0.6289" style="stop-color:#E6E8E8"/>
			<stop  offset="0.7155" style="stop-color:#F4F5F5"/>
			<stop  offset="0.8211" style="stop-color:#FDFDFD"/>
			<stop  offset="1" style="stop-color:#FFFFFF"/>
		</linearGradient>
		<ellipse class="st0" cx="110.3" cy="286.1" rx="106.3" ry="11.1"/>
		<g>
			<g class="st1">
				<g>
					<path class="st2" d="M272.8,208.7c6.5-3.5,12.9-7,19.4-10.6c3-9.7,4.6-20.3,4.6-31.5c0-8.4-0.9-16.6-2.7-24.6
						c-6.5,3.5-12.9,7-19.4,10.6c1.7,8,2.6,16.3,2.7,24.6C277.4,188.4,275.8,199,272.8,208.7z"/>
				</g>
				<g>
					<path class="st2" d="M274.7,152.6c6.5-3.5,12.9-7,19.4-10.6c-10.3-47.9-49.1-88.1-95.2-94.5L179.5,58
						C225.6,64.5,264.5,104.6,274.7,152.6z"/>
				</g>
				<g>
					<path class="st2" d="M272.8,208.7C269,221,263,232,255.2,241.1c6.5-3.5,12.9-7,19.4-10.6c7.8-9.1,13.8-20.1,17.6-32.4
						c-5.9,3.2-11.8,6.4-17.7,9.7c-0.3,0.1-0.5,0.3-0.8,0.4c-0.1,0-0.2,0.1-0.2,0.1c0,0-0.1,0-0.1,0.1c-0.1,0-0.1,0.1-0.2,0.1
						C273,208.6,273,208.6,272.8,208.7C272.9,208.7,272.8,208.7,272.8,208.7z"/>
				</g>
				<g>
					<path class="st2" d="M150.3,101.1c8.7-3.9,18.7-5.4,29.2-3.9L199,86.7c-10.6-1.5-20.5,0-29.2,3.9
						C163.3,94.1,156.8,97.6,150.3,101.1z"/>
				</g>
				<g>
					<path class="st2" d="M127.4,67c15.1-8.2,33-11.7,52.1-9l19.4-10.6c-19.2-2.7-37,0.8-52.1,9C140.9,59.6,133.2,63.8,127.4,67z"/>
				</g>
				<g>
					<path class="st3" d="M154.9,71.4l-19.4,10.6c12.7-6.9,27.8-9.9,44-7.6l19.4-10.6C182.7,61.5,167.6,64.5,154.9,71.4z"/>
				</g>
				<g>
					<path class="st3" d="M223.9,245l19.4-10.6c23.1-12.6,38.4-38.3,38.4-69.9c-0.1-49.1-37.2-94.3-82.7-100.7l-19.4,10.6
						c45.5,6.4,82.6,51.6,82.7,100.7C262.3,206.7,247,232.4,223.9,245z"/>
				</g>
				<g>
					<path class="st2" d="M241.1,172.1c0,23.5-11.3,42.6-28.5,52l19.4-10.6c17.2-9.3,28.6-28.4,28.5-52
						c-0.1-36.5-27.7-70.1-61.5-74.9l-19.4,10.6C213.4,102,241,135.6,241.1,172.1z"/>
				</g>
				<g>
					<path class="st3" d="M174.3,107.3l-19.4,10.6c7.1-3.9,15.6-5.5,24.7-4.2L199,103C189.9,101.7,181.5,103.4,174.3,107.3z"/>
				</g>
				<g>
					<path class="st2" d="M146.8,102.9c1.2-0.6,2.3-1.2,3.5-1.8c6.5-3.5,12.9-7,19.4-10.6c-1.2,0.5-2.4,1.1-3.5,1.8
						C160.4,95.5,152.6,99.7,146.8,102.9z"/>
				</g>
				<g>
					<path class="st2" d="M168.1,142.1c3.3-1.8,7.3-2.6,11.6-2l19.4-10.6c-4.3-0.6-8.2,0.2-11.6,2
						C181.6,134.7,173.9,138.9,168.1,142.1z"/>
				</g>
				<g>
					<path class="st2" d="M201.3,166.5c0,8.3-4,15.1-10,18.3l19.4-10.6c6.1-3.3,10.1-10,10-18.3c0-12.9-9.7-24.7-21.7-26.4
						l-19.4,10.6C191.6,141.8,201.3,153.6,201.3,166.5z"/>
				</g>
				<g>
					<path class="st3" d="M204.4,209.1l19.4-10.6c12.9-7,21.5-21.4,21.5-39.1c-0.1-27.5-20.8-52.8-46.3-56.4l-19.4,10.6
						c25.5,3.6,46.3,28.9,46.3,56.4C225.9,187.7,217.4,202.1,204.4,209.1z"/>
				</g>
				<g>
					<path class="st2" d="M255.2,241.1c-6.6,7.7-14.4,14.1-23.2,18.9l19.4-10.6c8.8-4.8,16.6-11.2,23.2-18.9
						c-3.2,1.8-6.5,3.5-9.7,5.3c-1.7,0.9-3.4,1.8-5,2.7c-0.4,0.2-0.9,0.5-1.2,0.7c-0.4,0.2-0.8,0.5-1.2,0.6
						C256.8,240.2,255.8,240.6,255.2,241.1z"/>
				</g>
				<g>
					<path class="st3" d="M191.3,184.9l19.4-10.6c-3.3,1.8-7.3,2.6-11.6,2l-19.4,10.6C184,187.4,188,186.7,191.3,184.9z"/>
				</g>
				<g>
					<path class="st3" d="M187.5,131.5l-19.4,10.6c-6.1,3.3-10.1,10-10,18.3c0,12.9,9.7,24.7,21.7,26.4l19.4-10.6
						c-12-1.7-21.7-13.5-21.7-26.4C177.4,141.5,181.4,134.8,187.5,131.5z"/>
				</g>
				<g>
					<path class="st2" d="M179.8,213.4c9.1,1.3,17.5-0.4,24.6-4.2l19.4-10.6c-7.1,3.9-15.6,5.5-24.6,4.2
						C193.4,206,185.6,210.2,179.8,213.4z"/>
				</g>
				<g>
					<path class="st2" d="M155,117.8c-7.9,4.3-14.2,11.4-17.9,20.2c6.5-3.5,12.9-7,19.4-10.6c3.7-8.9,10-15.9,17.9-20.2
						C168.5,110.4,160.8,114.6,155,117.8z"/>
				</g>
				<g>
					<path class="st3" d="M212.5,224.1l19.4-10.6c-9.5,5.2-20.7,7.3-32.7,5.6l-19.4,10.6C191.8,231.4,203.1,229.2,212.5,224.1z"/>
				</g>
				<g>
					<path class="st2" d="M179.8,252.6c16.2,2.3,31.3-0.7,44-7.6l19.4-10.6c-12.7,6.9-27.8,9.8-44,7.6
						C193.4,245.2,185.7,249.4,179.8,252.6z"/>
				</g>
				<g>
					<path class="st2" d="M135.5,81.9c-14.1,7.7-25.4,20.3-31.9,36.2c6.5-3.5,12.9-7,19.4-10.6c6.6-15.9,17.8-28.5,31.9-36.2
						C149.1,74.5,141.3,78.8,135.5,81.9z"/>
				</g>
				<g>
					<path class="st2" d="M133.5,157c0.1,27.5,20.8,52.8,46.3,56.4l19.4-10.6c-25.5-3.6-46.3-28.9-46.3-56.4
						c0-6.9,1.3-13.3,3.6-18.9c-6.5,3.5-12.9,7-19.4,10.6C134.7,143.7,133.4,150.1,133.5,157z"/>
				</g>
				<g>
					<path class="st2" d="M152.9,146.4c-0.1-27.5,20.6-47,46.1-43.4c25.5,3.6,46.3,28.9,46.3,56.4c0.1,27.5-20.6,47-46.1,43.4
						C173.7,199.2,152.9,173.9,152.9,146.4z M199,129.5c-12-1.7-21.6,7.4-21.6,20.3c0,12.9,9.7,24.7,21.7,26.4
						c12,1.7,21.6-7.4,21.6-20.3C220.7,143,211,131.2,199,129.5"/>
				</g>
				<g>
					<path class="st3" d="M166.2,92.3l-19.4,10.6c-17.2,9.3-28.6,28.4-28.5,52c0.1,36.5,27.7,70.1,61.5,74.9l19.4-10.6
						c-33.8-4.8-61.4-38.3-61.5-74.9C137.7,120.7,149,101.6,166.2,92.3z"/>
				</g>
				<g>
					<g>
						<path class="st4" d="M137.7,144.3c-0.1-36.5,27.4-62.4,61.3-57.6c33.8,4.8,61.4,38.3,61.5,74.9c0.1,36.5-27.4,62.4-61.3,57.6
							C165.4,214.4,137.8,180.8,137.7,144.3z M199,103c-25.5-3.6-46.2,15.9-46.1,43.4c0.1,27.5,20.8,52.8,46.3,56.4
							c25.5,3.6,46.2-15.9,46.1-43.4S224.5,106.6,199,103"/>
					</g>
				</g>
				<g>
					<path class="st2" d="M97.1,151.9c0.1,49.1,37.2,94.3,82.7,100.7l19.4-10.6c-45.5-6.4-82.6-51.6-82.7-100.7
						c0-12.3,2.3-23.7,6.5-33.8c-6.5,3.5-12.9,7-19.4,10.6C99.4,128.2,97.1,139.6,97.1,151.9z"/>
				</g>
				<g>
					<path class="st3" d="M232,259.9l19.4-10.6c-15.1,8.2-33,11.7-52.1,9l-19.4,10.6C199,271.6,216.9,268.1,232,259.9z"/>
				</g>
				<g>
					<path class="st3" d="M146.8,56.4L127.4,67C100,81.9,81.9,112.3,82,149.7c0.1,58.1,44,111.6,97.9,119.2l19.4-10.6
						c-53.9-7.6-97.8-61-97.9-119.2C101.3,101.7,119.4,71.3,146.8,56.4z"/>
				</g>
				<g>
					<path class="st2" d="M80.7,136.3C80.6,65.7,133.5,16,198.8,25.2c65.4,9.2,118.4,73.8,118.6,144.3
						c0.1,70.5-52.7,120.3-118.1,111.1C134,271.4,80.9,206.8,80.7,136.3z M198.9,47.5c-53.9-7.6-97.6,33.6-97.5,91.7
						s44,111.6,97.9,119.2c53.9,7.6,97.6-33.6,97.5-91.7C296.7,108.5,252.8,55,198.9,47.5"/>
				</g>
				<g>
					<path class="st2" d="M116.5,141.3c-0.1-49.1,36.9-83.9,82.4-77.5c45.5,6.4,82.6,51.6,82.7,100.7c0.1,49.1-36.9,83.9-82.4,77.5
						C153.7,235.6,116.6,190.4,116.5,141.3z M199,86.7c-33.8-4.8-61.3,21.1-61.3,57.6c0.1,36.5,27.7,70.1,61.5,74.9
						c33.8,4.8,61.3-21.1,61.3-57.6C260.4,125,232.8,91.4,199,86.7"/>
				</g>
				<g>
					<path class="st4" d="M281.3,107.7c-1.7-3.1-3.5-6.1-5.5-9c-1.5-2.2-3-4.3-4.6-6.4c-2.1-2.8-4.3-5.5-6.6-8.1
						c-1.2-1.3-2.3-2.6-3.6-3.8c-16.9-17.4-38.6-29.5-62.2-32.8c-3.4-0.5-6.7-0.8-10-0.9c-1.6-0.1-3.3-0.1-4.9,0
						c-0.8,0-1.6,0.1-2.4,0.1c-3.2,0.2-6.4,0.5-9.4,1c-1.5,0.3-3.1,0.6-4.6,0.9c-1.5,0.3-3,0.7-4.5,1.1c-1.5,0.4-2.9,0.9-4.4,1.4
						c-7.9,2.8-15.3,6.7-21.9,11.7c-0.6,0.5-1.2,0.9-1.8,1.4c-8.9,7-16.3,16-21.9,26.4c-0.4,0.7-0.7,1.4-1.1,2.1
						c-2.5,5-4.6,10.2-6.3,15.8c-0.2,0.8-0.5,1.6-0.7,2.4c-0.4,1.6-0.8,3.2-1.2,4.9c-1.6,7.4-2.5,15.3-2.5,23.4
						c0,4.5,0.3,9.1,0.8,13.5c0.4,3.6,1,7.1,1.7,10.6c0.2,0.9,0.4,1.7,0.6,2.6c1.4,6.1,3.3,12,5.6,17.8c1.3,3.3,2.8,6.5,4.3,9.7
						c0.8,1.6,1.6,3.1,2.5,4.7c4.7,8.5,10.3,16.4,16.7,23.6c17.4,19.5,40.5,33.1,65.7,36.7c12.4,1.7,24.3,0.9,35.2-2.1
						c0.4-0.1,0.8-0.2,1.3-0.4c1-0.3,2-0.6,3-0.9c0.4-0.1,0.9-0.3,1.3-0.4c1-0.4,2.1-0.8,3.1-1.2c0.5-0.2,1-0.4,1.5-0.6
						c4.3-1.8,8.4-4,12.3-6.6c2.7-1.7,5.2-3.6,7.7-5.7c0.2-0.2,0.4-0.3,0.5-0.5c1-0.9,2-1.8,3-2.7c0.1-0.1,0.1-0.1,0.2-0.2
						c1.1-1,2.1-2.1,3.2-3.2c2.6-2.8,5.1-5.7,7.3-8.8c2.7-3.8,5.2-7.8,7.3-12c2.2-4.2,4-8.7,5.5-13.4c0.5-1.6,1-3.1,1.4-4.7
						c0.2-0.8,0.4-1.6,0.6-2.4c0.4-1.5,0.7-2.9,1-4.4c0.2-1,0.4-2,0.6-3c0.4-2.5,0.8-5.1,1-7.7c0.3-3.5,0.5-7.1,0.5-10.7
						c0-10-1.3-19.9-3.8-29.4c-0.2-0.9-0.5-1.7-0.7-2.6c-0.5-1.7-1-3.4-1.5-5.1c-0.3-0.8-0.6-1.7-0.9-2.5c-0.6-1.7-1.2-3.3-1.9-5
						c-1.3-3.3-2.8-6.5-4.3-9.7C282.9,110.8,282.1,109.2,281.3,107.7z M198.9,63.8c45.5,6.4,82.6,51.6,82.7,100.7
						c0.1,49.1-36.9,83.9-82.4,77.5c-45.5-6.4-82.6-51.6-82.7-100.7C116.4,92.2,153.4,57.4,198.9,63.8"/>
				</g>
				<g>
					<g>
						<path class="st4" d="M195.7,129.3c1.1,0,2.2,0,3.3,0.2c12,1.7,21.7,13.5,21.7,26.4c0,9.3-5,16.6-12.2,19.4
							c-0.6,0.2-1.3,0.4-1.9,0.6c-1.3,0.3-2.7,0.5-4.1,0.6c-1.1,0-2.2,0-3.3-0.2c-1.9-0.3-3.7-0.8-5.4-1.5c-0.7-0.3-1.4-0.6-2-1
							c-0.3-0.2-0.7-0.4-1-0.6c-1.6-1-3.1-2.1-4.5-3.4c-0.3-0.3-0.6-0.5-0.8-0.8c-0.5-0.6-1.1-1.1-1.5-1.7c-0.7-0.9-1.4-1.8-2-2.8
							c-1-1.6-1.9-3.4-2.6-5.3c-0.3-0.7-0.5-1.5-0.7-2.3c-0.2-0.8-0.4-1.5-0.5-2.3c-0.3-1.6-0.4-3.2-0.4-4.8c0-0.8,0-1.6,0.1-2.4
							c0.1-0.8,0.2-1.5,0.3-2.3c0.1-0.4,0.2-0.7,0.2-1.1c0.5-2.2,1.4-4.2,2.4-5.9c0.4-0.6,0.7-1.2,1.2-1.7
							C185,132.1,190,129.5,195.7,129.3z"/>
					</g>
				</g>
				
					<linearGradient id="SVGID_2_" gradientUnits="userSpaceOnUse" x1="247.0987" y1="-59.6728" x2="55.1752" y2="251.2538" gradientTransform="matrix(1 0 0 -1 0 293.2383)">
					<stop  offset="0" style="stop-color:#FFFFFF"/>
					<stop  offset="5.721179e-02" style="stop-color:#F4F6F7"/>
					<stop  offset="0.1575" style="stop-color:#D7DEE2"/>
					<stop  offset="0.2804" style="stop-color:#ABB9C3"/>
					<stop  offset="0.6117" style="stop-color:#F0EEF0"/>
					<stop  offset="0.7295" style="stop-color:#ECEBEE"/>
					<stop  offset="0.8362" style="stop-color:#E1E3E7"/>
					<stop  offset="0.9384" style="stop-color:#CFD5DB"/>
					<stop  offset="1" style="stop-color:#C0C9D1"/>
				</linearGradient>
				<path class="st5" d="M243.1,280.3c-18.3,9.9-39.9,14.1-63.2,10.9C114.6,282,61.5,217.4,61.4,146.8
					c-0.1-45.4,21.8-82.2,54.9-100.2l19.4-10.6c-33.1,18-55,54.8-54.9,100.2c0.1,70.5,53.2,135.2,118.6,144.3
					c23.3,3.3,44.9-0.9,63.2-10.9L243.1,280.3z"/>
			</g>
		</g>
	</g>
	<linearGradient id="SVGID_3_" gradientUnits="userSpaceOnUse" x1="227.226" y1="182.5213" x2="260.4639" y2="184.5987">
		<stop  offset="0.4279" style="stop-color:#6D7274"/>
		<stop  offset="0.4349" style="stop-color:#737779"/>
		<stop  offset="0.4875" style="stop-color:#989B9D"/>
		<stop  offset="0.5444" style="stop-color:#B8BABB"/>
		<stop  offset="0.6057" style="stop-color:#D2D3D4"/>
		<stop  offset="0.6729" style="stop-color:#E6E7E7"/>
		<stop  offset="0.7492" style="stop-color:#F4F5F5"/>
		<stop  offset="0.8423" style="stop-color:#FDFDFD"/>
		<stop  offset="1" style="stop-color:#FFFFFF"/>
	</linearGradient>
	<path class="st6" d="M260.6,183.2c0-2.1-10-3.8-22.3-3.8c-12.3,0-22.3,1.7-22.3,3.8c0,2.1,10,3.8,22.3,3.8
		C250.7,187,260.6,185.3,260.6,183.2z"/>
	<linearGradient id="SVGID_4_" gradientUnits="userSpaceOnUse" x1="168.7577" y1="134.1221" x2="201.9955" y2="136.1994">
		<stop  offset="0.4279" style="stop-color:#6D7274"/>
		<stop  offset="0.4349" style="stop-color:#737779"/>
		<stop  offset="0.4875" style="stop-color:#989B9D"/>
		<stop  offset="0.5444" style="stop-color:#B8BABB"/>
		<stop  offset="0.6057" style="stop-color:#D2D3D4"/>
		<stop  offset="0.6729" style="stop-color:#E6E7E7"/>
		<stop  offset="0.7492" style="stop-color:#F4F5F5"/>
		<stop  offset="0.8423" style="stop-color:#FDFDFD"/>
		<stop  offset="1" style="stop-color:#FFFFFF"/>
	</linearGradient>
	<ellipse class="st7" cx="179.9" cy="134.8" rx="22.3" ry="3.8"/>
	<linearGradient id="SVGID_5_" gradientUnits="userSpaceOnUse" x1="194.7447" y1="87.2845" x2="227.9825" y2="89.3619">
		<stop  offset="0.4279" style="stop-color:#6D7274"/>
		<stop  offset="0.4349" style="stop-color:#737779"/>
		<stop  offset="0.4875" style="stop-color:#989B9D"/>
		<stop  offset="0.5444" style="stop-color:#B8BABB"/>
		<stop  offset="0.6057" style="stop-color:#D2D3D4"/>
		<stop  offset="0.6729" style="stop-color:#E6E7E7"/>
		<stop  offset="0.7492" style="stop-color:#F4F5F5"/>
		<stop  offset="0.8423" style="stop-color:#FDFDFD"/>
		<stop  offset="1" style="stop-color:#FFFFFF"/>
	</linearGradient>
	<path class="st8" d="M228.2,88c0-2.1-10-3.8-22.3-3.8c-12.3,0-22.3,1.7-22.3,3.8c0,2.1,10,3.8,22.3,3.8
		C218.2,91.8,228.2,90.1,228.2,88z"/>
	<linearGradient id="SVGID_6_" gradientUnits="userSpaceOnUse" x1="199.5744" y1="248.6915" x2="232.8122" y2="250.7689">
		<stop  offset="0.4279" style="stop-color:#6D7274"/>
		<stop  offset="0.4349" style="stop-color:#737779"/>
		<stop  offset="0.4875" style="stop-color:#989B9D"/>
		<stop  offset="0.5444" style="stop-color:#B8BABB"/>
		<stop  offset="0.6057" style="stop-color:#D2D3D4"/>
		<stop  offset="0.6729" style="stop-color:#E6E7E7"/>
		<stop  offset="0.7492" style="stop-color:#F4F5F5"/>
		<stop  offset="0.8423" style="stop-color:#FDFDFD"/>
		<stop  offset="1" style="stop-color:#FFFFFF"/>
	</linearGradient>
	<path class="st9" d="M233,249.4c0-2.1-10-3.8-22.3-3.8c-12.3,0-22.3,1.7-22.3,3.8c0,2.1,10,3.8,22.3,3.8
		C223,253.2,233,251.5,233,249.4z"/>
	<g>
		<path class="st4" d="M292.1,48.4l6.6-13.6c0.5-1,1.4-1.8,2.4-2.1l18.1-6c3.6-1.2,6.8,2.6,4.9,5.9l-7.2,13l-29.5,9.8L292.1,48.4z"
			/>
		<path class="st4" d="M295.4,58.4l13.4,6.9c1,0.5,2.1,0.6,3.2,0.3l18.1-6c3.6-1.2,3.8-6.2,0.4-7.7L317,45.8l-29.5,9.8L295.4,58.4z"
			/>
		
			<linearGradient id="SVGID_7_" gradientUnits="userSpaceOnUse" x1="-221.094" y1="339.204" x2="-211.8359" y2="339.204" gradientTransform="matrix(-0.3146 -0.9492 0.9492 -0.3146 -140.1444 -31.3749)">
			<stop  offset="0" style="stop-color:#FFFFFF"/>
			<stop  offset="5.721179e-02" style="stop-color:#F4F6F7"/>
			<stop  offset="0.1575" style="stop-color:#D7DEE2"/>
			<stop  offset="0.2804" style="stop-color:#ABB9C3"/>
			<stop  offset="0.6117" style="stop-color:#F0EEF0"/>
			<stop  offset="0.7295" style="stop-color:#ECEBEE"/>
			<stop  offset="0.8362" style="stop-color:#E1E3E7"/>
			<stop  offset="0.9384" style="stop-color:#CFD5DB"/>
			<stop  offset="1" style="stop-color:#C0C9D1"/>
		</linearGradient>
		<path class="st10" d="M182.7,88.6c7.8,0.8,12.9-0.5,12.9-0.5l121-38c0.9-0.3,1-2.3,0.3-4.5c-0.7-2.2-2-3.7-2.9-3.4L193.8,81.1
			C184.8,84.8,182.7,88.6,182.7,88.6z"/>
	</g>
	<g>
		<path class="st11" d="M267,94.4l6.6-13.6c0.5-1,1.4-1.8,2.4-2.1l18.1-6c3.6-1.2,6.8,2.6,4.9,5.9l-7.2,13l-29.5,9.8L267,94.4z"/>
		<path class="st11" d="M270.3,104.3l13.4,6.9c1,0.5,2.1,0.6,3.2,0.3l18.1-6c3.6-1.2,3.8-6.2,0.4-7.7l-13.5-6.1l-29.5,9.8
			L270.3,104.3z"/>
		
			<linearGradient id="SVGID_8_" gradientUnits="userSpaceOnUse" x1="-256.8261" y1="300.9114" x2="-247.5681" y2="300.9114" gradientTransform="matrix(-0.3146 -0.9492 0.9492 -0.3146 -140.1444 -31.3749)">
			<stop  offset="0" style="stop-color:#FFFFFF"/>
			<stop  offset="5.721179e-02" style="stop-color:#F4F6F7"/>
			<stop  offset="0.1575" style="stop-color:#D7DEE2"/>
			<stop  offset="0.2804" style="stop-color:#ABB9C3"/>
			<stop  offset="0.6117" style="stop-color:#F0EEF0"/>
			<stop  offset="0.7295" style="stop-color:#ECEBEE"/>
			<stop  offset="0.8362" style="stop-color:#E1E3E7"/>
			<stop  offset="0.9384" style="stop-color:#CFD5DB"/>
			<stop  offset="1" style="stop-color:#C0C9D1"/>
		</linearGradient>
		<path class="st12" d="M157.6,134.6c7.8,0.8,12.9-0.5,12.9-0.5l121-38c0.9-0.3,1-2.3,0.3-4.5c-0.7-2.2-2-3.7-2.9-3.4l-120.2,38.9
			C159.7,130.8,157.6,134.6,157.6,134.6z"/>
	</g>
	<g>
		<path class="st4" d="M297.7,209.6l6.6-13.6c0.5-1,1.4-1.8,2.4-2.1l18.1-6c3.6-1.2,6.8,2.6,4.9,5.9l-7.2,13l-29.5,9.8L297.7,209.6z
			"/>
		<path class="st4" d="M301,219.5l13.4,6.9c1,0.5,2.1,0.6,3.2,0.3l18.1-6c3.6-1.2,3.8-6.2,0.4-7.7l-13.5-6.1l-29.5,9.8L301,219.5z"
			/>
		
			<linearGradient id="SVGID_9_" gradientUnits="userSpaceOnUse" x1="-375.8456" y1="293.8021" x2="-366.5875" y2="293.8021" gradientTransform="matrix(-0.3146 -0.9492 0.9492 -0.3146 -140.1444 -31.3749)">
			<stop  offset="0" style="stop-color:#FFFFFF"/>
			<stop  offset="5.721179e-02" style="stop-color:#F4F6F7"/>
			<stop  offset="0.1575" style="stop-color:#D7DEE2"/>
			<stop  offset="0.2804" style="stop-color:#ABB9C3"/>
			<stop  offset="0.6117" style="stop-color:#F0EEF0"/>
			<stop  offset="0.7295" style="stop-color:#ECEBEE"/>
			<stop  offset="0.8362" style="stop-color:#E1E3E7"/>
			<stop  offset="0.9384" style="stop-color:#CFD5DB"/>
			<stop  offset="1" style="stop-color:#C0C9D1"/>
		</linearGradient>
		<path class="st13" d="M188.3,249.8c7.8,0.8,12.9-0.5,12.9-0.5l121-38c0.9-0.3,1-2.3,0.3-4.5c-0.7-2.2-2-3.7-2.9-3.4l-120.2,38.9
			C190.4,246,188.3,249.8,188.3,249.8z"/>
	</g>
	<g>
		<path class="st4" d="M325.1,142.2l6.6-13.6c0.5-1,1.4-1.8,2.4-2.1l18.1-6c3.6-1.2,6.8,2.6,4.9,5.9l-7.2,13l-29.5,9.8L325.1,142.2z
			"/>
		<path class="st4" d="M328.4,152.2l13.4,6.9c1,0.5,2.1,0.6,3.2,0.3l18.1-6c3.6-1.2,3.8-6.2,0.4-7.7l-13.5-6.1l-29.5,9.8
			L328.4,152.2z"/>
		
			<linearGradient id="SVGID_10_" gradientUnits="userSpaceOnUse" x1="-320.5031" y1="340.9981" x2="-311.245" y2="340.9981" gradientTransform="matrix(-0.3146 -0.9492 0.9492 -0.3146 -140.1444 -31.3749)">
			<stop  offset="0" style="stop-color:#FFFFFF"/>
			<stop  offset="5.721179e-02" style="stop-color:#F4F6F7"/>
			<stop  offset="0.1575" style="stop-color:#D7DEE2"/>
			<stop  offset="0.2804" style="stop-color:#ABB9C3"/>
			<stop  offset="0.6117" style="stop-color:#F0EEF0"/>
			<stop  offset="0.7295" style="stop-color:#ECEBEE"/>
			<stop  offset="0.8362" style="stop-color:#E1E3E7"/>
			<stop  offset="0.9384" style="stop-color:#CFD5DB"/>
			<stop  offset="1" style="stop-color:#C0C9D1"/>
		</linearGradient>
		<path class="st14" d="M215.7,182.4c7.8,0.8,12.9-0.5,12.9-0.5l121-38c0.9-0.3,1-2.3,0.3-4.5c-0.7-2.2-2-3.7-2.9-3.4l-120.2,38.9
			C217.8,178.6,215.7,182.4,215.7,182.4z"/>
	</g>
</g>
</svg>
