<svg id="Layer_1" data-name="Layer 1" xmlns="http://www.w3.org/2000/svg" viewBox="0 0 143.58 84.29"><defs><style>.cls-1{fill:none;}</style></defs><title>logo-lions</title><path d="M54.2,67.13V24.46h6V61.11h11.4v6ZM65.6,56.19V24.46h6V56.19Z" transform="translate(-4.06 -6)"/><path d="M84.83,67.33a6.6,6.6,0,0,1-3.44-.88,8,8,0,0,1-2.48-2.26,10.59,10.59,0,0,1-1.54-3.08,11.42,11.42,0,0,1-.52-3.37V33.84a11.1,11.1,0,0,1,.65-3.79A8.85,8.85,0,0,1,79.36,27a9,9,0,0,1,2.86-2,8.79,8.79,0,0,1,3.67-.76h2.35a7.93,7.93,0,0,1,3.62.81,8.55,8.55,0,0,1,2.74,2.13,9.11,9.11,0,0,1,1.7,3.09,11.37,11.37,0,0,1,.58,3.61v23.9a11.31,11.31,0,0,1-.55,3.49,9.88,9.88,0,0,1-1.61,3.09,8.38,8.38,0,0,1-2.53,2.18,6.57,6.57,0,0,1-3.29.83Zm6-9.63V33.84a4.4,4.4,0,0,0-.68-2.48A2.61,2.61,0,0,0,88,30.23H85.63a2.55,2.55,0,0,0-2.15,1.23,4.71,4.71,0,0,0-.61,2.38V57.7a4.2,4.2,0,0,0,.76,2.58,2.66,2.66,0,0,0,2.31,1h1.85a2.63,2.63,0,0,0,2.34-1.08A4.45,4.45,0,0,0,90.86,57.7Z" transform="translate(-4.06 -6)"/><path d="M117.11,67.13l-9-25.55V67.13h-6V24.46h6l9,25.55V24.46h6V67.13Z" transform="translate(-4.06 -6)"/><path d="M141.62,52.13,129.57,43a2.85,2.85,0,0,1-1.21-2.41V33.83a11,11,0,0,1,.65-3.78,8.82,8.82,0,0,1,8.39-5.85H139a8,8,0,0,1,3.67.81,8.22,8.22,0,0,1,2.71,2.13,9.25,9.25,0,0,1,1.68,3.09,11.37,11.37,0,0,1,.58,3.61v4h-6v-4a4.43,4.43,0,0,0-.68-2.48,2.61,2.61,0,0,0-2.14-1.13h-1.65a2.45,2.45,0,0,0-1.33.33,2.6,2.6,0,0,0-.86.82,3.13,3.13,0,0,0-.45,1.16,7.15,7.15,0,0,0-.12,1.3v5.23l12.05,9.18a3,3,0,0,1,1.2,2.41v7.08a11.14,11.14,0,0,1-.55,3.47,9.57,9.57,0,0,1-1.61,3A8.86,8.86,0,0,1,143,66.43a6.84,6.84,0,0,1-3.29.9h-3.32a6.6,6.6,0,0,1-3.44-.88,8.66,8.66,0,0,1-2.51-2.28,10,10,0,0,1-1.53-3.11,12.07,12.07,0,0,1-.5-3.37v-4h6v4a4.29,4.29,0,0,0,.75,2.59,2.68,2.68,0,0,0,2.31,1h1.1a2.63,2.63,0,0,0,2.34-1.08,4.45,4.45,0,0,0,.73-2.53Z" transform="translate(-4.06 -6)"/><path class="cls-1" d="M27.57,16.91l.16.12c-.35.67-.74,1.32-1,2a1.92,1.92,0,0,1-1.88,1.45,8.47,8.47,0,0,0-2.09.66A13.09,13.09,0,0,1,27.57,16.91Zm3.86,12.23c.07.05.11.16.22.33l-1.54-.41c-.63-.16-1.24-.36-1.87-.46a1.83,1.83,0,0,0-.85.24c-.1.05-.17.2-.24.32-1,1.66-2.2,1.93-3.9.9l-.4-.25a18.51,18.51,0,0,1-5,2.78l-.16-.16c.57-.65,1.1-1.34,1.72-1.94A18,18,0,0,1,21.31,29c.28-.22.47-.4.27-.81a3.19,3.19,0,0,1-.09-1l.5.58a1.42,1.42,0,0,0,1.93.35,11.41,11.41,0,0,0,1.61-1.14,1.7,1.7,0,0,1,2.24-.27C29,27.46,30.21,28.31,31.43,29.14Z" transform="translate(-4.06 -6)"/><path d="M51.46,67.44l-.76.8c-2.1,2.34-8.62,9.81-9.31,13a5.6,5.6,0,0,0,.37,4.17,1.59,1.59,0,0,1,.13.51l-.14.1c-.72-.42-1.48-.8-2.18-1.26-1-.63-1.92-1.27-2.8-2a18.59,18.59,0,0,1-6.88-10.55,13.82,13.82,0,0,1,.55-7.9A19.55,19.55,0,0,1,36,56.41a3.83,3.83,0,0,1,.39-.25c0,.65,0,1.22,0,1.78.07,1.24.91,2.05,1.88,1.77A6.21,6.21,0,0,0,40,59c5.28-3.43,8.77-8.1,9.78-14.42A11.21,11.21,0,0,0,48.69,37c-1.13-2-2.48-3.82-3.74-5.71-.48-.72-1-1.4-1.5-2.1a17.85,17.85,0,0,1,9.43,6.94,11.27,11.27,0,0,0-.21-2A12.78,12.78,0,0,0,49,26.87a.76.76,0,0,1-.19-1.06c.45-.84.85-1.71,1.35-2.52a7.76,7.76,0,0,1,3.11-3.16,10.23,10.23,0,0,1,1.65-.48l-.56-.45a16.78,16.78,0,0,0-8.52-3.27,22.91,22.91,0,0,0-3.1,0,9.67,9.67,0,0,0-2.14.34l-9.17,4.15c.32,0,.45,0,.59,0a2.44,2.44,0,0,1,2.17.94c.93,1.06,1.91,2.13,3.59,1.89l-1.51,3.48a5.55,5.55,0,0,0,4.28-1.92c-.06.61-.2,1.16-.28,1.72a9.9,9.9,0,0,0,1.88,7.13c1.18,1.66,2.4,3.31,3.47,5a12.33,12.33,0,0,1,1.64,8.12A9.11,9.11,0,0,1,46.66,49a10.42,10.42,0,0,1-2.78,3.92c-.91.88-1.82,1.78-2.82,2.76a2.34,2.34,0,0,1,.1-.38c.69-1.94,1.4-3.88,2.08-5.83a2.66,2.66,0,0,0,0-1.94c-.23.25-.36.42-.51.57a33.89,33.89,0,0,1-3.25,3.31c-1.47,1.17-3.14,2.09-4.7,3.15a17.91,17.91,0,0,0-5.38,5.27,26.77,26.77,0,0,0-2.95,6.6c-.18.62-.38,1.24-.57,1.86h-.2c-.19-1.15-.43-2.29-.56-3.45a13.11,13.11,0,0,1,1.62-8.08A19.15,19.15,0,0,1,31.9,51a27.19,27.19,0,0,0,5-4.48,11.33,11.33,0,0,0,2.3-4.16,11,11,0,0,0-.12-4.77,13.74,13.74,0,0,0-.55-1.81c-.17.64-.3,1.11-.43,1.59A25.17,25.17,0,0,1,35.58,44a8.58,8.58,0,0,1-6.32,4.17,7,7,0,0,1-.8,0c.23-.18.33-.25.43-.34.68-.55,1.38-1.07,2-1.67a2.27,2.27,0,0,0,.92-1.7A5.69,5.69,0,0,1,32.34,42c.2-.49.47-1.1-.09-1.51a8.38,8.38,0,0,0-1.48-.66,3.4,3.4,0,0,1-3,2.6c-.75.1-1.51.23-2.26.31s-1.77.16-2.74.25a2.24,2.24,0,0,0,.2.21c.59.26,1.21.46,1.77.76,1.82,1,2.19,2.52,1,4a3.91,3.91,0,0,1-3.16,1.27,13.29,13.29,0,0,1-6-1.59c-1.36-.68-2.66-1.46-4-2.1a10,10,0,0,0-3.6-.89l.44,1.83-1-.07c.13-.74-1-2.32-.57-4.41.44.31.73.54,1,.75a.92.92,0,0,0,1.46-.2,6.3,6.3,0,0,0,.57-.88,2.6,2.6,0,0,1,2.8-1.47,1.14,1.14,0,0,0,.8-.33,2,2,0,0,0,.37-1.72c-.81.27-1.58.57-2.37.78a5.56,5.56,0,0,1-3.4,0,5.81,5.81,0,0,0-1.77-.29,11.44,11.44,0,0,0-1.58.13c.07-.31.1-.57.18-.82a6.61,6.61,0,0,1,2-2.8,39.37,39.37,0,0,1,7-5.26A10.22,10.22,0,0,1,19,28a2.41,2.41,0,0,0,.65-.34c-.38-.41-.68-.79-1-1.12-.94-.88-.76-1.44,0-2.36a2.1,2.1,0,0,1,.57-.58,2.44,2.44,0,0,0,1.28-2.68,1,1,0,0,1,0-.24,10.3,10.3,0,0,1,2.82-6.46,18.86,18.86,0,0,1,5.9-3.79c.82-.37,1.67-.69,2.5-1a.68.68,0,0,1-.14.47,8.27,8.27,0,0,0-1.74,4.09c-.07,1.19.08,1.31,1.19,1.06a1.36,1.36,0,0,0,.35-.07c2.83-1.19,5.67-2.37,8.5-3.59a31.65,31.65,0,0,1,7.37-2.41,16.47,16.47,0,0,1,9.49,1.35A30.85,30.85,0,0,1,62.86,14a32.39,32.39,0,0,1,5.28,4.77h-.08s.92,1.14,2,2.65h2.21c-.21-.39-.43-.77-.65-1.12l0,0-.45-.61a3.89,3.89,0,0,0-.28-.39h0c-.63-.86-1.24-1.72-1.94-2.52A32.2,32.2,0,0,0,51.73,6.45a13,13,0,0,0-7.35.16,43.67,43.67,0,0,0-8.48,4c-1,.57-1.91,1.16-2.87,1.74l-.14-.15c1-2.85,3.47-4.2,5.82-5.82l-.46,0a19.13,19.13,0,0,0-6.06.93,38.56,38.56,0,0,0-9.66,4.48,6.66,6.66,0,0,0-3.26,4.55c-.11.59-.2,1.18-.31,1.87a10.41,10.41,0,0,0-2.86-3,6.9,6.9,0,0,0,.19.71A18.52,18.52,0,0,1,17.45,22a1.26,1.26,0,0,1-.15.66,9.23,9.23,0,0,0-1,3.35,1.25,1.25,0,0,1-.64,1c-1.48.93-3,1.85-4.43,2.82a17.85,17.85,0,0,0-6.86,7.76A2.3,2.3,0,0,0,6,41c.6.15.64.39.56.9a9.13,9.13,0,0,0-.2,2.14c0,.81.18,1.67,1.15,2,.08,0,.14.13.17.21.19.51.39,1,.55,1.54a1.52,1.52,0,0,1,.07.73c-.11.51-.33,1-.43,1.51A27.46,27.46,0,0,0,7.3,53.4a3,3,0,0,0,.44,1.77,9.19,9.19,0,0,0,2,2.12c1.34,1,2.8,1.89,4.19,2.86a3.67,3.67,0,0,1,2,3.06,7.44,7.44,0,0,0,.22,1.39,22.27,22.27,0,0,0,3,7.49A28.68,28.68,0,0,0,30,82c.52.28,1,.53,1.64.83L31,80l.19-.07a27.85,27.85,0,0,0,6.58,6.05,46.61,46.61,0,0,0,8,4.36c-.29-.62-.52-1.11-.73-1.61a11.27,11.27,0,0,1-1-5.18,9,9,0,0,1,1.79-4.82c1.15-1.53,7-8,8.24-9.46l-1.36-.93Zm-7-47.79a13.1,13.1,0,0,0-2.77.38c-.86.18-1.69.47-2.54.69a.56.56,0,0,1-.46-.08c-.47-.39-.9-.82-1.42-1.31a12.66,12.66,0,0,1,4.21-1.49A17,17,0,0,1,45,17.51a7.32,7.32,0,0,1,2.39.64,1.64,1.64,0,0,1,.93,1.52,8.71,8.71,0,0,1-.81,4.16c-.5,1.16-1.13,2.26-1.72,3.39a2.11,2.11,0,0,1-.33.38L42.8,25.08c.46-.62,1-1.25,1.4-1.93A11.46,11.46,0,0,0,45.36,21C45.7,20.1,45.58,19.65,44.46,19.65ZM12.72,56.32c-.5-.87-1-1.72-1.52-2.58l-.12,0c.18,1,.36,2,.54,3A3.71,3.71,0,0,1,9.2,52.64c.25-1.13.59-2.23.85-3.35.22-.9.38-1.82.58-2.85,1.13.46,2.25.87,3.31,1.37a15,15,0,0,1,5.18,3.88,3,3,0,0,1,.58,2.8,1.57,1.57,0,0,1-1,1.06c-1.13.5-1.3.89-.91,2.06.26.77.54,1.53.86,2.45-.76-.16-1.44-.33-2.13-.46C14.6,59.25,13.6,57.86,12.72,56.32ZM27.9,77.74a20,20,0,0,1-7.29-6.48A13.35,13.35,0,0,1,18.44,66a8.57,8.57,0,0,1,1.07-4.9A24.87,24.87,0,0,1,23.8,55a2,2,0,0,1,.33-.22C21,63.31,22,71,28.24,77.76,28.09,77.75,28,77.78,27.9,77.74Z" transform="translate(-4.06 -6)"/><path d="M25.53,26.93a11.41,11.41,0,0,1-1.61,1.14A1.42,1.42,0,0,1,22,27.72l-.5-.58a3.19,3.19,0,0,0,.09,1c.2.41,0,.59-.27.81a18,18,0,0,0-1.86,1.51c-.62.6-1.15,1.29-1.72,1.94l.16.16a18.51,18.51,0,0,0,5-2.78l.4.25c1.7,1,2.88.76,3.9-.9.07-.12.14-.27.24-.32a1.83,1.83,0,0,1,.85-.24c.63.1,1.24.3,1.87.46l1.54.41c-.11-.17-.15-.28-.22-.33-1.22-.83-2.42-1.68-3.66-2.48A1.7,1.7,0,0,0,25.53,26.93Z" transform="translate(-4.06 -6)"/><path d="M26.7,19c.29-.69.68-1.34,1-2l-.16-.12a13.09,13.09,0,0,0-4.84,4.24,8.47,8.47,0,0,1,2.09-.66A1.92,1.92,0,0,0,26.7,19Z" transform="translate(-4.06 -6)"/></svg>