<?xml version="1.0" encoding="utf-8"?>
<!-- Generator: Adobe Illustrator 22.0.0, SVG Export Plug-In . SVG Version: 6.00 Build 0)  -->
<svg version="1.1" id="Layer_1" xmlns="http://www.w3.org/2000/svg" xmlns:xlink="http://www.w3.org/1999/xlink" x="0px" y="0px"
	 viewBox="0 0 152.1 63.8" style="enable-background:new 0 0 152.1 63.8;" xml:space="preserve">
<style type="text/css">
	.st0{fill:#F9C410;}
	.st1{fill:none;stroke:#F9C410;stroke-width:0.5;stroke-miterlimit:10;}
	.st2{fill:#FFFFFF;}
</style>
<g>
	<g>
		<path class="st0" d="M2,46V20.5h5.9c0.9,0,1.7,0.2,2.4,0.5c0.7,0.3,1.2,0.7,1.7,1.3c0.5,0.5,0.8,1.1,1,1.8
			c0.2,0.7,0.3,1.4,0.3,2.2v5.3c0,0.5-0.2,0.9-0.5,1.2l-7.2,6.9V46H2z M9.6,30.9v-4.7c0-0.6-0.1-1.1-0.4-1.5
			c-0.3-0.4-0.7-0.6-1.4-0.6H5.6v10.7L9.6,30.9z"/>
		<path class="st0" d="M24,46l-0.8-5h-4.9l-0.8,5h-3.6l4.1-25.5h5.5L27.5,46H24z M18.8,37.4h3.8l-1.9-12.3L18.8,37.4z"/>
		<path class="st0" d="M33.4,20.5v19.9c0,0.6,0.1,1.1,0.4,1.5c0.3,0.4,0.8,0.6,1.4,0.6h1.1c0.6,0,1.1-0.2,1.4-0.6
			c0.3-0.4,0.4-0.9,0.4-1.5V20.5h3.6v19.9c0,0.7-0.1,1.5-0.3,2.1c-0.2,0.7-0.6,1.3-1,1.8c-0.4,0.5-0.9,1-1.5,1.3
			c-0.6,0.3-1.2,0.5-2,0.5h-2.4c-0.8,0-1.4-0.2-2-0.5c-0.6-0.3-1.1-0.8-1.5-1.3c-0.4-0.5-0.7-1.1-0.9-1.8s-0.3-1.4-0.3-2.1V20.5
			H33.4z"/>
		<path class="st0" d="M44.9,46V20.5h3.6v21.9h4.6V46H44.9z"/>
		<path class="st0" d="M59.6,46.1c-0.8,0-1.5-0.2-2.1-0.5c-0.6-0.3-1.1-0.8-1.5-1.3c-0.4-0.5-0.7-1.2-0.9-1.8
			c-0.2-0.7-0.3-1.3-0.3-2V26.1c0-0.8,0.1-1.6,0.4-2.3c0.3-0.7,0.6-1.3,1.1-1.8c0.5-0.5,1-0.9,1.7-1.2c0.7-0.3,1.4-0.4,2.2-0.4h1.4
			c0.8,0,1.5,0.2,2.2,0.5c0.6,0.3,1.2,0.7,1.6,1.3c0.5,0.5,0.8,1.1,1,1.8c0.2,0.7,0.3,1.4,0.3,2.2v14.3c0,0.7-0.1,1.4-0.3,2.1
			c-0.2,0.7-0.5,1.3-1,1.8c-0.4,0.5-0.9,1-1.5,1.3c-0.6,0.3-1.2,0.5-2,0.5H59.6z M63.2,40.3V26.1c0-0.6-0.1-1.1-0.4-1.5
			c-0.3-0.4-0.7-0.6-1.3-0.7H60c-0.6,0.1-1.1,0.3-1.3,0.7c-0.2,0.4-0.4,0.9-0.4,1.4v14.3c0,0.6,0.1,1.1,0.4,1.5
			c0.3,0.4,0.8,0.6,1.4,0.6h1.1c0.6,0,1.1-0.2,1.4-0.6C63,41.4,63.2,40.9,63.2,40.3z"/>
		<path class="st1" d="M82.5,41c0,0.8-0.1,1.5-0.4,2.1c-0.3,0.6-0.6,1.1-1.1,1.6c-0.5,0.4-1,0.8-1.6,1c-0.6,0.2-1.3,0.3-1.9,0.3
			h-2.5v-3.6h2.5c0.4,0,0.7-0.1,1-0.4s0.4-0.6,0.4-1V20.5h3.6V41z"/>
		<path class="st1" d="M89.3,20.4v19.9c0,0.6,0.1,1.1,0.4,1.5c0.3,0.4,0.8,0.6,1.4,0.6h1.1c0.6,0,1.1-0.2,1.4-0.6
			c0.3-0.4,0.4-0.9,0.4-1.5V20.4h3.6v19.9c0,0.7-0.1,1.5-0.3,2.1c-0.2,0.7-0.6,1.3-1,1.8c-0.4,0.5-0.9,1-1.5,1.3
			c-0.6,0.3-1.2,0.5-2,0.5h-2.4c-0.8,0-1.4-0.2-2-0.5c-0.6-0.3-1.1-0.8-1.5-1.3c-0.4-0.5-0.7-1.2-0.9-1.8c-0.2-0.7-0.3-1.4-0.3-2.1
			V20.4H89.3z M98.1,14.7l-5.8,4.2h-3l4.2-4.2H98.1z"/>
		<path class="st1" d="M109.7,46l-5.4-15.3V46h-3.6V20.5h3.6l5.4,15.3V20.5h3.6V46H109.7z"/>
		<path class="st1" d="M116.4,46V20.5h3.6V46H116.4z"/>
		<path class="st1" d="M127.9,46.1c-0.8,0-1.5-0.2-2.1-0.5c-0.6-0.3-1.1-0.8-1.5-1.3c-0.4-0.5-0.7-1.2-0.9-1.8
			c-0.2-0.7-0.3-1.3-0.3-2V26.1c0-0.8,0.1-1.6,0.4-2.3c0.3-0.7,0.6-1.3,1.1-1.8c0.5-0.5,1-0.9,1.7-1.2c0.7-0.3,1.4-0.4,2.2-0.4h1.4
			c0.8,0,1.5,0.2,2.2,0.5c0.6,0.3,1.2,0.7,1.6,1.3c0.5,0.5,0.8,1.1,1,1.8s0.3,1.4,0.3,2.2v14.3c0,0.7-0.1,1.4-0.3,2.1
			c-0.2,0.7-0.5,1.3-1,1.8c-0.4,0.5-0.9,1-1.5,1.3s-1.2,0.5-2,0.5H127.9z M131.5,40.3V26.1c0-0.6-0.1-1.1-0.4-1.5
			c-0.3-0.4-0.7-0.6-1.3-0.7h-1.4c-0.6,0.1-1,0.3-1.3,0.7s-0.4,0.9-0.4,1.4v14.3c0,0.6,0.1,1.1,0.4,1.5c0.3,0.4,0.8,0.6,1.4,0.6h1.1
			c0.6,0,1.1-0.2,1.4-0.6C131.4,41.4,131.5,40.9,131.5,40.3z"/>
		<path class="st1" d="M146.6,46l-2.3-8.7h-0.2h-2.3V46h-3.6V20.5h5.9c0.8,0,1.6,0.2,2.3,0.5c0.7,0.3,1.2,0.7,1.7,1.3
			c0.5,0.5,0.8,1.1,1.1,1.8c0.3,0.7,0.4,1.4,0.4,2.2v5.3c0,0.9-0.2,1.7-0.5,2.5c-0.3,0.8-0.8,1.4-1.4,2l2.6,10H146.6z M145.9,31.5
			v-5.3c0-0.6-0.1-1.1-0.4-1.5c-0.3-0.4-0.8-0.6-1.4-0.6h-2.3v9.6h2.3c0.6,0,1.1-0.2,1.4-0.6C145.8,32.6,145.9,32.1,145.9,31.5z"/>
	</g>
</g>
<g>
	<g>
		<path class="st2" d="M16.1,62.1v-9h2.1c1.1,0,1.7,0.6,1.7,1.7v6c0,0.9-0.5,1.3-1.4,1.3H16.1z M17.3,61h0.9c0.3,0,0.5-0.1,0.5-0.4
			v-5.8c0-0.4-0.2-0.7-0.5-0.7h-0.8V61z"/>
		<path class="st2" d="M21,62.1v-9h3v1.1h-1.8v2.7h1.6V58h-1.6v3H24v1.1H21z"/>
		<path class="st2" d="M27.1,55.5v-0.8c0-0.4-0.2-0.5-0.5-0.5h-0.2c-0.3,0-0.5,0.2-0.5,0.5v1.5c0,0.2,0,0.3,0.1,0.3
			c0.1,0.1,0.2,0.1,0.3,0.2l1.1,0.6c0.3,0.1,0.4,0.3,0.5,0.3s0.2,0.2,0.2,0.3c0.1,0.1,0.1,0.3,0.1,0.6v1.9c0,1-0.5,1.5-1.5,1.5h-0.7
			c-1,0-1.4-0.6-1.4-1.7V60h1.2v0.5c0,0.4,0.2,0.5,0.5,0.5h0.2c0.3,0,0.5-0.2,0.5-0.5v-1.5c0-0.2,0-0.3-0.1-0.3
			c-0.1-0.1-0.2-0.1-0.3-0.2l-1.1-0.6c-0.3-0.1-0.4-0.2-0.5-0.3c-0.1-0.1-0.2-0.2-0.2-0.4c0-0.1-0.1-0.3-0.1-0.6v-1.8
			c0-1,0.5-1.5,1.4-1.5h0.8c1,0,1.4,0.5,1.4,1.5v0.9H27.1z"/>
		<path class="st2" d="M29.3,62.1v-9h1.2v9H29.3z"/>
		<path class="st2" d="M33.5,58.8v-1.1h1.8v4.4H33c-0.9,0-1.4-0.5-1.4-1.5v-5.9c0-1,0.5-1.5,1.4-1.5h0.8c1,0,1.5,0.5,1.5,1.6v1h-1.2
			v-0.8c0-0.4-0.2-0.7-0.5-0.7h-0.3c-0.4,0-0.5,0.2-0.5,0.7v5.5c0,0.4,0.2,0.7,0.5,0.7h0.8v-2.2H33.5z"/>
		<path class="st2" d="M38.8,57.4v-4.3H40v9h-1.2v-1.8l-1.3-4.1v5.9h-1.2v-9h1.2L38.8,57.4z"/>
		<path class="st2" d="M41.2,62.1v-9h3v1.1h-1.8v2.7h1.6V58h-1.6v3h1.8v1.1H41.2z"/>
		<path class="st2" d="M45,53.1h2.4c0.9,0,1.4,0.5,1.4,1.5v2.2c0,0.8-0.2,1.3-0.7,1.5l0.8,3.7h-1.1l-0.8-3.6h-0.7v3.6H45V53.1z
			 M46.2,57.4H47c0.4,0,0.5-0.2,0.5-0.7v-1.9c0-0.4-0.2-0.7-0.5-0.7h-0.8V57.4z"/>
		<path class="st2" d="M51.7,62.1v-9h3v1.1H53v2.7h1.6V58H53v3h1.8v1.1H51.7z"/>
		<path class="st2" d="M60.4,56.9V58h-1.6v4.1h-1.2v-9h3v1.1h-1.8v2.7H60.4z"/>
		<path class="st2" d="M61.4,53.1h2.4c0.9,0,1.4,0.5,1.4,1.5v2.2c0,0.8-0.2,1.3-0.7,1.5l0.8,3.7h-1.1l-0.8-3.6h-0.7v3.6h-1.2V53.1z
			 M62.6,57.4h0.8c0.4,0,0.5-0.2,0.5-0.7v-1.9c0-0.4-0.2-0.7-0.5-0.7h-0.8V57.4z"/>
		<path class="st2" d="M67.5,62.1c-1,0-1.5-0.5-1.5-1.5v-5.9c0-1,0.5-1.5,1.4-1.5h1.2c1,0,1.4,0.5,1.4,1.5v5.9c0,1-0.5,1.5-1.5,1.5
			H67.5z M67.8,61h0.6c0.3,0,0.5-0.2,0.5-0.5v-5.8c0-0.4-0.2-0.5-0.5-0.5h-0.6c-0.4,0-0.5,0.2-0.5,0.5v5.8
			C67.3,60.8,67.5,61,67.8,61z"/>
		<path class="st2" d="M73.7,57.4v-4.3h1.2v9h-1.2v-1.8l-1.3-4.1v5.9h-1.2v-9h1.2L73.7,57.4z"/>
		<path class="st2" d="M77.9,54.2v7.9h-1.2v-7.9h-1.2v-1.1h3.5v1.1H77.9z"/>
		<path class="st2" d="M78.7,58.5v-1h2.8v1H78.7z"/>
		<path class="st2" d="M82.2,62.1v-9h3v1.1h-1.8v2.7H85V58h-1.6v3h1.8v1.1H82.2z"/>
		<path class="st2" d="M88.5,57.4v-4.3h1.2v9h-1.2v-1.8l-1.3-4.1v5.9H86v-9h1.2L88.5,57.4z"/>
		<path class="st2" d="M90.9,62.1v-9H93c1.1,0,1.7,0.6,1.7,1.7v6c0,0.9-0.5,1.3-1.4,1.3H90.9z M92.1,61H93c0.3,0,0.5-0.1,0.5-0.4
			v-5.8c0-0.4-0.2-0.7-0.5-0.7h-0.8V61z"/>
		<path class="st2" d="M97.7,62.1v-9h2.1c1.1,0,1.7,0.6,1.7,1.7v6c0,0.9-0.5,1.3-1.4,1.3H97.7z M98.9,61h0.9c0.3,0,0.5-0.1,0.5-0.4
			v-5.8c0-0.4-0.2-0.7-0.5-0.7h-0.8V61z"/>
		<path class="st2" d="M102.6,62.1v-9h3v1.1h-1.8v2.7h1.6V58h-1.6v3h1.8v1.1H102.6z"/>
		<path class="st2" d="M110.3,53.1l-1.5,9h-1.4l-1.5-9h1.2l1,6.9l1-6.9H110.3z"/>
		<path class="st2" d="M110.9,62.1v-9h3v1.1h-1.8v2.7h1.6V58h-1.6v3h1.8v1.1H110.9z"/>
		<path class="st2" d="M117.6,62.1h-2.9v-9h1.2V61h1.7V62.1z"/>
		<path class="st2" d="M119.7,62.1c-1,0-1.5-0.5-1.5-1.5v-5.9c0-1,0.5-1.5,1.4-1.5h1.2c1,0,1.4,0.5,1.4,1.5v5.9c0,1-0.5,1.5-1.5,1.5
			H119.7z M119.9,61h0.6c0.3,0,0.5-0.2,0.5-0.5v-5.8c0-0.4-0.2-0.5-0.5-0.5h-0.6c-0.4,0-0.5,0.2-0.5,0.5v5.8
			C119.4,60.8,119.6,61,119.9,61z"/>
		<path class="st2" d="M123.3,53.1h2.2c1,0,1.5,0.5,1.5,1.5v2.7c0,1-0.5,1.5-1.4,1.5h-1v3.3h-1.2V53.1z M124.5,57.7h0.8
			c0.3,0,0.5-0.2,0.5-0.5v-2.5c0-0.4-0.2-0.5-0.5-0.5h-0.7V57.7z"/>
		<path class="st2" d="M127.9,62.1v-9h3v1.1h-1.8v2.7h1.6V58h-1.6v3h1.8v1.1H127.9z"/>
		<path class="st2" d="M131.7,53.1h2.4c0.9,0,1.4,0.5,1.4,1.5v2.2c0,0.8-0.2,1.3-0.7,1.5l0.8,3.7h-1.1l-0.8-3.6H133v3.6h-1.2V53.1z
			 M133,57.4h0.8c0.4,0,0.5-0.2,0.5-0.7v-1.9c0-0.4-0.2-0.7-0.5-0.7H133V57.4z"/>
	</g>
</g>
<g>
	<path class="st2" d="M35.6,11.6c-0.9,0-1.4-0.5-1.4-1.5V4.5c0-1,0.5-1.5,1.4-1.5h1.1c0.9,0,1.4,0.5,1.4,1.5v5.7
		c0,1-0.5,1.5-1.4,1.5H35.6z M35.9,10.6h0.6c0.3,0,0.5-0.2,0.5-0.5V4.5c0-0.3-0.2-0.5-0.5-0.5h-0.5c-0.3,0-0.5,0.2-0.5,0.5v5.5
		C35.4,10.4,35.5,10.6,35.9,10.6z"/>
	<path class="st2" d="M41.8,11.6h-2.7V3h1.2v7.6h1.6V11.6z"/>
	<path class="st2" d="M43.6,11.6h-1.2V4.5c0-1,0.5-1.5,1.4-1.5h0.9c0.9,0,1.4,0.5,1.4,1.5v7.1h-1.2V8.5h-1.3V11.6z M44.3,2.3h-0.8
		l0.6-1.4h1.1L44.3,2.3z M44.9,7.4V4.5c0-0.3-0.2-0.5-0.5-0.5h-0.3c-0.3,0-0.5,0.2-0.5,0.5v2.9H44.9z"/>
	<path class="st2" d="M52.4,9.6v0.6c0,1-0.5,1.5-1.4,1.5h-0.7c-0.9,0-1.4-0.5-1.4-1.5V4.5c0-1,0.5-1.5,1.4-1.5h0.7
		c0.9,0,1.4,0.5,1.4,1.5v1h-1.2V4.5c0-0.3-0.2-0.5-0.5-0.5h-0.2c-0.3,0-0.5,0.2-0.5,0.5v5.5c0,0.3,0.2,0.5,0.5,0.5h0.3
		c0.3,0,0.5-0.2,0.5-0.5V9.6H52.4z"/>
	<path class="st2" d="M54.7,11.6c-0.9,0-1.4-0.5-1.4-1.5V4.5c0-1,0.5-1.5,1.4-1.5h1.1c0.9,0,1.4,0.5,1.4,1.5v5.7
		c0,1-0.5,1.5-1.4,1.5H54.7z M55,10.6h0.6c0.3,0,0.5-0.2,0.5-0.5V4.5C56,4.2,55.8,4,55.5,4h-0.5c-0.3,0-0.5,0.2-0.5,0.5v5.5
		C54.4,10.4,54.6,10.6,55,10.6z"/>
	<path class="st2" d="M60.5,8.1L61.6,3h1.3v8.6h-1.2L61.8,6L61,10.1h-0.9L59.2,6l0.1,5.6h-1.2V3h1.3L60.5,8.1z"/>
	<path class="st2" d="M65.3,11.6c-0.9,0-1.4-0.5-1.4-1.5V4.5c0-1,0.5-1.5,1.4-1.5h1.1c0.9,0,1.4,0.5,1.4,1.5v5.7
		c0,1-0.5,1.5-1.4,1.5H65.3z M65.5,10.6h0.6c0.3,0,0.5-0.2,0.5-0.5V4.5c0-0.3-0.2-0.5-0.5-0.5h-0.5C65.2,4,65,4.2,65,4.5v5.5
		C65,10.4,65.2,10.6,65.5,10.6z"/>
	<path class="st2" d="M74.4,3L73,11.6h-1.4L70.3,3h1.1l0.9,6.6L73.3,3H74.4z"/>
	<path class="st2" d="M76,11.6h-1.2V4.5c0-1,0.5-1.5,1.4-1.5h0.9c0.9,0,1.4,0.5,1.4,1.5v7.1h-1.2V8.5H76V11.6z M77.4,7.4V4.5
		c0-0.3-0.2-0.5-0.5-0.5h-0.3C76.2,4,76,4.2,76,4.5v2.9H77.4z"/>
	<path class="st2" d="M79.5,11.6V3h1.2v8.6H79.5z"/>
	<path class="st2" d="M82.7,9.3V7.8c0-0.2,0-0.3,0-0.4c0-0.1,0.1-0.2,0.1-0.2s0.1-0.1,0.2-0.2l0.8-0.6C84,6.3,84,6.2,84.1,6.1
		c0-0.1,0-0.2,0-0.3V4.6c0-0.4-0.2-0.5-0.5-0.5h-0.4c-0.3,0-0.5,0.2-0.5,0.5v0.6h-1.2V4.5c0-1,0.5-1.5,1.4-1.5h1
		c0.9,0,1.4,0.5,1.4,1.5v1.8c0,0.2,0,0.3,0,0.4c0,0.1-0.1,0.2-0.1,0.2C85,6.9,84.9,7,84.8,7.1L84,7.7c-0.1,0.1-0.2,0.1-0.2,0.2
		c0,0.1,0,0.2,0,0.3v1H82.7z M83.9,10.1v1.5h-1.2v-1.5H83.9z"/>
	<path class="st2" d="M88.2,11.6V3H91v1h-1.7v2.6h1.5v1h-1.5v2.9H91v1H88.2z"/>
	<path class="st2" d="M95.6,3v7c0,1.1-0.5,1.6-1.4,1.6h-1c-0.9,0-1.4-0.5-1.4-1.6V3H93v7c0,0.4,0.2,0.6,0.5,0.6H94
		c0.3,0,0.5-0.2,0.5-0.6V3H95.6z"/>
	<path class="st2" d="M100.8,5.3V4.6c0-0.3-0.2-0.5-0.5-0.5h-0.2c-0.3,0-0.5,0.2-0.5,0.5V6c0,0.2,0,0.3,0.1,0.3
		c0.1,0.1,0.2,0.1,0.3,0.2l1.1,0.6c0.2,0.1,0.4,0.2,0.5,0.3c0.1,0.1,0.2,0.2,0.2,0.3C102,7.8,102,8,102,8.3v1.8c0,1-0.5,1.5-1.4,1.5
		h-0.7c-0.9,0-1.4-0.5-1.4-1.6V9.6h1.2v0.5c0,0.3,0.2,0.5,0.5,0.5h0.2c0.3,0,0.5-0.2,0.5-0.5V8.6c0-0.2,0-0.3-0.1-0.3
		s-0.2-0.1-0.3-0.2l-1.1-0.6c-0.2-0.1-0.4-0.2-0.5-0.3c-0.1-0.1-0.2-0.2-0.2-0.3c0-0.1-0.1-0.3-0.1-0.5V4.5c0-1,0.5-1.5,1.4-1.5h0.7
		c0.9,0,1.4,0.5,1.4,1.5v0.8H100.8z"/>
	<path class="st2" d="M104.3,11.6c-0.9,0-1.4-0.5-1.4-1.5V4.5c0-1,0.5-1.5,1.4-1.5h1.1c0.9,0,1.4,0.5,1.4,1.5v5.7
		c0,1-0.5,1.5-1.4,1.5H104.3z M104.5,10.6h0.6c0.3,0,0.5-0.2,0.5-0.5V4.5c0-0.3-0.2-0.5-0.5-0.5h-0.5c-0.3,0-0.5,0.2-0.5,0.5v5.5
		C104,10.4,104.2,10.6,104.5,10.6z"/>
	<path class="st2" d="M111.5,3v7c0,1.1-0.5,1.6-1.4,1.6h-1c-0.9,0-1.4-0.5-1.4-1.6V3h1.2v7c0,0.4,0.2,0.6,0.5,0.6h0.5
		c0.3,0,0.5-0.2,0.5-0.6V3H111.5z"/>
	<path class="st2" d="M113.5,10.1v1.5h-1.2v-1.5H113.5z"/>
	<path class="st2" d="M115.5,10.1v1.5h-1.2v-1.5H115.5z"/>
	<path class="st2" d="M117.4,10.1v1.5h-1.2v-1.5H117.4z"/>
</g>
</svg>
