<?xml version="1.0" standalone="no"?>
<!DOCTYPE svg PUBLIC "-//W3C//DTD SVG 20010904//EN"
 "http://www.w3.org/TR/2001/REC-SVG-20010904/DTD/svg10.dtd">
<svg version="1.0" xmlns="http://www.w3.org/2000/svg"
 width="1000.000000pt" height="1761.000000pt" viewBox="0 0 1000.000000 1761.000000"
 preserveAspectRatio="xMidYMid meet">

<g transform="translate(0.000000,1761.000000) scale(0.100000,-0.100000)"
fill="#000000" stroke="none">
<path d="M6505 17294 c-401 -12 -1277 -39 -1945 -58 -722 -21 -1237 -40 -1270
-47 -76 -16 -147 -49 -235 -110 -175 -121 -324 -344 -394 -589 -12 -43 -242
-1588 -546 -3670 -671 -4598 -1182 -8100 -1246 -8540 -48 -323 -50 -354 -46
-490 10 -282 91 -486 259 -646 83 -80 140 -108 306 -149 75 -19 560 -137 1077
-264 517 -126 1365 -334 1885 -461 520 -128 973 -234 1006 -237 168 -15 350
63 490 209 105 109 182 249 229 415 17 60 302 1994 910 6163 487 3341 938
6428 1001 6860 121 828 131 931 105 1077 -50 272 -200 465 -420 540 -84 29
-176 28 -1166 -3z m-2597 -436 c8 -8 12 -46 12 -104 0 -161 50 -274 147 -331
46 -27 55 -28 213 -34 l165 -5 -150 -2 c-82 -1 -167 3 -187 8 -56 16 -130 89
-163 162 -25 55 -30 79 -35 183 l-5 120 -31 3 c-25 2 -33 -1 -37 -17 -3 -12
-10 -21 -17 -21 -7 0 -9 8 -5 21 7 21 5 21 -83 17 -93 -4 -122 -16 -122 -48 0
-9 -9 -29 -20 -43 -11 -14 -20 -32 -20 -41 0 -9 -4 -16 -10 -16 -15 0 -12 -16
6 -34 10 -10 13 -24 9 -37 -5 -15 -4 -19 4 -15 6 4 11 22 11 41 0 39 8 65 21
65 5 0 9 -7 9 -16 0 -11 6 -15 20 -11 17 4 18 1 13 -26 -3 -16 -14 -38 -25
-49 -10 -10 -18 -29 -18 -42 0 -14 -5 -28 -10 -31 -6 -3 -8 -19 -5 -36 5 -28
-9 -41 -18 -16 -2 6 -7 9 -11 6 -3 -3 16 -28 42 -55 49 -49 67 -78 63 -101 -1
-10 22 -13 89 -13 79 0 90 -2 90 -17 0 -15 2 -16 10 -3 5 8 10 11 10 5 0 -5 4
-5 8 2 5 7 46 14 107 17 55 3 125 8 155 10 30 2 110 1 178 -3 68 -3 130 -2
138 2 9 5 21 4 29 -3 9 -7 28 -10 47 -6 19 3 55 -1 82 -9 36 -11 52 -12 57 -4
9 15 132 16 137 1 2 -7 10 -12 18 -12 8 0 14 -4 14 -10 0 -5 24 -9 53 -8 l52
2 0 -32 c0 -17 3 -32 7 -32 5 0 8 6 8 14 0 8 9 31 21 50 19 32 25 36 63 36
l42 0 23 -147 c13 -82 25 -174 27 -205 l3 -58 -39 0 c-22 0 -40 -4 -40 -10 0
-5 4 -10 10 -10 5 0 10 -15 9 -32 -1 -41 21 -148 30 -148 17 0 31 43 25 75 -7
42 7 46 30 9 17 -25 42 -152 53 -266 6 -61 16 -73 28 -35 6 19 9 15 17 -23 14
-70 24 -178 17 -198 -4 -10 -9 5 -13 38 -11 87 -17 110 -27 110 -7 0 -8 -29
-4 -77 14 -160 10 -241 -9 -222 -3 2 -8 52 -12 109 -4 61 -13 113 -20 125 -8
11 -14 31 -14 46 0 14 -2 28 -5 31 -3 3 -7 39 -9 80 -5 127 -32 141 -47 24 -4
-33 -16 -94 -25 -135 -16 -71 -16 -77 1 -107 15 -29 16 -41 6 -116 -8 -53 -9
-97 -3 -123 9 -42 7 -242 -3 -274 -3 -10 -13 -18 -22 -17 -11 1 -20 -10 -26
-29 -5 -16 -15 -43 -23 -59 -8 -16 -12 -31 -9 -34 3 -3 5 1 6 9 0 8 5 3 10
-10 10 -25 -1 -40 -28 -41 -6 0 -13 -12 -15 -27 -2 -19 -12 -32 -30 -41 -16
-7 -28 -21 -28 -32 0 -24 -10 -50 -19 -50 -9 0 -4 101 7 130 11 30 3 80 -13
80 -16 0 -26 25 -15 36 11 12 0 155 -12 148 -5 -3 -15 -1 -22 5 -7 6 -46 14
-87 17 -41 4 -79 11 -86 16 -15 12 -26 -7 -18 -32 5 -17 29 -26 58 -21 4 0 7
-3 7 -9 0 -9 -24 -14 -34 -7 -2 1 -12 -6 -23 -15 -13 -12 -23 -14 -33 -8 -23
15 -40 12 -40 -7 0 -9 -7 -25 -16 -34 -14 -15 -15 -23 -5 -47 9 -21 25 -32 66
-47 77 -26 71 -49 -15 -50 -33 0 -45 -4 -48 -16 -4 -22 46 -95 63 -91 14 3 31
-33 27 -55 -2 -7 6 -13 18 -13 11 0 23 -6 26 -14 3 -9 12 -12 21 -9 9 4 14 2
11 -3 -3 -5 -2 -20 3 -33 7 -17 15 -22 29 -18 17 4 18 2 9 -14 -11 -22 -4 -39
16 -39 8 0 17 -5 20 -10 9 -14 -14 -42 -28 -33 -18 11 -81 12 -94 1 -7 -6 -27
-8 -44 -6 l-31 5 7 -46 c8 -55 14 -223 8 -234 -3 -4 -11 -3 -18 3 -9 8 -14 6
-19 -7 -6 -15 -8 -15 -16 -3 -13 19 -13 63 0 76 13 13 16 76 4 97 -18 32 -49
-119 -36 -178 5 -25 8 -54 5 -64 -3 -11 0 -22 6 -25 18 -12 12 -44 -10 -60
-19 -13 -21 -20 -14 -63 14 -85 14 -86 -31 -130 -39 -38 -44 -47 -44 -89 0
-25 8 -59 17 -75 18 -31 11 -53 -10 -27 -6 9 -23 19 -37 23 -20 7 -23 5 -14
-6 6 -8 14 -26 18 -41 5 -21 3 -28 -9 -28 -18 0 -18 -5 -5 -30 7 -13 7 -21 0
-25 -6 -3 -14 5 -20 19 -5 14 -15 26 -21 26 -8 0 -8 -4 1 -15 14 -16 4 -56
-13 -52 -6 1 -12 -11 -12 -28 -1 -17 -5 -37 -10 -45 -5 -8 -9 -24 -8 -35 2
-11 0 -14 -3 -7 -11 24 -22 1 -14 -28 7 -23 5 -30 -6 -30 -8 0 -14 5 -14 10 0
18 -19 11 -31 -11 -8 -15 -8 -19 0 -15 19 12 12 -22 -7 -36 -24 -18 -17 -98 8
-83 5 3 10 4 10 1 0 -10 -36 -42 -53 -49 -15 -5 -16 -2 -10 21 6 25 5 26 -11
13 -9 -8 -15 -20 -12 -26 2 -7 0 -18 -5 -26 -6 -9 -9 2 -10 36 -1 44 -2 46 -9
20 -13 -50 -12 -87 3 -79 6 4 2 -4 -10 -18 -13 -13 -23 -33 -23 -44 0 -27 -10
-36 -26 -23 -11 9 -12 4 -9 -22 2 -20 -4 -47 -17 -73 -12 -23 -20 -55 -20 -73
1 -18 -3 -35 -8 -38 -6 -3 -10 4 -10 17 l-1 23 -13 -24 c-8 -14 -12 -30 -9
-37 2 -7 -5 -19 -17 -27 -18 -12 -19 -16 -5 -27 18 -15 19 -34 4 -62 -9 -17
-13 -18 -20 -7 -7 11 -9 11 -9 -2 0 -9 7 -19 15 -22 12 -5 12 -13 2 -48 -7
-23 -18 -44 -25 -47 -17 -5 -15 23 3 38 17 14 20 40 5 40 -5 0 -10 -6 -10 -13
0 -17 -36 -51 -42 -40 -3 4 -3 1 -1 -7 9 -30 8 -34 -7 -35 -8 0 -19 -10 -25
-22 -13 -30 -29 -30 -20 0 3 12 8 42 9 67 5 76 17 154 28 182 8 21 7 31 -5 43
-18 17 -37 20 -37 5 0 -5 7 -10 16 -10 11 0 14 -5 9 -17 -4 -10 -11 -33 -15
-51 -4 -18 -14 -39 -20 -47 -18 -22 -50 -19 -50 4 0 13 -6 18 -17 17 -12 -2
-17 -10 -15 -25 5 -32 -15 -53 -39 -40 -22 11 -26 41 -5 33 14 -5 30 32 20 48
-9 13 -31 9 -38 -8 -3 -9 -11 -12 -18 -8 -8 5 -9 2 -5 -10 6 -14 3 -16 -13
-11 -20 6 -22 3 -34 -75 -3 -19 -19 -62 -36 -95 -84 -170 -105 -235 -80 -250
6 -3 10 -12 10 -18 0 -7 -7 -4 -14 5 -12 17 -14 17 -29 0 -9 -10 -20 -34 -23
-53 -4 -19 -14 -42 -22 -52 -11 -12 -13 -20 -5 -25 5 -4 14 -17 18 -30 6 -21
3 -20 -40 12 l-46 36 -30 -31 c-20 -20 -29 -25 -29 -14 0 8 -7 15 -15 15 -8 0
-15 -7 -15 -15 0 -8 -5 -24 -12 -35 -10 -16 -8 -25 18 -57 56 -70 71 -119 23
-74 -13 12 -26 21 -30 21 -5 0 -20 12 -34 26 -17 17 -30 23 -36 17 -11 -11 -2
-43 12 -43 4 0 6 -7 3 -15 -4 -9 0 -15 10 -15 9 0 16 -4 16 -9 0 -5 3 -16 6
-25 4 -10 -10 -30 -39 -57 -25 -22 -44 -46 -41 -53 3 -7 -7 -23 -21 -36 -14
-13 -25 -18 -25 -11 0 9 -5 9 -21 1 -20 -11 -21 -37 -2 -33 6 1 16 -10 22 -24
11 -23 10 -25 -8 -20 -12 3 -22 -1 -25 -9 -3 -8 -1 -14 4 -14 16 0 11 -26 -9
-44 -17 -16 -19 -16 -25 6 -7 23 -8 22 -21 -7 -14 -32 -2 -63 14 -36 13 21 21
-2 12 -35 -5 -16 -14 -28 -20 -26 -18 4 -25 -26 -10 -45 12 -15 12 -16 -7 -11
-11 3 -29 -1 -39 -8 -10 -8 -13 -14 -7 -14 10 0 10 -5 2 -20 -16 -29 -30 -15
-23 23 7 42 -9 25 -26 -27 -12 -35 -12 -41 3 -51 25 -19 21 -47 -6 -43 -18 2
-23 -2 -22 -19 0 -13 -5 -23 -13 -23 -7 0 -13 -11 -13 -24 0 -13 -3 -32 -6
-41 -6 -13 -9 -14 -16 -3 -8 10 -11 10 -15 0 -2 -7 -12 -19 -21 -28 -11 -12
-12 -18 -3 -23 9 -6 8 -11 -3 -21 -13 -10 -17 -9 -25 11 -5 14 -5 25 0 27 14
6 11 44 -3 40 -7 -3 -16 -24 -20 -48 -6 -35 -4 -48 13 -71 12 -17 19 -40 17
-56 -3 -30 -22 -34 -24 -5 -2 37 -4 41 -20 35 -10 -4 -14 -13 -10 -28 7 -27
-3 -39 -20 -24 -7 6 -18 8 -24 4 -16 -10 -12 -35 8 -35 9 0 30 -11 45 -24 16
-14 34 -23 41 -20 7 3 21 -7 31 -22 11 -17 12 -23 4 -18 -19 12 -100 14 -121
3 -11 -6 -18 -5 -22 4 -3 6 -3 2 0 -11 4 -15 0 -24 -11 -28 -23 -9 -31 4 -18
26 9 14 9 21 -1 29 -10 8 -16 5 -24 -15 -15 -32 -6 -71 20 -85 19 -10 19 -11
1 -24 -10 -7 -21 -11 -25 -8 -13 8 -21 -28 -9 -40 17 -17 13 -29 -8 -22 -24 7
-36 -21 -13 -30 15 -6 15 -8 -3 -18 -11 -6 -24 -12 -28 -12 -4 0 -12 -7 -17
-15 -5 -8 -10 -10 -10 -5 0 6 -9 11 -20 12 -11 1 -20 -2 -20 -7 0 -5 -3 -17
-6 -27 -6 -15 -4 -16 7 -5 18 16 29 15 29 -3 0 -8 -6 -14 -12 -12 -7 1 -14 -8
-16 -20 -2 -13 -7 -23 -12 -23 -4 0 -10 -9 -13 -20 -4 -17 -2 -20 14 -15 23 8
25 -7 5 -38 -11 -16 -12 -34 -7 -65 7 -37 6 -42 -7 -37 -19 7 -31 -11 -24 -37
3 -13 11 -18 23 -15 25 7 24 -11 -1 -38 -19 -20 -19 -27 -9 -73 6 -29 15 -52
21 -52 6 0 8 -7 5 -15 -4 -8 -2 -17 3 -20 6 -4 10 -19 10 -34 0 -35 19 -91 31
-91 5 0 9 -7 9 -15 0 -9 9 -35 20 -57 24 -50 24 -48 6 -48 -7 0 -16 9 -19 20
-3 11 -11 20 -19 20 -10 0 -10 -2 0 -8 8 -6 10 -16 4 -31 -8 -21 -8 -21 -32
11 -30 41 -63 98 -95 166 -27 57 -40 67 -32 25 7 -34 -2 -83 -15 -83 -5 0 -17
17 -26 38 -10 20 -30 56 -45 79 -15 24 -27 50 -27 60 0 10 -10 41 -22 71 -20
49 -23 51 -33 31 -11 -20 -13 -20 -32 17 -24 47 -41 54 -45 17 -3 -26 -4 -25
-27 22 -37 77 -54 95 -75 83 -13 -8 -21 -7 -27 3 -12 19 -11 29 1 29 6 0 10 5
10 11 0 5 -5 7 -11 4 -6 -4 -16 1 -23 11 -12 16 -15 9 -26 -57 -7 -41 -16 -77
-20 -81 -6 -7 25 215 114 822 19 135 63 432 96 660 34 228 67 460 75 515 8 55
42 287 75 515 33 228 67 460 75 515 19 131 130 892 155 1063 11 73 42 287 70
475 27 188 77 529 110 757 33 228 76 523 95 655 40 271 52 328 93 417 57 125
151 226 262 284 52 27 64 29 210 35 302 11 495 10 508 -3z m2819 -20 c-3 -8
-6 -5 -6 6 -1 11 2 17 5 13 3 -3 4 -12 1 -19z m-3055 -260 c-6 -6 -16 -7 -23
-3 -9 6 -7 12 7 22 21 15 34 -1 16 -19z m8 -34 c0 -13 -21 -44 -30 -44 -14 0
-12 24 2 38 13 13 28 16 28 6z m4019 -26 c16 -31 0 -75 -31 -83 -13 -3 -93 -4
-178 -3 l-155 3 0 40 c0 56 18 62 198 64 151 2 153 2 166 -21z m-2871 -125
c-53 -2 -143 -2 -200 0 -57 1 -13 3 97 3 110 0 156 -2 103 -3z m2860 -50 c2
-10 -7 -31 -18 -46 l-21 -27 -158 0 c-168 0 -181 4 -181 49 0 53 7 56 177 61
166 5 195 0 201 -37z m-3718 25 c0 -5 -20 -8 -45 -8 -25 0 -45 -4 -45 -10 0
-5 -7 -10 -15 -10 -22 0 -18 19 6 28 26 10 99 9 99 0z m1727 -24 c65 -13 105
-135 77 -241 -29 -113 -93 -177 -176 -176 -39 1 -53 6 -73 27 -54 58 -58 195
-9 286 30 55 45 71 89 94 33 17 48 19 92 10z m-296 -21 c90 -76 67 -288 -41
-366 -34 -24 -47 -27 -120 -27 l-82 0 7 53 c8 64 44 303 51 335 4 21 9 22 84
22 61 0 85 -4 101 -17z m2265 -127 c3 -13 1 -33 -5 -45 -10 -19 -22 -20 -169
-23 -183 -3 -202 0 -202 40 0 49 10 52 197 52 l173 0 6 -24z m-2506 -126 c0
-22 -4 -40 -10 -40 -11 0 -14 63 -3 73 11 12 13 8 13 -33z m90 -456 c0 -21 -4
-33 -10 -29 -17 10 -11 65 7 65 2 0 3 -16 3 -36z m27 -381 c-3 -10 -5 -4 -5
12 0 17 2 24 5 18 2 -7 2 -21 0 -30z m-11 -90 c-11 -11 -19 6 -11 24 8 17 8
17 12 0 3 -10 2 -21 -1 -24z m-16 -30 c0 -24 -16 -48 -23 -36 -8 13 3 53 14
53 5 0 9 -8 9 -17z m-380 -339 c0 -19 -25 -18 -44 2 -25 24 -19 34 14 23 17
-6 30 -17 30 -25z m-266 -979 c-22 -58 -33 -57 -30 0 2 31 10 51 22 60 27 20
30 -3 8 -60z m41 -5 c3 -5 1 -10 -4 -10 -6 0 -11 5 -11 10 0 6 2 10 4 10 3 0
8 -4 11 -10z m-75 -155 c-7 -9 -15 -13 -17 -11 -7 7 7 26 19 26 6 0 6 -6 -2
-15z m-150 -326 c-7 -11 -14 -18 -17 -15 -3 3 0 12 7 21 18 21 23 19 10 -6z
m-350 -747 c0 -13 -12 -22 -22 -16 -10 6 -1 24 13 24 5 0 9 -4 9 -8z m-136
-250 c5 -9 -16 -77 -27 -88 -11 -11 -11 71 0 89 6 9 21 9 27 -1z m-359 -272
c3 -5 1 -10 -4 -10 -6 0 -11 5 -11 10 0 6 2 10 4 10 3 0 8 -4 11 -10z m-23
-990 c35 0 68 -48 68 -100 0 -45 -18 -111 -36 -131 -12 -14 -12 -20 1 -45 8
-16 15 -45 15 -64 0 -69 -38 -159 -67 -160 -6 0 -13 -5 -15 -11 -3 -9 -32 -9
-111 -2 -59 6 -110 12 -112 15 -8 8 55 447 71 497 4 11 20 13 81 7 42 -3 89
-6 105 -6z m293 -28 c63 -6 70 -9 73 -31 2 -12 1 -34 -3 -48 -6 -25 -7 -25
-86 -21 -77 5 -80 4 -84 -19 -3 -12 -7 -34 -10 -47 -5 -22 -1 -24 63 -32 63
-8 67 -11 70 -36 2 -15 -2 -37 -8 -49 -11 -20 -17 -21 -75 -15 -59 6 -63 5
-69 -16 -3 -13 -6 -39 -6 -59 l0 -36 73 -9 72 -9 -1 -43 c0 -23 -4 -45 -7 -48
-9 -9 -227 12 -238 23 -5 5 -2 52 6 108 9 55 25 163 36 240 12 77 25 145 30
151 5 7 27 10 52 7 23 -2 74 -7 112 -11z m192 -24 c4 -7 19 -69 33 -138 l26
-124 63 128 64 128 35 -6 c19 -3 37 -8 40 -11 10 -10 -59 -489 -71 -502 -7 -6
-24 -9 -39 -6 -34 6 -34 12 -9 173 10 63 18 116 17 117 -1 1 -23 -40 -49 -91
-26 -52 -53 -99 -61 -105 -25 -21 -43 11 -62 109 l-18 95 -18 -125 c-10 -69
-20 -131 -23 -137 -6 -17 -74 -17 -81 0 -5 15 61 480 71 497 9 14 72 13 82 -2z
m471 -37 c14 -9 27 -86 37 -233 4 -54 10 -100 14 -102 4 -3 16 20 26 50 10 31
38 104 61 162 l43 107 37 -2 c46 -3 50 -7 36 -36 -6 -12 -41 -96 -77 -187
-119 -294 -114 -286 -151 -283 -14 1 -28 3 -29 5 -4 4 -34 211 -40 283 -3 33
-11 95 -16 137 -6 43 -9 85 -5 93 6 16 43 20 64 6z m360 -36 c7 -6 -59 -491
-69 -506 -11 -18 -79 -2 -79 19 0 22 58 450 65 481 5 21 10 23 42 18 19 -4 38
-9 41 -12z m147 -70 c13 -33 35 -91 50 -130 43 -115 48 -126 51 -123 1 2 10
62 19 133 21 165 24 173 64 167 23 -3 31 -9 31 -25 0 -27 -59 -468 -65 -484
-2 -7 -18 -13 -34 -13 -28 0 -31 4 -79 128 -27 70 -53 138 -57 151 -12 39 -21
11 -34 -104 -18 -157 -17 -155 -56 -155 -18 0 -37 6 -43 13 -12 14 55 498 71
508 5 4 21 4 34 0 19 -5 31 -21 48 -66z m494 -3 c41 -47 61 -102 61 -174 0
-134 -31 -222 -102 -283 l-43 -37 -94 6 c-52 3 -96 8 -99 10 -4 5 55 480 64
505 4 11 22 13 97 7 83 -6 94 -10 116 -34z m370 -39 c108 -130 71 -376 -69
-471 -46 -31 -121 -23 -158 17 -54 57 -74 138 -61 244 12 93 46 164 103 213
35 30 46 34 97 34 54 0 59 -2 88 -37z m-3938 -880 c-12 -20 -14 -14 -5 12 4 9
9 14 11 11 3 -2 0 -13 -6 -23z m699 -29 c0 -8 9 -35 20 -60 39 -86 42 -96 23
-92 -9 2 -20 13 -23 26 -3 13 -9 22 -15 21 -24 -4 -58 95 -38 114 12 13 33 7
33 -9z m-703 -26 c-3 -7 -5 -2 -5 12 0 14 2 19 5 13 2 -7 2 -19 0 -25z m-101
-882 c17 -44 11 -62 -7 -23 -7 15 -16 24 -20 21 -11 -6 -12 60 -1 70 4 4 8 0
10 -11 2 -10 10 -35 18 -57z m44 -103 c34 -72 90 -214 90 -227 0 -13 -24 36
-79 162 -38 86 -47 112 -37 112 2 0 14 -21 26 -47z m-60 -103 c12 -23 19 -44
16 -47 -2 -3 -14 13 -25 35 -11 22 -25 42 -30 44 -6 2 -7 22 -4 48 l7 45 7
-42 c4 -22 17 -60 29 -83z m-65 -157 c-4 -38 -11 -72 -17 -78 -7 -7 -8 -4 -5
10 3 11 9 46 13 78 3 31 9 57 11 57 3 0 2 -30 -2 -67z"/>
<path d="M3581 16804 c0 -11 3 -14 6 -6 3 7 2 16 -1 19 -3 4 -6 -2 -5 -13z"/>
<path d="M3521 16752 l-23 -4 22 -15 c23 -16 34 -13 28 9 -2 7 -13 12 -27 10z"/>
<path d="M3570 16380 c0 -13 12 -28 30 -38 17 -9 30 -26 31 -37 0 -12 3 -15 6
-7 7 18 -17 62 -34 62 -7 0 -13 6 -13 14 0 8 -4 18 -10 21 -5 3 -10 -3 -10
-15z"/>
<path d="M3560 16330 c0 -5 5 -10 10 -10 6 0 10 -7 10 -16 0 -8 4 -13 9 -10
13 9 1 46 -15 46 -8 0 -14 -4 -14 -10z"/>
<path d="M4455 16276 c-10 -80 -1 -91 11 -13 6 37 7 67 3 67 -4 0 -11 -24 -14
-54z"/>
<path d="M3370 16299 c0 -5 5 -7 10 -4 6 3 10 8 10 11 0 2 -4 4 -10 4 -5 0
-10 -5 -10 -11z"/>
<path d="M4605 16279 c-9 -17 -14 -33 -11 -36 3 -3 9 3 12 13 4 10 14 27 22
37 9 10 11 17 4 17 -6 0 -19 -14 -27 -31z"/>
<path d="M4567 16277 c-10 -26 -9 -75 2 -82 14 -8 21 26 13 65 -6 28 -9 31
-15 17z"/>
<path d="M4850 16274 c0 -8 5 -12 10 -9 6 3 10 10 10 16 0 5 -4 9 -10 9 -5 0
-10 -7 -10 -16z"/>
<path d="M4862 16220 c0 -14 2 -19 5 -12 2 6 2 18 0 25 -3 6 -5 1 -5 -13z"/>
<path d="M4692 16218 c-6 -6 -12 -19 -12 -27 1 -14 3 -13 14 2 15 20 52 23 60
5 3 -7 5 -4 3 7 -3 24 -46 32 -65 13z"/>
<path d="M4551 16174 c0 -11 3 -14 6 -6 3 7 2 16 -1 19 -3 4 -6 -2 -5 -13z"/>
<path d="M4661 16144 c0 -11 3 -14 6 -6 3 7 2 16 -1 19 -3 4 -6 -2 -5 -13z"/>
<path d="M5012 16135 c0 -16 2 -22 5 -12 2 9 2 23 0 30 -3 6 -5 -1 -5 -18z"/>
<path d="M4665 16080 c-3 -5 -1 -10 4 -10 6 0 11 5 11 10 0 6 -2 10 -4 10 -3
0 -8 -4 -11 -10z"/>
<path d="M4730 16072 c0 -7 -15 -12 -32 -13 -31 -1 -31 -1 -8 -9 25 -7 61 12
47 26 -4 4 -7 2 -7 -4z"/>
<path d="M4551 16054 c0 -11 3 -14 6 -6 3 7 2 16 -1 19 -3 4 -6 -2 -5 -13z"/>
<path d="M4851 16014 c0 -11 3 -14 6 -6 3 7 2 16 -1 19 -3 4 -6 -2 -5 -13z"/>
<path d="M4950 15990 c0 -5 16 -10 35 -10 21 0 35 -5 35 -12 0 -9 4 -8 10 2
17 26 11 30 -35 30 -25 0 -45 -4 -45 -10z"/>
<path d="M4522 15960 c0 -14 2 -19 5 -12 2 6 2 18 0 25 -3 6 -5 1 -5 -13z"/>
<path d="M4790 15969 c0 -5 5 -7 10 -4 6 3 10 8 10 11 0 2 -4 4 -10 4 -5 0
-10 -5 -10 -11z"/>
<path d="M4750 15940 c0 -5 -10 -10 -23 -10 -13 0 -29 -6 -36 -12 -11 -10 -14
-10 -18 0 -6 14 -63 17 -63 2 0 -5 10 -10 23 -10 19 0 22 -5 21 -38 -1 -20 -4
-45 -9 -54 -4 -10 -5 -25 -2 -33 4 -8 2 -17 -3 -20 -5 -3 -9 -30 -9 -60 1 -30
5 -52 10 -49 11 7 11 6 -2 -36 -6 -19 -12 -48 -13 -65 -2 -16 -6 -37 -10 -46
-5 -12 -1 -18 14 -22 17 -4 20 -10 14 -34 -3 -15 -14 -34 -22 -41 -14 -10 -14
-16 -4 -33 11 -17 11 -23 0 -36 -10 -12 -9 -17 4 -27 17 -12 20 -69 4 -58 -5
3 -7 -2 -3 -11 4 -12 2 -14 -10 -10 -13 5 -15 0 -11 -25 2 -17 1 -29 -3 -27
-4 3 -10 -2 -13 -11 -5 -12 -1 -14 15 -9 17 6 20 3 17 -12 -2 -10 -8 -18 -15
-18 -22 0 -25 -14 -8 -31 13 -13 16 -28 12 -58 -6 -39 -4 -42 31 -58 20 -10
55 -21 77 -24 22 -3 58 -14 81 -25 22 -10 48 -19 57 -19 9 0 19 -5 23 -11 11
-18 24 13 17 41 -3 14 -14 37 -24 52 -11 14 -19 31 -19 37 0 12 -31 81 -91
206 -40 81 -49 120 -27 113 11 -4 67 -105 87 -158 38 -101 75 -177 91 -190 10
-8 20 -30 22 -49 2 -19 8 -36 13 -38 6 -2 9 41 8 119 -3 176 -9 215 -41 267
-1 3 -9 -4 -17 -15 -16 -21 -15 -24 -20 111 -4 146 -29 275 -54 283 -14 5 -31
-40 -31 -79 0 -33 -16 -69 -30 -69 -9 0 -13 42 -9 100 3 52 2 87 -4 153 -4 42
-1 79 5 95 6 15 12 29 12 32 1 3 5 11 9 18 5 8 3 12 -7 12 -9 0 -16 -4 -16
-10z"/>
<path d="M4478 15923 c7 -3 16 -2 19 1 4 3 -2 6 -13 5 -11 0 -14 -3 -6 -6z"/>
<path d="M4850 15923 c0 -5 13 -8 29 -8 16 0 33 3 37 8 4 4 -9 7 -29 7 -20 0
-37 -3 -37 -7z"/>
<path d="M4902 15400 c0 -14 2 -19 5 -12 2 6 2 18 0 25 -3 6 -5 1 -5 -13z"/>
<path d="M5061 15264 c0 -11 3 -14 6 -6 3 7 2 16 -1 19 -3 4 -6 -2 -5 -13z"/>
<path d="M5060 15200 c0 -25 4 -39 10 -35 6 3 10 19 10 35 0 16 -4 32 -10 35
-6 4 -10 -10 -10 -35z"/>
<path d="M5030 15011 c0 -12 5 -21 10 -21 6 0 10 6 10 14 0 8 -4 18 -10 21 -5
3 -10 -3 -10 -14z"/>
<path d="M4560 14810 c0 -5 5 -10 10 -10 6 0 10 5 10 10 0 6 -4 10 -10 10 -5
0 -10 -4 -10 -10z"/>
<path d="M4945 14620 c-3 -5 1 -10 10 -10 9 0 13 5 10 10 -3 6 -8 10 -10 10
-2 0 -7 -4 -10 -10z"/>
<path d="M4698 14403 c-24 -6 -23 -23 2 -23 11 0 20 7 20 15 0 8 -1 14 -2 14
-2 -1 -11 -3 -20 -6z"/>
<path d="M4605 14291 c-3 -5 -1 -12 5 -16 5 -3 10 1 10 9 0 18 -6 21 -15 7z"/>
<path d="M4430 13504 c0 -8 5 -12 10 -9 6 3 10 10 10 16 0 5 -4 9 -10 9 -5 0
-10 -7 -10 -16z"/>
<path d="M4226 13045 c-3 -8 -1 -15 4 -15 6 0 10 7 10 15 0 8 -2 15 -4 15 -2
0 -6 -7 -10 -15z"/>
<path d="M4120 12914 c0 -8 5 -12 10 -9 6 4 8 11 5 16 -9 14 -15 11 -15 -7z"/>
<path d="M4080 12798 c0 -19 2 -20 10 -8 13 19 13 30 0 30 -5 0 -10 -10 -10
-22z"/>
<path d="M3208 12083 c7 -3 16 -2 19 1 4 3 -2 6 -13 5 -11 0 -14 -3 -6 -6z"/>
<path d="M3310 11999 c0 -18 2 -19 15 -9 15 12 12 30 -6 30 -5 0 -9 -10 -9
-21z"/>
<path d="M3329 11973 c-10 -11 -10 -14 -1 -9 7 4 15 1 18 -8 3 -9 10 -16 15
-16 14 0 11 26 -5 39 -10 9 -17 7 -27 -6z"/>
<path d="M3260 11900 c0 -5 5 -10 10 -10 6 0 10 5 10 10 0 6 -4 10 -10 10 -5
0 -10 -4 -10 -10z"/>
<path d="M2997 11893 c-4 -3 -7 -11 -7 -17 0 -6 5 -5 12 2 6 6 9 14 7 17 -3 3
-9 2 -12 -2z"/>
<path d="M3026 11844 c-6 -15 -9 -16 -15 -5 -16 25 -33 -28 -38 -111 -4 -68
-2 -78 13 -78 12 0 15 6 11 21 -3 11 1 39 10 62 9 23 15 52 14 64 0 12 6 26
14 30 9 5 11 13 6 21 -6 11 -10 10 -15 -4z"/>
<path d="M3160 11850 c0 -5 5 -10 10 -10 6 0 10 5 10 10 0 6 -4 10 -10 10 -5
0 -10 -4 -10 -10z"/>
<path d="M3051 11799 c-7 -12 -10 -23 -8 -26 3 -3 11 5 17 17 15 28 8 35 -9 9z"/>
<path d="M3080 11708 c0 -9 5 -20 10 -23 13 -8 13 5 0 25 -8 13 -10 13 -10 -2z"/>
<path d="M3210 11664 c0 -8 5 -12 10 -9 6 3 10 10 10 16 0 5 -4 9 -10 9 -5 0
-10 -7 -10 -16z"/>
<path d="M3130 11646 c0 -8 5 -18 10 -21 6 -3 10 3 10 14 0 12 -4 21 -10 21
-5 0 -10 -6 -10 -14z"/>
<path d="M2990 11329 c0 -11 4 -18 10 -14 5 3 7 12 3 20 -7 21 -13 19 -13 -6z"/>
<path d="M3030 11304 c0 -8 5 -12 10 -9 6 3 10 10 10 16 0 5 -4 9 -10 9 -5 0
-10 -7 -10 -16z"/>
<path d="M2040 10562 c0 -16 33 -100 86 -219 32 -73 46 -51 19 28 -18 50 -94
209 -101 209 -2 0 -4 -8 -4 -18z"/>
<path d="M5602 16217 c-26 -28 -40 -123 -23 -156 10 -17 20 -21 44 -19 60 6
97 103 65 173 -15 32 -56 34 -86 2z"/>
<path d="M5285 16228 c-4 -13 -25 -161 -25 -179 0 -15 44 -10 66 9 65 54 51
182 -21 182 -8 0 -18 -6 -20 -12z"/>
<path d="M3432 10909 l-9 -48 39 -6 c46 -8 68 6 68 44 0 38 -10 48 -52 53 -36
4 -36 4 -46 -43z"/>
<path d="M3406 10726 c-3 -16 -6 -42 -6 -58 0 -28 1 -29 47 -26 39 2 50 8 62
30 13 22 13 30 2 51 -11 20 -23 26 -56 29 -41 3 -44 1 -49 -26z"/>
<path d="M5366 10792 c-9 -16 -47 -322 -41 -332 11 -17 61 -11 95 13 42 28 69
99 70 184 0 95 -14 114 -97 138 -12 3 -24 2 -27 -3z"/>
<path d="M5743 10741 c-45 -28 -73 -97 -73 -180 0 -102 41 -155 103 -132 84
32 118 244 50 307 -31 29 -39 29 -80 5z"/>
<path d="M2967 17103 c-105 -87 -204 -218 -281 -371 -44 -87 -103 -258 -111
-322 -4 -33 1 -23 20 40 50 164 146 339 256 469 47 55 134 132 219 194 31 22
8 12 -42 -20 -21 -13 -38 -18 -38 -13 0 6 -4 8 -10 5 -21 -13 -8 7 23 35 50
46 28 35 -36 -17z"/>
<path d="M1151 6634 c0 -11 3 -14 6 -6 3 7 2 16 -1 19 -3 4 -6 -2 -5 -13z"/>
<path d="M1131 6494 c0 -11 3 -14 6 -6 3 7 2 16 -1 19 -3 4 -6 -2 -5 -13z"/>
<path d="M1121 6424 c0 -11 3 -14 6 -6 3 7 2 16 -1 19 -3 4 -6 -2 -5 -13z"/>
<path d="M1111 6354 c0 -11 3 -14 6 -6 3 7 2 16 -1 19 -3 4 -6 -2 -5 -13z"/>
<path d="M1102 6290 c0 -14 2 -19 5 -12 2 6 2 18 0 25 -3 6 -5 1 -5 -13z"/>
<path d="M1092 6220 c0 -14 2 -19 5 -12 2 6 2 18 0 25 -3 6 -5 1 -5 -13z"/>
<path d="M1082 6155 c0 -16 2 -22 5 -12 2 9 2 23 0 30 -3 6 -5 -1 -5 -18z"/>
<path d="M1072 6080 c0 -14 2 -19 5 -12 2 6 2 18 0 25 -3 6 -5 1 -5 -13z"/>
<path d="M1062 6015 c0 -16 2 -22 5 -12 2 9 2 23 0 30 -3 6 -5 -1 -5 -18z"/>
<path d="M1052 5945 c0 -16 2 -22 5 -12 2 9 2 23 0 30 -3 6 -5 -1 -5 -18z"/>
<path d="M1042 5875 c0 -16 2 -22 5 -12 2 9 2 23 0 30 -3 6 -5 -1 -5 -18z"/>
<path d="M1032 5810 c0 -19 2 -27 5 -17 2 9 2 25 0 35 -3 9 -5 1 -5 -18z"/>
<path d="M1022 5740 c0 -19 2 -27 5 -17 2 9 2 25 0 35 -3 9 -5 1 -5 -18z"/>
<path d="M1012 5675 c0 -16 2 -22 5 -12 2 9 2 23 0 30 -3 6 -5 -1 -5 -18z"/>
<path d="M1002 5605 c0 -16 2 -22 5 -12 2 9 2 23 0 30 -3 6 -5 -1 -5 -18z"/>
<path d="M6821 5594 c0 -11 3 -14 6 -6 3 7 2 16 -1 19 -3 4 -6 -2 -5 -13z"/>
<path d="M992 5540 c0 -19 2 -27 5 -17 2 9 2 25 0 35 -3 9 -5 1 -5 -18z"/>
<path d="M982 5465 c0 -16 2 -22 5 -12 2 9 2 23 0 30 -3 6 -5 -1 -5 -18z"/>
<path d="M6801 5464 c0 -11 3 -14 6 -6 3 7 2 16 -1 19 -3 4 -6 -2 -5 -13z"/>
<path d="M972 5400 c0 -19 2 -27 5 -17 2 9 2 25 0 35 -3 9 -5 1 -5 -18z"/>
<path d="M6792 5400 c0 -14 2 -19 5 -12 2 6 2 18 0 25 -3 6 -5 1 -5 -13z"/>
<path d="M962 5330 c0 -19 2 -27 5 -17 2 9 2 25 0 35 -3 9 -5 1 -5 -18z"/>
<path d="M6782 5340 c0 -14 2 -19 5 -12 2 6 2 18 0 25 -3 6 -5 1 -5 -13z"/>
<path d="M952 5260 c0 -19 2 -27 5 -17 2 9 2 25 0 35 -3 9 -5 1 -5 -18z"/>
<path d="M6772 5270 c0 -14 2 -19 5 -12 2 6 2 18 0 25 -3 6 -5 1 -5 -13z"/>
<path d="M886 4825 c-32 -220 -76 -517 -98 -660 -35 -227 -39 -275 -34 -375 7
-163 38 -303 95 -430 17 -40 19 -41 14 -12 -3 17 -3 32 0 32 3 0 19 -22 36
-50 41 -67 49 -64 9 3 -80 135 -127 305 -134 487 -5 119 -1 154 85 750 50 344
90 632 89 640 -2 8 -30 -165 -62 -385z"/>
<path d="M6761 5204 c0 -11 3 -14 6 -6 3 7 2 16 -1 19 -3 4 -6 -2 -5 -13z"/>
<path d="M6752 5140 c0 -14 2 -19 5 -12 2 6 2 18 0 25 -3 6 -5 1 -5 -13z"/>
<path d="M6742 5075 c0 -16 2 -22 5 -12 2 9 2 23 0 30 -3 6 -5 -1 -5 -18z"/>
<path d="M6732 5015 c0 -16 2 -22 5 -12 2 9 2 23 0 30 -3 6 -5 -1 -5 -18z"/>
<path d="M6722 4945 c0 -16 2 -22 5 -12 2 9 2 23 0 30 -3 6 -5 -1 -5 -18z"/>
<path d="M6712 4880 c0 -19 2 -27 5 -17 2 9 2 25 0 35 -3 9 -5 1 -5 -18z"/>
<path d="M6702 4815 c0 -16 2 -22 5 -12 2 9 2 23 0 30 -3 6 -5 -1 -5 -18z"/>
<path d="M6685 4725 c-3 -31 -5 -59 -2 -61 3 -3 8 20 12 51 3 31 5 59 2 61 -3
3 -8 -20 -12 -51z"/>
<path d="M6658 4545 c-10 -61 -45 -283 -78 -495 -33 -212 -74 -473 -91 -580
-17 -107 -42 -267 -55 -355 -75 -473 -89 -535 -159 -680 -72 -149 -184 -287
-309 -382 -75 -57 -202 -118 -285 -137 -80 -19 -87 -26 -24 -26 147 0 318 55
451 143 79 53 226 193 217 207 -3 4 2 11 11 14 8 3 12 10 9 16 -3 6 1 13 9 16
9 3 13 10 10 15 -3 5 2 12 10 15 9 3 13 10 10 15 -3 5 0 9 6 9 6 0 8 5 5 10
-3 6 1 13 9 16 9 3 13 10 10 15 -3 5 0 9 6 9 6 0 8 5 5 10 -3 6 -1 10 5 10 6
0 8 5 5 10 -3 6 -2 10 4 10 6 0 7 7 4 17 -4 11 -3 14 5 9 8 -4 10 -2 6 7 -3 8
2 21 10 30 8 8 13 17 10 19 -2 3 3 25 11 49 28 77 43 158 90 463 l45 298 0
447 -1 446 31 205 c17 112 29 211 28 219 -2 9 -11 -34 -20 -94z"/>
<path d="M6141 2637 c-13 -39 -30 -85 -38 -102 -13 -27 -12 -28 1 -11 17 20
71 175 64 181 -2 3 -15 -28 -27 -68z"/>
</g>
</svg>
